<svg width="25" height="24" viewBox="0 0 25 24" fill="none" xmlns="http://www.w3.org/2000/svg">
<path d="M14.9296 5.18C15.1196 5.18 15.3096 5.25 15.4596 5.4L21.5296 11.47C21.8196 11.76 21.8196 12.24 21.5296 12.53L15.4596 18.6C15.1696 18.89 14.6896 18.89 14.3996 18.6C14.1096 18.31 14.1096 17.83 14.3996 17.54L19.9396 12L14.3996 6.46C14.1096 6.17 14.1096 5.69 14.3996 5.4C14.5396 5.25 14.7396 5.18 14.9296 5.18Z" fill="white"/>
<path d="M4.00008 11.25L20.8301 11.25C21.2401 11.25 21.5801 11.59 21.5801 12C21.5801 12.41 21.2401 12.75 20.8301 12.75L4.00008 12.75C3.59008 12.75 3.25008 12.41 3.25008 12C3.25008 11.59 3.59008 11.25 4.00008 11.25Z" fill="white"/>
</svg>
