<svg width="24" height="24" viewBox="0 0 24 24" fill="none" xmlns="http://www.w3.org/2000/svg">
<mask id="path-1-inside-1_6004_12801" fill="white">
<path d="M12.8335 3.71196V2.8363C12.8335 2.61533 12.7457 2.40342 12.5894 2.24717C12.4331 2.09092 12.2212 2.00314 12.0002 2.00314C11.7791 2.00314 11.5672 2.09092 11.4109 2.24717C11.2546 2.40342 11.1668 2.61533 11.1668 2.8363V3.71196C9.4891 3.86234 7.88547 4.47281 6.53259 5.47613C5.17971 6.47944 4.1301 7.83665 3.49939 9.39822C2.86868 10.9598 2.68136 12.6651 2.95806 14.3263C3.23476 15.9876 3.96475 17.5402 5.06759 18.8131C4.63206 19.0285 4.2681 19.3652 4.01956 19.7827C3.77102 20.2001 3.6485 20.6805 3.66674 21.166C3.66674 21.3869 3.75454 21.5989 3.91082 21.7551C4.0671 21.9114 4.27907 21.9991 4.50008 21.9991C4.7211 21.9991 4.93306 21.9114 5.08934 21.7551C5.24562 21.5989 5.33342 21.3869 5.33342 21.166C5.3265 20.9092 5.41871 20.6595 5.59094 20.4689C5.76317 20.2782 6.00219 20.1612 6.25843 20.142C6.31575 20.1311 6.37166 20.1138 6.4251 20.0903C8.02139 21.3282 9.98416 22 12.0043 22C14.0245 22 15.9872 21.3282 17.5835 20.0903C17.6323 20.1128 17.6831 20.1307 17.7352 20.1437C17.9923 20.1612 18.2328 20.2773 18.4064 20.4678C18.5799 20.6582 18.6733 20.9084 18.6669 21.166C18.6669 21.3869 18.7547 21.5989 18.911 21.7551C19.0672 21.9114 19.2792 21.9991 19.5002 21.9991C19.7212 21.9991 19.9332 21.9114 20.0895 21.7551C20.2458 21.5989 20.3336 21.3869 20.3336 21.166C20.3518 20.6805 20.2293 20.2001 19.9807 19.7827C19.7322 19.3652 19.3682 19.0285 18.9327 18.8131C20.0356 17.5402 20.7655 15.9876 21.0422 14.3263C21.3189 12.6651 21.1316 10.9598 20.5009 9.39822C19.8702 7.83665 18.8206 6.47944 17.4677 5.47613C16.1148 4.47281 14.5112 3.86234 12.8335 3.71196ZM4.50008 12.8343C4.50008 11.3512 4.93995 9.90148 5.76407 8.66836C6.58819 7.43524 7.75954 6.47414 9.13 5.90659C10.5005 5.33905 12.0085 5.19055 13.4633 5.47989C14.9182 5.76922 16.2546 6.48338 17.3035 7.53206C18.3524 8.58075 19.0667 9.91685 19.3561 11.3714C19.6455 12.826 19.497 14.3337 18.9293 15.7039C18.3617 17.074 17.4003 18.2451 16.167 19.0691C14.9336 19.893 13.4835 20.3328 12.0002 20.3328C10.0118 20.3304 8.10549 19.5396 6.69948 18.1339C5.29347 16.7281 4.50251 14.8223 4.50008 12.8343Z"/>
<path d="M18.0125 2.00313C17.7914 2.00313 17.5795 2.09091 17.4232 2.24716C17.2669 2.40341 17.1791 2.61533 17.1791 2.8363C17.1791 3.05727 17.2669 3.26919 17.4232 3.42544C17.5795 3.58169 17.7914 3.66947 18.0125 3.66947C18.3031 3.64738 18.5951 3.68436 18.871 3.77818C19.1469 3.872 19.401 4.02071 19.6178 4.21534C19.8347 4.40998 20.0099 4.64651 20.1329 4.91067C20.2558 5.17484 20.324 5.46116 20.3333 5.75238C20.3333 5.97335 20.4211 6.18527 20.5774 6.34152C20.7337 6.49777 20.9456 6.58555 21.1667 6.58555C21.3877 6.58555 21.5996 6.49777 21.7559 6.34152C21.9122 6.18527 22 5.97335 22 5.75238C21.9893 5.2429 21.8772 4.74066 21.67 4.27504C21.4629 3.80942 21.1649 3.38978 20.7936 3.04066C20.4223 2.69155 19.9851 2.41997 19.5076 2.24182C19.03 2.06367 18.5217 1.98253 18.0125 2.00313Z"/>
<path d="M3.66668 5.75238C3.67597 5.46116 3.74415 5.17484 3.86712 4.91067C3.99008 4.64651 4.16528 4.40998 4.38215 4.21534C4.59902 4.02071 4.85307 3.872 5.12898 3.77818C5.40489 3.68436 5.69694 3.64738 5.98754 3.66947C6.20855 3.66947 6.42052 3.58169 6.5768 3.42544C6.73308 3.26919 6.82088 3.05727 6.82088 2.8363C6.82088 2.61533 6.73308 2.40341 6.5768 2.24716C6.42052 2.09091 6.20855 2.00313 5.98754 2.00313C5.47825 1.98253 4.96997 2.06367 4.49242 2.24182C4.01488 2.41997 3.57767 2.69155 3.20637 3.04066C2.83506 3.38978 2.53713 3.80942 2.32999 4.27504C2.12285 4.74066 2.01066 5.2429 2 5.75238C2 5.97335 2.0878 6.18527 2.24408 6.34152C2.40036 6.49777 2.61233 6.58555 2.83334 6.58555C3.05436 6.58555 3.26632 6.49777 3.4226 6.34152C3.57888 6.18527 3.66668 5.97335 3.66668 5.75238Z"/>
<path d="M12.8336 11.6562V7.83531C12.8336 7.61434 12.7458 7.40242 12.5895 7.24617C12.4332 7.08992 12.2212 7.00214 12.0002 7.00214C11.7792 7.00214 11.5673 7.08992 11.411 7.24617C11.2547 7.40242 11.1669 7.61434 11.1669 7.83531V12.0011C11.1669 12.2221 11.2548 12.434 11.4111 12.5902L13.9111 15.0897C14.0683 15.2415 14.2788 15.3254 14.4973 15.3235C14.7158 15.3216 14.9248 15.234 15.0793 15.0795C15.2338 14.9251 15.3214 14.7161 15.3233 14.4976C15.3252 14.2792 15.2412 14.0687 15.0894 13.9116L12.8336 11.6562Z"/>
</mask>
<path d="M12.8335 3.71196V2.8363C12.8335 2.61533 12.7457 2.40342 12.5894 2.24717C12.4331 2.09092 12.2212 2.00314 12.0002 2.00314C11.7791 2.00314 11.5672 2.09092 11.4109 2.24717C11.2546 2.40342 11.1668 2.61533 11.1668 2.8363V3.71196C9.4891 3.86234 7.88547 4.47281 6.53259 5.47613C5.17971 6.47944 4.1301 7.83665 3.49939 9.39822C2.86868 10.9598 2.68136 12.6651 2.95806 14.3263C3.23476 15.9876 3.96475 17.5402 5.06759 18.8131C4.63206 19.0285 4.2681 19.3652 4.01956 19.7827C3.77102 20.2001 3.6485 20.6805 3.66674 21.166C3.66674 21.3869 3.75454 21.5989 3.91082 21.7551C4.0671 21.9114 4.27907 21.9991 4.50008 21.9991C4.7211 21.9991 4.93306 21.9114 5.08934 21.7551C5.24562 21.5989 5.33342 21.3869 5.33342 21.166C5.3265 20.9092 5.41871 20.6595 5.59094 20.4689C5.76317 20.2782 6.00219 20.1612 6.25843 20.142C6.31575 20.1311 6.37166 20.1138 6.4251 20.0903C8.02139 21.3282 9.98416 22 12.0043 22C14.0245 22 15.9872 21.3282 17.5835 20.0903C17.6323 20.1128 17.6831 20.1307 17.7352 20.1437C17.9923 20.1612 18.2328 20.2773 18.4064 20.4678C18.5799 20.6582 18.6733 20.9084 18.6669 21.166C18.6669 21.3869 18.7547 21.5989 18.911 21.7551C19.0672 21.9114 19.2792 21.9991 19.5002 21.9991C19.7212 21.9991 19.9332 21.9114 20.0895 21.7551C20.2458 21.5989 20.3336 21.3869 20.3336 21.166C20.3518 20.6805 20.2293 20.2001 19.9807 19.7827C19.7322 19.3652 19.3682 19.0285 18.9327 18.8131C20.0356 17.5402 20.7655 15.9876 21.0422 14.3263C21.3189 12.6651 21.1316 10.9598 20.5009 9.39822C19.8702 7.83665 18.8206 6.47944 17.4677 5.47613C16.1148 4.47281 14.5112 3.86234 12.8335 3.71196ZM4.50008 12.8343C4.50008 11.3512 4.93995 9.90148 5.76407 8.66836C6.58819 7.43524 7.75954 6.47414 9.13 5.90659C10.5005 5.33905 12.0085 5.19055 13.4633 5.47989C14.9182 5.76922 16.2546 6.48338 17.3035 7.53206C18.3524 8.58075 19.0667 9.91685 19.3561 11.3714C19.6455 12.826 19.497 14.3337 18.9293 15.7039C18.3617 17.074 17.4003 18.2451 16.167 19.0691C14.9336 19.893 13.4835 20.3328 12.0002 20.3328C10.0118 20.3304 8.10549 19.5396 6.69948 18.1339C5.29347 16.7281 4.50251 14.8223 4.50008 12.8343Z" fill="#2E3192"/>
<path d="M18.0125 2.00313C17.7914 2.00313 17.5795 2.09091 17.4232 2.24716C17.2669 2.40341 17.1791 2.61533 17.1791 2.8363C17.1791 3.05727 17.2669 3.26919 17.4232 3.42544C17.5795 3.58169 17.7914 3.66947 18.0125 3.66947C18.3031 3.64738 18.5951 3.68436 18.871 3.77818C19.1469 3.872 19.401 4.02071 19.6178 4.21534C19.8347 4.40998 20.0099 4.64651 20.1329 4.91067C20.2558 5.17484 20.324 5.46116 20.3333 5.75238C20.3333 5.97335 20.4211 6.18527 20.5774 6.34152C20.7337 6.49777 20.9456 6.58555 21.1667 6.58555C21.3877 6.58555 21.5996 6.49777 21.7559 6.34152C21.9122 6.18527 22 5.97335 22 5.75238C21.9893 5.2429 21.8772 4.74066 21.67 4.27504C21.4629 3.80942 21.1649 3.38978 20.7936 3.04066C20.4223 2.69155 19.9851 2.41997 19.5076 2.24182C19.03 2.06367 18.5217 1.98253 18.0125 2.00313Z" fill="#2E3192"/>
<path d="M3.66668 5.75238C3.67597 5.46116 3.74415 5.17484 3.86712 4.91067C3.99008 4.64651 4.16528 4.40998 4.38215 4.21534C4.59902 4.02071 4.85307 3.872 5.12898 3.77818C5.40489 3.68436 5.69694 3.64738 5.98754 3.66947C6.20855 3.66947 6.42052 3.58169 6.5768 3.42544C6.73308 3.26919 6.82088 3.05727 6.82088 2.8363C6.82088 2.61533 6.73308 2.40341 6.5768 2.24716C6.42052 2.09091 6.20855 2.00313 5.98754 2.00313C5.47825 1.98253 4.96997 2.06367 4.49242 2.24182C4.01488 2.41997 3.57767 2.69155 3.20637 3.04066C2.83506 3.38978 2.53713 3.80942 2.32999 4.27504C2.12285 4.74066 2.01066 5.2429 2 5.75238C2 5.97335 2.0878 6.18527 2.24408 6.34152C2.40036 6.49777 2.61233 6.58555 2.83334 6.58555C3.05436 6.58555 3.26632 6.49777 3.4226 6.34152C3.57888 6.18527 3.66668 5.97335 3.66668 5.75238Z" fill="#2E3192"/>
<path d="M12.8336 11.6562V7.83531C12.8336 7.61434 12.7458 7.40242 12.5895 7.24617C12.4332 7.08992 12.2212 7.00214 12.0002 7.00214C11.7792 7.00214 11.5673 7.08992 11.411 7.24617C11.2547 7.40242 11.1669 7.61434 11.1669 7.83531V12.0011C11.1669 12.2221 11.2548 12.434 11.4111 12.5902L13.9111 15.0897C14.0683 15.2415 14.2788 15.3254 14.4973 15.3235C14.7158 15.3216 14.9248 15.234 15.0793 15.0795C15.2338 14.9251 15.3214 14.7161 15.3233 14.4976C15.3252 14.2792 15.2412 14.0687 15.0894 13.9116L12.8336 11.6562Z" fill="#2E3192"/>
<path d="M12.8335 3.71196H-8.49984V23.2187L10.929 24.9601L12.8335 3.71196ZM12.0002 2.00314V-19.3302V2.00314ZM11.1668 3.71196L13.0713 24.9601L32.5001 23.2187V3.71196H11.1668ZM5.06759 18.8131L14.5254 37.9354L39.2613 25.7011L21.1913 4.84401L5.06759 18.8131ZM3.66674 21.166H25.0001V20.7653L24.985 20.3649L3.66674 21.166ZM5.33342 21.166H26.6668V20.8783L26.659 20.5908L5.33342 21.166ZM6.25843 20.142L7.85035 41.4159L9.05686 41.3256L10.2454 41.0995L6.25843 20.142ZM6.4251 20.0903L19.498 3.23178L9.47605 -4.53964L-2.13917 0.551558L6.4251 20.0903ZM12.0043 22V43.3333V22ZM17.5835 20.0903L26.5074 0.713156L14.7446 -4.70404L4.51067 3.23178L17.5835 20.0903ZM17.7352 20.1437L12.5694 40.8421L14.401 41.2992L16.2843 41.4276L17.7352 20.1437ZM18.6669 21.166L-2.65988 20.6364L-2.66645 20.9012V21.166H18.6669ZM20.3336 21.166L-0.984726 20.3649L-0.999772 20.7653V21.166H20.3336ZM18.9327 18.8131L2.80896 4.84401L-15.261 25.7011L9.47492 37.9354L18.9327 18.8131ZM4.50008 12.8343H-16.8333V12.8473L-16.8332 12.8603L4.50008 12.8343ZM12.0002 20.3328L11.9741 41.6661L11.9871 41.6661H12.0002V20.3328ZM18.0125 2.00313V23.3365H18.4439L18.8749 23.319L18.0125 2.00313ZM18.0125 3.66947V25.0028H18.822L19.6291 24.9415L18.0125 3.66947ZM20.3333 5.75238H41.6667V5.41226L41.6558 5.0723L20.3333 5.75238ZM22 5.75238H43.3333V5.52915L43.3287 5.30597L22 5.75238ZM3.66668 5.75238L-17.6558 5.0723L-17.6667 5.41226V5.75238H3.66668ZM5.98754 3.66947L4.37086 24.9415L5.17803 25.0028H5.98754V3.66947ZM5.98754 2.00313L5.12508 23.319L5.55613 23.3365H5.98754V2.00313ZM2 5.75238L-19.3287 5.30597L-19.3333 5.52915V5.75238H2ZM12.8336 11.6562H-8.49976V20.4941L-2.24979 26.7427L12.8336 11.6562ZM11.1669 12.0011H-10.1664L-10.1664 12.0057L11.1669 12.0011ZM11.4111 12.5902L26.4944 -2.49633L26.4921 -2.49861L11.4111 12.5902ZM13.9111 15.0897L-1.17228 30.1762L-1.04118 30.3073L-0.907828 30.4361L13.9111 15.0897ZM15.0894 13.9116L30.4327 -0.910532L30.3039 -1.04386L30.1728 -1.17493L15.0894 13.9116ZM34.1668 3.71196V2.8363H-8.49984V3.71196H34.1668ZM34.1668 2.8363C34.1668 -3.04407 31.8303 -8.68269 27.6728 -12.8394L-2.49395 17.3337C-6.33893 13.4895 -8.49984 8.27474 -8.49984 2.8363H34.1668ZM27.6728 -12.8394C23.5154 -16.9959 17.8777 -19.3302 12.0002 -19.3302V23.3365C6.56465 23.3365 1.35088 21.1777 -2.49395 17.3337L27.6728 -12.8394ZM12.0002 -19.3302C6.12262 -19.3302 0.484924 -16.9959 -3.67248 -12.8394L26.4943 17.3337C22.6494 21.1777 17.4356 23.3365 12.0002 23.3365V-19.3302ZM-3.67248 -12.8394C-7.83002 -8.68269 -10.1665 -3.04407 -10.1665 2.8363H32.5001C32.5001 8.27474 30.3392 13.4895 26.4943 17.3337L-3.67248 -12.8394ZM-10.1665 2.8363V3.71196H32.5001V2.8363H-10.1665ZM9.26229 -17.5362C3.67389 -17.0353 -1.66816 -15.0018 -6.17525 -11.6593L19.2404 22.6115C17.4391 23.9474 15.3043 24.76 13.0713 24.9601L9.26229 -17.5362ZM-6.17525 -11.6593C-10.6824 -8.31672 -14.1798 -3.79472 -16.2815 1.40891L23.2802 17.3875C22.44 19.468 21.0418 21.2756 19.2404 22.6115L-6.17525 -11.6593ZM-16.2815 1.40891C-18.3832 6.61256 -19.0075 12.2955 -18.0854 17.8314L24.0015 10.8212C24.3702 13.0348 24.1205 15.307 23.2802 17.3875L-16.2815 1.40891ZM-18.0854 17.8314C-17.1633 23.3674 -14.7307 28.5409 -11.0562 32.7822L21.1913 4.84401C22.6602 6.5394 23.6328 8.60772 24.0015 10.8212L-18.0854 17.8314ZM-4.39021 -0.309165C-8.51236 1.72963 -11.9578 4.9168 -14.3109 8.8691L22.35 30.6962C20.494 33.8136 17.7765 36.3274 14.5254 37.9354L-4.39021 -0.309165ZM-14.3109 8.8691C-16.664 12.8214 -17.8243 17.3701 -17.6515 21.9671L24.985 20.3649C25.1213 23.991 24.2061 27.5788 22.35 30.6962L-14.3109 8.8691ZM-17.6666 21.166C-17.6666 27.0463 -15.3301 32.6849 -11.1725 36.8416L18.9942 6.66858C22.8392 10.5128 25.0001 15.7276 25.0001 21.166H-17.6666ZM-11.1725 36.8416C-7.01511 40.9982 -1.3774 43.3325 4.50008 43.3325V0.6658C9.93553 0.6658 15.1493 2.82452 18.9942 6.66858L-11.1725 36.8416ZM4.50008 43.3325C10.3776 43.3325 16.0153 40.9982 20.1727 36.8416L-9.99402 6.66858C-6.14915 2.82452 -0.935368 0.6658 4.50008 0.6658V43.3325ZM20.1727 36.8416C24.3303 32.6849 26.6668 27.0463 26.6668 21.166H-15.9999C-15.9999 15.7276 -13.839 10.5128 -9.99402 6.66858L20.1727 36.8416ZM26.659 20.5908C26.7999 25.8151 24.9239 30.8923 21.4214 34.7695L-10.2395 6.16825C-14.0865 10.4268 -16.1469 16.0033 -15.9922 21.7411L26.659 20.5908ZM21.4214 34.7695C17.919 38.6466 13.0592 41.0261 7.85035 41.4159L4.66651 -1.13185C-1.0548 -0.703726 -6.39267 1.9099 -10.2395 6.16825L21.4214 34.7695ZM10.2454 41.0995C11.877 40.7891 13.4683 40.2959 14.9894 39.6291L-2.13917 0.551558C-0.724997 -0.0683057 0.754534 -0.526871 2.27143 -0.81545L10.2454 41.0995ZM-6.64777 36.9489C-1.31063 41.0876 5.25119 43.3333 12.0043 43.3333V0.666666C14.7171 0.666666 17.3534 1.5688 19.498 3.23178L-6.64777 36.9489ZM12.0043 43.3333C18.7574 43.3333 25.3193 41.0876 30.6564 36.9489L4.51067 3.23178C6.65522 1.5688 9.2915 0.666666 12.0043 0.666666V43.3333ZM8.65967 39.4675C9.91697 40.0466 11.2259 40.5068 12.5694 40.8421L22.901 -0.554782C24.1403 -0.245485 25.3477 0.179054 26.5074 0.713156L8.65967 39.4675ZM16.2843 41.4276C11.0573 41.0713 6.16877 38.711 2.63877 34.8377L34.174 6.09788C30.2968 1.84359 24.9274 -0.74889 19.1861 -1.14026L16.2843 41.4276ZM2.63877 34.8377C-0.891357 30.9642 -2.78999 25.8767 -2.65988 20.6364L39.9936 21.6955C40.1365 15.94 38.0513 10.3523 34.174 6.09788L2.63877 34.8377ZM-2.66645 21.166C-2.66645 27.0463 -0.329998 32.6849 3.82759 36.8416L33.9943 6.66858C37.8394 10.5128 40.0002 15.7276 40.0002 21.166H-2.66645ZM3.82759 36.8416C7.98504 40.9982 13.6228 43.3325 19.5002 43.3325V0.6658C24.9357 0.6658 30.1494 2.8245 33.9943 6.66858L3.82759 36.8416ZM19.5002 43.3325C25.3777 43.3325 31.0154 40.9982 35.1728 36.8416L5.00612 6.66858C8.851 2.8245 14.0648 0.6658 19.5002 0.6658V43.3325ZM35.1728 36.8416C39.3304 32.6849 41.6669 27.0463 41.6669 21.166H-0.999772C-0.999772 15.7276 1.16109 10.5128 5.00612 6.66858L35.1728 36.8416ZM41.6519 21.9671C41.8246 17.3701 40.6643 12.8214 38.3112 8.8691L1.6503 30.6962C-0.205761 27.5788 -1.12098 23.991 -0.984726 20.3649L41.6519 21.9671ZM38.3112 8.8691C35.9581 4.9168 32.5127 1.72963 28.3905 -0.309165L9.47492 37.9354C6.22383 36.3274 3.50633 33.8136 1.6503 30.6962L38.3112 8.8691ZM35.0565 32.7822C38.731 28.5409 41.1636 23.3674 42.0857 17.8314L-0.00117707 10.8212C0.367517 8.60773 1.34013 6.5394 2.80896 4.84401L35.0565 32.7822ZM42.0857 17.8314C43.0078 12.2955 42.3835 6.61257 40.2818 1.40891L0.720061 17.3875C-0.120239 15.307 -0.369874 13.0348 -0.00117707 10.8212L42.0857 17.8314ZM40.2818 1.40891C38.1801 -3.79472 34.6827 -8.31672 30.1756 -11.6593L4.75987 22.6115C2.95849 21.2756 1.56035 19.468 0.720061 17.3875L40.2818 1.40891ZM30.1756 -11.6593C25.6685 -15.0018 20.3264 -17.0353 14.738 -17.5362L10.929 24.9601C8.69599 24.76 6.56121 23.9474 4.75987 22.6115L30.1756 -11.6593ZM25.8334 12.8343C25.8334 15.5716 25.0215 18.247 23.5009 20.5222L-11.9728 -3.18552C-15.1416 1.55596 -16.8333 7.13091 -16.8333 12.8343H25.8334ZM23.5009 20.5222C21.9804 22.7974 19.8196 24.57 17.2925 25.6166L0.967545 -13.8034C-4.30057 -11.6218 -8.80401 -7.92695 -11.9728 -3.18552L23.5009 20.5222ZM17.2925 25.6166C14.7653 26.6632 11.9848 26.9369 9.30225 26.4035L17.6244 -15.4437C12.0322 -16.5558 6.23561 -15.9851 0.967545 -13.8034L17.2925 25.6166ZM9.30225 26.4035C6.61972 25.87 4.15504 24.5531 2.22014 22.6186L32.3869 -7.55446C28.3542 -11.5863 23.2167 -14.3316 17.6244 -15.4437L9.30225 26.4035ZM2.22014 22.6186C0.285189 20.684 -1.03304 18.2187 -1.56714 15.5342L40.2794 7.20865C39.1665 1.61496 36.4196 -3.52255 32.3869 -7.55446L2.22014 22.6186ZM-1.56714 15.5342C-2.10125 12.8496 -1.82709 10.067 -0.779513 7.53848L38.6381 23.8692C40.821 18.6003 41.3923 12.8024 40.2794 7.20865L-1.56714 15.5342ZM-0.779513 7.53848C0.268047 5.00998 2.04172 2.84956 4.31652 1.32991L28.0174 36.8082C32.759 33.6407 36.4553 29.1381 38.6381 23.8692L-0.779513 7.53848ZM4.31652 1.32991C6.59127 -0.189713 9.26519 -1.00053 12.0002 -1.00053V41.6661C17.7019 41.6661 23.2759 39.9758 28.0174 36.8082L4.31652 1.32991ZM12.0262 -1.00052C15.6853 -0.996054 19.1941 0.459146 21.7828 3.04734L-8.38388 33.2204C-2.98313 38.62 4.33825 41.6568 11.9741 41.6661L12.0262 -1.00052ZM21.7828 3.04734C24.3717 5.63568 25.8289 9.14588 25.8334 12.8083L-16.8332 12.8603C-16.8239 20.4987 -13.7848 27.8206 -8.38388 33.2204L21.7828 3.04734ZM18.0125 -19.3302C12.135 -19.3302 6.49725 -16.9959 2.33984 -12.8394L32.5066 17.3337C28.6617 21.1777 23.4479 23.3365 18.0125 23.3365V-19.3302ZM2.33984 -12.8394C-1.81775 -8.68265 -4.15421 -3.04402 -4.15421 2.8363H38.5125C38.5125 8.27468 36.3516 13.4895 32.5066 17.3337L2.33984 -12.8394ZM-4.15421 2.8363C-4.15421 8.71662 -1.81775 14.3553 2.33984 18.512L32.5066 -11.6611C36.3516 -7.81687 38.5125 -2.60208 38.5125 2.8363H-4.15421ZM2.33984 18.512C6.49725 22.6685 12.135 25.0028 18.0125 25.0028V-17.6639C23.4479 -17.6639 28.6617 -15.5051 32.5066 -11.6611L2.33984 18.512ZM19.6291 24.9415C17.0481 25.1376 14.454 24.8092 12.0033 23.9758L25.7388 -16.4195C22.7362 -17.4404 19.558 -17.8428 16.3958 -17.6025L19.6291 24.9415ZM12.0033 23.9758C9.55247 23.1425 7.29557 21.8215 5.36874 20.0922L33.867 -11.6615C31.5064 -13.7801 28.7414 -15.3985 25.7388 -16.4195L12.0033 23.9758ZM5.36874 20.0922C3.44191 18.3629 1.88503 16.2611 0.792215 13.9134L39.4736 -4.09209C38.1348 -6.96811 36.2275 -9.54294 33.867 -11.6615L5.36874 20.0922ZM0.792215 13.9134C-0.30059 11.5658 -0.906614 9.02094 -0.989174 6.43247L41.6558 5.0723C41.5547 1.90138 40.8123 -1.21608 39.4736 -4.09209L0.792215 13.9134ZM-1.00002 5.75238C-1.00002 11.6327 1.33645 17.2713 5.49403 21.428L35.6608 -8.74501C39.5058 -4.9008 41.6667 0.313995 41.6667 5.75238H-1.00002ZM5.49403 21.428C9.65144 25.5846 15.2891 27.9189 21.1667 27.9189V-14.7478C26.6021 -14.7478 31.8159 -12.589 35.6608 -8.74501L5.49403 21.428ZM21.1667 27.9189C27.0442 27.9189 32.6819 25.5846 36.8393 21.428L6.67256 -8.74501C10.5174 -12.589 15.7312 -14.7478 21.1667 -14.7478V27.9189ZM36.8393 21.428C40.9969 17.2713 43.3333 11.6327 43.3333 5.75238H0.666665C0.666665 0.313995 2.82754 -4.9008 6.67256 -8.74501L36.8393 21.428ZM43.3287 5.30597C43.2586 1.95989 42.5219 -1.3385 41.1616 -4.3962L2.17846 12.9463C1.23245 10.8198 0.720044 8.52591 0.671337 6.1988L43.3287 5.30597ZM41.1616 -4.3962C39.8013 -7.45388 37.8449 -10.2094 35.407 -12.5015L6.18022 18.5828C4.48498 16.9889 3.12445 15.0727 2.17846 12.9463L41.1616 -4.3962ZM35.407 -12.5015C32.9692 -14.7937 30.0989 -16.5765 26.9641 -17.746L12.051 22.2296C9.87135 21.4165 7.87545 20.1768 6.18022 18.5828L35.407 -12.5015ZM26.9641 -17.746C23.8293 -18.9154 20.4929 -19.448 17.15 -19.3128L18.8749 23.319C16.5506 23.4131 14.2307 23.0427 12.051 22.2296L26.9641 -17.746ZM24.9892 6.43247C24.9066 9.02094 24.3006 11.5658 23.2078 13.9134L-15.4736 -4.09209C-16.8123 -1.21608 -17.5547 1.90138 -17.6558 5.0723L24.9892 6.43247ZM23.2078 13.9134C22.115 16.2611 20.5581 18.3629 18.6313 20.0922L-9.86696 -11.6615C-12.2275 -9.54292 -14.1348 -6.96808 -15.4736 -4.09209L23.2078 13.9134ZM18.6313 20.0922C16.7044 21.8215 14.4475 23.1425 11.9967 23.9758L-1.73877 -16.4195C-4.74138 -15.3985 -7.50638 -13.7801 -9.86696 -11.6615L18.6313 20.0922ZM11.9967 23.9758C9.54595 24.8092 6.95188 25.1376 4.37086 24.9415L7.60422 -17.6025C4.44201 -17.8428 1.26383 -17.4404 -1.73877 -16.4195L11.9967 23.9758ZM5.98754 25.0028C11.8651 25.0028 17.5028 22.6685 21.6602 18.512L-8.50657 -11.6611C-4.66172 -15.5051 0.552053 -17.6639 5.98754 -17.6639V25.0028ZM21.6602 18.512C25.8177 14.3553 28.1542 8.71665 28.1542 2.8363H-14.5125C-14.5125 -2.60211 -12.3516 -7.81689 -8.50657 -11.6611L21.6602 18.512ZM28.1542 2.8363C28.1542 -3.04405 25.8177 -8.68267 21.6602 -12.8394L-8.50657 17.3337C-12.3516 13.4895 -14.5125 8.27471 -14.5125 2.8363H28.1542ZM21.6602 -12.8394C17.5028 -16.9959 11.8651 -19.3302 5.98754 -19.3302V23.3365C0.552051 23.3365 -4.66172 21.1777 -8.50657 17.3337L21.6602 -12.8394ZM6.85 -19.3128C3.50707 -19.448 0.170653 -18.9154 -2.96411 -17.746L11.949 22.2296C9.76928 23.0427 7.44943 23.4131 5.12508 23.319L6.85 -19.3128ZM-2.96411 -17.746C-6.09889 -16.5765 -8.96921 -14.7937 -11.407 -12.5015L17.8198 18.5828C16.1245 20.1768 14.1287 21.4165 11.949 22.2296L-2.96411 -17.746ZM-11.407 -12.5015C-13.8449 -10.2094 -15.8013 -7.45389 -17.1616 -4.3962L21.8215 12.9463C20.8755 15.0727 19.515 16.9889 17.8198 18.5828L-11.407 -12.5015ZM-17.1616 -4.3962C-18.5219 -1.3385 -19.2586 1.95989 -19.3287 5.30597L23.3287 6.1988C23.28 8.52591 22.7675 10.8198 21.8215 12.9463L-17.1616 -4.3962ZM-19.3333 5.75238C-19.3333 11.6328 -16.9968 17.2714 -12.8393 21.428L17.3274 -8.74501C21.1724 -4.90083 23.3333 0.313952 23.3333 5.75238H-19.3333ZM-12.8393 21.428C-8.68189 25.5846 -3.04419 27.9189 2.83334 27.9189V-14.7478C8.26885 -14.7478 13.4826 -12.589 17.3274 -8.74501L-12.8393 21.428ZM2.83334 27.9189C8.71088 27.9189 14.3486 25.5846 18.506 21.428L-11.6608 -8.74501C-7.81593 -12.589 -2.60216 -14.7478 2.83334 -14.7478V27.9189ZM18.506 21.428C22.6635 17.2714 25 11.6328 25 5.75238H-17.6667C-17.6667 0.313956 -15.5057 -4.90082 -11.6608 -8.74501L18.506 21.428ZM34.1669 11.6562V7.83531H-8.49976V11.6562H34.1669ZM34.1669 7.83531C34.1669 1.95493 31.8304 -3.68368 27.6729 -7.84035L-2.49387 22.3327C-6.33885 18.4885 -8.49976 13.2738 -8.49976 7.83531H34.1669ZM27.6729 -7.84035C23.5155 -11.9969 17.8778 -14.3312 12.0002 -14.3312V28.3355C6.56473 28.3355 1.35096 26.1767 -2.49387 22.3327L27.6729 -7.84035ZM12.0002 -14.3312C6.1227 -14.3312 0.485 -11.9969 -3.67239 -7.84035L26.4943 22.3327C22.6495 26.1767 17.4357 28.3355 12.0002 28.3355V-14.3312ZM-3.67239 -7.84035C-7.82993 -3.68368 -10.1664 1.95493 -10.1664 7.83531H32.5002C32.5002 13.2738 30.3393 18.4885 26.4943 22.3327L-3.67239 -7.84035ZM-10.1664 7.83531V12.0011H32.5002V7.83531H-10.1664ZM-10.1664 12.0057C-10.1652 17.8856 -7.82785 23.5233 -3.67003 27.679L26.4921 -2.49861C30.3374 1.34466 32.4991 6.55858 32.5002 11.9966L-10.1664 12.0057ZM-3.6723 27.6767L-1.17228 30.1762L28.9945 0.00316644L26.4944 -2.49633L-3.6723 27.6767ZM-0.907828 30.4361C3.27315 34.4733 8.87198 36.7066 14.6826 36.6561L14.3119 -6.00899C19.6855 -6.05568 24.8634 -3.99042 28.73 -0.256676L-0.907828 30.4361ZM14.6826 36.6561C20.4932 36.6056 26.0524 34.2754 30.1626 30.1661L-0.00408816 -0.00698376C3.79712 -3.80739 8.93831 -5.9623 14.3119 -6.00899L14.6826 36.6561ZM30.1626 30.1661C34.273 26.0565 36.6053 20.4964 36.6559 14.6831L-6.0092 14.3122C-5.96247 8.93577 -3.80547 3.7936 -0.00408816 -0.00698376L30.1626 30.1661ZM36.6559 14.6831C36.7064 8.86964 34.471 3.26981 30.4327 -0.910532L-0.253836 28.7337C-3.98859 24.8676 -6.05593 19.6887 -6.0092 14.3122L36.6559 14.6831ZM30.1728 -1.17493L27.9169 -3.43031L-2.24979 26.7427L0.00606155 28.9981L30.1728 -1.17493Z" fill="#2E3192" mask="url(#path-1-inside-1_6004_12801)"/>
</svg>
