<svg width="24" height="24" viewBox="0 0 24 24" fill="none" xmlns="http://www.w3.org/2000/svg">
<mask id="path-1-inside-1_6004_12910" fill="white">
<path d="M17.25 4H6.75C5.7558 4.00115 4.80267 4.38464 4.09966 5.06634C3.39666 5.74804 3.00119 6.67229 3 7.63636L3 16.3636C3.00119 17.3277 3.39666 18.252 4.09966 18.9337C4.80267 19.6154 5.7558 19.9988 6.75 20H17.25C18.2442 19.9988 19.1973 19.6154 19.9003 18.9337C20.6033 18.252 20.9988 17.3277 21 16.3636V7.63636C20.9988 6.67229 20.6033 5.74804 19.9003 5.06634C19.1973 4.38464 18.2442 4.00115 17.25 4ZM6.75 5.45455H17.25C17.6991 5.4554 18.1376 5.58656 18.5092 5.83113C18.8808 6.0757 19.1684 6.42251 19.335 6.82691L13.5915 12.3971C13.1688 12.8053 12.5966 13.0345 12 13.0345C11.4034 13.0345 10.8312 12.8053 10.4085 12.3971L4.665 6.82691C4.83161 6.42251 5.11921 6.0757 5.49079 5.83113C5.86236 5.58656 6.30091 5.4554 6.75 5.45455ZM17.25 18.5455H6.75C6.15326 18.5455 5.58097 18.3156 5.15901 17.9064C4.73705 17.4972 4.5 16.9423 4.5 16.3636V8.72727L9.348 13.4255C10.052 14.1064 11.0057 14.4888 12 14.4888C12.9943 14.4888 13.948 14.1064 14.652 13.4255L19.5 8.72727V16.3636C19.5 16.9423 19.2629 17.4972 18.841 17.9064C18.419 18.3156 17.8467 18.5455 17.25 18.5455Z"/>
</mask>
<path d="M17.25 4H6.75C5.7558 4.00115 4.80267 4.38464 4.09966 5.06634C3.39666 5.74804 3.00119 6.67229 3 7.63636L3 16.3636C3.00119 17.3277 3.39666 18.252 4.09966 18.9337C4.80267 19.6154 5.7558 19.9988 6.75 20H17.25C18.2442 19.9988 19.1973 19.6154 19.9003 18.9337C20.6033 18.252 20.9988 17.3277 21 16.3636V7.63636C20.9988 6.67229 20.6033 5.74804 19.9003 5.06634C19.1973 4.38464 18.2442 4.00115 17.25 4ZM6.75 5.45455H17.25C17.6991 5.4554 18.1376 5.58656 18.5092 5.83113C18.8808 6.0757 19.1684 6.42251 19.335 6.82691L13.5915 12.3971C13.1688 12.8053 12.5966 13.0345 12 13.0345C11.4034 13.0345 10.8312 12.8053 10.4085 12.3971L4.665 6.82691C4.83161 6.42251 5.11921 6.0757 5.49079 5.83113C5.86236 5.58656 6.30091 5.4554 6.75 5.45455ZM17.25 18.5455H6.75C6.15326 18.5455 5.58097 18.3156 5.15901 17.9064C4.73705 17.4972 4.5 16.9423 4.5 16.3636V8.72727L9.348 13.4255C10.052 14.1064 11.0057 14.4888 12 14.4888C12.9943 14.4888 13.948 14.1064 14.652 13.4255L19.5 8.72727V16.3636C19.5 16.9423 19.2629 17.4972 18.841 17.9064C18.419 18.3156 17.8467 18.5455 17.25 18.5455Z" fill="#374957"/>
<path d="M6.75 4V-17.3333H6.73761L6.72522 -17.3333L6.75 4ZM3 7.63636L-18.3333 7.61001L-18.3333 7.62319V7.63636H3ZM3 16.3636H-18.3333V16.3768L-18.3333 16.39L3 16.3636ZM6.75 20L6.72522 41.3333L6.73761 41.3333H6.75V20ZM17.25 20V41.3333H17.2624L17.2748 41.3333L17.25 20ZM21 16.3636L42.3333 16.39L42.3333 16.3768V16.3636H21ZM21 7.63636H42.3333V7.62319L42.3333 7.61001L21 7.63636ZM17.25 5.45455L17.2907 -15.8787L17.2703 -15.8788H17.25V5.45455ZM19.335 6.82691L34.1871 22.1411L44.5691 12.0725L39.0599 -1.29963L19.335 6.82691ZM13.5915 12.3971L28.4119 27.742L28.4278 27.7267L28.4436 27.7113L13.5915 12.3971ZM10.4085 12.3971L-4.44361 27.7113L-4.42776 27.7267L-4.41187 27.742L10.4085 12.3971ZM4.665 6.82691L-15.0599 -1.29963L-20.5691 12.0725L-10.1871 22.1411L4.665 6.82691ZM17.25 18.5455V39.8788V18.5455ZM6.75 18.5455V39.8788V18.5455ZM4.5 16.3636H-16.8333H4.5ZM4.5 8.72727L19.3464 -6.59253L-16.8333 -41.6542V8.72727H4.5ZM9.348 13.4255L-5.49837 28.7453L-5.49105 28.7523L-5.48373 28.7594L9.348 13.4255ZM12 14.4888V-6.84458V14.4888ZM14.652 13.4255L29.4837 28.7594L29.4911 28.7523L29.4984 28.7453L14.652 13.4255ZM19.5 8.72727H40.8333V-41.6542L4.65363 -6.59253L19.5 8.72727ZM19.5 16.3636H40.8333H19.5ZM17.25 -17.3333H6.75V25.3333H17.25V-17.3333ZM6.72522 -17.3333C0.289663 -17.3258 -6.00709 -14.8495 -10.7514 -10.2489L18.9508 20.3815C15.6124 23.6187 11.2219 25.3282 6.77478 25.3333L6.72522 -17.3333ZM-10.7514 -10.2489C-15.518 -5.62677 -18.3249 0.781816 -18.3333 7.61001L24.3333 7.66272C24.3273 12.5628 22.3113 17.1229 18.9508 20.3815L-10.7514 -10.2489ZM-18.3333 7.63636V16.3636H24.3333V7.63636H-18.3333ZM-18.3333 16.39C-18.3249 23.2182 -15.518 29.6268 -10.7514 34.2489L18.9508 3.61845C22.3113 6.87715 24.3273 11.4372 24.3333 16.3373L-18.3333 16.39ZM-10.7514 34.2489C-6.00708 38.8495 0.289673 41.3258 6.72522 41.3333L6.77478 -1.33332C11.2219 -1.32815 15.6124 0.381253 18.9508 3.61845L-10.7514 34.2489ZM6.75 41.3333H17.25V-1.33333H6.75V41.3333ZM17.2748 41.3333C23.7103 41.3258 30.0071 38.8495 34.7514 34.2489L5.04922 3.61845C8.38759 0.38125 12.7781 -1.32815 17.2252 -1.33332L17.2748 41.3333ZM34.7514 34.2489C39.518 29.6268 42.3249 23.2182 42.3333 16.39L-0.333318 16.3373C-0.327265 11.4372 1.68868 6.87716 5.04922 3.61845L34.7514 34.2489ZM42.3333 16.3636V7.63636H-0.333334V16.3636H42.3333ZM42.3333 7.61001C42.3249 0.781826 39.518 -5.62676 34.7514 -10.2489L5.04922 20.3815C1.68869 17.1228 -0.327265 12.5628 -0.333318 7.66272L42.3333 7.61001ZM34.7514 -10.2489C30.0071 -14.8495 23.7103 -17.3258 17.2748 -17.3333L17.2252 25.3333C12.7781 25.3282 8.38758 23.6187 5.04922 20.3815L34.7514 -10.2489ZM6.75 26.7879H17.25V-15.8788H6.75V26.7879ZM17.2093 26.7878C13.5455 26.7809 9.91448 25.7138 6.78017 23.6508L30.2383 -11.9885C26.3608 -14.5407 21.8527 -15.87 17.2907 -15.8787L17.2093 26.7878ZM6.78017 23.6508C3.63887 21.5832 1.10465 18.581 -0.389871 14.9534L39.0599 -1.29963C37.2321 -5.73597 34.1227 -9.43176 30.2383 -11.9885L6.78017 23.6508ZM4.48289 -8.48733L-1.26061 -2.91715L28.4436 27.7113L34.1871 22.1411L4.48289 -8.48733ZM-1.22887 -2.94787C2.39281 -6.44573 7.1609 -8.29881 12 -8.29881V34.3679C18.0322 34.3679 23.9448 32.0564 28.4119 27.742L-1.22887 -2.94787ZM12 -8.29881C16.8391 -8.29881 21.6072 -6.44573 25.2289 -2.94787L-4.41187 27.742C0.0551629 32.0564 5.96778 34.3679 12 34.3679V-8.29881ZM25.2606 -2.91715L19.5171 -8.48733L-10.1871 22.1411L-4.44361 27.7113L25.2606 -2.91715ZM24.3899 14.9534C22.8953 18.581 20.3611 21.5832 17.2198 23.6508L-6.23826 -11.9885C-10.1227 -9.43176 -13.2321 -5.73597 -15.0599 -1.29963L24.3899 14.9534ZM17.2198 23.6508C14.0855 25.7138 10.4546 26.7809 6.79069 26.7878L6.70931 -15.8787C2.14727 -15.87 -2.3608 -14.5407 -6.23826 -11.9885L17.2198 23.6508ZM17.25 -2.78788H6.75V39.8788H17.25V-2.78788ZM6.75 -2.78788C11.603 -2.78788 16.3844 -0.924611 20.0101 2.59121L-9.6921 33.2216C-5.2225 37.5558 0.703511 39.8788 6.75 39.8788V-2.78788ZM20.0101 2.59121C23.6581 6.12866 25.8333 11.0688 25.8333 16.3636H-16.8333C-16.8333 22.8158 -14.184 28.8658 -9.6921 33.2216L20.0101 2.59121ZM25.8333 16.3636V8.72727H-16.8333V16.3636H25.8333ZM-10.3464 24.0471L-5.49837 28.7453L24.1944 -1.89435L19.3464 -6.59253L-10.3464 24.0471ZM-5.48373 28.7594C-0.734175 33.3534 5.56484 35.8221 12 35.8221V-6.84458C16.4465 -6.84458 20.8381 -5.14069 24.1797 -1.90853L-5.48373 28.7594ZM12 35.8221C18.4352 35.8221 24.7342 33.3534 29.4837 28.7594L-0.179727 -1.90853C3.16188 -5.14069 7.55345 -6.84458 12 -6.84458V35.8221ZM29.4984 28.7453L34.3464 24.0471L4.65363 -6.59253L-0.194374 -1.89435L29.4984 28.7453ZM-1.83333 8.72727V16.3636H40.8333V8.72727H-1.83333ZM-1.83333 16.3636C-1.83333 11.0688 0.341874 6.12867 3.98988 2.59121L33.6921 33.2216C38.184 28.8658 40.8333 22.8158 40.8333 16.3636H-1.83333ZM3.98988 2.59121C7.61557 -0.924613 12.397 -2.78788 17.25 -2.78788V39.8788C23.2965 39.8788 29.2225 37.5558 33.6921 33.2216L3.98988 2.59121Z" fill="#2E3192" mask="url(#path-1-inside-1_6004_12910)"/>
</svg>
