<svg width="20" height="18" viewBox="0 0 20 18" fill="none" xmlns="http://www.w3.org/2000/svg">
<path d="M0.165432 14.5902L0.165432 3.7009C0.165432 1.4707 2.58908 0.0711288 4.52344 1.18623L9.24556 3.90572L13.9677 6.63659C15.902 7.75169 15.902 10.5394 13.9677 11.6546L9.24556 14.3854L4.52344 17.1049C2.58908 18.22 0.165432 16.8318 0.165432 14.5902Z" fill="#3562D6"/>
<path d="M18.9166 1.26489C19.3831 1.26489 19.77 1.65176 19.77 2.11829L19.77 16.1822C19.77 16.6488 19.3831 17.0356 18.9166 17.0356C18.4501 17.0356 18.0632 16.6488 18.0632 16.1822L18.0632 2.11829C18.0632 1.65176 18.4501 1.26489 18.9166 1.26489Z" fill="#3562D6"/>
</svg>
