<svg width="38" height="38" viewBox="0 0 38 38" fill="none" xmlns="http://www.w3.org/2000/svg">
<path d="M37.3027 0.508385C37.2874 0.434353 37.2514 0.366212 37.1987 0.311951C37.1461 0.257689 37.0791 0.219555 37.0056 0.202019C32.1029 -0.996659 20.7749 3.27489 14.6375 9.40975C13.5428 10.4955 12.5449 11.6747 11.655 12.9338C9.76241 12.7664 7.86981 12.9062 6.25678 13.6093C1.70565 15.6124 0.380579 20.839 0.0114327 23.0874C-0.0095059 23.2105 -0.00160783 23.3367 0.0345055 23.4562C0.0706189 23.5757 0.133963 23.6852 0.219555 23.776C0.305148 23.8669 0.410654 23.9367 0.527777 23.9799C0.6449 24.023 0.770445 24.0385 0.894537 24.0249L8.20296 23.2188C8.20818 23.7698 8.24143 24.3202 8.30257 24.8678C8.33935 25.2481 8.50816 25.6035 8.7797 25.8723L11.6098 28.6957C11.8789 28.9669 12.2341 29.1357 12.6143 29.1729C13.1589 29.2338 13.7062 29.267 14.2541 29.2725L13.4522 36.5717C13.4388 36.6958 13.4544 36.8212 13.4976 36.9383C13.5409 37.0553 13.6106 37.1607 13.7015 37.2463C13.7923 37.3318 13.9017 37.3952 14.0211 37.4314C14.1405 37.4675 14.2667 37.4756 14.3897 37.4548C16.6339 37.0949 21.8697 35.7698 23.8611 31.2187C24.5643 29.6056 24.7082 27.7222 24.5458 25.8388C25.808 24.9489 26.9902 23.9507 28.0791 22.8555C34.2357 16.7299 38.483 5.65467 37.3027 0.508385ZM21.9367 15.5479C21.3745 14.9861 20.9916 14.2702 20.8363 13.4907C20.6811 12.7113 20.7605 11.9033 21.0645 11.1689C21.3686 10.4346 21.8836 9.80694 22.5444 9.36533C23.2052 8.92372 23.9821 8.68801 24.7769 8.68801C25.5716 8.68801 26.3486 8.92372 27.0094 9.36533C27.6702 9.80694 28.1852 10.4346 28.4892 11.1689C28.7932 11.9033 28.8726 12.7113 28.7174 13.4907C28.5621 14.2702 28.1792 14.9861 27.617 15.5479C27.2442 15.9213 26.8015 16.2174 26.3142 16.4195C25.8268 16.6216 25.3044 16.7256 24.7769 16.7256C24.2493 16.7256 23.7269 16.6216 23.2396 16.4195C22.7522 16.2174 22.3095 15.9213 21.9367 15.5479Z" fill="white"/>
<path d="M11.4181 30.7405C10.9594 31.2001 10.2236 31.3792 9.33801 31.5324C7.3483 31.8714 5.5913 30.1521 5.94873 28.1406C6.08517 27.378 6.48864 26.3091 6.73976 26.058C6.79465 26.0042 6.83118 25.9344 6.84417 25.8586C6.85716 25.7829 6.84595 25.7049 6.81213 25.6359C6.7783 25.5669 6.72359 25.5102 6.65575 25.4741C6.58791 25.4379 6.5104 25.424 6.43423 25.4344C5.32157 25.5705 4.28643 26.075 3.49362 26.8674C1.52567 28.8371 1.33984 36.1455 1.33984 36.1455C1.33984 36.1455 8.65245 35.9597 10.6204 33.99C11.4153 33.1979 11.9204 32.1611 12.0543 31.0469C12.0853 30.697 11.6592 30.4886 11.4181 30.7405Z" fill="white"/>
</svg>
