<svg width="29" height="37" viewBox="0 0 29 37" fill="none" xmlns="http://www.w3.org/2000/svg">
<path d="M20.3776 36.0933C20.2693 36.0933 20.1429 36.0753 20.0346 36.0392C16.4062 35.0102 12.5973 35.0102 8.96893 36.0392C8.30102 36.2197 7.59701 35.8406 7.41649 35.1727C7.21793 34.5048 7.61506 33.8008 8.28297 33.6203C12.3626 32.465 16.6589 32.465 20.7386 33.6203C21.4065 33.8188 21.8036 34.5048 21.6051 35.1727C21.4246 35.7323 20.9191 36.0933 20.3776 36.0933Z" fill="white"/>
<path d="M27.5107 7.86612C25.6333 4.07528 22.0049 1.27728 17.7989 0.356645C13.3943 -0.618143 8.8814 0.428851 5.43354 3.2088C1.96763 5.9707 0 10.1045 0 14.5272C0 19.2025 2.798 24.0945 7.02208 26.9286V28.4269C7.00403 28.9324 6.98598 29.7086 7.59973 30.3404C8.23154 30.9903 9.17023 31.0625 9.91034 31.0625H19.1708C20.1456 31.0625 20.8857 30.7917 21.3912 30.2862C22.0771 29.5822 22.0591 28.6796 22.041 28.1923V26.9286C27.637 23.1558 31.1571 15.1951 27.5107 7.86612ZM17.6003 17.3613L15.6688 20.7189C15.4161 21.1521 14.9648 21.4048 14.4955 21.4048C14.2608 21.4048 14.0261 21.3507 13.8275 21.2243C13.1777 20.8452 12.9611 20.0149 13.3221 19.3831L14.8565 16.7114H13.3401C12.4376 16.7114 11.6975 16.3143 11.3003 15.6464C10.9032 14.9604 10.9393 14.13 11.3906 13.3358L13.3221 9.97816C13.7012 9.3283 14.5316 9.11168 15.1634 9.47272C15.8132 9.8518 16.0298 10.6822 15.6688 11.314L14.1344 13.9856H15.6508C16.5533 13.9856 17.2935 14.3828 17.6906 15.0507C18.0877 15.7366 18.0516 16.5851 17.6003 17.3613Z" fill="white"/>
</svg>
