<svg width="42" height="42" viewBox="0 0 42 42" fill="none" xmlns="http://www.w3.org/2000/svg">
<path d="M20.7443 0.594482C9.33982 0.594482 0.0839844 9.85031 0.0839844 21.2548C0.0839844 32.6593 9.33982 41.9152 20.7443 41.9152C32.1488 41.9152 41.4047 32.6593 41.4047 21.2548C41.4047 9.85031 32.1488 0.594482 20.7443 0.594482ZM28.0374 23.796L17.3354 31.2131C15.7652 32.3081 14.8561 31.6676 15.3107 29.8289L17.2734 21.8953L13.8644 21.0482C12.3149 20.6763 12.129 19.602 13.4306 18.6929L24.1326 11.2759C25.7028 10.1809 26.6119 10.8214 26.1573 12.6601L24.1946 20.5937L27.6036 21.4408C29.1531 21.8333 29.339 22.887 28.0374 23.796Z" fill="white"/>
</svg>
