<svg version="1.2" xmlns="http://www.w3.org/2000/svg" viewBox="0 0 90 90" width="90" height="90"><defs><clipPath clipPathUnits="userSpaceOnUse" id="cp1"><path d="m0 0h90v90h-90z"/></clipPath></defs><style>.a{fill:#263c84}.b{fill:#f36e21}</style><g clip-path="url(#cp1)"><path fill-rule="evenodd" class="a" d="m0 77.5c0.2-0.6 0.6-1.1 1.1-1.4 0.6-0.4 1.1-0.6 1.8-0.7 0-9 0-19.2 0-28.2q-0.1-0.7 0.1-1.4c0.1-0.6 0.4-1.2 0.9-1.6 0.5-0.4 1.1-0.6 1.7-0.6 1-0.1 2 0 3.1 0 0.3-6.3 2.2-12.5 5.5-17.8-1.3-1.6-2.2-3.5-2.5-5.5-0.4-2.7 0.3-5.4 2-7.6 1.6-2.1 4-3.5 6.7-3.9 1.6-0.2 3.2-0.1 4.7 0.5 1.5 0.5 2.8 1.3 3.9 2.5q0.2 0.2 0.5 0.3 0.3 0 0.5-0.2c4.8-2.1 10-3.2 15.3-3.2q0.2 0 0.5-0.2 0.2-0.1 0.4-0.4c3.9-5.7 9.2-8.4 16.1-8.1 4 0.3 7.8 2 10.6 4.8 2.9 2.7 4.8 6.3 5.3 10.3 0.5 3.7-0.1 7.4-1.8 10.7q-0.1 0.3-0.1 0.5 0 0.3 0.1 0.5c3.1 5.3 4.7 11.3 4.9 17.4q0 0.6 0 1.2c0 0.3 0 0.7-0.1 1.1q0.7 0.1 1.5 0.3c1.5 0.5 2.9 1.3 4 2.3 1.2 1.1 2.1 2.4 2.6 3.9 0.6 1.5 0.8 3.1 0.6 4.6-0.1 1.6-0.6 3.1-1.5 4.5q-0.4 0.6-0.9 1.2l-7.7 10.3-5.4-7.3c-0.9 1.2-1.8 2.2-2.7 3.2-0.9 1-1.7 1.7-2.6 2.6q-0.2 0.2-0.3 0.5-0.1 0.3 0 0.6c0.8 2.5 1.1 5.1 0.9 7.7-0.1 2.2-1.2 3.3-3.3 3.3-1 0-2 0-2.9 0q-0.3 0-0.5 0.1-0.2 0.1-0.3 0.3c-0.7 1.4-1.8 2.6-3.1 3.5-1.3 0.9-2.7 1.5-4.3 1.8 0 0-0.1 0-0.1 0.1h-3c-0.1 0-0.1-0.2-0.2-0.2-1.5-0.2-3-0.8-4.2-1.7-1.3-0.9-2.3-2.1-3.1-3.4q-0.1-0.3-0.4-0.4-0.3-0.1-0.6-0.1-7.5 0-15 0-0.3 0-0.6 0.1-0.3 0.2-0.5 0.5c-1.2 2.3-3.3 4-5.8 4.8q-0.7 0.2-1.5 0.4h-3q-0.1-0.1-0.3-0.2c-1.5-0.2-2.9-0.8-4.2-1.7-1.2-0.9-2.2-2-3-3.4q-0.1-0.2-0.3-0.3-0.3-0.2-0.5-0.2c-1.8 0-3.5-0.1-5.3 0-0.8 0.2-1.6 0-2.3-0.4-0.7-0.4-1.2-1-1.5-1.7zm46.5-25.3h13.4c1-0.1 2.1 0.3 3 0.9 0.8 0.7 1.4 1.7 1.6 2.7q1 4 2 8l1.4 5.6c1.3-1.5 2.5-2.8 3.7-4.2 1.1-1.4 1-1.3 0-2.7-0.9-1.3-1.6-2.9-1.8-4.5-0.2-1.6 0-3.3 0.5-4.9 0.6-1.5 1.5-2.9 2.8-4 1.2-1.1 2.7-1.9 4.3-2.3q0.2 0 0.5-0.2 0.2-0.1 0.3-0.2 0.1-0.2 0.2-0.5 0.1-0.2 0-0.4c0.1-4.2-0.7-8.4-2.2-12.4-0.5-1.4-1.2-2.7-1.8-4.2l-13.4 17-0.3-0.3c-4.5-5.7-9-11.4-13.4-17.2-1.5-1.9-2.6-4.1-3.2-6.4-0.6-2.4-0.7-4.8-0.3-7.2 0.1-1 0.4-2.1 0.7-3.2-4.7 0.1-9.2 1.1-13.4 3.1 0.8 1.6 1.1 3.4 0.9 5.2-0.2 1.7-0.8 3.4-1.9 4.9-2.6 3.6-5.3 7.1-8 10.7q-0.1 0.2-0.2 0.4l-5.7-7.6c-3 4.8-4.6 11.9-4.3 15.2h31.1c2.4 0 3.5 1 3.5 3.5zm-29.1 5.3v-11h-11.5v28.9q1.5 0 3 0 0.4 0.1 0.7-0.1 0.4-0.2 0.6-0.6c0.9-1.5 2.1-2.8 3.7-3.7 1.5-0.9 3.3-1.4 5-1.4 1.8 0.1 3.6 0.5 5.1 1.4 1.5 0.9 2.8 2.2 3.7 3.7q0.2 0.4 0.5 0.6 0.3 0.2 0.7 0.1 6.9 0 13.7 0 0.5 0 0.9 0c0-0.2 0.1-0.4 0.1-0.6q0-13.8 0-27.5c0-0.6-0.2-0.8-0.8-0.8q-5.1 0-10.1 0c-0.2 0-0.4 0-0.7 0.1v11c-2.2-1.2-4.4-2.2-6.5-3.3q-0.3-0.2-0.8-0.2-0.5 0-0.9 0.2c-2 1.1-4.1 2.1-6.4 3.2zm43.6-16.4c0.2-0.2 0.4-0.4 0.5-0.6 3.6-4.5 7.1-9 10.6-13.5 1.4-1.7 2.4-3.6 2.9-5.6 0.6-2.1 0.7-4.2 0.3-6.3-0.3-2-1-3.8-2.1-5.5-1-1.6-2.4-3.1-4-4.2-1.7-1.1-3.5-1.8-5.4-2.2-2-0.4-3.9-0.4-5.9 0-2.4 0.5-4.6 1.7-6.4 3.3-1.9 1.6-3.3 3.6-4.1 5.9-0.9 2.3-1.2 4.8-0.8 7.2 0.3 2.4 1.3 4.7 2.7 6.7 3.8 5 7.7 9.8 11.7 14.8zm3.2 25.7c-2.6 0-6.2 0-8.8 0q-0.6 0-1.2-0.2-0.6-0.3-1-0.7-0.5-0.4-0.7-1-0.2-0.6-0.2-1.2 0-1.3 0-2.6 0-0.6 0.2-1.2 0.3-0.6 0.7-1 0.4-0.4 1-0.6 0.6-0.3 1.2-0.2 1.5 0 3 0h3.5c-0.1-2.4-0.6-2.9-2.8-2.9h-11.6q-0.5 0-0.9 0.1v17.2q0.1 0 0.3-0.1c1.1-1.1 2.5-1.8 3.9-2.3 1.5-0.4 3.1-0.5 4.6-0.3 1.5 0.3 3 0.9 4.3 1.8 1.2 0.9 2.3 2.1 3 3.4 0.1 0.2 0.3 0.4 0.5 0.4q1.5 0 3.2 0zm15.7 2c2.1-2.9 4.2-5.7 6.2-8.5q0.7-1.1 0.9-2.3 0.2-1.3 0-2.6c-0.3-1.4-0.9-2.6-1.9-3.7-0.9-1-2.2-1.7-3.6-2.1-1.4-0.3-2.9-0.2-4.2 0.3-1.4 0.5-2.6 1.4-3.4 2.6-0.8 1.2-1.3 2.6-1.3 4-0.1 1.4 0.3 2.8 1.1 4 1.9 2.8 4 5.4 6.2 8.3zm-58.1-37.8c2.1-2.9 4.3-5.6 6.2-8.5 0.9-1.4 1.2-3.2 0.9-4.9-0.3-1.7-1.2-3.2-2.5-4.3-1.3-1-3-1.6-4.7-1.6-1.7 0-3.3 0.6-4.6 1.7-1.3 1.1-2.2 2.6-2.5 4.3-0.3 1.7 0.1 3.5 1 4.9 1.9 2.9 4 5.5 6.2 8.5zm31.9 56q1.4 0 2.7-0.5 1.4-0.5 2.4-1.5 1-1.1 1.6-2.4 0.6-1.3 0.6-2.8c0-1.9-0.8-3.7-2.1-5-1.4-1.4-3.2-2.2-5.1-2.2q-1.4 0-2.8 0.5-1.3 0.6-2.4 1.6-1 1-1.6 2.3-0.5 1.4-0.5 2.8c0 1.9 0.7 3.8 2.1 5.1 1.3 1.4 3.1 2.2 5.1 2.2zm-27.6-7.3q0-1.4-0.6-2.7-0.5-1.4-1.5-2.4-1-1-2.4-1.5-1.3-0.6-2.8-0.6c-1.9 0-3.7 0.8-5.1 2.2-1.3 1.3-2.1 3.2-2.1 5.1 0 1.9 0.8 3.7 2.2 5.1 1.3 1.3 3.1 2.1 5.1 2.1q1.4 0 2.7-0.6 1.4-0.5 2.4-1.5 1-1 1.6-2.4 0.5-1.3 0.5-2.8zm2.9-33.3h-8.6v6.3c1.3-0.7 2.5-1.2 3.6-1.8q0.3-0.2 0.7-0.2 0.4 0 0.7 0.2c1.1 0.6 2.3 1.2 3.6 1.8zm14.5 31.9h-14.5v2.7h14.5zm19.2-17.4h-7.4v2.8h8.1zm-59.7 20.1h5.7v-2.7h-5.7zm60.9-2.8v2.8h2.8v-2.8z"/><path class="b" d="m34.9 40.6v-2.8h2.8v2.8z"/><path class="b" d="m40.7 37.8h2.8v2.8h-2.8z"/><path class="b" d="m46.5 40.6v-2.8h2.8v2.8z"/><path fill-rule="evenodd" class="b" d="m49.4 17.4c-0.1-3 1.1-6 3.3-8.1 2.1-2.2 5.1-3.5 8.1-3.5 1.5 0 3.1 0.3 4.5 0.8 1.4 0.6 2.7 1.4 3.8 2.5 1.1 1.1 2 2.4 2.6 3.8 0.6 1.4 0.9 2.9 0.9 4.4 0 1.6-0.3 3.1-0.9 4.5-0.6 1.4-1.4 2.7-2.5 3.8-1.1 1.1-2.3 1.9-3.8 2.5-1.4 0.6-2.9 0.9-4.4 0.9-1.5 0-3-0.3-4.5-0.9-1.4-0.5-2.7-1.4-3.7-2.5-1.1-1-2-2.3-2.6-3.7-0.5-1.4-0.8-2.9-0.8-4.5zm11.6 8.7c1.1 0 2.2-0.2 3.3-0.7 1.1-0.4 2-1.1 2.8-1.9 0.8-0.8 1.5-1.7 1.9-2.8 0.4-1.1 0.6-2.2 0.6-3.3 0-1.2-0.2-2.3-0.6-3.3-0.5-1.1-1.1-2-1.9-2.9-0.8-0.8-1.8-1.4-2.8-1.8-1.1-0.4-2.2-0.7-3.3-0.7-1.2 0-2.3 0.3-3.4 0.7-1 0.4-2 1.1-2.8 1.9-0.8 0.8-1.4 1.8-1.9 2.8-0.4 1.1-0.6 2.2-0.6 3.4 0 2.3 0.9 4.4 2.5 6.1 1.7 1.6 3.9 2.5 6.2 2.5z"/><path fill-rule="evenodd" class="b" d="m84.2 56.6c0 1.2-0.5 2.3-1.3 3.1-0.8 0.8-1.9 1.3-3.1 1.3-1.1 0-2.2-0.5-3.1-1.3-0.8-0.8-1.2-1.9-1.2-3.1 0-1.2 0.4-2.3 1.3-3.1 0.8-0.8 1.9-1.3 3.1-1.3 1.2 0 2.3 0.5 3.1 1.3 0.8 0.9 1.2 2 1.2 3.1zm-4.3 1.4q0.3 0 0.5-0.1 0.3-0.1 0.5-0.3 0.2-0.2 0.3-0.5 0.1-0.2 0-0.5 0-0.3-0.1-0.6-0.1-0.2-0.3-0.4-0.2-0.2-0.4-0.3-0.3-0.1-0.6-0.1-0.2 0-0.5 0.1-0.3 0.1-0.5 0.3-0.2 0.2-0.3 0.5-0.1 0.2-0.1 0.5 0 0.3 0.1 0.6 0.1 0.2 0.3 0.4 0.2 0.2 0.5 0.3 0.3 0.1 0.6 0.1z"/><path fill-rule="evenodd" class="b" d="m21.8 23.2q-0.9 0-1.7-0.3-0.8-0.3-1.4-0.9-0.6-0.7-0.9-1.4-0.4-0.8-0.4-1.7 0-0.9 0.3-1.7 0.4-0.8 1-1.4 0.6-0.6 1.4-1 0.8-0.3 1.7-0.3c1.2 0 2.3 0.5 3.1 1.3 0.8 0.8 1.2 1.9 1.3 3.1 0 1.1-0.5 2.2-1.3 3-0.9 0.9-2 1.3-3.1 1.3zm1.4-4.4c0-0.3-0.2-0.7-0.4-1-0.3-0.2-0.7-0.4-1.1-0.4-0.4 0-0.7 0.2-0.9 0.5-0.3 0.2-0.4 0.6-0.4 1q0 0.3 0.1 0.5 0.1 0.3 0.3 0.5 0.2 0.2 0.5 0.3 0.2 0.1 0.5 0.1c0.4 0 0.7-0.2 1-0.5 0.3-0.2 0.4-0.6 0.4-1z"/><path fill-rule="evenodd" class="b" d="m53.6 84.2q-0.8 0-1.6-0.4-0.8-0.3-1.4-0.9-0.6-0.7-0.9-1.5-0.4-0.8-0.3-1.6c0-1.2 0.4-2.3 1.3-3.1 0.8-0.8 1.9-1.3 3-1.3 1.2 0.1 2.3 0.5 3.1 1.4 0.8 0.8 1.3 1.9 1.3 3q0 0.9-0.4 1.7-0.3 0.8-0.9 1.4-0.7 0.7-1.5 1-0.8 0.3-1.7 0.3zm0.2-5.8c-0.3 0-0.7 0.1-1 0.3-0.3 0.3-0.4 0.6-0.5 1q0 0.2 0 0.5 0.1 0.3 0.3 0.5 0.1 0.2 0.4 0.4 0.2 0.1 0.5 0.1 0.3 0.1 0.6 0 0.2-0.1 0.5-0.2 0.2-0.2 0.4-0.5 0.1-0.2 0.1-0.5c0.1-0.4-0.1-0.8-0.3-1.1-0.2-0.3-0.6-0.5-1-0.5z"/><path fill-rule="evenodd" class="b" d="m23.2 79.8q0 0.9-0.3 1.7-0.3 0.8-1 1.4-0.6 0.6-1.4 1-0.8 0.3-1.6 0.3c-1.2 0-2.3-0.5-3.1-1.3-0.8-0.8-1.3-1.9-1.3-3 0-1.2 0.5-2.3 1.3-3.2 0.8-0.8 1.9-1.3 3.1-1.3 1.2 0.1 2.3 0.5 3.1 1.4 0.8 0.8 1.2 1.9 1.2 3zm-2.9 0c0-0.4-0.2-0.7-0.4-1-0.3-0.3-0.7-0.4-1-0.4-0.4 0-0.8 0.2-1 0.4-0.3 0.3-0.5 0.7-0.5 1.1q0 0.3 0.2 0.5 0.1 0.3 0.3 0.5 0.2 0.2 0.5 0.3 0.3 0.1 0.6 0 0.2 0 0.5-0.1 0.2-0.1 0.4-0.3 0.2-0.2 0.3-0.5 0.1-0.2 0.1-0.5z"/></g></svg>