<svg version="1.2" xmlns="http://www.w3.org/2000/svg" viewBox="0 0 90 90" width="90" height="90"><defs><clipPath clipPathUnits="userSpaceOnUse" id="cp1"><path d="m0 0h90v90.02h-90z"/></clipPath></defs><style>.a{fill:#263c84}.b{fill:#f36e21}</style><g clip-path="url(#cp1)"><path fill-rule="evenodd" class="a" d="m47.9 78.2c-1.5 3.4-2 3.9-4.7 5.4 0.7 2.2 0.4 4.2-1.7 5.6-0.7 0.5-1.5 0.8-2.4 0.8-0.9 0-1.7-0.2-2.4-0.7-1.9-1.3-2.5-3.1-2-5.3h-12.3c0.5 2.3-0.1 4.3-2.3 5.4-0.7 0.5-1.6 0.7-2.4 0.6-0.9-0.1-1.7-0.4-2.4-1-1.8-1.4-2.1-3.3-1.4-5.5-1.4-0.6-2.7-1.6-3.6-2.9-0.8-1.2-1.2-2.6-1.3-4q0-19.6 0-39.2c0-1.9 0.8-3.8 2.2-5.2 1.4-1.4 3.3-2.2 5.3-2.2 2 0 3.9 0 6 0 0-7.6 0-16.3 0-23.9 0-1.5 0.5-2.9 1.5-4.1 1-1.1 2.3-1.8 3.8-2 1.5-0.2 3 0.2 4.2 1.1 1.3 0.9 2.1 2.2 2.4 3.7q0.1 0.7 0.1 1.5 0 11.2 0 22.5v1.2h5.6c4.7 0 7.9 3.1 7.9 7.9v14h0.2q0.2-0.4 0.4-0.8l7.3-15.1c1.4-2.9 3.8-3.7 6.7-2.3l26 12.4c1.5 0.8 1.7 1.4 1 3q-9.1 18.9-18.2 37.9c-0.8 1.6-1.4 1.8-3 1l-19.6-9.4zm-25.3-45.2h-5.8q-0.9 0-1.8 0.3-0.9 0.3-1.6 1-0.7 0.7-1.1 1.6-0.3 0.9-0.3 1.9 0 2.9 0 5.9 0 16.2 0 32.5c0 2.7 1.9 4.8 4.5 4.8q12 0.1 24.1 0c0.9 0 1.9-0.3 2.7-0.9 0.7-0.6 1.3-1.5 1.5-2.4 0.2-0.6 0.2-1-0.5-1.3q-1-0.4-1.9-0.9c-2.9-1.3-3.7-3.8-2.3-6.6q2.3-4.8 4.6-9.7 0.3-0.5 0.3-1 0-10.4 0-20.7c0-1.1-0.4-2.1-1.1-2.9-0.7-0.9-1.7-1.4-2.7-1.5q-1.6-0.2-3.2-0.1h-3.5v7.5h-3v-7.4h-6v7.4h-2.9zm46.4 51.9q0 0-0.1 0zm14.9-31l-26.9-13c0 0-0.1 0.1-0.1 0.2q-7.1 14.6-14.1 29.3c-0.6 1.1-0.3 1.8 0.9 2.3l19.3 9.3c2 1 4 1.9 6 2.9zm-52.3-23.9c0-1.2 0-22.8 0-24 0-0.5-0.2-1.1-0.5-1.6-0.3-0.5-0.8-0.9-1.3-1.1-0.5-0.2-1-0.3-1.6-0.3-0.5 0.1-1 0.3-1.5 0.7q-0.5 0.5-0.8 1.2-0.3 0.7-0.3 1.5 0 11.4 0 22.9v0.7zm55 18.5c-0.4-0.2-0.6-0.3-0.9-0.4l-15.4-7.4q-4.5-2.2-9.1-4.4c-1.1-0.6-2.2-0.1-2.3 1-0.2 0.9 0.4 1.4 1.1 1.7q9.5 4.6 19 9.1l6.3 3.1zm-68.4 38.4c0.3 0 0.7-0.2 1-0.4 0.3-0.3 0.5-0.7 0.5-1.1 0-0.3-0.2-0.7-0.5-1-0.2-0.3-0.6-0.4-1-0.5-0.4 0-0.7 0.2-1 0.5-0.3 0.2-0.5 0.6-0.5 1 0 0.4 0.2 0.7 0.4 1 0.3 0.3 0.6 0.5 1 0.5zm22.5-1.5c0-0.4-0.2-0.8-0.4-1.1-0.3-0.2-0.7-0.4-1.1-0.4-0.4 0-0.7 0.2-1 0.5-0.3 0.3-0.4 0.6-0.4 1 0 0.4 0.2 0.8 0.4 1.1 0.3 0.2 0.7 0.4 1.1 0.4 0.4 0 0.7-0.2 1-0.5 0.3-0.3 0.4-0.7 0.4-1.1z"/><path fill-rule="evenodd" class="b" d="m72.7 8.6c2.2 1.5 4.3 2.9 6.5 4.3q0.2 0.1 0.4 0.1 0.2 0 0.4-0.1c1-0.7 2-1.4 3-2 0.4-0.3 0.8-0.4 1.2-0.4 0.4 0 0.8 0.2 1 0.6 1 0.9 1.9 1.8 2.8 2.7q0.3 0.3 0.4 0.6 0.2 0.3 0.2 0.6 0 0.3-0.2 0.6-0.1 0.3-0.4 0.6c-1.9 1.9-3.9 3.9-5.9 5.8-1.6 1.5-3.6 1.6-5.6 0.4q-7.8-4.7-15.5-9.4-4.4-2.8-8.8-5.5c-1.4-0.8-1.5-1.7-0.4-2.9 1.7-1.9 3.7-3.1 6.3-3.1 1.7 0.1 3.3 0.7 4.6 1.7 0.5 0.5 1.2 0.7 1.9 0.8 0.7 0 1.4-0.2 2-0.6 1.9-1.2 4-2.1 6-3.1 0.3-0.2 0.7-0.3 1.2-0.2 0.4 0 0.8 0.2 1 0.6 2.2 2.1 2.3 2.1 0.4 4.6-0.8 1.1-1.6 2.2-2.5 3.3zm-17.6-2.8l6.5 4q8.2 4.9 16.4 10c0.6 0.4 1.3 0.7 1.9 0.1 1.7-1.6 3.3-3.3 4.9-4.9-0.9-1.1-0.9-1.1-2-0.4-0.6 0.5-1.3 0.9-1.9 1.3-0.4 0.4-0.9 0.6-1.4 0.6-0.5 0-1-0.2-1.4-0.6-2.4-1.6-4.9-3.3-7.3-4.9-2.2-1.5-2.3-1.8-0.7-4l2.3-3c-2.4 1-4.6 2-6.8 3.2q-0.5 0.3-1.1 0.3-0.6-0.1-1.1-0.4-1.6-1-3.2-1.9c-0.8-0.5-1.7-0.7-2.7-0.6-0.9 0.1-1.8 0.5-2.4 1.2z"/><path class="a" d="m84.7 31.3c-0.3-0.9-0.7-1.8-1-2.6-0.3-0.8-0.7-1.7-1.1-2.5l2.6-1.4c2.7 5.3 4.3 11.2 4.7 17.1l-2.9 0.2q-0.6-3.9-1.2-7.6c-4.6-0.2-9.1-1.4-13.2-3.6-2.6-1.4-5-3.2-7.1-5.3l-2.5-2.4c-1-1.1-1.7-1.1-2.8-0.2-0.9 0.8-2.1 1.3-3.3 1.2-1.2 0-2.4-0.5-3.2-1.4-3.5-3.3-7.6-3.4-11.1-0.2-1.3 1.3-3.1 2-5 2v-2.9c1.4-0.2 2.6-0.8 3.5-1.8 1.9-1.7 4.4-2.6 7-2.6 2.6 0 5 0.9 7 2.6q0.3 0.4 0.7 0.7 0.2 0.3 0.6 0.4 0.3 0.2 0.6 0.2 0.4 0 0.7-0.1 0.3-0.2 0.5-0.4c2.5-2 4.8-1.9 7 0.3 2.7 2.8 5.4 5.4 8.8 7.2 3.1 1.6 6.3 2.7 9.7 3.1q0.5 0 1 0z"/><path class="b" d="m7.4 63.6l-2.7 1.4c-4.6-9.2-5.9-19.7-3.6-29.7 2.5-11.1 8.4-19.9 17.5-26.8 0.5 0.7 0.9 1.2 1.3 1.8q0.2 0.3 0.5 0.7c-8.1 5.8-13.8 14.3-16.1 24-2.4 9.6-1.3 19.7 3.1 28.6z"/><path class="b" d="m46.6 87.2l11.6-2 0.8 2.5c-4 1.4-8.2 2.1-12.4 2.3z"/><path class="b" d="m37.7 3.4l-0.4-2.7c4.1-0.8 8.3-0.9 12.4-0.4l-0.3 2.7z"/><path class="a" d="m21 77.9h-2.9v-34.3h2.9z"/><path class="a" d="m30 77.9h-2.9v-34.3h2.9z"/><path class="a" d="m36.1 43.6h2.9v34.3h-2.9z"/><path fill-rule="evenodd" class="b" d="m64.5 49.1c1.4 0 2.8 0.2 4 0.7 1.3 0.6 2.5 1.3 3.4 2.3 1 1 1.8 2.1 2.3 3.4 0.5 1.3 0.8 2.6 0.8 4 0 1.4-0.2 2.8-0.8 4-0.5 1.3-1.3 2.5-2.2 3.4-1 1-2.2 1.8-3.4 2.3-1.3 0.6-2.7 0.8-4.1 0.8-2.7 0-5.4-1.1-7.4-3-1.9-2-3-4.6-3.1-7.4 0-1.4 0.3-2.8 0.8-4 0.6-1.3 1.3-2.5 2.3-3.5 1-0.9 2.1-1.7 3.4-2.2 1.3-0.6 2.7-0.8 4-0.8zm4.8 11.1l2.4 1.1c0.9-2.1-0.3-5.8-1.5-6.5-0.3 1.7-0.6 3.5-0.9 5.4zm-5 6.7c2.2 0.3 5.2-1.1 6.1-2.9l-2.4-1.1zm-5.4-2.5c0.3-1.7 0.6-3.3 0.9-4.9 0-0.2 0-0.6-0.2-0.7-0.7-0.4-1.5-0.7-2.3-1.1-0.3 1.2-0.3 2.4 0 3.5 0.2 1.2 0.8 2.3 1.5 3.2zm5.9-12.3c-2.2-0.2-5.1 1.1-6 2.9l2.4 1.2zm0.5 9.7l-0.3-0.4-2.4-1.2-0.6 4.1 0.3 0.1zm1.2-3.1c0.2-1.5 0.4-2.8 0.6-4.1l-0.4-0.1-2.8 3z"/><path class="a" d="m64.8 76.3l-1.3 2.7-13.6-6.5 1.3-2.7z"/></g></svg>