<svg version="1.2" xmlns="http://www.w3.org/2000/svg" viewBox="0 0 90 89" width="90" height="89"><defs><clipPath clipPathUnits="userSpaceOnUse" id="cp1"><path d="m0 0h90v88.35h-90z"/></clipPath></defs><style>.a{fill:#263c84}.b{fill:#f36e21}</style><g clip-path="url(#cp1)"><path fill-rule="evenodd" class="a" d="m84.7 81.8c0.6 0.8 0.9 1.8 0.8 2.9-0.1 1-0.6 2-1.4 2.7-0.8 0.7-1.8 1-2.9 1h-67.6c-2.9 0-5.6-0.9-8-2.6-2.3-1.7-4-4.1-4.9-6.8-0.3-0.8-0.5-1.7-0.7-2.6v-3.3q0.1-0.3 0.2-0.5c0.9-5.3 3.9-8.9 8.8-10.8 0.5-0.2 1-0.3 1.5-0.5-4.7-3.8-6.9-8.6-5.5-14.5 1.5-6.1 5.7-9.5 11.9-10.6v-0.9c0-3.7 0-7.4 0-11 0.1-0.3 0-0.7-0.2-0.9-0.2-0.3-0.4-0.4-0.7-0.5q-6.2-2.1-12.3-4.2-0.9-0.3-1.6-1-0.5-0.6-0.6-1.2-0.2-0.7 0-1.4 0.2-0.7 0.7-1.2 0.5-0.4 1.2-0.6 10.8-3.8 21.5-7.5 0.2-0.1 0.4-0.1 0.2-0.1 0.5-0.1 0.2 0.1 0.5 0.2 0.2 0.1 0.4 0.3 0.2 0.2 0.2 0.5c0.1 0.3 0.1 0.6 0 1-0.2 0.3-0.4 0.5-0.8 0.6q-0.4 0.2-0.8 0.3l-20.3 7c-0.2 0.1-0.5 0.3-1 0.4l12.8 4.5c0.1-0.2 0.1-0.3 0.1-0.5 0.4-2 1.2-2.8 3.2-3.1 1.2-0.2 2.3-0.4 3.4-0.6 6.6-1 13.2-1.5 19.8-1.5 7.1 0.1 14.2 0.7 21.3 1.9 2.9 0.5 3.5 1 4.1 3.8l12.8-4.5c-0.4-0.2-0.6-0.3-0.8-0.3q-18-6.3-36.1-12.6c-1.2-0.4-2.5-0.4-3.8 0q-4.3 1.5-8.6 3-0.2 0.1-0.5 0.2-0.3 0-0.6-0.2-0.3-0.1-0.5-0.3-0.2-0.2-0.3-0.5c-0.2-0.8 0.2-1.4 1.1-1.7 2.9-1 5.8-2 8.6-3 1.8-0.6 3.7-0.6 5.4 0q18.2 6.3 36.4 12.6c1.7 0.6 2.3 1.4 2.3 3.2q0 0.7 0 1.5l-6.4 2.3q-4.3 1.4-8.5 2.9c-0.6 0.2-0.6 0.5-0.6 0.9 0 3.2 0 9.2 0 12.3 2.8 0 5.5 0 8.2 0 0.4 0 1-0.2 1.1-0.4q0.2-0.4 0.4-0.8c-0.2 0.4-0.9 1.9-1.8 3.9-19.1 0-38.9 0-58.1 0q-1.1 0-2.1 0.2c-2.9 0.5-5.4 2.2-7 4.6-1.6 2.3-2.3 5.2-1.8 8.1 0.4 2.6 1.8 4.9 3.8 6.6 2 1.6 4.6 2.5 7.2 2.5h57.8q0.4 0 0.7 0c0.4-0.1 0.7-0.2 0.9-0.5 0.2-0.3 0.3-0.6 0.3-0.9 0-0.4-0.1-0.7-0.3-1-0.2-0.3-0.5-0.4-0.9-0.5q-0.5 0-1 0h-39.9q-0.5 0.1-1 0c-0.3 0-0.6-0.2-0.8-0.4-0.2-0.3-0.3-0.6-0.3-0.9 0-0.3 0.1-0.6 0.3-0.9 0.2-0.2 0.5-0.3 0.8-0.4q0.6 0 1.2 0h37.4q-0.4-2.7-0.6-5.4 0-0.1 0-0.3c0.1-1.7 0.4-3.4 0.6-5.2h-39.8v6.6c0 1.8-0.8 2.3-2.5 1.7-0.8-0.3-1.5-0.7-2.3-0.9q-0.6-0.2-1.2 0c-0.9 0.3-1.8 0.7-2.7 1-1.2 0.5-2.1-0.1-2.1-1.4 0-1.3 0-5.8 0-7.1h-1.6-0.2q-2.2 0-4.4 0.3c-1.3 0.3-2.5 1.1-3.2 2.2-0.7 1.1-1 2.5-0.7 3.8 0.2 1.3 0.8 2.5 1.9 3.4 1 0.9 2.3 1.3 3.6 1.2q5.2 0 10.4 0c1 0 1.6 0.6 1.6 1.4 0 0.8-0.6 1.3-1.6 1.3-3.5 0-7.1 0.1-10.6 0-1.3 0-2.5-0.3-3.7-0.8-1.1-0.6-2.1-1.5-2.9-2.5-0.7-1-1.2-2.2-1.4-3.4-0.2-1.3-0.2-2.6 0.2-3.8 1.1-3.5 4.3-5.8 8.3-5.8 18.3 0 37.3 0 55.6 0q0.4 0.1 0.8 0h0.1q-0.3 0.9-0.6 1.7 0.7 1.1 1.8 1.8c-0.9 2.8-1 5.7-0.3 8.5 0.2 1 0.5 1.8 1.7 1.9q0.8 0.1 1.3 0.6c1.6 1.2 1.9 2.8 1.5 4.7h0.8c1.1 0.1 2.1 0.5 2.8 1.2 0.8 0.7 1.2 1.7 1.3 2.7 0 1.1-0.3 2.1-1 2.9-0.6 0.8-1.5 1.3-2.6 1.5q-0.2 0-0.4 0.2-0.2 0.2-0.3 0.4c-1.1 3.1-1.1 6.5 0 9.6q0.1 0.3 0.3 0.6 0.3 0.2 0.6 0.2c1 0.2 1.9 0.8 2.5 1.6zm-5.4-35.5c-1 0-1.9-0.3-2.6-1q1.2 0.8 2.6 1zm-48.1-1.8h-5.3v5.4c0.8-0.6 1.7-0.9 2.6-0.9 1 0 1.9 0.3 2.7 0.8zm-10.6-25.2c-0.7 0.2-1 0.5-1 1.2 0 2 0 6.6 0 8.6 0.4 0 31.9 0 32.2 0q0.3 0 0.5 0.1 0.2 0.1 0.4 0.3 0.2 0.2 0.2 0.4 0.1 0.2 0.1 0.5c0 0.3-0.1 0.6-0.3 0.9-0.2 0.2-0.5 0.4-0.8 0.4q-0.5 0.1-0.9 0h-31.3v4.5h46.1v-4.5h-7.6c-1.1 0-1.7-0.5-1.7-1.3 0-0.8 0.6-1.3 1.7-1.3h7.8c0-3.1 0-6 0-8.9 0-0.6-0.4-0.7-1-0.8q-8.4-1.6-17-1.9c-9.2-0.4-18.4 0.3-27.4 1.9zm61.1 66.3c0.4 0 0.7-0.2 0.9-0.4 0.3-0.3 0.4-0.7 0.4-1 0-0.4-0.1-0.7-0.4-1-0.2-0.2-0.5-0.4-0.8-0.4q-0.6-0.1-1.1-0.1-4.3 0-8.6 0-0.3 0.1-0.6 0-0.2-0.1-0.4-0.3-0.2-0.2-0.4-0.4-0.1-0.3-0.1-0.6 0-0.3 0.1-0.5 0.1-0.3 0.4-0.5 0.2-0.2 0.4-0.3 0.3 0 0.5 0c0.3 0 6.2 0 6.5 0q-0.4-2.8-0.6-5.5 0.1-2.7 0.6-5.4h-12.4q0 0.1-0.1 0.2c0 2.2 0 4.4 0 6.6 0.1 1.6-1.1 2.3-2.3 1.6-0.9-0.6-2-0.9-3.1-0.9-1.1 0-2.1 0.3-3.1 0.9-1.4 0.7-2.3 0.1-2.3-1.6v-6.8h-41.6c-0.8 0-1.7 0.2-2.4 0.6-0.7 0.4-1.4 0.9-1.9 1.6-0.5 0.6-0.8 1.4-0.9 2.2-0.2 0.9-0.2 1.7 0.1 2.5 0.3 1.2 1 2.2 2 2.9 1 0.8 2.2 1.1 3.4 1.1h51q0.5-0.1 1 0c0.3 0 0.6 0.2 0.9 0.4 0.2 0.2 0.3 0.6 0.3 0.9 0 0.3-0.1 0.7-0.4 0.9-0.2 0.3-0.5 0.4-0.9 0.4-0.3 0-51.1 0-51.4 0q-0.6 0-1.3 0c-1.1-0.1-2.3-0.4-3.3-1-1-0.5-1.9-1.3-2.6-2.2-0.7-0.9-1.2-2-1.4-3.1-0.3-1.2-0.3-2.4 0-3.5 0.4-1.9 1.4-3.5 2.9-4.7 1.5-1.2 3.3-1.8 5.3-1.7h66.6q0.5 0 1 0c0.4-0.1 0.7-0.3 0.9-0.5 0.3-0.3 0.4-0.6 0.4-1 0-0.3-0.1-0.7-0.3-1-0.3-0.2-0.6-0.4-1-0.4q-0.6-0.1-1.2-0.1h-65.6q-1.1 0-2.1 0.1c-2.9 0.3-5.5 1.7-7.4 3.9-1.8 2.2-2.8 5-2.6 7.9 0.2 2.8 1.5 5.5 3.6 7.4 2.1 1.9 4.9 2.9 7.7 2.9h66.9q0.4 0 0.8 0zm-23.6-16.5v5.5c0.7-0.6 1.6-0.9 2.6-0.9 0.9 0 1.9 0.3 2.6 0.9v-5.5z"/><path fill-rule="evenodd" class="b" d="m90 42.9c0 0.7-0.2 1.3-0.6 1.8-0.4 0.6-0.8 1-1.4 1.3-0.6 0.3-1.3 0.4-1.9 0.4q-1.4 0-2.9 0-1.4 0-2.9 0-0.5 0-1 0-1.4-0.3-2.6-1l-0.2-0.2q0 0.1 0 0.1-1-0.8-1.8-1.8 0.3-0.9 0.7-1.7 0.1-0.1 0.1-0.1 0.1-0.1 0.2-0.1c0.3-0.9 0.6-1.7 1-2.7h-0.2c0.9-1.9 1.6-3.5 1.8-3.9l0.1-0.1q0.2-0.4 0.2-0.8 0-0.3-0.3-0.7c-0.7-1-1-2.2-0.8-3.4 0.1-1.3 0.6-2.4 1.5-3.3q1.1-0.9 2.4-1.6v-6.3l2.7-1c0 2.3 0 4.5 0 6.8q-0.1 0.3 0.1 0.6 0.2 0.3 0.5 0.3 1.1 0.5 2 1.4 0.8 0.8 1.2 2 0.3 1.1 0.1 2.3-0.1 1.2-0.8 2.2-0.2 0.3-0.2 0.7-0.1 0.3 0.1 0.6 1.3 3.2 2.6 6.3c0.3 0.6 0.4 1.3 0.3 1.9zm-8.2-14.9q-0.5 0.2-0.9 0.6-0.4 0.4-0.6 0.8-0.2 0.5-0.2 1.1 0 0.5 0.2 1 0.2 0.5 0.6 0.9 0.4 0.4 0.8 0.6 0.5 0.2 1.1 0.2 0.5 0 1-0.2 0.5-0.2 0.9-0.6 0.3-0.4 0.5-0.9 0.2-0.5 0.2-1c0-0.7-0.2-1.4-0.7-1.9-0.5-0.5-1.2-0.7-1.9-0.8q-0.5 0-1 0.2zm5 15.6q0.2-0.1 0.4-0.4 0.1-0.2 0.2-0.5 0-0.2-0.1-0.5c-0.9-2.2-1.8-4.4-2.6-6.4h-3.8c-0.8 2-1.7 4.1-2.6 6.3q-0.1 0.3-0.1 0.5 0 0.3 0.1 0.6 0.2 0.2 0.4 0.4 0.3 0.1 0.6 0.1 3.5 0 7 0 0.2 0 0.5-0.1z"/><path class="b" d="m31.2 44.4v5.4c-0.8-0.6-1.7-0.9-2.7-0.8-1 0-1.9 0.3-2.6 0.8v-5.4h-2.8v3.1q0 2 0 4c0 1.3 0.9 1.8 2.1 1.4 0.9-0.3 1.8-0.8 2.7-1q0.6-0.2 1.2 0c0.8 0.2 1.5 0.5 2.3 0.8 1.7 0.7 2.5 0.2 2.5-1.6v-6.6z"/><path class="b" d="m50 69.3v5.3c-0.8-0.5-1.7-0.8-2.6-0.8-1 0-1.9 0.3-2.7 0.9v-5.5h-2.7v3.2q0 1.9 0 3.9c0 1.4 0.8 1.9 2 1.4 0.9-0.3 1.8-0.7 2.7-1q0.7-0.2 1.3 0c0.8 0.2 1.5 0.6 2.3 0.9 1.7 0.7 2.4 0.2 2.5-1.7v-6.6z"/></g></svg>