<svg version="1.2" xmlns="http://www.w3.org/2000/svg" viewBox="0 0 93 94" width="93" height="94"><defs><clipPath clipPathUnits="userSpaceOnUse" id="cp1"><path d="m0-1h93v95h-93z"/></clipPath></defs><style>.a{fill:#263c84}.b{fill:#f36e21}</style><g clip-path="url(#cp1)"><path fill-rule="evenodd" class="a" d="m71.4 77.7c1.4 0.5 1.6 0.8 1.6 2.1q0 5.8 0 11.5c0 1.6-0.5 2.1-2 2.1h-21c-1.5 0-2-0.5-2-2v-11.5c0-1.5 0.2-1.7 1.6-2.3q0-7 0-14.1c-0.1-2.6 0.5-5.2 1.8-7.4 1.3-2.3 3.2-4.2 5.5-5.4 4.3-2.6 8.6-5.1 13-7.6 0.4-0.3 0.8-0.8 1-1.2q3.3-9.7 6.7-19.3c0.4-1.4 1.3-2.6 2.5-3.4 1.2-0.8 2.6-1.1 4-1 1.4 0.1 2.6 0.7 3.6 1.6 1 0.9 1.7 2 2 3.4q0.6 1.8 1.7 3.5c0.7 0.7 1.1 1.5 1.3 2.5 0.3 0.9 0.3 1.9 0 2.8q-3.4 13-6.9 25.9c-0.4 1.5-1.2 2.8-2.4 3.8-3.3 2.9-6.5 5.8-9.8 8.6-0.7 0.6-1.3 1.3-1.7 2.1-0.4 0.9-0.5 1.8-0.5 2.7 0 0.9 0 1.7 0 2.6zm-3.1 0c0-1 0-1.9 0-2.8-0.1-1.3 0.2-2.6 0.7-3.8 0.6-1.2 1.4-2.2 2.4-3.1 3.2-2.8 6.5-5.7 9.7-8.6 0.8-0.7 1.4-1.7 1.8-2.7 2.3-8.3 4.5-16.6 6.7-25q0.2-0.6 0.2-1.2-0.1-0.7-0.4-1.2-0.3-0.6-0.8-1-0.5-0.4-1.1-0.6c-0.8-0.2-1.7-0.1-2.4 0.4-0.7 0.4-1.2 1.1-1.4 1.9q-2.4 7.2-4.7 14.3c-0.1 0.4-0.1 0.8 0 1.2 0.7 1.5 0.9 3.1 0.4 4.7-0.5 1.5-1.6 2.8-3 3.6q-4.2 2.4-8.4 4.8-0.3 0.2-0.6 0.3c-0.3 0.2-0.7 0.2-1 0.1-0.4-0.1-0.7-0.4-0.8-0.7-0.3-0.3-0.4-0.7-0.3-1 0-0.4 0.2-0.8 0.5-1q0.4-0.3 0.8-0.5l8-4.6q0.8-0.4 1.3-1.1 0.4-0.6 0.5-1.4c0.1-0.6 0-1.2-0.2-1.7-0.3-0.6-0.7-1-1.2-1.3-0.5-0.4-1-0.5-1.6-0.5-0.6 0-1.2 0.1-1.7 0.5q-6.6 3.9-13.3 7.7c-1.8 1-3.3 2.5-4.3 4.3-1 1.8-1.5 3.8-1.5 5.9q0 6.6 0 13.1v1zm1.5 12.5v-9.2h-18.6v9.2zm6.4-47.5q0.2-0.4 0.3-0.8 2-6.3 4.1-12.7c0.3-1.1 0.9-2.2 1.8-3 0.8-0.7 1.9-1.3 3-1.5q0.6-0.2 1.2-0.2c0-0.8-0.3-1.5-0.8-2-0.4-0.6-1.1-0.9-1.8-1-0.8-0.1-1.5 0.1-2.1 0.5-0.6 0.4-1.1 1-1.3 1.7l-0.5 1.4c-2 5.6-3.9 11.3-5.9 17z"/><path fill-rule="evenodd" class="a" d="m43.3 77.7c1.4 0.5 1.6 0.8 1.6 2.3v11.4c0 1.5-0.5 2-2 2h-21.1c-1.4 0-1.9-0.5-1.9-1.9v-11.7c0-1.3 0.3-1.6 1.6-2.1q0-1.7 0-3.5-0.1-1-0.6-2-0.5-0.9-1.3-1.6c-3.3-2.9-6.5-5.8-9.8-8.7-1.5-1.3-2.5-3-3-5q-3.1-12-6.4-24c-0.8-3-0.2-5.5 2.4-7.5 0.2-0.2 0.3-0.5 0.4-0.9-0.1-1.4 0.4-2.9 1.3-4 1-1.2 2.3-2 3.7-2.3 1.6-0.2 3.1 0.1 4.5 0.9 1.3 0.8 2.3 2.1 2.7 3.6q3.3 9.7 6.7 19.3c0.2 0.4 0.4 0.7 0.8 0.9q6.5 3.9 13.1 7.7c2.3 1.3 4.2 3.2 5.5 5.5 1.3 2.3 1.9 4.9 1.8 7.6 0 4.6 0 9.3 0 14zm-3.2 0.1q0.1-0.2 0.1-0.4c0-4.9 0.1-9.8 0-14.7 0-1.8-0.5-3.5-1.4-5.1-0.9-1.5-2.2-2.8-3.7-3.7-4.6-2.8-9.3-5.6-14-8.2-0.8-0.4-1.6-0.5-2.4-0.4-0.6 0.1-1.1 0.4-1.5 0.9-0.4 0.4-0.7 1-0.7 1.6-0.2 0.6-0.1 1.3 0.2 1.8 0.3 0.6 0.7 1.1 1.3 1.4q4.3 2.5 8.7 5 0.3 0.1 0.5 0.4 0.2 0.2 0.3 0.5 0.2 0.4 0.1 0.7 0 0.3-0.2 0.6-0.1 0.3-0.4 0.5-0.2 0.2-0.5 0.3-0.3 0.1-0.7 0-0.3 0-0.6-0.2c-3.1-1.8-6.2-3.5-9.2-5.4-1.2-0.7-2-1.8-2.5-3.1-0.4-1.3-0.4-2.7 0.1-4q0.3-0.7 0.3-1.5 0-0.8-0.3-1.5c-0.1-0.3-0.1-0.6-0.2-0.9q-2.1-6.2-4.1-12.4c-0.2-0.7-0.7-1.3-1.3-1.7-0.5-0.5-1.3-0.7-2-0.6-0.7 0-1.3 0.3-1.8 0.7-0.5 0.5-0.8 1.1-0.9 1.7q-0.2 1 0.1 1.9c2.1 8.1 4.3 16.2 6.5 24.3 0.3 1.3 1 2.4 2 3.3 3.2 2.8 6.2 5.6 9.4 8.3 1.1 0.9 2 2 2.5 3.3 0.6 1.2 0.9 2.6 0.8 4-0.1 0.9 0 1.7 0 2.6zm-17.1 12.4h18.6v-9.2h-18.6zm-16.8-65.8c1.5 0.1 3 0.7 4.1 1.7 1.1 1 1.9 2.3 2.2 3.8 0.2 0.8 0.4 1.5 0.7 2.2l3.4 10.5 2-0.6-1.5-4.4q-2.4-7-4.8-14c-0.2-0.7-0.7-1.3-1.3-1.7-0.7-0.4-1.4-0.6-2.1-0.6-0.8 0.1-1.4 0.5-1.9 1.1-0.5 0.5-0.8 1.3-0.8 2z"/><path fill-rule="evenodd" class="a" d="m46.5 4.5c1.6-1.6 3.7-2.8 5.9-3.6 2.2-0.8 4.6-1.1 6.9-0.8 2.4 0.3 4.6 1.1 6.6 2.4 2 1.2 3.7 2.9 4.9 5 1.2 2 2 4.2 2.2 6.6 0.3 2.2 0.1 4.5-0.7 6.7-0.7 2.1-1.9 4.1-3.6 5.7-6.9 7-14 14-21 21q-0.2 0.3-0.5 0.5-0.4 0.2-0.8 0.2-0.4 0-0.8-0.2-0.3-0.2-0.5-0.5c-7-7-14-13.9-20.9-21-2.1-2-3.6-4.6-4.2-7.4-0.6-2.8-0.4-5.7 0.6-8.4 2-6 6.4-9.5 12.6-10.5 2.2-0.4 4.4-0.2 6.6 0.4 2.1 0.6 4.1 1.7 5.7 3.2zm-0.1 39.7q0.2-0.1 0.3-0.2c6.7-6.7 13.5-13.3 20-20.1 2.1-2.2 3.3-5.2 3.3-8.3 0-3-1.1-6-3.2-8.3-2-2.3-4.7-3.7-7.8-4.1-3-0.4-6 0.4-8.5 2.1q-1.5 1.2-2.9 2.5-0.2 0.2-0.5 0.4-0.3 0.1-0.6 0.1-0.4 0-0.7-0.1-0.3-0.2-0.5-0.4c-0.5-0.4-0.9-0.9-1.4-1.4-2-1.8-4.5-2.9-7.2-3.2-2.6-0.3-5.3 0.3-7.6 1.7-1.7 1-3 2.3-4.1 3.9-1 1.6-1.7 3.4-1.9 5.3-0.2 1.9 0 3.8 0.6 5.6 0.6 1.8 1.7 3.4 3 4.7 5.8 5.8 11.6 11.6 17.4 17.4 0.8 0.8 1.5 1.6 2.3 2.4z"/><path fill-rule="evenodd" class="b" d="m41.8 16.9c0-1.6 0-3 0-4.5 0-1.2 0.5-1.7 1.7-1.7h5.9q0.3-0.1 0.7 0 0.3 0.1 0.6 0.4 0.2 0.3 0.3 0.6 0.2 0.4 0.1 0.7c0 1.5 0 2.9 0 4.5h4.3c1.4 0 2 0.5 2 2q0 2.8 0 5.6 0 0.4-0.1 0.8-0.1 0.3-0.4 0.6-0.2 0.2-0.6 0.3-0.3 0.1-0.7 0.1c-1.4 0-2.9 0-4.5 0q0 2.2 0 4.3c0 1.4-0.5 1.9-1.9 1.9h-5.6c-1.3 0-1.8-0.5-1.9-1.9v-4.3h-2.1c-4.3 0.1-4.1 0.2-4.1-4.2q0-1.7 0-3.4c0-1.1 0.6-1.8 1.8-1.8 1.5 0 2.9 0 4.5 0zm-3.1 6.2c1.4 0 2.8 0 4.2 0 1.4 0 2 0.6 2 2v4.2h3.1v-4.2c0-1.4 0.5-2 2-2q2.1 0 4.2 0v-3.1h-4.1c-1.6 0-2.1-0.4-2.1-2.1v-4.1h-3.1v4.3c0 1.4-0.6 1.9-1.9 1.9h-4.3z"/></g></svg>