<svg version="1.2" xmlns="http://www.w3.org/2000/svg" viewBox="0 0 90 100" width="90" height="100"><defs><clipPath clipPathUnits="userSpaceOnUse" id="cp1"><path d="m0 0h90v99.52h-90z"/></clipPath></defs><style>.a{fill:#263c84}.b{fill:#f36e21}</style><g clip-path="url(#cp1)"><path fill-rule="evenodd" class="a" d="m41.3 99.5c-2.3-0.5-4.6-0.9-6.8-1.5q-2.3-0.7-4.6-1.6c-2.6-1-3.7-3.6-2.6-6.2 0.8-1.8 1.7-3.6 2.5-5.4 0.8-1.6 0.8-1.6-0.8-2.6q-0.9-0.6-1.7-1.2c-0.8-0.6-1.1-1.4-0.6-2.1 0.5-0.7 1.3-0.9 2.1-0.4q1.4 0.9 2.7 1.8c1.7 1.2 2.3 3 1.4 4.8-0.9 2-1.8 4-2.7 6-0.7 1.4-0.4 2.2 1.1 2.7q5 1.9 10.3 2.7c0.7 0.1 1-0.1 0.9-0.8q0-8.8 0-17.6c0-0.9-0.4-1-1.1-1.1-7.1-1.8-12.8-5.6-17-11.7-11.1-16.1-2.4-38.6 16.7-43.2 1.4-0.3 1.4-0.3 1.4-1.8q0-8.1 0-16.2c0-1.2 0-1.2-1.2-1.1-3.5 0.6-7 1.5-10.3 2.8-1.4 0.6-1.7 1.3-1.1 2.7q1.2 2.4 2.4 4.8c1.2 2.5 0.5 4.9-1.8 6.3-2.9 1.7-5.5 3.8-7.8 6.2-1.9 1.9-4.3 2.1-6.4 0.4-1.5-1.1-2.9-2.3-4.4-3.4q-1.6-1.2-2.7 0.4c-2.7 4-4.7 8.3-6.1 12.9q-0.6 1.8 1.3 2.2c1.8 0.5 3.7 0.9 5.5 1.3 2.6 0.7 4 2.7 3.6 5.3-0.4 3.3-0.4 6.7 0.1 10 0.4 2.4-1.1 4.6-3.5 5.2-1.8 0.4-3.7 0.8-5.6 1.3-1.3 0.3-1.7 1.1-1.3 2.4 1.4 4.5 3.5 8.8 6.2 12.8 0.7 1 1.7 1.1 2.7 0.3 1.4-1.1 2.8-2.3 4.3-3.4 2.1-1.7 4.5-1.6 6.4 0.3 0.6 0.5 1.2 1 1.7 1.6 0.7 0.6 0.8 1.5 0.2 2.1-0.5 0.6-1.3 0.7-2.1 0.1q-0.7-0.7-1.5-1.4c-1.3-1.3-1.8-1.3-3.3-0.1q-2 1.6-3.9 3.2c-2.4 1.8-5.2 1.3-6.9-1.1-2.9-4.2-5.1-8.8-6.6-13.6-0.9-2.9 0.6-5.4 3.5-6.1q2.6-0.6 5.2-1.2c1.3-0.3 1.8-0.9 1.6-2.3-0.5-3.4-0.5-6.9-0.1-10.4 0.2-1.3-0.2-1.9-1.5-2.2q-2.7-0.6-5.3-1.2c-2.9-0.6-4.4-3.2-3.5-6 1.5-4.9 3.7-9.5 6.6-13.7 1.6-2.4 4.4-2.8 6.7-1.1 1.5 1.1 2.9 2.3 4.4 3.4 1 0.9 1.7 0.8 2.7-0.1 2.4-2.6 5.1-4.8 8.1-6.6 1.2-0.7 1.4-1.4 0.8-2.6-0.8-1.6-1.6-3.2-2.4-4.9-1.2-2.7-0.2-5.3 2.5-6.4 3.8-1.5 7.8-2.6 11.9-3.1q0.7-0.2 1.4 0 0.7 0.2 1.2 0.7 0.6 0.4 0.9 1.1 0.3 0.6 0.4 1.4c0 0.7 0 1.5 0 2.3h4.5q4.3 0 8.6 0c0.6 0 0.9-0.1 1.1-0.7 0.5-1.4 1.5-2.7 2.9-3.5 1.3-0.7 2.9-1 4.4-0.8 1.5 0.3 2.9 1.1 3.9 2.3 1 1.1 1.5 2.6 1.5 4.2 0 1.5-0.5 3-1.5 4.2-1 1.2-2.4 2-4 2.3-3 0.5-6-1.3-7.2-4.3-0.1-0.3-0.5-0.7-0.7-0.7-4.5-0.1-8.9 0-13.4 0v7.9h31.4c1.9-4 4.5-5.7 7.9-4.9 1.5 0.3 2.8 1.2 3.8 2.4 0.9 1.2 1.4 2.7 1.3 4.2-0.1 3.1-2.3 5.7-5.5 6.2-3.2 0.6-6-1.2-7.5-4.9h-31.5v1.2c0 2.5-0.9 3.6-3.3 4.2-5.4 1.1-10.2 4.1-13.8 8.3-12.1 14.3-4.8 36.6 13.6 40.9 2.7 0.6 3.4 1.5 3.5 4.3 0 0.2 0 0.5 0 0.8 0.4 0 0.7 0 1 0q14.8 0 29.6 0.1c0.7 0 1-0.2 1.3-0.9 0.5-1.4 1.5-2.6 2.9-3.4 1.4-0.8 2.9-1 4.5-0.7 1.5 0.3 2.8 1.1 3.8 2.3 0.9 1.2 1.4 2.6 1.4 4.2 0 3.1-2.2 5.8-5.4 6.3-1.5 0.3-3.1 0-4.4-0.7-1.3-0.8-2.3-2-2.9-3.4q-0.1-0.4-0.2-0.8h-31.6v7.9q0.5 0 1 0 6 0 12 0c0.7 0 1-0.1 1.2-0.8 0.6-1.5 1.6-2.7 3-3.5 1.4-0.7 3.1-1 4.6-0.6 3.1 0.7 5.3 3.6 5.1 6.7-0.1 1.6-0.7 3.1-1.9 4.2-1.1 1.2-2.6 1.9-4.2 2-1.4 0.1-2.8-0.2-3.9-1-1.2-0.7-2.1-1.8-2.6-3.1-0.3-0.8-0.7-1-1.4-1-3.9 0.1-7.8 0.1-11.8 0.1h-1.1c-0.1 2.5 0.6 5.3-2.6 6.4zm42.2-85.1q-0.7-0.1-1.4 0.2-0.7 0.3-1.2 0.8-0.5 0.5-0.8 1.1-0.3 0.7-0.3 1.4c0 1 0.4 1.9 1 2.6 0.7 0.7 1.6 1 2.5 1.1q0.8 0 1.4-0.3 0.7-0.2 1.2-0.7 0.5-0.6 0.8-1.2 0.3-0.7 0.3-1.4 0-0.7-0.2-1.4-0.3-0.6-0.8-1.2-0.5-0.5-1.1-0.7-0.7-0.3-1.4-0.3zm-21.3 77.2q0 0.7 0.3 1.4 0.3 0.6 0.8 1.2 0.5 0.5 1.2 0.7 0.6 0.3 1.4 0.3c0.9 0 1.8-0.4 2.5-1.1 0.6-0.7 1-1.6 1-2.5q0-0.7-0.2-1.4-0.3-0.7-0.8-1.2-0.6-0.5-1.2-0.7-0.7-0.3-1.4-0.3-0.7 0-1.4 0.3-0.6 0.2-1.1 0.7-0.5 0.5-0.8 1.2-0.3 0.7-0.3 1.4zm21.3-14.5q-0.8 0-1.4 0.3-0.7 0.2-1.2 0.8-0.5 0.5-0.8 1.1-0.3 0.7-0.3 1.4c0 1 0.4 1.9 1.1 2.5 0.6 0.7 1.5 1.1 2.5 1.1 1 0 1.9-0.4 2.6-1 0.6-0.7 1-1.6 1-2.6q0-0.7-0.2-1.4-0.3-0.6-0.8-1.1-0.5-0.5-1.2-0.8-0.6-0.3-1.3-0.3zm-17.7-66.4c1 0 1.9-0.4 2.6-1.1 0.7-0.7 1.1-1.6 1.1-2.5-0.1-1-0.5-1.9-1.1-2.6-0.7-0.6-1.6-1-2.6-1q-0.7 0-1.4 0.3-0.6 0.2-1.1 0.8-0.5 0.5-0.8 1.1-0.3 0.7-0.3 1.4c0 1 0.4 1.9 1.1 2.6 0.7 0.6 1.6 1 2.5 1z"/><path class="b" d="m58.6 65.7q-6.5 0-13 0c-7.9-0.1-14.3-5.4-15.9-13.1-1.7-8.9 4.9-17.8 13.8-18.6 4.2-0.3 8.5-0.1 12.7-0.1q0.3 0 0.5 0.1 0.3 0.1 0.5 0.3 0.3 0.2 0.4 0.5 0.1 0.2 0.1 0.5c0 0.9-0.6 1.5-1.6 1.5-3.6 0-7.2 0-10.7 0-2.8 0-5.6 0.9-7.8 2.6-2.2 1.7-3.9 4-4.7 6.7-0.5 1.9-0.7 3.9-0.3 5.9 0.3 2 1.1 3.9 2.3 5.5 1.2 1.6 2.8 2.9 4.6 3.8 1.8 0.9 3.8 1.4 5.8 1.4 8.9 0.1 17.8 0.1 26.7 0 6.7-0.1 12.3-5.2 12.9-11.6 0.6-6.8-3.8-12.7-10.5-14.1q-1.3-0.2-2.7-0.2c-3-0.1-6.1 0-9.1 0-1.3 0-2-0.6-2-1.5 0-1 0.7-1.5 1.9-1.5 3.8 0.1 7.7-0.1 11.4 0.2 7.4 0.6 13.6 7.3 13.9 14.7 0.4 8.3-4.9 15.1-13.1 16.7q-1.6 0.2-3.1 0.2c-4.3 0.1-8.7 0.1-13 0.1z"/></g></svg>