<svg version="1.2" xmlns="http://www.w3.org/2000/svg" viewBox="0 0 90 90" width="90" height="90"><defs><clipPath clipPathUnits="userSpaceOnUse" id="cp1"><path d="m0 0h90v90.01h-90z"/></clipPath></defs><style>.a{fill:#263c84}.b{fill:#f36e21}</style><g clip-path="url(#cp1)"><path fill-rule="evenodd" class="a" d="m0 48.2q0.4-0.7 1.1-1 0.8-0.3 1.5-0.2 6.2 0 12.3 0c3.1 0 5.3 1.6 6.1 4.5q0.2 1 0.2 2.1h2.5v-14.9c-1.4 0-5 0-6.3 0-0.4 0.1-0.8 0-1.2-0.2-0.3-0.2-0.6-0.5-0.8-0.9-0.1-0.4-0.2-0.8 0-1.2 0.1-0.4 0.3-0.8 0.7-1q6.9-7 13.8-13.9l1.1-1q1.7-1.7 3-0.5c0.8 0.8 0.6 1.8-0.5 3q-4.7 4.7-9.3 9.3c-1 0.9-1.9 1.8-2.8 2.7l0.1 0.2q2.9 0 5.7 0c0.3 0 0.6-0.4 0.9-0.6q11.1-11.1 22.3-22.3c1.4-1.4 2.2-1.4 3.6 0q11.2 11.2 22.3 22.3 0.3 0.3 0.7 0.5 0.4 0.2 0.9 0.2 2.5 0 5 0l-30.7-30.8q-0.3 0.2-0.7 0.6-3.7 3.7-7.4 7.4c-1 1-2.1 1-2.8 0.2-0.8-0.8-0.6-1.8 0.3-2.7q3-3 6-6l3-3.1c1.2-1.1 2-1.1 3.1 0q17.3 17.2 34.7 34.5 0.5 0.4 0.7 1 0.1 0.6-0.1 1.2c-0.2 0.3-0.4 0.6-0.8 0.8-0.3 0.2-0.7 0.3-1.1 0.3q-3.2 0-6.3 0v27.8c1.4-0.5 3-0.5 4.5-0.1 4.8 1.5 6.4 7.5 2.6 10.8-3.8 3.3-7.9 6.5-12 9.5-2.6 1.8-5.7 2.9-8.8 3.1q-0.2 0.1-0.5 0.2h-29.9q-0.2-0.1-0.5-0.2-3.4-0.6-6.6-1.7-3.9-1.8-7.5-4l-1-0.5c0.1 0.8 0 1.6-0.2 2.4-0.3 0.8-0.8 1.6-1.4 2.1q-1.4 1.1-3 1.8h-16.5zm21.2 9.1c0 0.3-0.1 0.5-0.1 0.7q0 10.4 0 20.9 0.1 0.2 0.2 0.5 0.2 0.2 0.4 0.4c1.7 1.1 3.4 2.1 5.1 3.1 3.9 2.5 8.4 3.7 13 3.6 7.8 0 15.7 0 23.5 0 4.9 0.2 9.8-1.5 13.5-4.7 2.8-2.3 5.7-4.6 8.5-6.9q0.5-0.3 0.8-0.9 0.4-0.6 0.4-1.2 0-0.7-0.3-1.2-0.2-0.6-0.8-1c-0.5-0.6-1.3-0.9-2.1-0.9-0.8 0-1.5 0.2-2.1 0.7q-4.8 3.6-9.5 7.2c-0.9 0.7-2 1-3.1 1q-10.4 0-20.9 0c-1.2 0.1-2.4-0.2-3.6-0.7-2.6-1.4-5.1-3.1-7.6-4.7q-0.2-0.2-0.4-0.5-0.2-0.3-0.2-0.7c0.1-0.6 0.4-1.1 0.8-1.5q0.4-0.4 1-0.4 0.6 0 1 0.4c1.7 1 3.4 2.1 5 3.2 1.4 1 3 1.4 4.7 1.4q9.8 0 19.6 0c1.5 0 2.2-0.7 2-2.3q0.1-0.4-0.1-0.8-0.2-0.5-0.6-0.8-0.3-0.3-0.7-0.4-0.5-0.1-0.9-0.1-6.6 0-13.1 0c-1.1 0-2.2-0.2-3.3-0.6-1-0.4-1.9-1.1-2.7-1.9-2.7-2.7-5.5-5.4-8.2-8.3-0.9-0.9-1.9-1.6-3-2.1-1.2-0.5-2.4-0.7-3.7-0.6-3.8 0-7.6 0-11.5 0zm30.9-41.8q-0.3 0.4-0.6 0.7-10.6 10.6-21.1 21.1c-0.9 0.9-1.6 1.7-3.1 1.4v15h7.3c2.2 0 4.2 0.6 6 1.8 0-3.9 0-8.8 0-12.7 0-1.9 0.5-2.4 2.5-2.4h18.3c1.9 0 2.4 0.5 2.4 2.4v24.5h4.5q0.8-0.1 1.6 0.2 0.9 0.3 1.5 0.9 1.3 1.6 2.4 3.2c0.8-0.6 1.8-1.4 2.8-2.1q0.3-0.2 0.5-0.5 0.1-0.4 0.1-0.8 0-14.3 0-28.5v-0.9c-1.5 0.3-2.3-0.6-3.2-1.4q-10.5-10.6-21-21.1zm-48.6 71.1h11.3c1.9 0 2.7-0.9 2.7-2.7q0-15.2 0-30.5c0-1.8-0.8-2.7-2.6-2.7h-10.6c-0.3 0-0.5 0-0.8 0.1zm40.6-42.7c0 0.1-0.1 0.1-0.1 0.1q0 7.2 0 14.3 0.1 0.5 0.4 0.8 3.4 3.5 6.9 7 0.6 0.5 1.3 0.8 0.8 0.4 1.6 0.3h6v-23.3z"/><path class="b" d="m37.6 14.6q0.4 0 0.7 0.1 0.3 0.1 0.6 0.3 0.2 0.3 0.4 0.6 0.1 0.3 0.1 0.7c0 0.4-0.1 0.9-0.4 1.2-0.4 0.3-0.8 0.5-1.3 0.6-0.4 0-0.9-0.2-1.2-0.6-0.4-0.3-0.6-0.8-0.6-1.2 0-0.5 0.2-0.9 0.6-1.2 0.3-0.3 0.7-0.5 1.1-0.5z"/><path fill-rule="evenodd" class="b" d="m52.2 23.2c1.8 0 3.5 0.7 4.8 2 1.3 1.3 2 3 2 4.8 0 1.8-0.7 3.6-2 4.9-1.3 1.2-3 2-4.8 2-1.8 0-3.6-0.8-4.8-2-1.3-1.3-2-3-2.1-4.8q0-1.4 0.5-2.7 0.6-1.2 1.5-2.2 1-1 2.2-1.5 1.3-0.5 2.7-0.5zm-0.1 10.1q0.6 0 1.3-0.2 0.6-0.2 1.1-0.7 0.5-0.4 0.7-1.1 0.3-0.6 0.3-1.2c0-0.9-0.3-1.7-0.9-2.3-0.6-0.6-1.4-1-2.2-1.1q-0.7 0-1.3 0.2-0.7 0.2-1.2 0.7-0.5 0.4-0.7 1.1-0.3 0.6-0.3 1.2c-0.1 0.9 0.3 1.8 0.9 2.4 0.6 0.6 1.4 1 2.3 1z"/><path class="b" d="m69.6 58.5c0-1.8 0-3.6 0-5.4 0-1.2 0.7-2 1.7-2q0.4 0 0.8 0.2 0.3 0.1 0.6 0.4 0.3 0.3 0.4 0.6 0.1 0.4 0.1 0.8 0 5.3 0 10.7 0 0.4-0.1 0.7-0.2 0.4-0.4 0.7-0.3 0.2-0.6 0.4-0.4 0.1-0.8 0.1-0.3 0-0.6-0.1-0.4-0.2-0.6-0.5-0.3-0.2-0.4-0.6-0.1-0.3-0.1-0.7 0-2.7 0-5.3z"/><path class="b" d="m71.4 44.4c0.4 0.1 0.9 0.3 1.2 0.6 0.3 0.3 0.5 0.7 0.5 1.2 0 0.5-0.2 0.9-0.5 1.2-0.3 0.4-0.8 0.6-1.2 0.6-0.5 0-1-0.2-1.3-0.5-0.3-0.4-0.5-0.8-0.5-1.3q0-0.4 0.1-0.7 0.2-0.3 0.4-0.6 0.3-0.2 0.6-0.3 0.3-0.2 0.7-0.2z"/><path class="b" d="m12.3 78.8q0 0.4-0.1 0.7-0.2 0.3-0.4 0.5-0.3 0.3-0.6 0.4-0.4 0.1-0.7 0.1c-0.5 0-0.9-0.2-1.2-0.5-0.4-0.4-0.5-0.8-0.5-1.3 0-0.5 0.2-0.9 0.5-1.2 0.4-0.3 0.8-0.5 1.3-0.5q0.3 0 0.7 0.1 0.3 0.2 0.5 0.4 0.3 0.3 0.4 0.6 0.1 0.4 0.1 0.7z"/><path class="b" d="m48.1 57.1q-0.3 0-0.7-0.1-0.3-0.1-0.5-0.3-0.3-0.3-0.4-0.6-0.1-0.3-0.1-0.7c0-0.4 0.2-0.9 0.5-1.2 0.3-0.4 0.8-0.6 1.2-0.6 0.5 0 0.9 0.2 1.3 0.6 0.3 0.3 0.5 0.7 0.5 1.2 0 0.4-0.2 0.9-0.5 1.2-0.4 0.3-0.8 0.5-1.3 0.5z"/></g></svg>