<svg width="426" height="92" viewBox="0 0 426 92" fill="none" xmlns="http://www.w3.org/2000/svg">
<g filter="url(#filter0_d_1275_209)">
<path fill-rule="evenodd" clip-rule="evenodd" d="M4 0C9.83333 0.423469 17.6739 3.81122 20.5 14.8214C21.5197 18.794 29.75 53.7806 31 59.2857C32.0643 63.9731 38 83 60.5 83C62.8179 83 68.3378 82.9888 76.0765 82.9731C107.159 82.9099 174.035 82.774 213 83C251.965 82.774 318.841 82.9099 349.923 82.9731C357.662 82.9888 363.182 83 365.5 83C388 83 393.936 63.9731 395 59.2857C396.25 53.7806 404.48 18.794 405.5 14.8214C408.326 3.81122 416.167 0.423469 422 0H213H4Z" fill="white"/>
</g>
<defs>
<filter id="filter0_d_1275_209" x="0" y="0" width="426" height="92" filterUnits="userSpaceOnUse" color-interpolation-filters="sRGB">
<feFlood flood-opacity="0" result="BackgroundImageFix"/>
<feColorMatrix in="SourceAlpha" type="matrix" values="0 0 0 0 0 0 0 0 0 0 0 0 0 0 0 0 0 0 127 0" result="hardAlpha"/>
<feOffset dy="5"/>
<feGaussianBlur stdDeviation="2"/>
<feComposite in2="hardAlpha" operator="out"/>
<feColorMatrix type="matrix" values="0 0 0 0 0 0 0 0 0 0 0 0 0 0 0 0 0 0 0.25 0"/>
<feBlend mode="normal" in2="BackgroundImageFix" result="effect1_dropShadow_1275_209"/>
<feBlend mode="normal" in="SourceGraphic" in2="effect1_dropShadow_1275_209" result="shape"/>
</filter>
</defs>
</svg>
