<svg width="32" height="32" viewBox="0 0 32 32" fill="none" xmlns="http://www.w3.org/2000/svg">
<g clip-path="url(#clip0_71_146)">
<path d="M0 16C0 7.16344 7.16344 0 16 0C24.8366 0 32 7.16344 32 16C32 24.8366 24.8366 32 16 32C7.16344 32 0 24.8366 0 16Z" fill="#FF2D55"/>
<g clip-path="url(#clip1_71_146)">
<mask id="mask0_71_146" style="mask-type:luminance" maskUnits="userSpaceOnUse" x="-6" y="0" width="44" height="32">
<path d="M34.75 0H-2.58333C-4.05609 0 -5.25 1.19391 -5.25 2.66667V29.3333C-5.25 30.8061 -4.05609 32 -2.58333 32H34.75C36.2228 32 37.4167 30.8061 37.4167 29.3333V2.66667C37.4167 1.19391 36.2228 0 34.75 0Z" fill="white"/>
</mask>
<g mask="url(#mask0_71_146)">
<path d="M34.75 0H-2.58333C-4.05609 0 -5.25 1.19391 -5.25 2.66667V29.3333C-5.25 30.8061 -4.05609 32 -2.58333 32H34.75C36.2228 32 37.4167 30.8061 37.4167 29.3333V2.66667C37.4167 1.19391 36.2228 0 34.75 0Z" fill="#F9F9F9"/>
<path d="M37.4167 0H-5.25V2.66667H37.4167V0Z" fill="#0D084D"/>
<path d="M37.4167 5.8667H-5.25V8.53337H37.4167V5.8667Z" fill="#0D084D"/>
<path d="M-5.25 11.7334H37.4167V14.4H-5.25V11.7334Z" fill="#0D084D"/>
<path d="M37.4167 17.6001H-5.25V20.2668H37.4167V17.6001Z" fill="#0D084D"/>
<path d="M-5.25 23.4668H37.4167V26.1335H-5.25V23.4668Z" fill="#0D084D"/>
<path d="M37.4167 29.3335H-5.25V32.0001H37.4167V29.3335Z" fill="#0D084D"/>
<path d="M-5.25 0H17.4167V20.2708H-5.25V0Z" fill="#FF2D55"/>
<path d="M2.23223 7.79505L2.08332 7.33333L1.93441 7.79505L1.44928 7.79398L1.84239 8.07827L1.69147 8.53934L2.08332 8.25333L2.47517 8.53934L2.32425 8.07827L2.71736 7.79398L2.23223 7.79505Z" fill="#F9F9F9"/>
<path d="M2.08332 13.3333L2.23223 13.7951L2.71736 13.794L2.32425 14.0783L2.47517 14.5393L2.08332 14.2533L1.69147 14.5393L1.84239 14.0783L1.44928 13.794L1.93441 13.7951L2.08332 13.3333Z" fill="#F9F9F9"/>
<path d="M0.239978 4.46172L0.0910708 4L-0.0578356 4.46172L-0.542969 4.46065L-0.149862 4.74495L-0.300796 5.20601L0.0910708 4.92L0.482924 5.20601L0.332005 4.74495L0.725111 4.46065L0.239978 4.46172Z" fill="#F9F9F9"/>
<path d="M0.0910708 10.6667L0.239978 11.1284L0.725111 11.1273L0.332005 11.4116L0.482924 11.8727L0.0910708 11.5867L-0.300796 11.8727L-0.149862 11.4116L-0.542969 11.1273L-0.0578356 11.1284L0.0910708 10.6667Z" fill="#F9F9F9"/>
<path d="M0.239978 16.4617L0.0910708 16L-0.0578356 16.4617L-0.542969 16.4607L-0.149862 16.7449L-0.300796 17.206L0.0910708 16.92L0.482924 17.206L0.332005 16.7449L0.725111 16.4607L0.239978 16.4617Z" fill="#F9F9F9"/>
<path d="M6.08333 7.33333L6.23224 7.79505L6.71737 7.79398L6.32427 8.07827L6.47519 8.53934L6.08333 8.25333L5.69148 8.53934L5.8424 8.07827L5.4493 7.79398L5.93443 7.79505L6.08333 7.33333Z" fill="#F9F9F9"/>
<path d="M6.23224 13.7951L6.08333 13.3333L5.93443 13.7951L5.4493 13.794L5.8424 14.0783L5.69148 14.5393L6.08333 14.2533L6.47519 14.5393L6.32427 14.0783L6.71737 13.794L6.23224 13.7951Z" fill="#F9F9F9"/>
<path d="M4.09109 4L4.23999 4.46172L4.72513 4.46065L4.33202 4.74495L4.48294 5.20601L4.09109 4.92L3.69923 5.20601L3.85015 4.74495L3.45705 4.46065L3.94218 4.46172L4.09109 4Z" fill="#F9F9F9"/>
<path d="M4.23999 11.1284L4.09109 10.6667L3.94218 11.1284L3.45705 11.1273L3.85015 11.4116L3.69923 11.8727L4.09109 11.5867L4.48294 11.8727L4.33202 11.4116L4.72513 11.1273L4.23999 11.1284Z" fill="#F9F9F9"/>
<path d="M4.09109 16L4.23999 16.4617L4.72513 16.4607L4.33202 16.7449L4.48294 17.206L4.09109 16.92L3.69923 17.206L3.85015 16.7449L3.45705 16.4607L3.94218 16.4617L4.09109 16Z" fill="#F9F9F9"/>
<path d="M10.2323 7.79505L10.0833 7.33333L9.93441 7.79505L9.44934 7.79398L9.84241 8.07827L9.69147 8.53934L10.0833 8.25333L10.4752 8.53934L10.3243 8.07827L10.7173 7.79398L10.2323 7.79505Z" fill="#F9F9F9"/>
<path d="M10.0833 13.3333L10.2323 13.7951L10.7173 13.794L10.3243 14.0783L10.4752 14.5393L10.0833 14.2533L9.69147 14.5393L9.84241 14.0783L9.44934 13.794L9.93441 13.7951L10.0833 13.3333Z" fill="#F9F9F9"/>
<path d="M8.24001 4.46172L8.09107 4L7.94218 4.46172L7.45705 4.46065L7.85015 4.74495L7.69922 5.20601L8.09107 4.92L8.48294 5.20601L8.33201 4.74495L8.72507 4.46065L8.24001 4.46172Z" fill="#F9F9F9"/>
<path d="M8.09107 10.6667L8.24001 11.1284L8.72507 11.1273L8.33201 11.4116L8.48294 11.8727L8.09107 11.5867L7.69922 11.8727L7.85015 11.4116L7.45705 11.1273L7.94218 11.1284L8.09107 10.6667Z" fill="#F9F9F9"/>
<path d="M8.24001 16.4617L8.09107 16L7.94218 16.4617L7.45705 16.4607L7.85015 16.7449L7.69922 17.206L8.09107 16.92L8.48294 17.206L8.33201 16.7449L8.72507 16.4607L8.24001 16.4617Z" fill="#F9F9F9"/>
<path d="M14.0833 7.33333L14.2323 7.79505L14.7173 7.79398L14.3243 8.07827L14.4752 8.53934L14.0833 8.25333L13.6915 8.53934L13.8424 8.07827L13.4493 7.79398L13.9344 7.79505L14.0833 7.33333Z" fill="#F9F9F9"/>
<path d="M14.2323 13.7951L14.0833 13.3333L13.9344 13.7951L13.4493 13.794L13.8424 14.0783L13.6915 14.5393L14.0833 14.2533L14.4752 14.5393L14.3243 14.0783L14.7173 13.794L14.2323 13.7951Z" fill="#F9F9F9"/>
<path d="M12.0911 4L12.24 4.46172L12.7251 4.46065L12.332 4.74495L12.4829 5.20601L12.0911 4.92L11.6992 5.20601L11.8501 4.74495L11.4571 4.46065L11.9421 4.46172L12.0911 4Z" fill="#F9F9F9"/>
<path d="M12.24 11.1284L12.0911 10.6667L11.9421 11.1284L11.4571 11.1273L11.8501 11.4116L11.6992 11.8727L12.0911 11.5867L12.4829 11.8727L12.332 11.4116L12.7251 11.1273L12.24 11.1284Z" fill="#F9F9F9"/>
<path d="M12.0911 16L12.24 16.4617L12.7251 16.4607L12.332 16.7449L12.4829 17.206L12.0911 16.92L11.6992 17.206L11.8501 16.7449L11.4571 16.4607L11.9421 16.4617L12.0911 16Z" fill="#F9F9F9"/>
<path d="M2.08332 1.33333L2.23223 1.79505L2.71736 1.79398L2.32425 2.07827L2.47517 2.53934L2.08332 2.25333L1.69147 2.53934L1.84239 2.07827L1.44928 1.79398L1.93441 1.79505L2.08332 1.33333Z" fill="#F9F9F9"/>
<path d="M6.23224 1.79505L6.08333 1.33333L5.93443 1.79505L5.4493 1.79398L5.8424 2.07827L5.69148 2.53934L6.08333 2.25333L6.47519 2.53934L6.32427 2.07827L6.71737 1.79398L6.23224 1.79505Z" fill="#F9F9F9"/>
<path d="M10.0833 1.33333L10.2323 1.79505L10.7173 1.79398L10.3243 2.07827L10.4752 2.53934L10.0833 2.25333L9.69147 2.53934L9.84241 2.07827L9.44934 1.79398L9.93441 1.79505L10.0833 1.33333Z" fill="#F9F9F9"/>
<path d="M14.2323 1.79505L14.0833 1.33333L13.9344 1.79505L13.4493 1.79398L13.8424 2.07827L13.6915 2.53934L14.0833 2.25333L14.4752 2.53934L14.3243 2.07827L14.7173 1.79398L14.2323 1.79505Z" fill="#F9F9F9"/>
</g>
</g>
</g>
<defs>
<clipPath id="clip0_71_146">
<path d="M0 16C0 7.16344 7.16344 0 16 0C24.8366 0 32 7.16344 32 16C32 24.8366 24.8366 32 16 32C7.16344 32 0 24.8366 0 16Z" fill="white"/>
</clipPath>
<clipPath id="clip1_71_146">
<rect width="42.6667" height="32" fill="white" transform="translate(-5.25)"/>
</clipPath>
</defs>
</svg>
