<svg width="80" height="89" viewBox="0 0 80 89" fill="none" xmlns="http://www.w3.org/2000/svg">
<g clip-path="url(#clip0_423_376)">
<path d="M36.711 88.572C34.6949 88.1098 32.6603 87.7123 30.6626 87.1853C29.2751 86.8003 27.9103 86.3374 26.5749 85.7987C24.2443 84.8881 23.2918 82.5631 24.2975 80.2728C25.0073 78.6665 25.768 77.0834 26.5032 75.4887C27.176 74.035 27.176 74.035 25.8096 73.1268C25.2825 72.7778 24.7414 72.4334 24.2235 72.0775C23.5137 71.5783 23.331 70.8434 23.738 70.2101C24.1449 69.5769 24.894 69.4428 25.6362 69.8981C26.4431 70.3996 27.2361 70.9289 28.0222 71.4628C29.5459 72.5005 30.0083 74.0905 29.2523 75.7753C28.4638 77.5364 27.6338 79.279 26.8362 81.0331C26.2373 82.3458 26.5078 82.9976 27.8512 83.5106C30.7856 84.6321 33.8318 85.4364 36.9376 85.9096C37.6081 86.0113 37.8208 85.8171 37.8185 85.1631C37.8185 79.9446 37.7954 74.7238 37.8185 69.5052C37.8185 68.738 37.4046 68.6316 36.8382 68.493C30.4915 66.9584 25.4142 63.5449 21.7126 58.1553C11.8447 43.7848 19.5647 23.7196 36.5099 19.6798C37.8023 19.3701 37.8023 19.3701 37.8023 18.062C37.8023 13.2456 37.8023 8.43 37.8023 3.61516C37.8023 2.55667 37.7792 2.55436 36.7179 2.70921C33.5806 3.17101 30.5075 3.99464 27.5598 5.16362C26.2928 5.66051 26.02 6.35846 26.6142 7.59722C27.3078 9.02549 28.0014 10.4445 28.6812 11.8751C29.717 14.0522 29.1159 16.1599 27.0627 17.3987C24.5148 18.9319 22.1822 20.7971 20.1265 22.9454C18.4826 24.6602 16.3278 24.7943 14.4504 23.3337C13.1533 22.3283 11.8771 21.2906 10.5777 20.2853C9.63203 19.5527 8.83668 19.6798 8.16386 20.6759C5.78218 24.1851 3.94708 28.0354 2.72125 32.0951C2.39987 33.1559 2.77905 33.8423 3.85879 34.1081C5.50961 34.5126 7.1743 34.8523 8.82281 35.2637C11.1349 35.8299 12.3071 37.6002 12.0135 39.9645C11.628 42.9125 11.6498 45.8994 12.0782 48.8415C12.4065 51.0186 11.1349 52.9183 8.97309 53.4637C7.32458 53.8751 5.6622 54.2357 4.01369 54.6378C2.84378 54.9244 2.45537 55.6131 2.81143 56.7571C4.071 60.8065 5.93554 64.6423 8.3419 68.1347C8.97772 69.0592 9.80543 69.1724 10.7048 68.4652C11.9973 67.4507 13.2666 66.4037 14.5567 65.3891C16.448 63.9054 18.5266 64.0025 20.2514 65.6619C20.7531 66.1403 21.2779 66.5863 21.7797 67.067C22.4201 67.6748 22.4733 68.4005 21.9646 68.9783C21.4883 69.5076 20.7392 69.5492 20.1011 69.0407C19.6387 68.664 19.1763 68.2526 18.7462 67.8343C17.5347 66.6787 17.1278 66.6579 15.8053 67.7257C14.633 68.664 13.4724 69.6116 12.2909 70.5337C10.2101 72.1515 7.66676 71.7678 6.19397 69.6092C3.62427 65.8798 1.6385 61.7806 0.305134 57.4527C-0.478658 54.9105 0.834595 52.6733 3.43799 52.0771C4.98245 51.7235 6.52692 51.3722 8.06213 51.0117C9.25747 50.7343 9.62509 50.1635 9.44937 48.9547C9.02671 45.8957 9.01194 42.794 9.40544 39.7311C9.5511 38.527 9.20429 38.0162 8.03207 37.7458C6.46218 37.383 4.88535 37.0363 3.31314 36.6781C0.769863 36.098 -0.552641 33.8562 0.208031 31.3625C1.52949 27.0033 3.5116 22.8724 6.08531 19.1135C7.50492 17.0335 10.0436 16.636 12.0551 18.1729C13.3614 19.169 14.6354 20.209 15.9278 21.2213C16.8781 21.9632 17.5139 21.9331 18.337 21.0688C20.4887 18.8123 22.9344 16.8557 25.6084 15.2517C26.635 14.6346 26.7992 14.0198 26.2743 12.9244C25.5807 11.4707 24.8547 10.0285 24.168 8.57021C23.042 6.18513 23.9738 3.80005 26.4107 2.82937C29.787 1.48876 33.3118 0.557667 36.9098 0.0560278C37.3309 -0.0184219 37.7631 -0.000910293 38.1768 0.107345C38.5905 0.215601 38.9758 0.412044 39.3064 0.683193C39.637 0.954343 39.9049 1.29378 40.0919 1.6782C40.2788 2.06262 40.3804 2.48293 40.3895 2.91027C40.4288 3.60361 40.3895 4.27846 40.3895 5.03651H44.3825C46.9489 5.03651 49.5153 5.02495 52.084 5.03651C52.6065 5.03651 52.8747 4.93943 53.0759 4.37783C53.5258 3.08603 54.4196 1.99569 55.5982 1.30079C56.7769 0.605903 58.164 0.351539 59.5127 0.58297C60.86 0.822016 62.0819 1.52299 62.9681 2.56528C63.8543 3.60758 64.3493 4.92601 64.368 6.29374C64.3634 7.67624 63.8721 9.01299 62.98 10.0695C62.0879 11.126 60.8522 11.8348 59.4895 12.0715C56.7567 12.5546 54.0862 10.9645 53.0296 8.26282C52.9302 8.0086 52.6158 7.65731 52.3984 7.655C48.4471 7.61802 44.4981 7.62958 40.4751 7.62958V14.6577H68.428C70.0719 11.1078 72.4464 9.63564 75.4174 10.322C76.7558 10.6084 77.949 11.3603 78.7848 12.4437C79.6206 13.5271 80.0446 14.8718 79.9814 16.2385C79.9098 18.9587 77.9006 21.2421 75.1261 21.7459C72.2383 22.2729 69.7713 20.6481 68.4604 17.3363H40.4126C40.4126 17.7176 40.4126 18.0805 40.4126 18.441C40.4126 20.6944 39.652 21.6442 37.4809 22.1388C32.7104 23.1894 28.4225 25.79 25.2871 29.5344C14.4596 42.2733 21.0167 62.1397 37.3098 65.9299C39.7121 66.4892 40.3803 67.3166 40.4242 69.7456C40.4242 69.9767 40.4566 70.1963 40.4797 70.4898C40.7895 70.5083 41.067 70.5406 41.3444 70.5406C50.1133 70.5406 58.8822 70.5452 67.6512 70.5545C68.2361 70.5545 68.5436 70.4389 68.7679 69.8196C69.2391 68.5181 70.1621 67.429 71.3689 66.7504C72.5756 66.0718 73.986 65.8487 75.3434 66.1218C76.667 66.3929 77.8551 67.1153 78.7045 68.1655C79.554 69.2157 80.0119 70.5283 79.9999 71.8788C79.9837 74.7168 78.0023 77.0395 75.1446 77.5595C73.8116 77.7878 72.4407 77.5431 71.2691 76.8679C70.0974 76.1926 69.1988 75.1292 68.7286 73.8617C68.6476 73.6468 68.5714 73.4318 68.4835 73.1869H40.4843V80.1641C40.7618 80.1826 41.0392 80.215 41.3143 80.215C44.8911 80.215 48.4679 80.215 52.0447 80.2312C52.6134 80.2312 52.8909 80.0948 53.1036 79.5216C53.5778 78.1894 54.5242 77.0771 55.7638 76.3956C57.0033 75.7142 58.4499 75.5107 59.8294 75.8239C62.5669 76.4502 64.5322 79.0271 64.3703 81.7819C64.2934 83.2085 63.6995 84.5583 62.6996 85.579C61.6997 86.5998 60.3622 87.2217 58.9369 87.3286C57.7038 87.4156 56.4754 87.1028 55.4342 86.4366C54.3929 85.7705 53.5943 84.7866 53.1568 83.6308C52.9094 82.9606 52.5788 82.8034 51.9152 82.8104C48.4263 82.8427 44.935 82.8265 41.4461 82.8265H40.4265C40.3525 85.0845 40.9606 87.5736 38.0936 88.5789L36.711 88.572ZM74.2614 12.7903C73.8363 12.778 73.4131 12.8508 73.0166 13.0044C72.6201 13.158 72.2583 13.3893 71.9526 13.6848C71.6469 13.9803 71.4034 14.3339 71.2365 14.7248C71.0695 15.1157 70.9825 15.5361 70.9806 15.9612C70.9761 16.8044 71.3027 17.6157 71.8902 18.2207C72.4778 18.8257 73.2794 19.1762 74.1227 19.1967C74.5477 19.2063 74.9704 19.131 75.366 18.9754C75.7616 18.8198 76.1223 18.587 76.4268 18.2905C76.7314 17.994 76.9738 17.6398 77.1399 17.2486C77.306 16.8574 77.3925 16.437 77.3942 16.012C77.4007 15.5947 77.3247 15.1803 77.1706 14.7924C77.0165 14.4045 76.7875 14.0508 76.4964 13.7515C76.2054 13.4522 75.8582 13.2133 75.4747 13.0484C75.0912 12.8834 74.6789 12.7957 74.2614 12.7903ZM55.3486 81.5023C55.3458 81.928 55.4277 82.3499 55.5894 82.7437C55.7511 83.1375 55.9894 83.4953 56.2905 83.7963C56.5916 84.0973 56.9496 84.3356 57.3436 84.4972C57.7375 84.6588 58.1597 84.7406 58.5855 84.7379C59.429 84.7142 60.2309 84.3663 60.8243 83.7667C61.4177 83.1671 61.757 82.3618 61.7716 81.5185C61.7704 81.0934 61.6848 80.6727 61.5197 80.281C61.3545 79.8892 61.1132 79.5342 60.8098 79.2364C60.5063 78.9386 60.1466 78.704 59.7517 78.5463C59.3568 78.3886 58.9344 78.3108 58.5092 78.3175C58.092 78.3175 57.6789 78.4001 57.2938 78.5604C56.9087 78.7208 56.5591 78.9558 56.2653 79.2519C55.9715 79.5479 55.7392 79.8992 55.5819 80.2855C55.4245 80.6717 55.3453 81.0853 55.3486 81.5023ZM74.2267 68.6432C73.8025 68.6358 73.3811 68.7133 72.9873 68.8711C72.5935 69.0289 72.2353 69.2638 71.9337 69.5621C71.6321 69.8603 71.3932 70.2159 71.2311 70.6078C71.069 70.9997 70.9869 71.42 70.9898 71.8441C70.9951 72.6879 71.3299 73.4963 71.9229 74.0968C72.516 74.6974 73.3202 75.0426 74.1643 75.0589C74.5898 75.0607 75.0116 74.9783 75.4051 74.8163C75.7987 74.6544 76.1562 74.4161 76.4572 74.1153C76.7581 73.8145 76.9965 73.4571 77.1585 73.0637C77.3205 72.6703 77.403 72.2487 77.4012 71.8233C77.403 71.4058 77.3222 70.992 77.1634 70.6058C77.0046 70.2196 76.771 69.8686 76.4759 69.573C76.1808 69.2774 75.8302 69.0431 75.4442 68.8835C75.0582 68.724 74.6444 68.6423 74.2267 68.6432ZM58.5462 9.51776C59.4027 9.5147 60.2231 9.17247 60.8276 8.56602C61.4321 7.95956 61.7716 7.13832 61.7716 6.28219C61.7529 5.43894 61.4055 4.6363 60.8035 4.04531C60.2015 3.45431 59.3923 3.12167 58.5485 3.11826C58.1244 3.11542 57.7039 3.19744 57.312 3.3595C56.9201 3.52156 56.5645 3.76038 56.2664 4.0619C55.9682 4.36341 55.7333 4.72153 55.5757 5.11515C55.4181 5.50877 55.3409 5.92993 55.3486 6.35383C55.3504 6.77154 55.4346 7.1848 55.5964 7.56995C55.7581 7.95511 55.9942 8.3046 56.2912 8.59846C56.5882 8.89232 56.9402 9.12477 57.3271 9.28252C57.7141 9.44026 58.1283 9.5202 58.5462 9.51776Z" fill="#163788"/>
<path d="M52.1163 58.4388C48.2528 58.4388 44.387 58.4527 40.5235 58.4388C33.4694 58.4065 27.784 53.7011 26.4199 46.7862C24.8708 38.9422 30.7111 30.955 38.6901 30.2986C42.4171 29.9913 46.1812 30.1623 49.929 30.1484C50.1039 30.1372 50.2791 30.1629 50.4433 30.2239C50.6075 30.2848 50.7571 30.3796 50.8823 30.5021C51.0074 30.6246 51.1054 30.7721 51.1698 30.9349C51.2343 31.0978 51.2637 31.2723 51.2562 31.4473C51.2562 32.2122 50.7267 32.7253 49.8342 32.7299C46.6598 32.7484 43.4876 32.7299 40.3155 32.7438C37.8312 32.7553 35.4165 33.5652 33.428 35.0538C31.4396 36.5425 29.9829 38.6309 29.273 41.0107C28.7628 42.7234 28.6586 44.5314 28.9687 46.2913C29.2789 48.0512 29.9949 49.7148 31.0599 51.1501C32.1249 52.5854 33.5098 53.7531 35.1047 54.5605C36.6996 55.3679 38.4607 55.7929 40.2484 55.8019C48.1765 55.9036 56.1092 55.8781 64.0419 55.8019C69.9955 55.751 74.9526 51.1796 75.4636 45.4735C76.0046 39.4183 72.1226 34.1744 66.1714 32.961C65.3792 32.8065 64.5739 32.7291 63.7668 32.7299C61.057 32.7022 58.345 32.7299 55.6353 32.7161C54.4792 32.7161 53.8596 32.2307 53.8804 31.3941C53.9012 30.5575 54.5208 30.1045 55.6029 30.1161C58.9739 30.1484 62.3611 30.0121 65.7159 30.2801C72.2683 30.8001 77.7965 36.7513 78.0855 43.3264C78.4115 50.7659 73.6555 56.8234 66.3748 58.1869C65.4655 58.345 64.544 58.4223 63.6211 58.4181C59.7877 58.4527 55.952 58.4388 52.1163 58.4388Z" fill="#F26925"/>
<path d="M52.7658 45.5592C53.6721 46.5877 54.5576 47.5653 55.4061 48.5637C55.6559 48.8618 56.0027 49.2755 55.9541 49.5829C55.877 50.092 55.6203 50.5567 55.2305 50.8933C54.7195 51.27 54.1183 51.0273 53.6929 50.5512C52.7357 49.4766 51.7901 48.388 50.8398 47.3157C50.5947 47.0383 50.3404 46.7679 49.8988 46.2826C49.8988 47.177 49.8988 47.838 49.8988 48.4966C49.8988 48.9589 49.9196 49.4211 49.8757 49.8833C49.8702 50.1917 49.7438 50.4856 49.5237 50.7017C49.3036 50.9179 49.0074 51.0389 48.6989 51.0389C48.0052 51.092 47.5428 50.7269 47.3578 50.0659C47.302 49.8134 47.281 49.5545 47.2954 49.2963C47.2954 45.8419 47.2954 42.3868 47.2954 38.9309C47.2954 37.5905 47.7116 37.1814 49.0457 37.1768C49.8826 37.1768 50.7173 37.1768 51.5543 37.1768C53.7369 37.1999 55.5241 38.5634 55.9241 40.5117C56.3518 42.5917 55.3252 44.4406 53.2189 45.3443C53.0871 45.3951 52.9623 45.4621 52.7658 45.5592ZM49.9659 43.047C51.1219 42.9638 52.4074 43.4052 53.1264 42.1688C53.2408 41.9195 53.2983 41.6479 53.2947 41.3737C53.2911 41.0995 53.2265 40.8295 53.1056 40.5834C52.3542 39.3677 51.0942 39.853 49.9659 39.7953V43.047Z" fill="#F26925"/>
<path d="M63.51 46.1488C63.51 47.3159 63.51 48.3744 63.51 49.4352C63.51 50.496 63.0337 51.0322 62.2176 51.053C61.4014 51.0738 60.9135 50.5145 60.9112 49.4837C60.902 45.9092 60.902 42.3347 60.9112 38.7601C60.9112 37.6208 61.3482 37.1932 62.4719 37.1816C63.3967 37.1816 64.3215 37.1816 65.2464 37.1816C67.8405 37.2048 69.8243 39.0606 69.9121 41.5404C70 43.9602 68.0625 45.9939 65.4776 46.1511C64.8672 46.1788 64.2591 46.1488 63.51 46.1488ZM63.5539 43.6066C64.4048 43.5465 65.1562 43.5673 65.8799 43.4263C66.277 43.3342 66.6316 43.1114 66.8869 42.7937C67.1422 42.4761 67.2835 42.0819 67.2879 41.6745C67.2879 40.8586 66.6799 39.985 65.836 39.8625C65.0892 39.7539 64.3146 39.8394 63.5539 39.8394V43.6066Z" fill="#F26925"/>
<path d="M38.1175 39.8001V42.8046C39.0261 42.8046 39.907 42.8046 40.7856 42.8046C41.8792 42.8185 42.4503 43.2899 42.4318 44.1381C42.411 44.9493 41.8584 45.3954 40.8133 45.4138C39.9509 45.43 39.0862 45.4138 38.1591 45.4138V48.4183C39.1348 48.4183 40.1336 48.4183 41.1301 48.4183C42.226 48.4183 42.8017 48.8805 42.7879 49.731C42.774 50.5815 42.1914 51.0137 41.0908 51.0183C39.7336 51.0183 38.3788 51.0183 37.0239 51.0183C35.9603 51.0045 35.4956 50.5422 35.4933 49.4768C35.484 45.9023 35.484 42.3277 35.4933 38.7532C35.4933 37.6855 35.9557 37.2163 37.0146 37.2047C38.4265 37.1909 39.84 37.1909 41.255 37.2047C42.2122 37.2047 42.7694 37.6924 42.7879 38.4805C42.8064 39.2686 42.233 39.7932 41.2272 39.8001C40.2215 39.8071 39.2111 39.8001 38.1175 39.8001Z" fill="#F26925"/>
</g>
<defs>
<clipPath id="clip0_423_376">
<rect width="80" height="88.5714" fill="white"/>
</clipPath>
</defs>
</svg>
