<svg width="78" height="74" viewBox="0 0 78 74" fill="none" xmlns="http://www.w3.org/2000/svg">
<path d="M0.439453 62.4456C0.787946 61.2839 1.6011 60.4708 2.64657 59.7738C4.85369 58.2637 7.06082 56.7535 9.3841 55.2434C9.03561 54.8949 8.80328 54.5464 8.57095 54.1979C7.52547 52.9201 6.94465 51.41 6.94465 49.7837C6.94465 48.0412 6.82849 46.1826 7.17698 44.5563C7.87396 40.6067 11.5912 37.9349 15.5408 38.2834C19.4904 38.6319 22.6268 41.8845 22.8592 45.8341C22.8592 46.7634 22.8592 47.5766 22.8592 48.5059C22.9753 51.0615 22.2783 53.3848 20.3035 55.2434C20.652 55.4757 20.8844 55.7081 21.1167 55.8242C22.8592 56.9859 24.6016 58.1475 26.3441 59.3092C26.5764 59.4253 26.9249 59.5415 27.1572 59.4253C29.2482 58.0313 31.3391 56.6374 33.4301 55.2434C32.1523 53.9656 31.1068 52.5716 30.9906 50.8292C30.8745 48.7382 30.7583 46.5311 31.1068 44.5563C31.6876 40.7229 35.5211 38.0511 39.4706 38.2834C43.4202 38.6319 46.5567 41.8845 46.789 45.8341C46.789 46.9957 46.789 48.2736 46.789 49.4352C46.789 51.7585 45.8597 53.6171 44.2334 55.3596C46.3243 56.7535 48.4153 58.1475 50.5062 59.5415C50.6224 59.6577 50.9709 59.6577 51.0871 59.5415C53.178 58.1475 55.269 56.7535 57.2438 55.4757C56.6629 54.5464 55.966 53.7333 55.5013 52.804C55.1528 51.8746 54.8043 50.8292 54.8043 49.8999C54.6882 48.1574 54.6882 46.4149 54.9205 44.7886C55.6175 40.839 59.3347 38.0511 63.2843 38.3996C67.2339 38.7481 70.4865 42.0007 70.6027 46.0664C70.6027 47.2281 70.6027 48.3897 70.6027 49.5514C70.6027 51.8746 69.6733 53.8494 68.047 55.4757C69.0925 56.1727 70.138 56.8697 71.2996 57.5667C72.4613 58.3798 73.7391 59.193 75.0169 60.0061C76.0624 60.587 76.7594 61.4001 77.1079 62.5618C77.1079 64.6527 77.1079 66.8598 77.1079 68.9508C76.8755 69.1831 76.7594 69.5316 76.527 69.7639C73.9714 71.9711 71.0673 73.2489 67.6986 73.365C66.6531 73.365 66.0723 72.7842 65.9561 71.8549C65.8399 70.8094 66.6531 70.1124 67.9309 70.1124C70.0218 69.9963 71.7643 69.2993 73.5068 68.1376C73.7391 68.0215 73.9714 67.5568 73.9714 67.3245C73.9714 66.0467 73.9714 64.885 73.9714 63.6072C73.9714 63.3749 73.7391 62.9102 73.5068 62.7941C70.835 60.9355 68.1632 59.193 65.4914 57.4505C65.2591 57.3344 64.9106 57.3344 64.6783 57.3344C63.5166 57.3344 62.2388 57.3344 61.0772 57.3344C60.8449 57.3344 60.4964 57.3344 60.3802 57.4505C58.1731 58.9607 55.8498 60.4708 53.6427 61.9809C53.5265 62.0971 53.4104 62.4456 53.4104 62.6779C53.4104 63.6072 53.5265 64.6527 53.4104 65.582C53.4104 66.5113 52.5972 67.0922 51.784 67.0922C50.9709 67.0922 50.2739 66.3952 50.2739 65.4659C50.2739 64.885 50.2739 64.3042 50.2739 63.7234C50.2739 63.4911 50.0416 63.1426 49.8093 62.9102C47.1375 61.0516 44.3495 59.3092 41.6778 57.4505C41.4454 57.3344 41.0969 57.3344 40.8646 57.3344C39.703 57.3344 38.5413 57.3344 37.3797 57.3344C37.0312 57.3344 36.6827 57.3344 36.3342 57.5667C34.1271 58.9607 32.0361 60.587 29.7128 61.8648C28.3189 62.6779 27.6219 63.6072 27.8542 65.2335C27.9704 66.279 27.1572 66.976 26.3441 66.976C25.4148 66.976 24.8339 66.279 24.7178 65.1174C24.7178 64.0719 24.7178 63.1426 24.7178 61.9809C22.3945 60.4708 20.0712 58.8445 17.6318 57.3344C17.5156 57.2182 17.1671 57.2182 16.9348 57.2182C15.7731 57.2182 14.6115 57.2182 13.3337 57.2182C13.1014 57.2182 12.7529 57.2182 12.5205 57.3344C9.84876 59.0768 7.06082 60.9355 4.38904 62.7941C4.15671 62.9102 3.92438 63.3749 3.92438 63.6072C3.92438 64.5365 4.04054 65.582 3.92438 66.5113C3.80822 67.5568 4.27287 68.1376 5.20219 68.6023C7.17698 69.7639 9.15177 70.1124 11.3589 70.1124C27.7381 70.1124 44.1172 70.1124 60.3802 70.1124C60.7287 70.1124 61.0772 70.1124 61.5418 70.2286C62.2388 70.3448 62.8197 71.0417 62.8197 71.7387C62.8197 72.4357 62.2388 73.0165 61.5418 73.2489C61.1934 73.365 60.8449 73.365 60.3802 73.365C44.001 73.365 27.6219 73.365 11.2427 73.365C8.22246 73.365 5.43452 72.668 2.8789 71.0417C2.06575 70.4609 1.13644 69.8801 0.671782 68.9508C0.439453 66.7437 0.439453 64.5365 0.439453 62.4456ZM19.6066 47.8089C19.6066 46.9957 19.6066 46.1826 19.4904 45.4856C19.1419 43.1623 17.1671 41.536 14.8438 41.536C12.7529 41.4199 10.5457 42.93 10.1972 45.1371C9.96492 46.9957 9.96492 48.8544 10.1972 50.713C10.4296 52.5716 12.172 54.0818 14.0307 54.1979C16.1216 54.4303 17.9803 53.5009 18.9096 51.7585C19.6066 50.3645 19.6066 49.0867 19.6066 47.8089ZM33.7786 47.8089C33.7786 48.622 33.7786 49.5514 34.0109 50.3645C34.3594 52.5716 36.218 54.0818 38.5413 54.1979C40.6323 54.3141 42.6071 52.9201 43.1879 50.8292C43.6526 48.8544 43.6526 46.8796 43.1879 44.9048C42.7232 42.93 41.0969 41.6522 39.006 41.536C37.1474 41.3037 35.4049 42.3492 34.4756 44.0916C33.7786 45.2533 33.8948 46.5311 33.7786 47.8089ZM67.3501 47.8089C67.3501 46.9957 67.3501 46.1826 67.2339 45.3694C66.8854 43.1623 64.9106 41.536 62.5873 41.4199C60.3802 41.3037 58.2892 42.93 57.9408 45.021C57.7084 46.7634 57.7084 48.7382 57.9408 50.4807C58.1731 52.3393 60.0317 53.8494 61.7742 53.9656C63.8651 54.1979 65.7238 53.2686 66.6531 51.5262C67.3501 50.3645 67.3501 49.0867 67.3501 47.8089Z" fill="#163788"/>
<path d="M6.94383 31.7783C6.47917 29.9196 7.40849 28.8742 9.03479 28.061C9.9641 27.5964 10.7773 27.0155 11.7066 26.5509C12.2874 26.3185 12.4036 25.8539 12.6359 25.2731C13.1005 24.1114 12.9844 23.0659 12.2874 22.0205C11.5904 21.0912 11.1257 20.0457 10.5449 19.0002C10.1964 18.3032 10.0803 17.6062 10.5449 16.9092C11.0096 16.0961 11.4742 15.3991 11.9389 14.586C12.2874 13.889 12.8682 13.5405 13.6814 13.5405C15.0753 13.5405 16.5855 13.5405 17.9794 13.5405C18.5603 13.5405 18.9087 13.3082 19.3734 12.9597C20.4189 12.1465 20.7674 11.2172 20.6512 9.93939C20.535 8.77775 20.6512 7.61611 20.6512 6.45446C20.6512 5.64131 20.9997 5.17666 21.5805 4.712C22.3937 4.59584 23.2068 4.13118 24.02 3.66652C24.717 3.31803 25.2978 3.31803 25.9948 3.66652C27.2726 4.36351 28.6665 5.06049 29.9444 5.87364C30.409 6.10597 30.7575 6.10597 31.2222 5.98981C32.6161 5.75748 33.4293 5.06049 34.0101 3.89885C34.4748 2.96954 35.0556 2.04022 35.6364 1.11091C36.1011 0.413923 36.6819 0.0654297 37.495 0.0654297C38.3082 0.0654297 39.2375 0.0654297 40.0506 0.0654297C40.8638 0.0654297 41.4446 0.413923 41.7931 1.11091C42.4901 2.38871 43.3032 3.55036 44.0002 4.82816C44.2326 5.29282 44.6972 5.52515 45.1619 5.75748C46.3235 6.22213 47.369 6.10597 48.5306 5.40899C49.4599 4.712 50.5054 4.24734 51.5509 3.78269C52.2479 3.43419 52.8287 3.43419 53.4095 3.78269C54.2227 4.24734 55.0358 4.712 55.849 5.17666C56.546 5.52515 56.7783 6.10597 56.7783 6.80296C56.7783 8.31309 56.7783 9.82323 56.8945 11.3334C56.8945 11.6819 57.1268 12.1465 57.3591 12.495C58.1723 13.6566 59.2177 14.0051 60.4956 13.889C61.541 13.7728 62.7027 13.889 63.7482 13.889C64.5613 13.889 65.026 14.2375 65.4906 14.8183C65.9553 15.6314 66.4199 16.4446 66.8846 17.2577C67.2331 17.9547 67.2331 18.5355 66.8846 19.2325C66.1876 20.5103 65.4906 21.7881 64.7936 22.9498C64.4451 23.4144 64.4451 23.8791 64.5613 24.4599C64.7936 25.7377 65.3745 26.5509 66.5361 27.1317C67.5816 27.5964 68.5109 28.2933 69.4402 28.8742C70.1372 29.2227 70.4857 29.8035 70.4857 30.6166C70.4857 31.5459 70.4857 32.4753 70.4857 33.4046C70.4857 34.45 69.7887 35.147 68.8594 35.147C67.9301 35.147 67.3492 34.45 67.3492 33.5207V33.4046C67.6977 31.7783 66.8846 30.849 65.4906 30.2681C64.7936 29.9196 64.0966 29.455 63.3997 28.9903C62.7027 28.6418 62.238 28.061 62.1219 27.2479C61.8895 26.3185 61.6572 25.3892 61.4249 24.5761C61.1925 23.8791 61.3087 23.2983 61.6572 22.6013C62.3542 21.4396 63.0512 20.1618 63.632 19.0002C64.0966 18.0709 63.5158 17.2577 62.5865 17.1416C61.3087 17.1416 59.9147 17.1416 58.6369 17.1416C57.8238 17.1416 57.243 16.9092 56.6621 16.3284C56.0813 15.6314 55.3843 14.9345 54.6873 14.3536C53.9904 13.5405 53.758 12.9597 53.758 12.2627C53.758 10.8687 53.758 9.47473 53.6419 7.9646C53.6419 7.15145 52.7125 6.57063 52.0156 7.03528C50.7378 7.73227 49.5761 8.42926 48.2983 9.12624C47.6013 9.47473 47.0205 9.5909 46.3235 9.35857C45.3942 9.12624 44.4649 8.77775 43.5356 8.54542C42.8386 8.31309 42.2578 7.9646 41.9093 7.38378C41.2123 6.22213 40.5153 5.17666 39.9345 4.01501C39.3537 2.96954 38.3082 2.96954 37.7274 4.01501C37.0304 5.17666 36.3334 6.22213 35.7526 7.38378C35.4041 8.08076 34.8233 8.42925 34.1263 8.66158C33.197 8.89391 32.3838 9.12624 31.4545 9.35857C30.6413 9.5909 30.0605 9.5909 29.3635 9.12624C28.0857 8.42926 26.9241 7.73227 25.6463 7.03528C24.9493 6.68679 24.02 7.26761 24.02 7.9646C24.02 9.35857 23.9038 10.8687 23.9038 12.2627C23.9038 12.9597 23.6715 13.5405 23.0907 14.0051C22.3937 14.7021 21.6967 15.3991 20.9997 16.0961C20.4189 16.6769 19.8381 16.9092 19.1411 16.9092C17.7471 16.9092 16.3531 16.9092 15.0753 16.9092C14.146 16.9092 13.6814 17.8386 14.0298 18.6517C14.7268 19.9295 15.4238 21.0912 16.1208 22.369C16.4693 22.9498 16.4693 23.5306 16.3531 24.2276C16.1208 25.1569 15.7723 26.0862 15.54 27.1317C15.4238 27.8287 14.9592 28.4095 14.3783 28.758C13.2167 29.455 12.0551 30.152 10.7773 30.849C10.4288 31.0813 10.3126 31.3136 10.3126 31.7783C10.3126 32.3591 10.3126 32.8237 10.3126 33.4046C10.3126 34.3339 9.61561 35.0309 8.68629 35.0309C7.75698 35.0309 7.17616 34.3339 7.17616 33.4046C6.82767 32.8237 6.94383 32.3591 6.94383 31.7783Z" fill="#F86E03"/>
<path d="M22.7422 31.7785C22.9745 26.4349 25.1816 22.253 29.3636 19.0004C36.1011 14.0054 46.0912 15.3993 51.2024 22.1369C53.758 25.5056 54.8035 29.2229 54.5712 33.4048C54.5712 34.4503 53.8742 35.1473 52.9449 35.1473C52.0156 35.1473 51.4348 34.4503 51.3186 33.4048C51.3186 33.0563 51.3186 32.5917 51.3186 32.2432C51.3186 29.6875 50.6216 27.3643 49.3438 25.1571C46.5559 20.7429 41.2123 18.4196 35.9849 19.5813C30.8737 20.6267 26.8079 24.9248 26.111 30.036C25.9948 31.0815 25.9948 32.2432 25.8786 33.4048C25.8786 34.4503 25.414 35.0311 24.6008 35.1473C23.7877 35.2634 22.9745 34.7988 22.8584 33.9856C22.7422 33.1725 22.7422 32.4755 22.7422 31.7785Z" fill="#163788"/>
<path d="M47.3693 32.2427C47.3693 32.7074 47.3693 33.0558 47.3693 33.5205C47.2532 34.4498 46.6723 35.0306 45.8592 35.0306C45.046 35.0306 44.3491 34.4498 44.2329 33.5205C44.1167 32.3589 44.2329 31.3134 43.8844 30.1517C43.1874 27.7123 41.5611 26.2022 39.1217 25.6213C36.6822 25.1567 34.7074 25.8537 32.965 27.7123C32.8488 27.8285 32.7326 27.9446 32.6165 28.0608C31.9195 28.7578 30.9902 28.8739 30.4093 28.2931C29.7124 27.7123 29.7124 26.783 30.2932 25.9698C31.2225 24.8082 32.3841 23.8789 33.7781 23.1819C40.3995 20.2778 47.6017 25.0405 47.3693 32.2427Z" fill="#F86E03"/>
<path d="M40.1677 9.59082C40.1677 10.6363 40.1677 11.5656 40.1677 12.6111C39.1222 12.6111 38.0767 12.6111 37.0312 12.6111C37.0312 11.5656 37.0312 10.6363 37.0312 9.59082C38.1929 9.59082 39.1222 9.59082 40.1677 9.59082Z" fill="#F86E03"/>
<path d="M40.1677 32.0107C40.1677 33.0562 40.1677 33.9855 40.1677 35.031C39.1222 35.031 38.0767 35.031 37.0312 35.031C37.0312 33.9855 37.0312 33.0562 37.0312 32.0107C38.0767 32.0107 39.1222 32.0107 40.1677 32.0107Z" fill="#F86E03"/>
<path d="M37.1465 31.8945C38.192 31.8945 39.1213 31.8945 40.1668 31.8945C40.1668 32.94 40.1668 33.9855 40.1668 35.031C39.1213 35.031 38.192 35.031 37.1465 35.031C37.1465 33.9855 37.1465 32.94 37.1465 31.8945Z" fill="#F86E03"/>
</svg>
