<svg width="85" height="85" viewBox="0 0 85 85" fill="none" xmlns="http://www.w3.org/2000/svg">
<g clip-path="url(#clip0_423_344)">
<path d="M65.1652 7.6505C65.1652 2.96415 62.22 0 57.5598 0C47.5266 0 37.4934 0 27.4602 0C22.7953 0 19.8383 2.96179 19.8359 7.63157V77.3779C19.8359 82.0406 22.8 85.0024 27.4673 85.0024H57.4818C62.2129 85.0024 65.1675 82.0619 65.1675 77.3424C65.1675 67.9871 65.1675 58.6317 65.1675 49.2764V32.7926C65.1675 24.4119 65.1668 16.0312 65.1652 7.6505ZM62.3265 77.288C62.3265 80.4958 60.6706 82.1612 57.4936 82.1636H27.4933C24.3542 82.1636 22.6699 80.4887 22.6699 77.3708V7.61501C22.6699 4.53967 24.3613 2.83404 27.4011 2.83168H57.5859C60.602 2.83168 62.317 4.53731 62.317 7.53458L62.3265 77.288Z" fill="#163788"/>
<path d="M84.9943 55.8911C84.9943 56.9557 84.6631 57.3602 83.6081 57.6204C82.721 57.838 81.8197 57.9965 80.9444 58.2544C80.6472 58.3779 80.3982 58.5946 80.2348 58.8718C80.0455 59.1581 80.0384 59.5815 79.8373 59.8465C78.9952 60.9962 79.3784 61.9164 80.1212 62.981C81.7487 65.3088 81.692 65.3466 79.6859 67.3669L78.0017 69.063C76.8993 70.1725 76.5208 70.2104 75.1771 69.3469L75.1038 69.2949C72.6957 67.7454 72.6909 67.7383 70.0912 68.9258C69.8518 69.0644 69.676 69.2911 69.6015 69.5575C69.3649 70.4706 69.1993 71.4003 68.9793 72.3182C68.7428 73.2857 68.0922 73.7872 67.3045 73.6382C66.4624 73.4797 66.0271 72.7605 66.2282 71.7338C66.4562 70.3978 66.7531 69.0744 67.1176 67.769C67.324 67.2464 67.7144 66.8172 68.2153 66.5625C69.4193 65.9569 70.7086 65.5217 71.9363 64.9586C72.5632 64.6724 73.1191 64.6629 73.6892 65.0343C74.3563 65.4673 75.0541 65.8623 75.6905 66.3354C76.1754 66.695 76.4877 66.6217 76.8733 66.1959C77.2697 65.8042 77.6909 65.4383 78.1341 65.1006C77.4954 64.1023 76.9963 63.2719 76.4451 62.4747C75.9933 61.8171 75.998 61.2091 76.3386 60.4899C76.8804 59.3521 77.3606 58.1787 77.7935 56.9959C78.0513 56.2862 78.444 55.8485 79.1986 55.7042C80.1756 55.515 81.1431 55.269 82.1343 55.0442V52.6147C81.207 52.4089 80.2726 52.1771 79.3264 52.002C78.4748 51.8435 78.0277 51.3633 77.7509 50.5424C77.3598 49.4039 76.8968 48.2914 76.3647 47.2116C76.0193 46.5019 75.9625 45.8892 76.4238 45.2268C76.8851 44.5644 77.2186 43.9115 77.6776 43.2988C78.0395 42.8138 77.9401 42.5134 77.5333 42.116C76.3292 40.9331 76.3505 40.9189 74.9146 41.8368C74.8117 41.8938 74.7129 41.9578 74.6189 42.0284C73.4739 43.0433 72.3479 43.1261 71.0279 42.2319C70.2709 41.7162 69.301 41.4985 68.4045 41.2147C67.6593 40.9781 67.1862 40.5783 67.0419 39.774C66.8692 38.8277 66.6279 37.8815 66.4056 36.8832H65.2228V45.2741C65.6959 45.3427 66.169 45.3877 66.6114 45.4775C70.2023 46.1872 72.549 48.3447 73.4053 51.8648C74.2617 55.3849 73.0931 58.3277 70.2828 60.5822C69.9421 60.8566 69.3933 61.1381 69.0266 61.0553C68.5183 60.9053 68.0835 60.5724 67.806 60.1209C67.4512 59.5011 67.8178 58.9168 68.3595 58.5193C68.9877 58.0767 69.5225 57.5146 69.9332 56.8651C70.344 56.2156 70.6227 55.4916 70.7535 54.7343C71.3686 51.4059 68.5393 48.0561 65.166 48.2335V33.9971C65.8544 33.9971 66.5168 33.9971 67.1791 33.9971C68.3335 33.9971 68.757 34.3448 69.0148 35.4827C69.2088 36.3462 69.3768 37.2143 69.5826 38.0849C69.6322 38.2954 69.7363 38.5817 69.8995 38.6574C70.7772 39.0714 71.6714 39.4523 72.5821 39.7882C72.7406 39.8473 73.0174 39.6864 73.2043 39.5705C74.0054 39.0769 74.801 38.5699 75.5911 38.0494C76.3481 37.555 77.027 37.6307 77.661 38.2694C78.7019 39.315 79.7498 40.3536 80.7883 41.4015C81.3655 41.9811 81.4436 42.6317 81.0059 43.3272C80.4855 44.1504 79.9249 44.95 79.4565 45.7993C79.3075 46.0713 79.3855 46.4759 79.3902 46.8212C79.3902 46.9277 79.5109 47.027 79.5322 47.1382C79.8799 49.1183 81.2591 49.7026 83.0522 49.9557C84.8453 50.2088 84.9967 50.5211 84.9967 52.3592C84.9967 53.5302 85.0038 54.7107 84.9943 55.8911Z" fill="#F26925"/>
<path d="M19.8347 36.7974V50.9913C19.0659 50.9913 18.3657 50.9913 17.6678 50.9913C16.7666 50.9913 16.2272 50.5773 16.038 49.6973C15.8392 48.7747 15.6382 47.8545 15.4253 46.9342C15.3803 46.745 15.3283 46.4611 15.1887 46.3996C14.2567 45.962 13.2962 45.5574 12.35 45.186C12.2152 45.134 11.9739 45.3067 11.8036 45.4226C11.004 45.9217 10.2068 46.428 9.41906 46.9461C8.66918 47.4358 7.99972 47.3955 7.34682 46.7521C6.30596 45.7065 5.25801 44.6656 4.21715 43.6223C3.60684 43.012 3.54533 42.3449 4.01845 41.6234C4.13199 41.453 4.255 41.278 4.35199 41.1029C4.84403 40.301 5.66489 39.5227 5.73113 38.6852C5.79736 37.8478 5.1279 36.9417 4.73048 36.083C4.59552 35.8419 4.37262 35.6622 4.10834 35.5815C3.16211 35.3284 2.21587 35.1273 1.26964 34.9215C0.377819 34.7299 -0.0125012 34.1739 -0.00777003 33.2797C0.00326934 31.8603 0.00326934 30.441 -0.00777003 29.0216C-0.00777003 28.1274 0.377819 27.5738 1.27201 27.3845C2.1662 27.1953 3.11479 26.9753 4.03027 26.7553C4.80855 26.566 5.95586 23.7485 5.53242 23.0791C5.04511 22.3055 4.56016 21.5296 4.05393 20.7678C3.5477 20.0061 3.59737 19.3484 4.23608 18.6955C5.27693 17.6499 6.317 16.6035 7.35628 15.5563C7.96187 14.9436 8.62186 14.8632 9.35046 15.3197C10.169 15.8709 10.9803 16.4221 11.8249 16.8976C12.1257 17.0196 12.4586 17.0379 12.7711 16.9497C13.107 16.8763 13.4003 16.5901 13.7362 16.5286C15.0681 16.292 15.6287 15.457 15.7233 14.1629C15.7917 13.5773 15.9169 12.9998 16.0971 12.4384C16.3195 11.6506 16.9676 11.2225 17.6773 11.3407C17.8615 11.3664 18.0386 11.4295 18.1975 11.5262C18.3564 11.6229 18.4938 11.7511 18.6013 11.9029C18.7088 12.0547 18.784 12.2269 18.8224 12.409C18.8609 12.591 18.8616 12.7789 18.8246 12.9612C18.5502 14.4681 18.2592 15.9774 17.8382 17.4559C17.7222 17.8675 17.1782 18.2508 16.7429 18.4613C15.5601 19.0314 14.2969 19.4691 13.0999 20.0227C12.4399 20.3278 11.8674 20.3278 11.2689 19.9304C10.5929 19.4569 9.89342 19.0179 9.17304 18.6151C9.03195 18.5612 8.88062 18.5394 8.73004 18.5512C8.57946 18.5631 8.43342 18.6083 8.30251 18.6837C7.79682 19.0572 7.31416 19.4609 6.85714 19.8925C7.47929 20.8554 7.96187 21.6597 8.49885 22.4238C9.03584 23.1879 9.01218 23.8432 8.59584 24.6428C8.06822 25.6929 7.61758 26.78 7.24746 27.8955C6.98252 28.6691 6.58037 29.1659 5.75005 29.3149C4.80382 29.4947 3.85759 29.7384 2.87824 29.9607V32.3595C3.84339 32.5961 4.82984 32.8326 5.82811 33.0384C6.58983 33.1898 6.95886 33.6511 7.21671 34.349C7.65434 35.5318 8.13928 36.7028 8.67627 37.8431C8.99562 38.5291 9.02165 39.1229 8.59348 39.7521C8.11718 40.4266 7.67887 41.1272 7.28058 41.8505C7.22584 41.9909 7.20502 42.1423 7.21982 42.2924C7.23462 42.4424 7.28461 42.5868 7.36574 42.7139C8.58401 44.1333 8.59821 44.1097 10.1524 43.1161C10.3847 42.9865 10.6084 42.8419 10.8219 42.6832C11.7444 41.9025 12.6268 41.9735 13.6605 42.5909C14.5307 43.0857 15.462 43.4643 16.4306 43.717C17.3769 43.9843 17.8878 44.4976 18.0463 45.4581C18.1954 46.3523 18.4201 47.2347 18.6141 48.1336H19.7969V39.7498C19.0872 39.6173 18.3515 39.5463 17.6678 39.3452C14.4104 38.399 12.3145 36.2699 11.5883 32.958C10.81 29.5917 11.9147 26.7529 14.55 24.5126C14.7494 24.3372 14.9685 24.1856 15.2029 24.0608C15.8937 23.7131 16.5395 23.7959 17.0197 24.4228C17.4999 25.0496 17.4289 25.6955 16.8848 26.2609C16.6625 26.4974 16.3833 26.6701 16.1373 26.8807C15.2625 27.6325 14.6393 28.6346 14.3517 29.7517C14.0641 30.8688 14.126 32.0472 14.5289 33.1281C14.9319 34.2089 15.6566 35.1402 16.6054 35.7963C17.5541 36.4524 18.6812 36.8019 19.8347 36.7974Z" fill="#F26925"/>
<path d="M72.2362 11.3389C72.6062 11.3387 72.9616 11.4831 73.2267 11.7411C73.4918 11.9992 73.6457 12.3506 73.6555 12.7204C73.6792 13.5389 72.9861 14.303 72.2125 14.3101C72.029 14.3164 71.8461 14.2848 71.6754 14.2173C71.5046 14.1499 71.3496 14.0479 71.2199 13.9178C71.0903 13.7877 70.9889 13.6323 70.922 13.4613C70.8551 13.2903 70.8241 13.1074 70.831 12.9239C70.8192 12.0131 71.4059 11.3483 72.2362 11.3389Z" fill="#F26925"/>
<path d="M70.832 18.5417C70.832 17.638 71.4518 16.9851 72.2821 17.0064C72.6507 17.018 73.0003 17.1727 73.2568 17.4377C73.5134 17.7026 73.6567 18.057 73.6565 18.4258C73.6565 19.2514 72.9469 19.9918 72.1662 19.9682C71.3856 19.9445 70.8297 19.3767 70.832 18.5417Z" fill="#F26925"/>
<path d="M70.832 24.2099C70.832 23.3063 71.4495 22.6534 72.2798 22.6723C72.6488 22.6834 72.9989 22.8378 73.256 23.1028C73.513 23.3678 73.6567 23.7225 73.6565 24.0917C73.6565 24.9149 72.9469 25.6577 72.1686 25.6364C71.3903 25.6151 70.8297 25.045 70.832 24.2099Z" fill="#F26925"/>
<path d="M11.3387 60.7069C11.36 59.8553 11.9585 59.226 12.758 59.2236C12.9491 59.2235 13.1382 59.2619 13.3141 59.3366C13.4899 59.4113 13.6489 59.5208 13.7814 59.6584C13.9139 59.796 14.0173 59.959 14.0854 60.1375C14.1534 60.3161 14.1847 60.5065 14.1774 60.6974C14.1669 61.0955 13.9992 61.4731 13.7111 61.748C13.423 62.0228 13.0378 62.1724 12.6398 62.1641C11.8118 62.1239 11.315 61.5609 11.3387 60.7069Z" fill="#F26925"/>
<path d="M11.3383 66.3893C11.3548 65.4998 11.9983 64.8492 12.8191 64.8895C13.1883 64.912 13.5344 65.0766 13.7849 65.3487C14.0354 65.6208 14.1708 65.9793 14.1628 66.3491C14.1559 66.7477 13.9916 67.1275 13.7058 67.4054C13.4199 67.6833 13.0357 67.8368 12.637 67.8323C11.8256 67.7992 11.3217 67.2409 11.3383 66.3893Z" fill="#F26925"/>
<path d="M11.3382 72.0598C11.3524 71.1703 11.9934 70.5174 12.8143 70.5553C13.1833 70.5772 13.5295 70.7407 13.7807 71.0118C14.032 71.2829 14.1688 71.6406 14.1627 72.0101C14.1571 72.4088 13.994 72.789 13.709 73.0678C13.424 73.3466 13.0403 73.5013 12.6416 73.4981C11.8255 73.4698 11.324 72.9115 11.3382 72.0598Z" fill="#F26925"/>
<path d="M31.6972 42.5556C32.2105 43.0287 32.6766 43.4214 33.1166 43.852C34.1243 44.8424 35.1249 45.8423 36.1185 46.8516C36.963 47.7032 37.0647 48.5076 36.4142 49.1605C35.7636 49.8134 34.9593 49.7022 34.1077 48.8529C32.4124 47.167 30.7218 45.478 29.0359 43.7857C28.0897 42.8253 28.0779 42.1771 29.0241 41.2237C30.6879 39.552 32.3556 37.8834 34.0273 36.218C34.9404 35.3049 35.7258 35.1772 36.3929 35.8253C37.06 36.4735 36.9559 37.2968 36.0593 38.191C34.6494 39.6104 33.2325 41.0203 31.6972 42.5556Z" fill="#F26925"/>
<path d="M53.2762 42.4989C51.8024 41.0345 50.4233 39.6601 49.0465 38.2951C48.85 38.1169 48.6673 37.9239 48.5 37.7179C48.0269 37.0886 48.0506 36.4523 48.571 35.868C48.6852 35.7295 48.827 35.6163 48.9872 35.5354C49.1475 35.4546 49.3228 35.4079 49.502 35.3983C49.6812 35.3888 49.8605 35.4165 50.0285 35.4799C50.1964 35.5432 50.3494 35.6407 50.4777 35.7663C52.4458 37.673 54.3864 39.6104 56.2994 41.5786C56.4275 41.6955 56.53 41.8378 56.6 41.9964C56.6701 42.1551 56.7063 42.3266 56.7063 42.5001C56.7063 42.6735 56.6701 42.845 56.6 43.0037C56.53 43.1624 56.4275 43.3047 56.2994 43.4215C54.4069 45.366 52.49 47.2854 50.5486 49.1795C50.4195 49.3137 50.2639 49.4197 50.0917 49.4908C49.9195 49.5619 49.7344 49.5965 49.5481 49.5925C49.3619 49.5885 49.1785 49.546 49.0095 49.4676C48.8405 49.3891 48.6896 49.2765 48.5663 49.1369C48.0104 48.5549 48.0246 47.7435 48.6727 47.0835C50.1607 45.5742 51.6747 44.091 53.2762 42.4989Z" fill="#F26925"/>
<path d="M45.3301 36.9896C45.1858 37.5739 45.0013 38.3144 44.8167 39.0548C44.0519 42.1097 43.287 45.1629 42.5221 48.2146C42.2643 49.2342 41.5925 49.731 40.7834 49.5441C39.9129 49.343 39.532 48.5813 39.7946 47.5262C40.6935 43.8989 41.598 40.2716 42.5079 36.6442C42.7279 35.7737 43.343 35.3242 44.0858 35.4212C44.786 35.5229 45.3111 36.112 45.3301 36.9896Z" fill="#F26925"/>
<path d="M42.5549 8.50006C41.1971 8.50006 39.8392 8.50006 38.4837 8.50006C37.4594 8.50006 36.8278 7.91338 36.842 7.05228C36.8562 6.19119 37.4784 5.68021 38.4625 5.67548C41.1434 5.66286 43.8284 5.66286 46.5172 5.67548C47.5439 5.67548 48.1732 6.26216 48.159 7.12089C48.1448 7.97962 47.5226 8.4906 46.5385 8.50006C45.2091 8.50952 43.882 8.50006 42.5549 8.50006Z" fill="#F26925"/>
</g>
<defs>
<clipPath id="clip0_423_344">
<rect width="85" height="85" fill="white"/>
</clipPath>
</defs>
</svg>
