<svg width="81" height="82" viewBox="0 0 81 82" fill="none" xmlns="http://www.w3.org/2000/svg">
<g clip-path="url(#clip0_423_372)">
<path d="M79.2666 72.5603C78.9745 72.5603 78.6803 72.5603 78.3303 72.5603V9.41963C78.7598 9.41963 79.1506 9.43674 79.5436 9.41963C80.4241 9.37043 80.961 8.87848 80.976 8.01008C81.0061 6.25047 81.0061 4.48944 80.976 2.72697C80.9588 1.88852 80.4477 1.37732 79.5952 1.36021C77.827 1.32456 76.0596 1.32456 74.2929 1.36021C73.3996 1.37732 72.9421 1.8821 72.8842 2.78258C72.8605 3.15476 72.8842 3.52693 72.8842 3.9654H45.9028C45.9028 3.22534 45.9028 2.46816 45.9028 1.70671C45.8856 0.472561 45.426 0.0148342 44.1847 0.0126953C41.7194 0.0126953 39.2548 0.0126953 36.7908 0.0126953C35.5625 0.0126953 35.1029 0.472562 35.0857 1.71099C35.0857 2.45105 35.0857 3.19326 35.0857 3.98251H8.11722C8.11722 3.55473 8.1387 3.16973 8.11722 2.78045C8.05924 1.87997 7.59967 1.37732 6.7063 1.36021C4.93818 1.32599 3.17006 1.32599 1.40194 1.36021C0.521454 1.3816 0.036119 1.91419 0.0232339 2.81039C-0.0025363 4.52152 -0.0025363 6.23265 0.0232339 7.94378C0.0382665 8.90843 0.560114 9.39396 1.54153 9.44102C1.90875 9.45599 2.27812 9.44102 2.68615 9.44102V72.5603C2.27597 72.5603 1.88298 72.5453 1.49213 72.5603C0.564401 72.6052 0.0404161 73.0971 0.0253835 74.0169C-0.000386685 75.728 -0.000386685 77.4391 0.0253835 79.1503C0.0382686 80.0893 0.530044 80.6176 1.45562 80.6475C3.19797 80.6817 4.93961 80.6817 6.68053 80.6475C7.61256 80.6304 8.07212 80.1235 8.12581 79.1759C8.14514 78.808 8.12581 78.4359 8.12581 78.0209H35.0986C35.0986 78.7353 35.1308 79.4219 35.0986 80.1042C35.0492 80.9192 35.294 81.563 36.0113 81.995H45.0094C45.7267 81.5672 45.9693 80.9256 45.9221 80.1042C45.8834 79.439 45.9221 78.7717 45.9221 78.0402H72.8927C72.8927 78.4038 72.8756 78.7909 72.8927 79.1759C72.9443 80.1213 73.406 80.6304 74.338 80.6475C76.056 80.6796 77.774 80.6775 79.492 80.6475C80.5057 80.6304 80.9953 80.1064 80.9953 79.0754C81.0125 77.4755 81.0082 75.867 80.9953 74.2736C80.9781 73.0458 80.495 72.5753 79.2666 72.5603ZM72.7832 6.78876C73.1912 9.17579 73.1912 9.17579 75.5191 9.49877V27.0015C71.2885 17.5047 64.4895 10.8762 54.9202 6.78876H72.7832ZM37.8388 2.73981H43.1582V7.98869H37.8388V2.73981ZM5.4951 9.61427C6.24458 9.41535 7.17446 9.42818 7.64262 8.97259C8.11078 8.51701 8.10648 7.58658 8.33841 6.76096H26.1628C16.5806 10.8484 9.74074 17.4555 5.51228 26.9779L5.4951 9.61427ZM5.37914 77.914H2.77205V75.296H5.38772L5.37914 77.914ZM5.37914 6.67113H2.76347V4.08946H5.39417L5.37914 6.67113ZM8.17091 75.2168C7.88529 72.6865 7.88529 72.6865 5.4951 72.5196V55.0084C9.72571 64.5073 16.5484 71.1379 26.1113 75.2061L8.17091 75.2168ZM43.1454 79.238H37.8324V73.9805H43.1647L43.1454 79.238ZM75.4998 72.4811C73.1376 72.8533 73.1376 72.8533 72.7703 75.2211H54.8128C64.337 71.1122 71.2671 64.5843 75.4998 55.2736V72.4811ZM64.5046 65.9468L64.4809 65.9703C63.1189 67.2038 61.6588 68.3254 60.115 69.3241L60.1021 69.292C60.0485 69.1637 59.9948 69.0396 59.9411 68.9177L57.6153 70.4321L57.7442 70.7828L57.1837 71.0887L57.1429 71.1101C56.3769 71.5165 55.6024 71.8922 54.8193 72.2373C51.9723 73.4938 48.9679 74.3615 45.8877 74.8168C45.8877 74.1345 45.8877 73.5335 45.8877 72.926C45.8684 71.6791 45.4239 71.2384 44.1869 71.2342C43.4331 71.2342 42.6836 71.2342 41.9234 71.2342C41.2792 71.2342 40.6478 71.2342 40.01 71.2513C39.9194 71.2548 39.8288 71.2491 39.7394 71.2342H36.2454C34.4178 71.8758 35.4057 73.5656 35.0084 74.7099C21.5349 73.2704 6.12217 61.0529 5.46288 42.2348C4.76709 22.313 20.5943 8.86779 35.0986 7.24863C35.0986 7.91811 35.0793 8.57904 35.0986 9.23782C35.1394 10.2709 35.6204 10.7351 36.6684 10.7351C39.2125 10.7436 41.7566 10.7436 44.3007 10.7351C45.3917 10.7351 45.8641 10.2666 45.8985 9.18007C45.9199 8.5384 45.8985 7.90956 45.8985 7.26788C55.4979 8.19403 68.98 15.5669 73.8591 30.3938C75.9282 36.5819 76.1474 43.2356 74.4901 49.5455C72.8328 55.8554 69.3704 61.5498 64.5239 65.9361L64.5046 65.9468ZM78.1993 77.9247H75.5965V75.2788H78.1993V77.9247ZM78.2121 6.69893H75.6072V4.09588H78.2121V6.69893Z" fill="#163788"/>
<path d="M59.8081 68.5243C58.191 64.1224 56.6191 59.7034 54.9504 55.3208C53.7757 52.2386 54.3642 49.5201 56.3764 47.0218C57.4222 45.7214 57.3814 45.2337 56.0714 44.1963C48.7327 38.3956 41.3989 32.5828 34.0701 26.7578C33.7484 26.4977 33.5219 26.139 33.4259 25.7375C32.8117 22.3752 34.4331 20.2876 38.0473 19.6951C40.4826 19.293 42.9072 19.5539 45.3339 19.7678C47.432 19.9539 49.5129 19.8705 51.5294 19.201C54.3212 18.2749 55.8953 16.1167 55.7601 13.4751C55.7386 13.2654 55.7063 13.057 55.6634 12.8506L53.1723 13.381C52.5839 16.0568 51.3598 17.0043 48.1492 17.0963C46.5751 17.1412 44.9945 17.0001 43.4247 16.8931C41.0904 16.7348 38.7689 16.6942 36.4818 17.2931C32.0085 18.4695 29.9018 21.9431 30.7587 26.4712C30.9412 27.4401 30.7028 28.5202 30.5031 29.5213C28.7851 38.171 27.0413 46.8165 25.2718 55.4577C24.9604 56.9998 25.2932 57.4982 26.8545 57.7485C30.239 58.2896 32.5755 60.035 33.6814 63.3674C34.5404 65.9683 35.5541 68.5222 36.5183 71.1487C36.4217 71.1744 36.3315 71.2001 36.2477 71.23H39.7546C39.4797 71.183 39.3251 71.0332 39.2134 70.6953C38.9987 69.9617 38.7002 69.2472 38.4146 68.458L54.7357 62.514C55.7085 65.1491 56.6684 67.7436 57.6477 70.4279L59.9735 68.9136C59.9069 68.7788 59.8554 68.6484 59.8081 68.5243ZM52.367 56.0737C52.8502 57.3421 53.299 58.6233 53.7951 59.9836L37.4933 65.9298C37.2334 65.2325 36.9392 64.5823 36.7481 63.9043C35.4875 59.4382 32.9083 56.2726 28.0807 55.2438C29.6205 47.5993 31.1474 40.0233 32.7151 32.2441C32.8954 32.6098 33.0007 32.781 33.0672 32.967C34.476 36.7914 35.859 40.6222 37.2936 44.4423C37.4675 44.9107 37.4031 45.1802 37.0337 45.5353C36.2016 46.3055 35.6712 47.3451 35.5371 48.4686C35.403 49.5921 35.6738 50.7266 36.3014 51.6697C36.9051 52.5949 37.8058 53.2889 38.8566 53.6385C39.9073 53.9881 41.046 53.9727 42.0868 53.5947C44.2193 52.8097 45.5851 50.5617 45.2437 48.3993C44.8593 45.9716 43.051 44.3354 40.6115 44.1707C40.3624 44.1535 39.9908 43.9568 39.9135 43.7429C38.3824 39.6533 36.8877 35.5508 35.3844 31.4506L35.4896 31.3351L53.8144 45.8433C53.6877 46.0572 53.576 46.2561 53.4536 46.4507C51.5488 49.4859 51.072 52.6771 52.367 56.0737ZM38.2234 48.9896C38.2234 48.4224 38.4497 47.8783 38.8524 47.4772C39.2552 47.0761 39.8014 46.8507 40.371 46.8507C40.6593 46.8456 40.9457 46.8976 41.2137 47.0036C41.4816 47.1097 41.7258 47.2677 41.932 47.4684C42.1381 47.6692 42.3022 47.9088 42.4147 48.1732C42.5272 48.4376 42.5858 48.7217 42.5872 49.0089C42.5827 49.5882 42.3504 50.1428 41.9401 50.5535C41.5297 50.9642 40.9741 51.1983 40.3924 51.2055C40.1035 51.2033 39.8179 51.1441 39.5521 51.0312C39.2863 50.9184 39.0456 50.7542 38.8439 50.5482C38.6422 50.3421 38.4835 50.0983 38.377 49.8308C38.2705 49.5632 38.2183 49.2774 38.2234 48.9896Z" fill="#F26925"/>
</g>
<defs>
<clipPath id="clip0_423_372">
<rect width="81" height="81.9759" fill="white"/>
</clipPath>
</defs>
</svg>
