<svg width="79" height="79" viewBox="0 0 79 79" fill="none" xmlns="http://www.w3.org/2000/svg">
<g clip-path="url(#clip0_423_360)">
<path d="M76.3659 49.9708V12.4814C76.3659 10.861 76.0295 10.5334 74.3739 10.5312C73.7143 10.5312 73.0546 10.551 72.395 10.5312C71.5793 10.4982 71.1 10.0101 71.0758 9.2516C71.0604 8.45348 71.5507 7.9324 72.4082 7.91481C73.3691 7.89062 74.3321 7.87303 75.2886 7.91481C76.2421 7.97822 77.1404 8.38447 77.8177 9.05855C78.4951 9.73263 78.9056 10.629 78.9736 11.5822C78.9934 11.8548 78.9846 12.1296 78.9846 12.4045C78.9846 27.8185 78.9846 43.2333 78.9846 58.6489C78.9846 61.661 77.4455 63.1957 74.4223 63.1957H4.57333C1.55009 63.1957 0 61.6566 0 58.6577V12.4243C0 9.46047 1.53909 7.91261 4.50956 7.91041C5.16918 7.91041 5.82879 7.89722 6.48841 7.91041C7.41847 7.9324 7.92418 8.4183 7.91099 9.2472C7.8978 10.0343 7.39869 10.5114 6.5214 10.5334C5.78263 10.5532 5.04166 10.5334 4.3007 10.5334C3.06721 10.5334 2.63846 10.9731 2.63846 12.233C2.63846 17.7736 2.63846 23.3142 2.63846 28.8548V49.962L76.3659 49.9708ZM2.63186 52.6927V58.5147C2.63186 60.2539 2.93968 60.5573 4.69426 60.5573H74.2881C74.4794 60.5573 74.6729 60.5573 74.8642 60.5573C75.8932 60.5287 76.3549 60.0714 76.3615 59.0182C76.3615 57.0394 76.3615 55.0606 76.3615 53.095C76.3533 52.9577 76.3356 52.8211 76.3088 52.6861L2.63186 52.6927Z" fill="#163788"/>
<path d="M65.8296 13.2051H13.1659V45.3869C13.1769 45.6603 13.1725 45.9341 13.1527 46.207C13.1446 46.3726 13.1035 46.5349 13.0317 46.6843C12.96 46.8337 12.8591 46.9673 12.7349 47.0771C12.6107 47.187 12.4658 47.2708 12.3087 47.3238C12.1517 47.3767 11.9856 47.3977 11.8202 47.3855C11.0969 47.3481 10.6505 46.9612 10.5494 46.2312C10.5266 45.9856 10.5215 45.7388 10.534 45.4925C10.534 31.808 10.534 18.1235 10.534 4.43909C10.534 1.58084 12.1105 0 14.949 0H64.0662C66.8586 0 68.4637 1.59623 68.4637 4.37973C68.4637 18.1448 68.4637 31.9113 68.4637 45.6793C68.4637 46.8204 68.0965 47.3415 67.261 47.4031C67.0906 47.4261 66.9172 47.4137 66.7518 47.3667C66.5864 47.3197 66.4325 47.2391 66.2996 47.13C66.1667 47.0208 66.0578 46.8855 65.9796 46.7324C65.9013 46.5792 65.8555 46.4116 65.845 46.24C65.8263 45.9663 65.8219 45.6918 65.8318 45.4177V13.2051H65.8296ZM65.8296 10.503V4.66336C65.8296 2.9528 65.5174 2.63179 63.8507 2.63179H15.1425C14.9798 2.63179 14.8149 2.63179 14.65 2.63179C13.654 2.66258 13.1878 3.1089 13.1703 4.0961C13.1527 5.0833 13.1703 6.01553 13.1703 6.97635V10.4942L65.8296 10.503Z" fill="#F26925"/>
<path d="M31.1045 71.0714H47.9929C47.8324 70.8515 47.7137 70.6778 47.6016 70.5085C47.0167 69.6159 46.3922 68.7496 45.8624 67.824C45.3962 67.0105 45.6425 66.2013 46.3549 65.8628C47.0673 65.5242 47.6873 65.8628 48.1996 66.6081C49.0307 67.824 49.9388 68.9849 50.8381 70.1567C51.4119 70.9109 52.1573 71.2099 53.1269 71.1176C53.7812 71.0593 54.4406 71.1121 55.0772 71.2737C55.8768 71.4911 56.5857 71.959 57.1001 72.6087C57.6145 73.2584 57.9073 74.0557 57.9355 74.8839C57.9663 75.7875 57.9619 76.6955 57.9355 77.5992C57.9092 78.5028 57.4188 78.947 56.5415 78.9932C56.3503 79.0041 56.1568 78.9932 55.9655 78.9932H23.0462C21.4258 78.9932 21.0674 78.637 21.0674 77.0144C21.0674 76.3284 21.052 75.6424 21.0674 74.9564C21.1355 72.8083 22.855 70.9439 24.9789 71.1461C26.9446 71.3352 28.1385 70.4536 29.1763 69.064C29.7633 68.2769 30.2954 67.4436 30.8055 66.6037C31.2805 65.8254 31.9489 65.5242 32.6459 65.8562C33.3428 66.1882 33.6045 67.0039 33.1362 67.8196C32.5205 68.9101 31.8103 69.9479 31.1045 71.0714ZM55.2619 76.3328C55.4312 74.022 55.1673 73.7296 52.9906 73.7296H25.6781C25.4319 73.7296 25.1834 73.7164 24.9371 73.7296C24.2467 73.7911 23.8158 74.1693 23.7278 74.8597C23.6944 75.3464 23.6907 75.8346 23.7169 76.3218L55.2619 76.3328Z" fill="#163788"/>
<path d="M43.298 18.4269C44.3974 18.4159 44.9778 19.2602 44.6502 20.2671C43.8675 22.6857 43.0584 25.1042 42.2558 27.5117L37.0119 43.2343C36.5721 44.5249 36.0137 44.9757 35.1606 44.7008C34.2569 44.4084 34.0612 43.7334 34.5207 42.3791C37.0478 34.8025 39.5741 27.2252 42.0997 19.6471C42.3196 18.9655 42.6516 18.462 43.298 18.4269Z" fill="#163788"/>
<path d="M23.1257 31.5994C25.3069 33.4133 27.4088 35.1613 29.502 36.9158C29.7679 37.1063 29.9973 37.3431 30.1792 37.615C30.5068 38.2218 30.3617 38.7978 29.8384 39.2354C29.2689 39.7103 28.6775 39.6465 28.1234 39.187C26.3952 37.7535 24.6692 36.3163 22.9454 34.8754C22.1055 34.1741 21.2568 33.4815 20.4213 32.7713C19.5154 31.9996 19.511 31.1949 20.4213 30.4364C22.9132 28.3403 25.4153 26.2516 27.9277 24.1702C28.6797 23.5436 29.4492 23.5436 29.9615 24.1394C30.5046 24.7682 30.3771 25.5465 29.5988 26.1995C27.4748 27.976 25.3486 29.7438 23.1257 31.5994Z" fill="#163788"/>
<path d="M55.8492 31.5818L50.3964 27.0239C49.9984 26.6897 49.5829 26.3643 49.1981 26.0214C48.6154 25.4871 48.5385 24.7527 49.0024 24.1877C49.1061 24.0493 49.2371 23.9337 49.3873 23.848C49.5374 23.7622 49.7036 23.7082 49.8754 23.6893C50.0473 23.6703 50.2212 23.6868 50.3865 23.7377C50.5517 23.7887 50.7048 23.873 50.8361 23.9854C53.501 26.1841 56.1497 28.3981 58.7823 30.6275C59.5189 31.2564 59.3914 32.0875 58.5448 32.7954C56.2362 34.7332 53.9217 36.6643 51.6013 38.5889C51.3704 38.7824 51.144 38.9846 50.9043 39.1649C50.2161 39.686 49.5081 39.642 49.0068 39.0572C48.5055 38.4724 48.5671 37.6918 49.2597 37.1158C51.2539 35.4426 53.2569 33.7826 55.2556 32.1138C55.4403 31.9577 55.6118 31.7928 55.8492 31.5818Z" fill="#163788"/>
<path d="M39.5704 57.9236C38.7195 57.9236 37.8686 57.939 37.0199 57.9236C36.1712 57.9082 35.6105 57.4114 35.5885 56.6572C35.5665 55.9031 36.1426 55.316 37.0309 55.305C38.7305 55.2875 40.4323 55.2853 42.1319 55.305C43.0224 55.316 43.5808 55.8855 43.5523 56.6704C43.5237 57.4553 43.0004 57.9104 42.1209 57.9214C41.2414 57.9324 40.4213 57.9368 39.5704 57.9236Z" fill="#163788"/>
<path d="M53.8992 7.90011C51.378 7.90011 48.856 7.90011 46.3334 7.90011C45.2648 7.90011 44.7327 7.43619 44.7525 6.55893C44.7723 5.73443 45.3154 5.27271 46.3202 5.27051C51.4183 5.27051 56.5171 5.27051 61.6167 5.27051C62.6039 5.27051 63.1668 5.76521 63.1712 6.57871C63.1756 7.39222 62.6083 7.89791 61.6321 7.89791C59.053 7.9045 56.4761 7.90011 53.8992 7.90011Z" fill="#184367"/>
<path d="M18.4246 6.58982C18.4461 6.7754 18.428 6.96345 18.3715 7.14151C18.3149 7.31957 18.2211 7.48359 18.0964 7.62269C17.9717 7.7618 17.8188 7.87283 17.648 7.94843C17.4771 8.02402 17.2921 8.06247 17.1053 8.06121C16.9185 8.05996 16.734 8.01903 16.5642 7.94115C16.3944 7.86326 16.243 7.75019 16.1202 7.60942C15.9973 7.46865 15.9058 7.30339 15.8516 7.12459C15.7974 6.94578 15.7818 6.75751 15.8059 6.57223C15.8473 6.25292 16.0041 5.9598 16.2468 5.7481C16.4894 5.53639 16.801 5.42072 17.123 5.42288C17.445 5.42504 17.7551 5.54489 17.9948 5.75983C18.2346 5.97478 18.3874 6.26998 18.4246 6.58982Z" fill="#184367"/>
<path d="M22.3758 7.89132C22.1143 7.89131 21.8588 7.81359 21.6415 7.66805C21.4243 7.5225 21.2552 7.31568 21.1558 7.07386C21.0563 6.83204 21.031 6.56613 21.083 6.30987C21.135 6.05362 21.2619 5.81859 21.4477 5.63464C21.6336 5.45068 21.8699 5.32609 22.1266 5.27669C22.3834 5.22729 22.6491 5.2553 22.8899 5.35717C23.1307 5.45905 23.3358 5.63018 23.4792 5.84885C23.6225 6.06752 23.6977 6.32386 23.695 6.58532C23.6916 6.9329 23.551 7.26506 23.304 7.50962C23.057 7.75417 22.7234 7.89134 22.3758 7.89132Z" fill="#184367"/>
<path d="M27.6798 5.27266C27.9416 5.27716 28.1961 5.35946 28.411 5.50907C28.6258 5.65868 28.7913 5.86884 28.8864 6.11279C28.9814 6.35674 29.0017 6.62345 28.9447 6.87898C28.8877 7.1345 28.7559 7.36728 28.5661 7.54768C28.3764 7.72808 28.1373 7.84795 27.8792 7.89202C27.6211 7.9361 27.3558 7.90238 27.1169 7.79518C26.878 7.68797 26.6765 7.51211 26.5379 7.29C26.3993 7.06788 26.3299 6.80954 26.3386 6.54788C26.3501 6.20184 26.4972 5.8742 26.7481 5.63563C26.999 5.39706 27.3336 5.2667 27.6798 5.27266Z" fill="#184367"/>
</g>
<defs>
<clipPath id="clip0_423_360">
<rect width="79" height="79" fill="white"/>
</clipPath>
</defs>
</svg>
