<svg width="42" height="52" viewBox="0 0 42 52" fill="none" xmlns="http://www.w3.org/2000/svg">
<g clip-path="url(#clip0_423_306)">
<path d="M41.9392 0.104285C41.9115 0.282297 41.7604 0.371307 41.6504 0.487015C30.5594 11.5291 19.4692 22.5727 8.37998 33.6177C8.08849 33.9079 7.92127 33.9506 7.60653 33.6338C5.14404 31.1564 2.67024 28.6912 0.185099 26.2382C-0.0107199 26.0442 -0.0920919 25.9472 0.15827 25.698C8.61514 17.2976 17.064 8.8889 25.5047 0.471891C25.6476 0.315797 25.823 0.192683 26.0187 0.111195C26.2144 0.0297064 26.4257 -0.00818948 26.6376 0.000154687C31.4794 0.0152857 36.3213 0.0081522 41.1622 0.00904226C41.4152 0.00904226 41.6683 0.0188468 41.9213 0.0232971C41.9236 0.0509747 41.9296 0.0782124 41.9392 0.104285Z" fill="#67C7F1"/>
<path d="M19.998 29.9834C21.9527 28.0318 23.9067 26.0793 25.8601 24.1259C25.9226 24.0637 25.9978 24.0156 26.0807 23.9849C26.1635 23.9541 26.2521 23.9415 26.3402 23.9479C31.4023 23.9479 36.4644 23.9479 41.5265 23.9479C41.6749 23.9479 41.8242 23.9434 41.9736 24.0494C41.0472 24.9732 40.1251 25.893 39.2071 26.8085L28.3744 37.5925C28.2698 37.6976 28.1742 37.8106 28.074 37.9201C27.9408 37.8044 27.8004 37.6949 27.6752 37.5712C25.2491 35.1591 22.8236 32.7461 20.3986 30.3323C20.2717 30.2077 20.1313 30.0991 19.998 29.9834Z" fill="#63C6F1"/>
<path d="M28.0781 37.999C29.016 38.9505 29.9451 39.9091 30.8929 40.8472C32.0409 41.9865 33.2239 43.0919 34.355 44.2481C35.3609 45.2753 36.4393 46.2321 37.3737 47.3278C37.9575 48.0718 38.68 48.6833 39.3408 49.3544C39.5813 49.5992 39.77 49.9258 40.1455 50.0228C40.5297 50.6359 41.0497 51.1535 41.6656 51.5359C41.6835 51.892 41.417 51.803 41.2292 51.803C36.2864 51.803 31.3432 51.8053 26.3998 51.8101C26.2901 51.8104 26.1815 51.7891 26.0803 51.7474C25.979 51.7057 25.887 51.6444 25.8096 51.5671C25.5736 51.3624 25.452 51.0179 25.0809 50.9734L25.0675 50.9601C25.105 50.8399 25.0228 50.8346 24.9414 50.8275C24.911 50.7963 24.8797 50.7661 24.852 50.7385C24.6773 50.3401 24.358 50.0222 23.9578 49.8484C23.63 49.2987 23.1689 48.8396 22.6166 48.5133C22.257 47.9347 21.7672 47.4472 21.186 47.0892C21.1726 46.9758 21.1213 46.8701 21.0401 46.7893C20.959 46.7086 20.8529 46.6574 20.7389 46.6442C20.7264 46.5116 20.7049 46.387 20.5198 46.4252L20.5109 46.4163C20.5699 46.2517 20.3544 46.176 20.3812 46.022C20.4135 45.9554 20.4595 45.8963 20.5162 45.8484C20.5728 45.8006 20.639 45.7651 20.7103 45.7443C21.4068 45.5218 22.0783 45.2228 22.7668 44.9824C23.9453 44.5703 25.1363 44.193 26.3032 43.7479C26.482 43.6794 26.693 43.6714 26.8191 43.5156C26.9452 43.3599 27.0873 43.1872 26.8826 43.0163C26.4365 42.6314 26.0454 42.1876 25.7202 41.6972C25.6174 41.5495 25.4287 41.5076 25.3268 41.5886C24.9763 41.8646 24.7858 41.6776 24.6043 41.3973C25.6773 40.2304 26.8289 39.1454 27.9574 38.0355C27.9788 38.0115 28.0352 38.0124 28.0781 37.999Z" fill="#095A9D"/>
<path d="M28.0784 37.9993C28.0355 38.0117 27.9809 38.0109 27.9532 38.0384C26.8248 39.1484 25.6704 40.2333 24.6001 41.4002C24.2988 41.685 23.993 41.9654 23.6988 42.2582C22.4989 43.4539 21.3028 44.6507 20.1106 45.8487L19.989 45.8692C19.8102 45.8336 19.7207 45.685 19.6108 45.5728C17.1542 43.1335 14.7001 40.6923 12.2484 38.2494C12.0919 38.0927 11.9113 37.9886 12.175 37.7278C14.7651 35.1704 17.3477 32.6058 19.9228 30.0341C19.9458 30.0152 19.9703 29.9983 19.9962 29.9834C20.1294 30.0991 20.2698 30.2077 20.3949 30.3323C22.8217 32.7444 25.2472 35.1573 27.6715 37.5712C27.7967 37.6949 27.9398 37.8044 28.0703 37.9201C28.0782 37.9457 28.081 37.9726 28.0784 37.9993Z" fill="#47B6E8"/>
<path d="M25.0762 50.9756C25.4428 51.0201 25.5688 51.3645 25.8049 51.5692C25.8823 51.6465 25.9743 51.7078 26.0755 51.7495C26.1768 51.7912 26.2854 51.8125 26.395 51.8122C31.3379 51.8057 36.281 51.8033 41.2245 51.8051C41.4123 51.8051 41.6787 51.8941 41.6609 51.5381L42.0006 51.8674C41.8379 51.8763 41.6752 51.8941 41.5115 51.8941H27.1238C26.7518 51.8941 26.3798 51.9039 26.0079 51.9093L25.0762 50.9756Z" fill="#266294"/>
<path d="M26.0117 51.912C26.3837 51.9066 26.7556 51.8968 27.1276 51.8968H41.5154C41.679 51.8968 41.8418 51.879 42.0045 51.8701C41.9231 52.0668 41.7488 51.9814 41.6173 51.9814C36.5421 51.9861 31.4672 51.9861 26.3926 51.9814C26.2585 51.984 26.1172 52.0241 26.0117 51.912Z" fill="#A7C4DC"/>
<path d="M40.1391 50.0271C39.768 49.9301 39.5793 49.6035 39.3343 49.3587C38.6744 48.6876 37.952 48.0761 37.3672 47.332C37.5728 47.3739 37.6766 47.5501 37.808 47.6818C38.5931 48.4597 39.3656 49.2448 40.1391 50.0271Z" fill="#266294"/>
<path d="M41.6587 51.5395C41.0428 51.157 40.5229 50.6395 40.1387 50.0264C40.6731 50.5023 41.1806 51.0074 41.6587 51.5395Z" fill="#266294"/>
<path d="M21.1836 47.0908C21.7648 47.4488 22.2546 47.9363 22.6142 48.5149C22.1057 48.0728 21.6278 47.597 21.1836 47.0908Z" fill="#266294"/>
<path d="M22.6133 48.5156C23.1655 48.8419 23.6267 49.301 23.9545 49.8507C23.4776 49.4364 23.0295 48.9903 22.6133 48.5156Z" fill="#266294"/>
<path d="M23.9551 49.8516C24.3552 50.0254 24.6746 50.3433 24.8492 50.7416C24.5235 50.4738 24.2242 50.1758 23.9551 49.8516Z" fill="#266294"/>
<path d="M19.9922 45.8691L20.1138 45.8486C20.1346 45.9013 20.1709 45.9466 20.218 45.9783C20.265 46.0101 20.3207 46.027 20.3776 46.0266C20.3507 46.1806 20.5662 46.2563 20.5072 46.4209C20.3069 46.2634 20.1022 46.1094 19.9922 45.8691Z" fill="#266294"/>
<path d="M20.7363 46.6475C20.8503 46.6607 20.9564 46.7119 21.0376 46.7926C21.1187 46.8734 21.1701 46.979 21.1834 47.0925C21.0037 46.9782 20.8512 46.8263 20.7363 46.6475Z" fill="#266294"/>
<path d="M20.5156 46.4288C20.7007 46.3905 20.7222 46.5178 20.7347 46.6477C20.638 46.6028 20.5604 46.5252 20.5156 46.4288Z" fill="#266294"/>
<path d="M24.9395 50.8291C25.0208 50.8362 25.1031 50.8416 25.0655 50.9617L24.9395 50.8291Z" fill="#266294"/>
<path d="M41.9396 0.104425C41.9294 0.0784385 41.9228 0.0511985 41.9199 0.0234375C42.0111 0.030558 41.9897 0.0634824 41.9396 0.104425Z" fill="#9CD4EF"/>
<path d="M24.8496 50.7402C24.88 50.7705 24.9113 50.8008 24.939 50.8292C24.9077 50.8008 24.8764 50.7705 24.8496 50.7402Z" fill="#266294"/>
<path d="M20.379 46.026C20.3221 46.0264 20.2665 46.0095 20.2194 45.9777C20.1723 45.946 20.136 45.9007 20.1152 45.848C21.3074 44.6506 22.5026 43.4541 23.7008 42.2584C23.9949 41.9656 24.3007 41.6852 24.6021 41.4004C24.7809 41.6808 24.974 41.8677 25.3246 41.5918C25.4265 41.5108 25.6151 41.5526 25.718 41.7003C26.0432 42.1907 26.4343 42.6346 26.8804 43.0194C27.0869 43.1903 26.9331 43.3754 26.8169 43.5187C26.7006 43.662 26.4798 43.6825 26.301 43.751C25.1386 44.1961 23.9431 44.5735 22.7646 44.9856C22.0788 45.2259 21.4073 45.5249 20.708 45.7475C20.6367 45.7684 20.5705 45.804 20.5138 45.8519C20.4571 45.8999 20.4112 45.9593 20.379 46.026Z" fill="#0D5298"/>
</g>
<defs>
<clipPath id="clip0_423_306">
<rect width="42" height="52" fill="white"/>
</clipPath>
</defs>
</svg>
