<svg width="57" height="57" viewBox="0 0 57 57" fill="none" xmlns="http://www.w3.org/2000/svg">
<g clip-path="url(#clip0_423_289)">
<path d="M28.5002 40.7337C35.2571 40.7337 40.7347 35.2562 40.7347 28.4992C40.7347 21.7422 35.2571 16.2646 28.5002 16.2646C21.7432 16.2646 16.2656 21.7422 16.2656 28.4992C16.2656 35.2562 21.7432 40.7337 28.5002 40.7337Z" fill="#5A81C1"/>
<path d="M54.0354 11.207C54.0375 12.3281 53.7798 13.4345 53.2826 14.4393C52.4714 16.0769 51.077 17.3518 49.3735 18.0134C48.5329 18.3392 47.6391 18.5058 46.7376 18.5048C44.8015 18.5048 42.9447 17.7357 41.5756 16.3667C40.2066 14.9977 39.4375 13.1409 39.4375 11.2048C39.4364 10.1728 39.655 9.15249 40.0786 8.2115C40.8292 6.54727 42.175 5.22382 43.8515 4.50113C44.7606 4.10874 45.7407 3.90728 46.7309 3.90919C47.6898 3.90831 48.6395 4.09643 49.5257 4.46279C50.4119 4.82915 51.2172 5.36653 51.8956 6.04429C52.5739 6.72204 53.1121 7.52684 53.4793 8.41269C53.8464 9.29854 54.0354 10.2481 54.0354 11.207Z" fill="#5A81C1"/>
<path d="M54.4736 16.7718C53.4156 18.2409 51.9624 19.3796 50.2829 20.0556C51.3304 22.7473 51.866 25.6109 51.8622 28.4993C51.8557 34.6933 49.3925 40.6317 45.0129 45.0117C40.6333 49.3918 34.6951 51.8556 28.5011 51.8627C22.3069 51.8556 16.3685 49.3919 11.9886 45.0119C7.60861 40.632 5.14485 34.6935 5.13775 28.4993C5.14485 22.3053 7.60869 16.3672 11.9887 11.9876C16.3687 7.608 22.3071 5.14472 28.5011 5.13822C31.8078 5.13442 35.0773 5.83659 38.0908 7.19778C38.8533 5.55375 40.0663 4.15957 41.589 3.17693C37.5464 1.07663 33.0567 -0.0168896 28.5011 -0.0107162C20.9451 -0.00243951 13.7009 3.00272 8.35771 8.34544C3.01458 13.6882 0.00886892 20.9321 0 28.4882C0.00591164 36.0464 3.01024 43.2934 8.35364 48.6389C13.697 53.9844 20.9429 56.9916 28.5011 57.0004C36.0572 56.9916 43.3011 53.9859 48.6439 48.6427C53.9866 43.2996 56.9917 36.0553 57 28.4993C57.0042 24.4547 56.1428 20.456 54.4736 16.7718Z" fill="#5A81C1"/>
</g>
<defs>
<clipPath id="clip0_423_289">
<rect width="57" height="57" fill="white"/>
</clipPath>
</defs>
</svg>
