<svg width="60" height="78" viewBox="0 0 60 78" fill="none" xmlns="http://www.w3.org/2000/svg">
<g clip-path="url(#clip0_423_295)">
<path d="M35.3238 2.46061C35.4082 1.6226 35.2171 0.814966 35.0313 0C35.5971 0.675647 35.9067 1.48224 36.3049 2.24168C36.3294 2.35167 36.3241 2.47109 36.4116 2.55594C36.5881 3.14883 36.7661 3.74242 36.9454 4.33671C36.9123 4.72953 37.0692 5.10349 37.0703 5.48898V7.165L36.8397 8.63152C36.6743 8.85988 36.6657 9.14167 36.5846 9.39726C36.2985 10.2981 35.8373 11.1225 35.4562 11.9804C34.7978 13.0308 34.0852 14.0475 33.3212 15.0266L31.864 16.6921C31.7391 16.8304 31.6153 16.9697 31.4914 17.1112C31.1328 17.4935 30.7122 17.8193 30.4239 18.2634C30.2558 18.3697 30.1127 18.5101 30.0044 18.6751C29.4397 19.1653 28.9454 19.7226 28.4341 20.2631L28.3273 20.3679C28.0594 20.701 27.6868 20.9451 27.4541 21.3106C27.1338 21.539 26.9107 21.8564 26.6588 22.1486C25.5913 23.3669 24.5429 24.603 23.9473 26.1292C23.7754 26.5702 23.58 27.006 23.6089 27.491C23.3794 28.0985 23.5523 28.682 23.7156 29.2655C23.8352 29.8259 24.0839 30.336 24.3561 30.8367C24.7307 31.9196 25.1948 32.9706 25.7439 33.9793C26.1907 35.0673 26.7262 36.1182 27.3452 37.1218C27.8138 38.0981 28.4181 39 28.9678 39.9313C29.0297 40.036 29.2689 40.1282 29.0554 40.3042C28.8045 40.1156 28.5579 39.9239 28.3081 39.7406C27.263 38.9874 26.3076 38.1274 25.2945 37.3376C25.2245 37.2114 25.1189 37.1077 24.9902 37.0391L23.7263 35.8617C23.6496 35.727 23.5366 35.6157 23.3996 35.5401L22.0055 34.0955C21.9894 33.974 21.8987 33.9185 21.8016 33.8651C20.9956 32.8899 20.2259 31.8895 19.5203 30.842C19.2819 30.423 19.0431 30.004 18.804 29.585C18.7705 29.4297 18.697 29.2854 18.5905 29.1659C18.3769 28.6073 18.1634 28.0486 17.9499 27.4899C17.8731 27.1051 17.7959 26.721 17.7183 26.3377C17.6225 25.6425 17.6225 24.9378 17.7183 24.2426C17.8293 23.8236 17.9407 23.4046 18.0524 22.9856L18.8125 21.4238L19.9868 19.8525C20.1234 19.7044 20.2597 19.5564 20.3956 19.4083C20.6945 19.049 21.0874 18.7725 21.3425 18.3745C21.6542 18.1932 21.8838 17.9261 22.1143 17.6601C22.4197 17.3678 22.8029 17.1562 23.0516 16.8032C23.2747 16.6984 23.4114 16.4984 23.6014 16.359C24.0401 15.9955 24.5024 15.6582 24.8963 15.2445C25.0404 15.1397 25.2166 15.0748 25.3052 14.9061C25.8677 14.5646 26.331 14.1069 26.8178 13.6753C26.8513 13.6737 26.8829 13.6599 26.9064 13.6365C28.8141 12.0873 30.7122 10.5275 32.3508 8.69542C33.1418 7.81341 33.8774 6.89056 34.3791 5.81057C34.9652 4.7662 35.3249 3.66211 35.3238 2.46061Z" fill="#EF4437"/>
<path d="M26.5987 77.615L25.1991 77.4652C24.6729 77.3484 24.1369 77.2782 23.5979 77.2557C23.1847 77.1027 22.7438 77.0839 22.3168 77.0462L20.407 76.6722L18.6851 76.3244L15.5989 75.5189C15.0731 75.3317 14.5358 75.177 13.9902 75.0559L10.5741 73.8397C10.4065 73.6606 10.1001 73.7266 9.93359 73.4993L10.7641 73.6323C11.2872 73.8272 11.8316 73.9089 12.3836 73.9853C12.9074 74.1341 13.443 74.2392 13.9848 74.2996C14.4941 74.4404 15.0174 74.5264 15.5456 74.5562C16.0817 74.702 16.632 74.7916 17.1874 74.8234C18.2457 75.0243 19.315 75.1642 20.39 75.2424C20.7738 75.3353 21.1691 75.3748 21.5642 75.3597C22.2325 75.4896 22.9125 75.5053 23.5925 75.5556C24.1263 75.5912 24.66 75.697 25.1938 75.6603L25.8343 75.6771C26.6819 75.8499 27.5424 75.7672 28.3964 75.7818C29.9976 75.8866 31.5989 75.7934 33.2002 75.7693C33.4847 75.804 33.7735 75.7797 34.0478 75.698C34.8687 75.7188 35.69 75.6726 36.5031 75.5598C37.0577 75.5613 37.611 75.5076 38.1546 75.3995C38.6432 75.4035 39.1307 75.3525 39.6075 75.2476C40.6505 75.1519 41.6875 75.0008 42.714 74.7951C43.3214 74.6966 43.9341 74.6212 44.5191 74.4211C44.9581 74.3959 45.3896 74.2974 45.7948 74.1299C47.0107 73.9497 48.1754 73.5873 49.323 73.1641C49.8567 73.1023 50.3254 72.8561 50.8271 72.7011C51.9171 72.3235 52.9836 71.8835 54.0211 71.3833C55.1835 70.8587 56.2951 70.2319 57.3422 69.5104C57.7575 69.2307 58.2154 69.0065 58.5464 68.6179L58.5709 68.6064C58.5763 68.6077 58.5819 68.6078 58.5873 68.6066C58.5927 68.6054 58.5977 68.6029 58.602 68.5994C58.6063 68.596 58.6096 68.5916 58.6118 68.5866C58.614 68.5816 58.615 68.5762 58.6147 68.5708C58.6627 68.5665 58.7086 68.5493 58.7472 68.521C58.7859 68.4927 58.8157 68.4545 58.8335 68.4105C59.237 68.1455 59.5712 67.7977 59.9768 67.4541C60.058 67.9485 59.9 68.355 59.8327 68.7698C59.6886 69.2443 59.4495 69.679 59.2424 70.1315L58.6147 70.9769C58.3909 71.1441 58.2049 71.3548 58.0681 71.596L57.1127 72.434C56.7198 72.6278 56.4006 72.9232 56.0537 73.1798C55.8455 73.3275 55.5765 73.382 55.4046 73.5862C54.4033 74.1351 53.3411 74.5615 52.3163 75.0632L50.8218 75.587L47.8327 76.4638L46.0179 76.8555L44.7369 77.0923L42.9221 77.3782C42.2144 77.5029 41.4863 77.483 40.7871 77.6757C39.6448 77.6915 38.5154 77.9104 37.371 77.9031C37.2226 77.8905 37.071 77.8486 36.9301 77.9366L34.809 78.0078H33.2077L30.9808 77.9376L30.5389 77.9031C29.2173 77.8811 27.9117 77.6936 26.5987 77.615Z" fill="#2E66B1"/>
<path d="M30.2553 43.1295C30.7058 43.1787 31.1509 43.0876 31.6003 43.0834C32.1362 43.0945 32.672 43.0594 33.2016 42.9786C33.7354 43.031 34.2691 42.9284 34.8029 42.8739C35.3441 42.9221 35.8704 42.8152 36.4042 42.7691C36.8376 42.8131 37.2582 42.6392 37.6852 42.6644C38.3321 42.6487 38.9662 42.5429 39.6068 42.4549C40.1459 42.4331 40.6819 42.363 41.208 42.2454C42.2184 42.1721 43.2214 42.0212 44.2078 41.7939C44.4531 41.7671 44.6966 41.7258 44.9369 41.6703C45.1696 41.6074 45.0105 41.7614 44.9924 41.8306C44.796 42.0034 44.5654 42.1364 44.4095 42.3543C43.924 42.6732 43.4604 43.0232 43.0218 43.4018L42.8008 43.56C42.2314 43.9699 41.6621 44.3795 41.0927 44.7887C40.6401 45.1156 40.1939 45.4518 39.6068 45.5115L38.2104 45.765L36.4053 46.0468C36.1821 46.0761 35.958 46.0981 35.7359 46.1348C34.8445 46.2825 33.9382 46.3223 33.0554 46.5224C32.5669 46.5277 32.08 46.5789 31.6014 46.6753C31.0943 46.6638 30.5979 46.7602 30.0962 46.8125C29.3884 46.8597 28.6785 46.8796 27.9751 46.9896C27.5822 46.9599 27.187 46.9839 26.8008 47.0608L25.84 47.0943C25.6436 47.0943 25.4386 47.0126 25.2593 47.1603C25.0964 47.1259 24.9279 47.1259 24.765 47.1603L23.5971 47.1949H18.7933L17.3041 47.1614C17.1417 47.1263 16.9734 47.1263 16.8109 47.1614C16.67 47.0252 16.5003 47.087 16.338 47.0954L15.5907 47.0608L13.776 46.8859L12.2889 46.7088L10.8872 46.4669C9.75781 46.2762 8.67427 45.9263 7.59501 45.5587C6.71964 45.1103 5.8272 44.6809 5.39806 43.7182C5.21017 43.0059 5.5048 42.413 5.88591 41.8442L5.99266 41.7394C6.30117 41.5174 6.5894 41.2712 6.92247 41.0743C7.63237 40.6552 8.417 40.4154 9.18135 40.1441L10.6759 39.7586C11.3655 39.7135 12.0338 39.5491 12.7106 39.4223C13.112 39.4485 13.4952 39.3312 13.8848 39.2778C14.994 39.1929 16.101 39.0745 17.2102 39.0337C18.3546 38.9907 19.5 39.0243 20.6455 39.0243L20.6615 38.9688L20.2953 39.1311L18.9022 39.4737C17.7824 39.8351 16.6529 40.1692 15.5929 40.6909C15.0186 40.9349 14.4688 41.2146 14.0887 41.7279C13.7898 42.1605 13.8155 42.3124 14.2627 42.5125C14.6783 42.6972 15.1247 42.8059 15.5801 42.833C16.0342 42.9437 16.5 43.0018 16.9678 43.0059H17.144C17.2507 43.1253 17.381 43.0865 17.5101 43.0708L18.536 43.1169C18.9374 43.2667 19.3505 43.1735 19.7594 43.1766C20.5067 43.2384 21.2465 43.2814 21.9927 43.2814H25.1952C25.6948 43.296 26.1955 43.3421 26.6898 43.2112C27.3299 43.2612 27.9735 43.2496 28.6113 43.1766C29.1621 43.1798 29.7151 43.2876 30.2553 43.1295Z" fill="#2E66B1"/>
<path d="M33.1648 40.1679C33.1776 40.1333 33.1893 40.0977 33.2021 40.0631C33.538 39.6605 33.7917 39.1981 33.9494 38.7014C34.306 37.8948 34.5163 37.0714 34.2697 36.1873C34.2824 35.9709 34.2394 35.7547 34.1448 35.5588C34.1031 35.3407 34.0313 35.1293 33.9313 34.9303C33.2566 33.4062 32.2083 32.1104 31.2785 30.7402C30.7255 29.7304 30.1651 28.7238 29.8907 27.5977C29.7683 26.8358 29.7279 26.0634 29.7701 25.2932L29.7882 24.8742C29.9857 24.1168 30.1085 23.3416 30.4287 22.6147C30.5835 22.2564 30.7148 21.8877 30.8557 21.5242C31.3479 20.8307 31.7791 20.0985 32.3599 19.4617C33.0933 18.6561 33.9409 17.9857 34.8088 17.3331L35.6446 16.8094C35.9265 16.6208 36.2851 16.5621 36.5157 16.2856L39.7183 14.9238C40.2371 14.8379 40.71 14.6096 41.2128 14.4723L43.0276 13.9821L46.0167 13.4395C46.464 13.4206 46.908 13.2677 47.4632 13.3588C46.5988 13.8748 45.7622 14.4343 44.9566 15.0349C44.7203 15.1448 44.5039 15.292 44.3161 15.4706C42.5019 16.6753 40.7706 17.9959 39.1333 19.4239C38.0156 20.3929 36.979 21.4362 36.1549 22.6649C35.8528 23.1154 35.5849 23.5857 35.571 24.1482C35.398 24.8679 35.5091 25.5613 35.7706 26.2433C35.8347 26.7387 36.077 27.1682 36.3044 27.605C36.3044 27.6457 36.314 27.6858 36.3325 27.7221C36.3511 27.7585 36.378 27.7901 36.4111 27.8145C36.5787 28.353 36.9609 28.7803 37.1947 29.281C37.4665 29.7699 37.7391 30.2587 38.0124 30.7476C38.0089 30.7887 38.017 30.8301 38.0358 30.867C38.0547 30.904 38.0835 30.9351 38.1191 30.9571L38.7597 32.5283C38.9507 33.3879 39.0275 34.2682 38.9881 35.1471C38.9817 35.2173 38.9753 35.2885 38.97 35.3566C38.7928 35.9153 38.6148 36.474 38.4362 37.0327C38.0935 37.5899 37.7893 38.1692 37.3591 38.6741C36.631 39.5289 35.7428 40.1909 34.797 40.7911C33.8371 41.2744 32.8372 41.6771 31.808 41.9947C31.5144 41.8481 31.808 41.7727 31.8624 41.714C32.3434 41.2384 32.7793 40.7209 33.1648 40.1679Z" fill="#EF4437"/>
<path d="M20.1832 71.9248L18.7955 71.8201L17.1942 71.7153L14.4186 71.3833C13.7482 71.2501 13.0712 71.1508 12.3903 71.0858C11.913 70.9642 11.427 70.8784 10.9364 70.8291L9.18992 70.4468L6.13575 69.5763L4.49176 68.9792C3.33564 68.4031 2.19552 67.8029 1.21554 66.9533C0.770384 66.4159 0.354055 65.8629 0.0989172 65.2092C-0.0323879 64.7598 0.0241891 64.2979 0.00390625 63.8412C0.17898 63.265 0.559017 62.8062 0.904894 62.3275L0.929445 62.316C0.934816 62.3173 0.940429 62.3174 0.945832 62.3162C0.951234 62.315 0.956274 62.3125 0.960538 62.3091C0.964801 62.3056 0.968174 62.3012 0.970376 62.2962C0.972579 62.2912 0.973553 62.2858 0.973217 62.2804C1.07039 62.2388 1.14916 62.1645 1.19526 62.0709C1.42264 61.9106 1.64682 61.7461 1.87847 61.59C2.68125 61.0464 3.5865 60.7217 4.49176 60.3823C4.92453 60.3229 5.35083 60.2247 5.76531 60.089C6.16777 60.1057 6.55421 59.9936 6.9492 59.9507C7.07837 59.9664 7.21181 60.0052 7.31642 59.8857C7.51543 59.9219 7.7195 59.9219 7.91851 59.8857H9.0757C9.23858 59.9202 9.40707 59.9202 9.56996 59.8857C9.67671 60.0052 9.80695 59.9664 9.93612 59.9507L10.6471 59.9999C11.2737 60.0554 11.7296 60.4891 12.2815 60.7112C12.3156 60.8034 12.4042 60.8233 12.4832 60.8557L13.6735 61.5398C13.6927 61.6267 13.6426 61.6644 13.5668 61.6822C13.4651 61.6421 13.3532 61.6337 13.2465 61.6581C12.6796 61.6131 12.1128 61.478 11.5385 61.6456L11.1115 61.6623C9.97668 61.7671 8.89315 62.0635 7.93558 62.6721C6.86806 63.352 6.76878 64.1554 7.59398 64.9767C7.66302 65.0547 7.73796 65.1275 7.81816 65.1945C8.77893 65.8848 9.8678 66.3164 11.0068 66.6328C11.4659 66.7648 11.9164 66.925 12.3946 66.9753C13.4445 67.2637 14.5151 67.4738 15.5972 67.6038C16.1238 67.7188 16.6595 67.7889 17.1985 67.8133C17.6368 67.9264 18.0895 67.9768 18.5425 67.9631C19.0833 68.0843 19.6372 68.1395 20.1918 68.1276C20.9315 68.2555 21.6834 68.3019 22.4336 68.2659C22.8115 68.4397 23.2107 68.3256 23.5993 68.3486C23.9744 68.4084 24.3558 68.4207 24.7341 68.3853C25.4205 68.5403 26.1133 68.4418 26.8029 68.4418C27.3357 68.484 27.8709 68.4879 28.4042 68.4534L30.0055 68.4418H31.073C31.2695 68.4418 31.4744 68.5246 31.6527 68.3758L31.6869 68.3884L31.7189 68.3717C32.2174 68.4544 32.7127 68.379 33.2081 68.3381C33.7472 68.3905 34.2756 68.2878 34.8094 68.2334C35.4686 68.2384 36.1269 68.1833 36.7757 68.0689C37.2284 68.0595 37.681 68.0689 38.1197 67.9306C38.6241 67.9319 39.1265 67.8689 39.6143 67.7431C40.1907 67.7206 40.7631 67.6391 41.3223 67.5001C42.3715 67.3705 43.4088 67.1604 44.4245 66.8716C44.9754 66.7972 45.492 66.6097 46.0258 66.4526C47.1456 66.1383 48.2356 65.7476 49.2422 65.16C49.5091 65.0971 49.7173 64.9222 49.9329 64.7787C50.9012 64.1355 51.7413 63.3844 51.9612 62.1746C52.0642 61.7203 52.027 61.2463 51.8545 60.8128C51.8171 60.708 51.7477 60.596 51.8481 60.465L52.4224 60.7604L52.543 60.8075C53.017 61.1459 53.5326 61.4287 53.9308 61.8551C53.9639 62.0038 54.1123 62.0646 54.1902 62.1788C54.4969 62.6794 54.6348 63.2623 54.5841 63.8443C54.5574 64.368 54.3012 64.8269 54.1304 65.3108C53.9808 65.4647 53.8546 65.639 53.7557 65.8283L52.732 66.8329C52.6009 66.8757 52.4911 66.9655 52.4245 67.0843C51.4425 67.7143 50.4067 68.2596 49.3287 68.7142L47.5139 69.4056L44.4181 70.2561C43.8408 70.3472 43.2702 70.4756 42.7101 70.6406C42.1593 70.702 41.6138 70.8024 41.0778 70.9412C40.5518 70.9799 40.0304 71.0659 39.5203 71.1978C39.0508 71.1972 38.5835 71.262 38.1325 71.3906L34.8232 71.7227L33.3287 71.8557L32.0477 71.9322C31.8609 71.9322 31.6644 71.8473 31.4936 71.9929H31.4819L30.0183 72.039H29.8048C28.8075 72.0168 27.8097 72.0475 26.8158 72.1312H25.3212C24.3263 72.0673 23.3314 72.0139 22.3322 72.0432L21.2646 72.0327C20.8985 71.9552 20.5473 71.8714 20.1832 71.9248Z" fill="#2E66B1"/>
<path d="M15.7357 47.8434C16.1627 47.8434 16.5758 47.6339 17.0402 47.7324C16.9708 47.8895 16.7701 47.9492 16.7466 48.1252C16.0346 48.8176 16.0848 49.487 16.9196 49.9982C17.39 50.3083 17.9194 50.5221 18.476 50.6267C19.0459 50.8292 19.6422 50.9513 20.247 50.9891C20.64 51.1136 21.0525 51.1683 21.4651 51.1504C22.1729 51.2552 22.8806 51.3379 23.6001 51.2887C24.5314 51.4267 25.478 51.4327 26.4109 51.3065C26.5817 51.3767 26.7557 51.3442 26.9287 51.317C27.4209 51.3388 27.9141 51.3192 28.4029 51.2583C28.9068 51.2971 29.3968 51.1682 29.8974 51.1536C30.4686 51.0939 31.045 51.0781 31.6055 50.9441C32.1456 50.9273 32.673 50.8205 33.2067 50.7346C33.7405 50.6298 34.2924 50.5963 34.808 50.4203C35.848 50.2478 36.8696 49.982 37.8601 49.6263C37.8805 49.6578 37.9099 49.6827 37.9446 49.698C37.9793 49.7133 38.0179 49.7182 38.0554 49.7122C38.5405 50.083 39.0565 50.4131 39.598 50.6989L42.4205 52.5038L42.1547 52.6945C41.7935 52.7838 41.4431 52.9109 41.1096 53.0737L39.7165 53.5209L36.3004 54.4229L35.0098 54.6774L33.2046 54.9592L31.3461 55.2284L30.5337 55.2734C29.7864 55.352 29.0391 55.3206 28.2919 55.4662L27.0109 55.4829H24.4488L23.1678 55.4693C22.7845 55.3384 22.3885 55.3499 21.9935 55.3771L20.2962 55.2012L18.9084 55.0304L16.9783 54.6732C16.5737 54.5517 16.1713 54.4197 15.7453 54.3925C15.6781 54.2971 15.5745 54.3223 15.4816 54.315C15.0045 54.0845 14.4878 53.9682 13.9871 53.8048L12.3933 53.0464C12.3431 52.9249 12.2204 52.8966 12.1222 52.8369C11.6396 52.4179 11.1817 51.9832 11.1977 51.2782C11.2724 50.6371 11.7005 50.1867 12.0816 49.7069C12.2671 49.6066 12.4275 49.467 12.5513 49.2984C13.5351 48.6642 14.6078 48.174 15.7357 47.8434Z" fill="#2E66B1"/>
<path d="M15.5895 61.54C15.3472 61.3703 15.0931 61.2131 14.8615 61.0298C13.6296 60.0515 13.842 58.9778 14.5124 58.0256C14.6192 57.8705 14.7377 57.7197 14.8508 57.5668L15.5981 56.9382C16.5628 56.3383 17.6575 55.9691 18.7942 55.8604C18.9597 55.94 19.1828 55.7692 19.3173 55.9766C18.6939 56.6156 18.7302 57.1069 19.4412 57.6526C19.7233 57.862 20.053 58.0011 20.4019 58.058C20.9211 58.2246 21.4587 58.3301 22.0032 58.3723C22.537 58.4247 23.0707 58.5388 23.6045 58.477C24.1726 58.55 24.7472 58.5612 25.3179 58.5106L26.8071 58.477C27.3483 58.4309 27.8938 58.4372 28.4297 58.3335C28.961 58.3313 29.4906 58.274 30.0096 58.1628C31.1288 58.0509 32.236 57.8445 33.3189 57.5458C33.798 57.483 34.2674 57.3623 34.7163 57.1865C35.312 57.1132 35.8169 56.7591 36.4041 56.6628C36.6496 56.8304 36.8909 57.0053 37.1428 57.1656C37.9114 57.6526 38.6448 58.1942 39.4561 58.6164C39.7137 58.8798 40.0246 59.0874 40.3688 59.226C40.6045 59.4666 40.8929 59.6515 41.2122 59.7665C41.2123 59.8048 41.2037 59.8425 41.1868 59.877C41.17 59.9114 41.1455 59.9417 41.115 59.9656C40.7054 60.1406 40.3125 60.3509 39.9408 60.5941L39.6205 60.7135L37.8698 61.4017C36.8535 61.6961 35.8415 62.0187 34.8113 62.2502L33.4235 62.5267L31.6184 62.8085C31.1572 62.8598 30.6886 62.8577 30.2381 62.9845C29.6264 62.9845 29.0232 63.0673 28.4169 63.1217C27.8831 63.1217 27.3429 63.1039 26.8156 63.2139L25.1076 63.2275C24.6805 63.2275 24.2535 63.1406 23.8265 63.193C23.6991 63.1605 23.5654 63.1605 23.438 63.193C23.2597 63.0453 23.0547 63.1238 22.8583 63.127L21.873 63.0704C21.4182 63.0065 20.9688 62.8881 20.5023 62.9175L19.0568 62.664L17.0926 62.1664L15.5895 61.54Z" fill="#2E66B1"/>
<path d="M46.669 40.4303C46.969 40.2114 47.3394 40.1035 47.6159 39.85L49.2172 39.2215C49.3901 39.1869 49.5642 39.1597 49.7339 39.1167C51.206 38.7407 52.6301 38.8863 54.0146 39.4865C55.0896 40.0103 55.8583 40.8326 56.4262 41.8528C56.5927 42.3567 56.7923 42.8469 56.9151 43.3665C57.1393 44.3229 57.0571 45.2824 57.0122 46.243L56.5852 48.0237C56.3641 48.5985 56.0953 49.1545 55.7814 49.6861L55.5188 50.1188L54.5996 51.2616C54.3718 51.4204 54.1726 51.6155 54.0104 51.8388L52.7347 52.8318C52.6098 52.8737 52.4796 52.9083 52.4144 53.0413C51.3821 53.6374 50.3338 54.202 49.2119 54.6294L47.8166 55.0924L45.9068 55.5836L44.7539 55.7774C45.5471 55.1573 46.2954 54.5288 47.0352 53.8919C48.4721 52.6496 49.7873 51.3014 50.8249 49.7113C51.2088 49.2286 51.5225 48.6959 51.7568 48.1285C52.0273 47.638 52.2305 47.1146 52.3611 46.5719C52.4272 46.508 52.4102 46.4263 52.4091 46.3488C52.6909 45.3264 52.7955 44.3103 52.3023 43.311C51.7237 42.0697 50.7395 41.2997 49.42 40.9174C48.5916 40.5937 47.7355 40.5707 46.8665 40.6953C46.6923 40.6746 46.5155 40.6881 46.3466 40.7351C46.3958 40.5675 46.5548 40.5173 46.669 40.4303Z" fill="#2E66B1"/>
</g>
<defs>
<clipPath id="clip0_423_295">
<rect width="60" height="78" fill="white"/>
</clipPath>
</defs>
</svg>
