<svg width="92" height="38" viewBox="0 0 92 38" fill="none" xmlns="http://www.w3.org/2000/svg">
<g clip-path="url(#clip0_423_281)">
<path fill-rule="evenodd" clip-rule="evenodd" d="M91.4364 10.3748L86.9645 11.3628L82.482 12.3615C82.3798 12.1481 82.2686 11.9473 82.1861 11.7339C81.0475 8.86507 79.0125 7.59022 75.8263 7.74801C73.3322 7.87173 71.0586 9.73827 70.3665 12.331C69.5273 15.476 69.5758 18.664 70.2607 21.8179C70.9349 24.9163 72.8265 26.4798 75.7617 26.6268C78.9748 26.781 81.0637 25.3986 82.1467 22.3863C82.3869 21.7175 82.5824 21.0308 82.846 20.1988L91.7663 22.8883C90.5865 28.7838 86.4446 33.4242 80.2317 34.1306C77.0975 34.4892 73.9938 34.4426 70.8954 33.7864C65.9646 32.7392 62.6977 29.6212 60.9244 25.1332C58.7494 19.6394 58.8283 13.9752 61.1378 8.49212C62.9882 4.10099 66.5079 1.61227 71.0837 0.565139C74.2645 -0.164623 77.4633 -0.152072 80.68 0.385836C85.5534 1.19629 88.7916 4.01851 90.7675 8.43474C91.0114 8.97265 91.2104 9.54284 91.4256 10.0987C91.4386 10.1901 91.4422 10.2826 91.4364 10.3748Z" fill="black"/>
<path fill-rule="evenodd" clip-rule="evenodd" d="M0 15.8222C0.0950304 13.0215 0.537908 10.3445 1.68724 7.79298C4.89676 0.69976 13.5338 0.836032 17.1073 4.35933C18.7407 5.97306 19.7 7.91491 20.1429 10.1185C21.0071 14.4218 21.1021 18.7125 19.4131 22.8634C17.2615 28.1349 12.0922 30.5447 6.77585 28.7678C3.31351 27.6113 1.55455 24.9308 0.794311 21.5563C0.371157 19.6808 0.25461 17.7353 0 15.8222ZM3.94466 15.7038C3.94466 18.5727 4.30327 20.744 5.08861 22.5281C6.35449 25.4292 9.31478 26.8493 12.2213 25.8326C14.441 25.0581 15.5653 23.2417 16.2036 21.1026C17.2059 17.7389 17.1539 14.3304 16.46 10.9272C16.0781 9.05348 15.334 7.31245 13.6844 6.18105C10.6362 4.09038 6.77585 5.33832 5.16213 8.90107C4.16879 11.0635 3.91597 13.3603 3.93749 15.7038H3.94466Z" fill="black"/>
<path fill-rule="evenodd" clip-rule="evenodd" d="M23.2694 0.270508H26.6761V11.6849C26.9558 11.3747 27.2015 11.1112 27.4399 10.8404C29.7709 8.1939 33.8948 7.36373 36.7189 8.97745C38.2752 9.87397 39.247 11.242 39.7867 12.9024C40.8036 15.917 40.9195 19.1628 40.1202 22.2423C39.0444 26.3358 35.7739 28.8765 31.5496 29.1114C28.9272 29.2565 26.3031 28.8616 23.8395 27.9513C23.567 27.8509 23.2192 27.4492 23.2174 27.1875C23.1887 18.3108 23.1821 9.44005 23.1976 0.575319C23.2113 0.471577 23.2354 0.369467 23.2694 0.270508ZM26.7604 20.3112V22.9093C26.7604 25.6795 26.7604 25.6795 29.5001 26.169C32.8567 26.7679 35.4871 25.3657 36.4427 22.2997C37.2976 19.6014 37.2517 16.6983 36.3118 14.0284C35.4046 11.4016 33.0611 10.4872 30.6513 11.9073C29.4714 12.603 28.5193 13.7003 27.4884 14.6309C26.9092 15.158 26.703 15.8232 26.7478 16.6319C26.8106 17.8583 26.7604 19.0865 26.7604 20.3112Z" fill="black"/>
<path fill-rule="evenodd" clip-rule="evenodd" d="M41.3593 8.57422H54.9199V10.7976C54.9199 16.6823 54.9737 22.5688 54.8823 28.4517C54.8544 29.9386 54.5749 31.4099 54.0557 32.8034C53.0516 35.4697 50.848 36.7911 48.1387 37.2699C45.8078 37.6823 43.5109 37.381 41.2517 36.6961C40.7138 36.5311 40.4681 36.2837 40.4986 35.6956C40.5434 34.8654 40.5112 34.0299 40.5112 33.076C40.8491 33.2245 41.1965 33.3503 41.5511 33.4525C43.1451 33.7842 44.7355 34.297 46.3439 34.3652C49.392 34.4942 51.2568 32.4287 51.2944 29.0793C51.3357 25.4932 51.3052 21.9072 51.307 18.3211V11.5273H41.3593V8.57422Z" fill="black"/>
<path fill-rule="evenodd" clip-rule="evenodd" d="M55.513 2.81671C55.52 3.18924 55.4505 3.55925 55.3088 3.90386C55.1671 4.24846 54.9562 4.56032 54.6892 4.82015C54.4221 5.07998 54.1046 5.28226 53.7562 5.41445C53.4078 5.54665 53.0361 5.60597 52.6639 5.58873C52.2991 5.57924 51.9398 5.4976 51.6068 5.34852C51.2738 5.19944 50.9736 4.98588 50.7235 4.72015C50.4735 4.45443 50.2785 4.14181 50.1499 3.80033C50.0213 3.45886 49.9617 3.0953 49.9743 2.73064C50.0156 1.11691 51.1506 0.0303366 52.7858 0.0410948C54.3959 0.0446809 55.5309 1.20298 55.513 2.81671Z" fill="black"/>
</g>
<defs>
<clipPath id="clip0_423_281">
<rect width="91.76" height="37.4582" fill="white"/>
</clipPath>
</defs>
</svg>
