<svg width="53" height="60" viewBox="0 0 53 60" fill="none" xmlns="http://www.w3.org/2000/svg">
<g clip-path="url(#clip0_423_327)">
<path d="M27.4498 0C31.5301 0.902364 33.6908 3.89956 35.4792 7.27341C36.0538 8.35528 36.5054 9.50129 37.0476 10.697C37.8212 10.5591 38.6402 10.3908 39.4754 10.2674C42.4033 9.83305 45.3215 9.69521 48.1652 10.7482C51.5867 12.008 53.3865 15.0148 52.9333 18.6019C52.5336 21.7738 51.0737 24.4888 49.2949 27.0693C48.6087 28.0679 47.8382 29.0135 47.0775 30.0297C47.4012 30.4304 47.7395 30.8519 48.0729 31.2814C50.0152 33.8042 51.7243 36.46 52.5773 39.5678C53.0628 41.3501 53.2247 43.1468 52.5951 44.9243C51.624 47.6666 49.4924 49.053 46.7684 49.6813C43.9069 50.3401 41.0502 50.0596 38.2081 49.5211C37.0023 49.2919 37.0201 49.2742 36.5669 50.385C35.4987 53.0087 34.1715 55.477 32.1095 57.4885C28.6297 60.8815 24.3196 60.8543 20.864 57.4356C18.6855 55.2798 17.3243 52.6272 16.2432 49.8256C16.0538 49.3351 15.8418 49.2983 15.3853 49.3944C12.3603 50.0355 9.31266 50.3866 6.25042 49.6829C3.35813 49.0178 1.16342 47.4967 0.303986 44.5316C-0.264114 42.5634 0.0644402 40.6256 0.703755 38.7279C1.72018 35.7019 3.48113 33.1038 5.47029 30.6387C5.63215 30.4416 5.794 30.246 5.95585 30.0457C5.2 29.0391 4.43282 28.0775 3.72877 27.0709C2.08435 24.7132 0.752315 22.2113 0.192307 19.3584C-0.495563 15.8611 0.820298 12.8447 3.78866 11.2419C5.39747 10.3732 7.15194 10.0542 8.96792 9.98532C11.1555 9.91667 13.3423 10.1404 15.4695 10.6505C15.9 10.7498 16.0684 10.6377 16.248 10.2338C16.8954 8.77683 17.5218 7.29265 18.3262 5.91586C19.9868 3.07093 22.1362 0.748515 25.5755 0.0176478L27.4498 0ZM16.0813 29.9928C16.1606 31.6244 16.2237 33.2817 16.3354 34.9374C16.3664 35.2309 16.5087 35.5018 16.7336 35.6955C19.6808 37.9535 22.8219 39.9517 26.121 41.6674C26.2374 41.7205 26.3636 41.7491 26.4917 41.7516C26.6198 41.7541 26.7471 41.7303 26.8655 41.6819C30.1992 39.9518 33.371 37.9319 36.3435 35.6458C36.5214 35.5065 36.6403 35.3064 36.6769 35.0848C36.9343 31.6965 36.9343 28.2939 36.6769 24.9056C36.6424 24.6855 36.5271 24.4858 36.3532 24.3446C33.3795 22.0589 30.2072 20.0385 26.8736 18.3069C26.7655 18.2576 26.6482 18.2311 26.5292 18.2292C26.4102 18.2273 26.2921 18.2499 26.1825 18.2957C22.8448 20.0246 19.6687 22.0435 16.6915 24.3286C16.5019 24.4798 16.3765 24.696 16.3403 24.9344C16.2302 26.6093 16.1622 28.2874 16.0813 29.9928ZM14.9872 46.2434C14.6457 44.7223 14.2718 43.2686 14.0031 41.7973C13.7345 40.3259 13.5742 38.7904 13.3379 37.2886C13.2754 37.0885 13.1515 36.9126 12.9835 36.7854C12.0755 35.984 11.1416 35.197 10.232 34.3812C9.52145 33.7401 8.84329 33.0669 8.07449 32.3345C7.26523 33.4564 6.45598 34.5126 5.72926 35.6233C4.52023 37.4858 3.54426 39.4492 3.22865 41.6851C2.9357 43.7494 3.83397 45.4211 5.75677 46.2113C6.21013 46.3974 6.68062 46.5397 7.16165 46.6361C9.79498 47.1666 12.3749 46.7819 14.9872 46.2434ZM14.8787 13.7326C12.3603 13.1973 9.74156 12.8334 7.07748 13.364C4.19652 13.9378 2.90818 15.6944 3.29824 18.5714C3.58958 20.7255 4.59305 22.6056 5.76162 24.3975C6.48025 25.5018 7.29113 26.5484 8.08905 27.6592C8.33993 27.4219 8.49207 27.2745 8.64907 27.1302C9.86295 26.0083 11.0412 24.8591 12.3053 23.8061C12.9721 23.2515 13.3476 22.7002 13.4755 21.8026C13.8575 19.1195 14.3899 16.467 14.8787 13.7326ZM44.8213 27.7489C45.5448 26.776 46.1874 25.9666 46.7636 25.1188C48.0584 23.2419 49.1509 21.2721 49.6397 19.0186C50.2871 16.0134 48.9518 13.9698 45.9057 13.364C43.2433 12.8334 40.6261 13.2037 38.0122 13.7583C38.0139 13.8285 38.0198 13.8986 38.03 13.9682C38.796 16.8072 39.3371 19.7009 39.6486 22.6232C39.7 22.8447 39.8241 23.0431 40.0014 23.1874C41.0809 24.1491 42.1929 25.0931 43.2595 26.0724C43.8017 26.5628 44.2581 27.127 44.8246 27.7409L44.8213 27.7489ZM38.0559 46.2354C38.1951 46.2674 38.3651 46.3091 38.5415 46.3443C40.9854 46.8428 43.4391 47.1313 45.9219 46.6344C48.8207 46.0558 50.0912 44.3152 49.7206 41.4414C49.5086 39.789 48.8256 38.3016 48.0244 36.8655C47.1344 35.2772 46.0852 33.7818 44.8925 32.4018C44.7922 32.4771 44.7307 32.5188 44.6724 32.562C43.1041 33.9837 41.5293 35.4006 39.9787 36.8415C39.8012 37.0361 39.6882 37.28 39.655 37.5403C39.4932 38.5789 39.3993 39.6239 39.2051 40.6625C38.8458 42.5233 38.4411 44.3665 38.0559 46.2354ZM33.9028 11.5208C33.6439 10.9037 33.4092 10.285 33.1292 9.6872C32.205 7.71098 31.1384 5.82771 29.4438 4.37559C27.6068 2.80166 25.65 2.71191 23.779 4.21531C21.4014 6.12583 20.2069 8.79606 19.0998 11.556C19.3102 11.633 19.4543 11.6843 19.5983 11.7388C21.102 12.3142 22.612 12.8735 24.1059 13.4698C24.9152 13.7903 25.6856 14.449 26.4722 14.4458C27.2588 14.4426 28.0794 13.8047 28.9 13.473C30.5266 12.8238 32.1742 12.1939 33.9028 11.5208ZM19.0901 48.436C19.3588 49.0771 19.5919 49.6669 19.8589 50.2487C20.7702 52.2297 21.8335 54.1146 23.52 55.5715C25.4104 57.2032 27.3947 57.2865 29.2836 55.7318C31.6207 53.8085 32.8184 51.1703 33.898 48.4584C33.8357 48.4117 33.7703 48.3694 33.7021 48.3318C31.3925 47.4038 29.0829 46.4693 26.7635 45.5606C26.5481 45.5025 26.319 45.5212 26.1161 45.6135C24.7404 46.1857 23.3808 46.8011 22.0002 47.3621C21.0615 47.7516 20.0904 48.0705 19.0901 48.436ZM18.0591 14.5212C17.6383 16.4638 17.2499 18.2765 16.8274 20.211L22.9406 16.3644L18.0591 14.5212ZM30.0766 16.3596L36.1849 20.2062C35.7576 18.2589 35.3579 16.4333 34.9387 14.5196L30.0766 16.3596ZM16.8177 39.7729C17.2499 41.7347 17.6497 43.5555 18.0705 45.4628L22.9374 43.6276L16.8177 39.7729ZM36.1849 39.7729L30.0653 43.6196L34.9419 45.4676C35.3611 43.5443 35.7576 41.7267 36.1849 39.7778V39.7729ZM12.841 32.5733L12.9705 32.4499V27.361L10.5427 29.9816L12.841 32.5733ZM42.4259 30.0665L40.0419 27.3113V32.4851L40.1713 32.5829L42.4259 30.0665Z" fill="#67C7F1"/>
<path d="M26.4988 35.6121C24.9956 35.6075 23.5555 35.0132 22.4938 33.9594C21.4321 32.9056 20.8353 31.4782 20.834 29.9896C20.8383 28.5012 21.438 27.0751 22.5019 26.0236C23.5658 24.9722 25.0071 24.3811 26.5101 24.3799C27.2593 24.3826 28.0005 24.5319 28.6912 24.8192C29.3819 25.1065 30.0084 25.5261 30.5348 26.0539C31.0613 26.5818 31.4771 27.2074 31.7586 27.895C32.0401 28.5825 32.1815 29.3183 32.1749 30.0601C32.1652 33.1054 29.5966 35.617 26.4988 35.6121ZM28.9929 29.9784C28.9836 29.3288 28.7176 28.7088 28.2519 28.2512C27.7862 27.7937 27.158 27.5351 26.502 27.5309C26.1724 27.5332 25.8465 27.6 25.5429 27.7273C25.2394 27.8547 24.9643 28.0401 24.7333 28.273C24.5023 28.5059 24.32 28.7817 24.1969 29.0845C24.0739 29.3873 24.0124 29.7113 24.016 30.0377C24.0333 30.6871 24.3065 31.304 24.7771 31.7565C25.2477 32.2091 25.8784 32.4614 26.5344 32.4595C27.1905 32.4465 27.8153 32.1795 28.2748 31.7156C28.7344 31.2518 28.9922 30.6282 28.9929 29.9784Z" fill="#67C7F1"/>
</g>
<defs>
<clipPath id="clip0_423_327">
<rect width="53" height="60" fill="white"/>
</clipPath>
</defs>
</svg>
