<svg width="58" height="53" viewBox="0 0 58 53" fill="none" xmlns="http://www.w3.org/2000/svg">
<g clip-path="url(#clip0_423_275)">
<path d="M5.58623 8.01819C13.534 18.9096 22.0501 29.2659 32.7219 37.7237C32.3816 37.9257 32.1495 38.061 31.9213 38.1903C26.7055 40.9974 21.1615 41.5043 15.4334 40.5148C10.0114 39.5777 5.1279 37.3178 0.636651 34.1532C0.454519 34.0259 0.26438 33.9128 0.010196 33.7493C0.00813346 33.827 0.0134866 33.9048 0.0261988 33.9815C0.0573801 34.051 0.0928131 34.1184 0.132281 34.1835C7.22742 44.6387 16.7243 51.1477 29.4695 52.1696C34.4235 52.6087 39.392 51.5057 43.7058 49.009C45.9254 47.7387 48.3472 47.1369 50.911 47.5064C53.581 47.8922 55.4003 49.526 56.7152 51.8303C56.8735 52.0389 57.0556 52.228 57.2576 52.3937C57.4298 52.1595 57.718 51.9414 57.752 51.6889C57.8881 50.6791 58.0682 49.6391 58.0102 48.6253C57.76 44.3741 56.1348 40.646 53.623 37.2694C53.3959 36.9333 53.3089 36.5205 53.3808 36.1202C54.494 31.5507 54.3717 26.7636 53.0266 22.258C50.2546 12.7157 44.3983 5.54828 36.1764 0.244948C36.0085 0.155427 35.8346 0.0778184 35.656 0.0126953C41.4222 8.5776 44.3703 17.5505 40.9679 27.9713C30.5943 21.2685 21.3537 13.4589 12.6714 4.94849C17.4489 12.0883 22.7226 18.8769 28.4528 25.2631C20.397 20.089 12.8795 14.2202 5.58623 8.01819Z" fill="#F0523B"/>
<path d="M5.58696 8.0176C12.8802 14.2196 20.3977 20.0884 28.4435 25.2625C22.7059 18.8731 17.4255 12.0804 12.6421 4.93577C21.3324 13.4461 30.565 21.2557 40.9386 27.9586C44.341 17.5377 41.3929 8.57096 35.6267 0C35.8053 0.0651231 35.9792 0.142732 36.1471 0.232253C44.369 5.54165 50.2253 12.709 52.9973 22.2453C54.3424 26.7509 54.4647 31.538 53.3515 36.1075C53.2796 36.5078 53.3666 36.9205 53.5937 37.2566C56.1055 40.6333 57.7307 44.3614 57.9809 48.6125C58.0389 49.6223 57.8588 50.6604 57.7227 51.6762C57.6887 51.9287 57.4005 52.1468 57.2284 52.381C57.0263 52.2154 56.8442 52.0262 56.686 51.8176C55.375 49.5193 53.5557 47.8795 50.8818 47.4937C48.3259 47.1242 45.9042 47.726 43.6766 48.9963C39.3627 51.493 34.3943 52.596 29.4402 52.1569C16.695 51.1249 7.19812 44.626 0.102984 34.1708C0.0635156 34.1057 0.0280948 34.0383 -0.00308647 33.9688C-0.0157987 33.8921 -0.0211641 33.8143 -0.0191015 33.7365C0.235083 33.9001 0.425221 34.0132 0.607353 34.1405C5.09861 37.3051 9.98215 39.565 15.4041 40.502C21.1322 41.4916 26.6762 40.9847 31.892 38.1776C32.1302 38.0483 32.3624 37.9069 32.6926 37.711C22.0489 29.2653 13.5347 18.909 5.58696 8.0176Z" fill="#F0523B"/>
</g>
<defs>
<clipPath id="clip0_423_275">
<rect width="58" height="52.3871" fill="white"/>
</clipPath>
</defs>
</svg>
