<svg width="0" height="0" class="hidden">
  <symbol xmlns="http://www.w3.org/2000/svg" fill="white" viewBox="0 0 320 512" id="facebook">
    <path d="M279.14 288l14.22-92.66h-88.91v-60.13c0-25.35 12.42-50.06 52.24-50.06h40.42V6.26S260.43 0 225.36 0c-73.22 0-121.08 44.38-121.08 124.72v70.62H22.89V288h81.39v224h100.17V288z"></path>
  </symbol>
  <symbol xmlns="http://www.w3.org/2000/svg" fill="white" viewBox="0 0 448 512" id="instagram">
    <path d="M224.1 141c-63.6 0-114.9 51.3-114.9 114.9s51.3 114.9 114.9 114.9S339 319.5 339 255.9 287.7 141 224.1 141zm0 189.6c-41.1 0-74.7-33.5-74.7-74.7s33.5-74.7 74.7-74.7 74.7 33.5 74.7 74.7-33.6 74.7-74.7 74.7zm146.4-194.3c0 14.9-12 26.8-26.8 26.8-14.9 0-26.8-12-26.8-26.8s12-26.8 26.8-26.8 26.8 12 26.8 26.8zm76.1 27.2c-1.7-35.9-9.9-67.7-36.2-93.9-26.2-26.2-58-34.4-93.9-36.2-37-2.1-147.9-2.1-184.9 0-35.8 1.7-67.6 9.9-93.9 36.1s-34.4 58-36.2 93.9c-2.1 37-2.1 147.9 0 184.9 1.7 35.9 9.9 67.7 36.2 93.9s58 34.4 93.9 36.2c37 2.1 147.9 2.1 184.9 0 35.9-1.7 67.7-9.9 93.9-36.2 26.2-26.2 34.4-58 36.2-93.9 2.1-37 2.1-147.8 0-184.8zM398.8 388c-7.8 19.6-22.9 34.7-42.6 42.6-29.5 11.7-99.5 9-132.1 9s-102.7 2.6-132.1-9c-19.6-7.8-34.7-22.9-42.6-42.6-11.7-29.5-9-99.5-9-132.1s-2.6-102.7 9-132.1c7.8-19.6 22.9-34.7 42.6-42.6 29.5-11.7 99.5-9 132.1-9s102.7-2.6 132.1 9c19.6 7.8 34.7 22.9 42.6 42.6 11.7 29.5 9 99.5 9 132.1s2.7 102.7-9 132.1z"></path>
  </symbol>
  <symbol xmlns="http://www.w3.org/2000/svg" fill="white" viewBox="0 0 448 512" id="linkedin">
    <path d="M100.28 448H7.4V148.9h92.88zM53.79 108.1C24.09 108.1 0 83.5 0 53.8a53.79 53.79 0 0 1 107.58 0c0 29.7-24.1 54.3-53.79 54.3zM447.9 448h-92.68V302.4c0-34.7-.7-79.2-48.29-79.2-48.29 0-55.69 37.7-55.69 76.7V448h-92.78V148.9h89.08v40.8h1.3c12.4-23.5 42.69-48.3 87.88-48.3 94 0 111.28 61.9 111.28 142.3V448z"></path>
  </symbol>
  <symbol xmlns="http://www.w3.org/2000/svg" fill="white" viewBox="0 0 512 512" id="phone-white">
    <path d="M164.9 24.6c-7.7-18.6-28-28.5-47.4-23.2l-88 24C12.1 30.2 0 46 0 64C0 311.4 200.6 512 448 512c18 0 33.8-12.1 38.6-29.5l24-88c5.3-19.4-4.6-39.7-23.2-47.4l-96-40c-16.3-6.8-35.2-2.1-46.3 11.6L304.7 368C234.3 334.7 177.3 277.7 144 207.3L193.3 167c13.7-11.2 18.4-30 11.6-46.3l-40-96z"></path>
  </symbol>
  <symbol xmlns="http://www.w3.org/2000/svg" fill="white" viewBox="0 0 512 512" id="twitter">
    <path d="M459.37 151.716c.325 4.548.325 9.097.325 13.645 0 138.72-105.583 298.558-298.558 298.558-59.452 0-114.68-17.219-161.137-47.106 8.447.974 16.568 1.299 25.34 1.299 49.055 0 94.213-16.568 130.274-44.832-46.132-.975-84.792-31.188-98.112-72.772 6.498.974 12.995 1.624 19.818 1.624 9.421 0 18.843-1.3 27.614-3.573-48.081-9.747-84.143-51.98-84.143-102.985v-1.299c13.969 7.797 30.214 12.67 47.431 13.319-28.264-18.843-46.781-51.005-46.781-87.391 0-19.492 5.197-37.36 14.294-52.954 51.655 63.675 129.3 105.258 216.365 109.807-1.624-7.797-2.599-15.918-2.599-24.04 0-57.828 46.782-104.934 104.934-104.934 30.213 0 57.502 12.67 76.67 33.137 23.715-4.548 46.456-13.32 66.599-25.34-7.798 24.366-24.366 44.833-46.132 57.827 21.117-2.273 41.584-8.122 60.426-16.243-14.292 20.791-32.161 39.308-52.628 54.253z"></path>
  </symbol>
  <symbol xmlns="http://www.w3.org/2000/svg" fill="white" viewBox="0 0 512 512" id="email-white">
    <path d="M0 128C0 92.65 28.65 64 64 64H448C483.3 64 512 92.65 512 128V384C512 419.3 483.3 448 448 448H64C28.65 448 0 419.3 0 384V128zM48 128V150.1L220.5 291.7C241.1 308.7 270.9 308.7 291.5 291.7L464 150.1V127.1C464 119.2 456.8 111.1 448 111.1H64C55.16 111.1 48 119.2 48 127.1L48 128zM48 212.2V384C48 392.8 55.16 400 64 400H448C456.8 400 464 392.8 464 384V212.2L322 328.8C283.6 360.3 228.4 360.3 189.1 328.8L48 212.2z"></path>
  </symbol>
  <symbol xmlns="http://www.w3.org/2000/svg" fill="black" viewBox="0 0 48 48" id="arrow-left">
    <path d="M17.85 35.25 6.6 23.95 17.85 12.7l1.65 1.6-8.5 8.55h30.4v2.25H11l8.5 8.5Z"/>
  </symbol>
  <symbol xmlns="http://www.w3.org/2000/svg" fill="black" viewBox="0 0 48 48" id="arrow-up">
    <path d="M6.6 37.5h2.25v-8q0-2.9 2.025-4.875t4.875-1.975h21.3L29 30.7l1.6 1.6 10.8-10.8-10.8-10.8-1.6 1.6 8.05 8.05h-21.3q-3.8 0-6.475 2.675T6.6 29.5Z"/>
  </symbol>
  <symbol xmlns="http://www.w3.org/2000/svg" fill="#000" viewBox="0 0 38 19" id="menu-icon">
    <path class="a" d="m1.5 0h15c0.8 0 1.5 0.7 1.5 1.5 0 0.8-0.7 1.5-1.5 1.5h-15c-0.8 0-1.5-0.7-1.5-1.5 0-0.8 0.7-1.5 1.5-1.5z"/><path class="a" d="m21.5 16h15c0.8 0 1.5 0.7 1.5 1.5 0 0.8-0.7 1.5-1.5 1.5h-15c-0.8 0-1.5-0.7-1.5-1.5 0-0.8 0.7-1.5 1.5-1.5z"/><path class="a" d="m1.5 8h35c0.8 0 1.5 0.7 1.5 1.5 0 0.8-0.7 1.5-1.5 1.5h-35c-0.8 0-1.5-0.7-1.5-1.5 0-0.8 0.7-1.5 1.5-1.5z"/>
  </symbol>
  <symbol xmlns="http://www.w3.org/2000/svg" viewBox="0 0 48 48" id="plus-icon">
    <path d="M22.85 37.5V25.15H10.5v-2.3h12.35V10.5h2.3v12.35H37.5v2.3H25.15V37.5Z"/>
  </symbol>
  <symbol xmlns="http://www.w3.org/2000/svg" viewBox="0 0 256 256" id="close-icon">
    <circle cx="128" cy="128" r="96" fill="none" stroke="#fff" stroke-linecap="round" stroke-linejoin="round" stroke-width="12"/>
    <line x1="160" x2="96" y1="96" y2="160" fill="none" stroke="#fff" stroke-linecap="round" stroke-linejoin="round" stroke-width="12"/>
    <line x1="160" x2="96" y1="160" y2="96" fill="none" stroke="#fff" stroke-linecap="round" stroke-linejoin="round" stroke-width="12"/>
  </symbol>
  <symbol xmlns="http://www.w3.org/2000/svg" fill="white" viewBox="0 0 48 48" id="reset-icon">
    <path d="M24 40q-6.65 0-11.325-4.675Q8 30.65 8 24q0-6.65 4.675-11.325Q17.35 8 24 8q4.25 0 7.45 1.725T37 14.45V8h3v12.7H27.3v-3h8.4q-1.9-3-4.85-4.85Q27.9 11 24 11q-5.45 0-9.225 3.775Q11 18.55 11 24q0 5.45 3.775 9.225Q18.55 37 24 37q4.15 0 7.6-2.375 3.45-2.375 4.8-6.275h3.1q-1.45 5.25-5.75 8.45Q29.45 40 24 40Z"/>
  </symbol>


</svg>