<svg width="73" height="81" viewBox="0 0 73 81" fill="none" xmlns="http://www.w3.org/2000/svg">
<path fill-rule="evenodd" clip-rule="evenodd" d="M34.4444 9.71946C49.3822 9.71946 61.4704 21.8583 61.4704 36.7894C61.4762 40.342 60.7814 43.861 59.4257 47.1448C58.0701 50.4286 56.0802 53.4129 53.57 55.9269C51.0598 58.4409 48.0785 60.4352 44.7967 61.7958C41.5149 63.1563 37.997 63.8564 34.4444 63.856C19.5589 63.856 7.46722 51.7643 7.46722 36.7877C7.46722 21.8566 19.5589 9.71777 34.4444 9.71777V9.71946Z" fill="#1C4367"/>
<path fill-rule="evenodd" clip-rule="evenodd" d="M34.4444 14.0859C46.9646 14.0859 57.1092 24.2779 57.1092 36.7947C57.1092 49.3114 46.9646 59.4949 34.4444 59.4949C21.9782 59.4949 11.8369 49.303 11.8369 36.7896C11.8369 24.2762 21.9782 14.0859 34.4444 14.0859Z" fill="white"/>
<path fill-rule="evenodd" clip-rule="evenodd" d="M34.4444 14.7451C46.5917 14.7451 56.4462 24.6064 56.4462 36.7891C56.4462 48.9718 46.5866 58.828 34.4444 58.828C22.3021 58.828 12.4932 48.9735 12.4932 36.7891C12.4932 24.6047 22.3072 14.7451 34.4444 14.7451Z" fill="#F16923"/>
<path fill-rule="evenodd" clip-rule="evenodd" d="M5.19299 13.5139L12.5421 21.0014L14.295 18.7744L6.9476 11.7627L5.19299 13.5139Z" fill="#1C4367"/>
<path fill-rule="evenodd" clip-rule="evenodd" d="M12.8728 7.44546L18.9431 14.6984L21.2663 13.1817L14.6763 5.83594L12.8728 7.44546Z" fill="#1C4367"/>
<path fill-rule="evenodd" clip-rule="evenodd" d="M3.24772 7.06445C3.66823 7.06554 4.08435 7.14992 4.47207 7.31273C4.85978 7.47553 5.2114 7.71353 5.50662 8.01299C5.80184 8.31244 6.03481 8.66742 6.19208 9.05741C6.34935 9.44741 6.42779 9.8647 6.42289 10.2852C6.42289 12.141 5.00233 13.5599 3.24772 13.5599C2.38637 13.5599 1.5603 13.2177 0.951234 12.6087C0.342169 11.9996 0 11.1735 0 10.3122C0 9.45082 0.342169 8.62475 0.951234 8.01569C1.5603 7.40662 2.38637 7.06445 3.24772 7.06445Z" fill="#F16923"/>
<path fill-rule="evenodd" clip-rule="evenodd" d="M12.6348 67.7461C13.5016 67.7461 14.3328 68.0904 14.9456 68.7033C15.5585 69.3161 15.9028 70.1473 15.9028 71.0141C15.9028 71.8808 15.5585 72.712 14.9456 73.3249C14.3328 73.9377 13.5016 74.282 12.6348 74.282C10.8819 74.282 9.46136 72.8142 9.46136 71.0157C9.46136 69.2173 10.8819 67.7461 12.6348 67.7461Z" fill="#F16923"/>
<path fill-rule="evenodd" clip-rule="evenodd" d="M25.7709 74.1473C26.415 74.1332 27.0488 74.3111 27.5916 74.6583C28.1344 75.0054 28.5616 75.5062 28.819 76.0969C29.0763 76.6876 29.1522 77.3414 29.0369 77.9754C28.9216 78.6093 28.6204 79.1946 28.1715 79.6568C27.7226 80.119 27.1464 80.4373 26.5161 80.5711C25.8859 80.7049 25.2301 80.6482 24.6321 80.4083C24.0341 80.1683 23.5211 79.7559 23.1581 79.2236C22.7952 78.6912 22.5988 78.0629 22.594 77.4186C22.594 75.5628 24.0162 74.1473 25.7709 74.1473Z" fill="#F16923"/>
<path fill-rule="evenodd" clip-rule="evenodd" d="M39.8533 73.1035C41.6062 73.1035 43.0302 74.5679 43.0302 76.3698C43.0302 78.1716 41.6062 79.6445 39.8533 79.6445C38.9988 79.6251 38.1858 79.272 37.5883 78.6608C36.9908 78.0496 36.6563 77.2288 36.6562 76.374C36.6563 75.5193 36.9908 74.6985 37.5883 74.0872C38.1858 73.476 38.9988 73.1229 39.8533 73.1035Z" fill="#F16923"/>
<path fill-rule="evenodd" clip-rule="evenodd" d="M11.3543 0.573242C13.1106 0.573242 14.5329 2.04104 14.5329 3.8412C14.5329 5.64137 13.1106 7.11423 11.3543 7.11423C10.4998 7.09482 9.68682 6.74173 9.08932 6.1305C8.49183 5.51928 8.15729 4.69848 8.15729 3.84373C8.15729 2.98899 8.49183 2.16819 9.08932 1.55697C9.68682 0.945744 10.4998 0.592652 11.3543 0.573242Z" fill="#F16923"/>
<path fill-rule="evenodd" clip-rule="evenodd" d="M14.2022 67.2206L20.5542 60.0166L22.9719 61.2971L15.8607 69.0714L14.2022 67.2206Z" fill="#1C4367"/>
<path fill-rule="evenodd" clip-rule="evenodd" d="M29.5146 63.4277L26.0999 73.4324L28.8026 74.2827L32.2191 63.7618L29.5146 63.4277Z" fill="#1C4367"/>
<path fill-rule="evenodd" clip-rule="evenodd" d="M40.1823 63.2874L39.0924 72.7708L41.5101 73.1031L42.7923 62.5771L40.1823 63.2874Z" fill="#1C4367"/>
<path d="M25.8164 6.07365L28.094 5.65018C28.1569 5.96461 28.3038 6.25613 28.5191 6.49375C28.6595 6.63659 28.8307 6.74538 29.0196 6.81176C29.2086 6.87815 29.4102 6.90037 29.609 6.87672C29.9041 6.84202 30.1836 6.72511 30.4155 6.5393C30.4917 6.45778 30.5484 6.35995 30.5811 6.25324C30.6139 6.14653 30.6218 6.03375 30.6044 5.9235C30.6016 5.82065 30.5744 5.71994 30.5252 5.62962C30.4759 5.5393 30.4059 5.46193 30.321 5.40386C30.0831 5.26046 29.6546 5.16598 28.9932 5.07656C27.9017 4.92978 27.0969 4.68852 26.6312 4.36291C26.1082 4.02548 25.872 3.50585 25.7793 2.89173C25.7419 2.48331 25.8246 2.07287 26.0171 1.71075C26.2044 1.33283 26.5351 1.04771 26.9636 0.764268C27.5758 0.475679 28.2345 0.29857 28.9089 0.241259C29.9043 0.150154 30.6618 0.241259 31.2304 0.578684C31.7989 0.916109 32.1684 1.47286 32.3607 2.27593L30.0831 2.65722C29.9903 2.27931 29.8452 2.04142 29.609 1.90139C29.4906 1.82505 29.3582 1.7728 29.2196 1.74762C29.0809 1.72243 28.9386 1.72481 28.8009 1.75461C28.6869 1.74527 28.5723 1.76216 28.4658 1.80398C28.3594 1.8458 28.2639 1.91144 28.1868 1.99587C28.1229 2.05652 28.0729 2.13032 28.0403 2.21216C28.0076 2.29401 27.9932 2.38197 27.9978 2.46995C28.0105 2.54013 28.0383 2.6067 28.0794 2.66498C28.1205 2.72327 28.1739 2.77187 28.2357 2.80738C28.4924 2.91082 28.7631 2.97563 29.0388 2.99971C29.8417 3.06149 30.6364 3.20392 31.4109 3.42487C31.8441 3.58507 32.2232 3.86467 32.5041 4.23131C32.7596 4.55619 32.9082 4.95228 32.9293 5.36506C33.0153 5.85 32.9338 6.34978 32.6982 6.78224C32.4503 7.24468 32.0711 7.62334 31.6083 7.87044C31.0414 8.19324 30.4044 8.37277 29.7524 8.39345C28.4264 8.53517 27.4765 8.39345 26.9096 7.91937C26.3375 7.45381 25.9504 6.79928 25.8181 6.07365H25.8164ZM33.8775 0L36.3407 0.0489266L36.1989 7.96155L33.7341 7.91431L33.8775 0ZM38.1914 0.0489266L40.6108 0.425156L39.8026 6.35034L43.5481 6.87504L43.3136 8.81523L37.1016 7.91937L38.1914 0.0489266ZM46.0146 1.56734L48.3395 2.32486L45.8729 9.868L43.5481 9.10542L46.0146 1.56734ZM53.0331 9.81738L54.597 11.4235C54.2121 11.8269 53.7636 12.1643 53.2693 12.4223C52.8212 12.6147 52.3332 12.6957 51.847 12.6585C51.2448 12.5865 50.6638 12.3918 50.1397 12.0866C49.502 11.7408 48.938 11.2737 48.4795 10.7116C48.1017 10.1672 47.9035 9.5183 47.9127 8.85572C47.8654 8.09989 48.0527 7.33731 48.5285 6.43807C49.1921 5.3032 49.9979 4.59348 50.9461 4.30892C51.8943 4.02042 52.8897 4.21275 54.0302 4.82855C54.8839 5.30264 55.498 5.86782 55.7831 6.487C56.0933 7.19067 56.1627 7.97701 55.9805 8.72413L53.8918 8.11001C53.9288 7.9217 53.9452 7.72993 53.9408 7.53808C53.9109 7.31779 53.83 7.10751 53.7046 6.92396C53.5642 6.73097 53.3856 6.569 53.1799 6.44819C52.7058 6.21368 52.23 6.16476 51.7593 6.44819C51.3814 6.63715 51.049 7.01844 50.7167 7.62918C50.2881 8.3867 50.0992 9.0025 50.1953 9.43103C50.2409 9.81232 50.4771 10.1413 50.9073 10.3792C51.0741 10.4856 51.2605 10.5573 51.4556 10.5901C51.6507 10.6228 51.8504 10.6159 52.0427 10.5698C52.4278 10.3954 52.7686 10.1365 53.0398 9.81232L53.0331 9.81738ZM56.161 11.1418C57.1092 10.2409 58.1046 9.81738 59.1017 9.86462C60.0988 9.91186 61.0452 10.3843 61.9479 11.3324C62.8505 12.2806 63.2722 13.2743 63.225 14.268C63.225 15.2668 62.7037 16.215 61.8028 17.0636C61.2459 17.6261 60.5653 18.0507 59.8153 18.3036C59.1752 18.4785 58.498 18.4626 57.8667 18.2581C57.2031 18.0691 56.5873 17.6423 56.0193 16.9775C55.4035 16.3128 54.9767 15.697 54.786 15.0829C54.5954 14.4688 54.6443 13.8007 54.8332 13.0938C55.0239 12.4291 55.4507 11.7694 56.161 11.1485V11.1418ZM57.8195 12.9436C57.2037 13.465 56.9185 13.9846 56.8747 14.4131C56.7768 14.8855 56.9675 15.314 57.2998 15.6903C57.446 15.8592 57.6276 15.9938 57.8317 16.0845C58.0358 16.1752 58.2575 16.2198 58.4808 16.215C58.9515 16.1677 59.4762 15.8775 60.1393 15.2668C60.7078 14.7438 60.9929 14.268 61.0402 13.8446C61.0675 13.6097 61.039 13.3717 60.9573 13.1498C60.8755 12.9279 60.7427 12.7284 60.5695 12.5674C60.4227 12.4023 60.2397 12.2734 60.0348 12.1909C59.8299 12.1084 59.6087 12.0744 59.3885 12.0916C58.9161 12.0916 58.3931 12.3801 57.8211 12.9487L57.8195 12.9436ZM66.2146 16.9286L67.21 19.0122L64.6 23.6113L68.5395 21.6644L69.5332 23.753L62.4203 27.2117L61.3793 25.1297L64.0348 20.5745L60.0971 22.4742L59.1017 20.4345L66.2146 16.9286ZM70.7209 46.6929L69.7694 48.9233L67.21 47.8283L66.1657 50.2882L68.7284 51.3882L67.7786 53.659L60.475 50.5767L61.4232 48.3024L64.3638 49.534L65.4115 47.0742L62.4675 45.8392L63.414 43.5633L70.7209 46.6929ZM63.1811 60.1562L61.7167 62.0997L57.9747 59.1624C57.6269 58.8946 57.3225 58.5748 57.0721 58.2143C56.8411 57.84 56.6954 57.4196 56.6452 56.9827C56.5885 56.5894 56.6051 56.1889 56.6941 55.8017C56.9144 55.2623 57.2005 54.7523 57.5461 54.2833C57.784 54.0015 58.0658 53.6692 58.3998 53.3368C58.6671 53.0538 58.9891 52.8283 59.3463 52.6738C59.6739 52.5224 60.0298 52.4419 60.3906 52.4376C60.7438 52.3787 61.1065 52.4275 61.4316 52.5776C61.87 52.725 62.2856 52.9328 62.6666 53.1951L66.3631 56.134L64.8953 58.0321L61.0419 55.0357C60.7044 54.7995 60.3788 54.6595 60.0448 54.6983C59.862 54.7221 59.6867 54.7859 59.5313 54.885C59.3759 54.9841 59.2442 55.1162 59.1455 55.2719C59.0192 55.4019 58.9234 55.5583 58.8651 55.7299C58.8067 55.9015 58.7872 56.0839 58.8081 56.264C58.8368 56.4453 58.9021 56.6188 59.0002 56.774C59.0982 56.9292 59.2269 57.0628 59.3784 57.1666L63.1811 60.1562ZM59.8609 64.0467L56.3044 66.8928C55.6869 67.4142 55.1234 67.6065 54.5498 67.5576C54.2921 67.5576 54.0379 67.4975 53.8074 67.3821C53.5769 67.2667 53.3765 67.0992 53.222 66.8928C52.9481 66.5398 52.7981 66.1064 52.7952 65.6596C52.8047 65.3163 52.9229 64.9849 53.1326 64.7131C52.6079 64.9493 52.1338 65.0505 51.7053 64.9493C51.2674 64.8537 50.8797 64.601 50.6154 64.239C50.354 63.9484 50.1885 63.5844 50.1414 63.1964C50.0518 62.832 50.085 62.4483 50.2358 62.1048C50.3722 61.8027 50.5659 61.53 50.8061 61.3017C51.1857 60.9255 51.4219 60.6353 51.5653 60.5442L54.8855 57.887L59.8609 64.0467ZM55.9805 63.1424L55.1707 63.8577C54.8332 64.0939 54.6966 64.2829 54.651 64.4718C54.6404 64.6933 54.7072 64.9117 54.84 65.0893C54.9859 65.2284 55.1666 65.3257 55.363 65.3711C55.5553 65.3711 55.7898 65.2293 56.0716 64.9965L56.9253 64.3318L55.9805 63.1424ZM54.0369 60.7264L53.0398 61.5295C52.7024 61.818 52.5168 62.0559 52.5168 62.2448C52.4927 62.3595 52.4929 62.4779 52.5176 62.5925C52.5424 62.707 52.5909 62.8151 52.6602 62.9095C52.7283 62.9956 52.8146 63.0655 52.9129 63.1142C53.0112 63.1629 53.1191 63.1893 53.2288 63.1913C53.4667 63.1913 53.7501 63.0513 54.0808 62.7661L55.0306 62.0069L54.0369 60.7264Z" fill="#1C4367"/>
<path d="M71.0044 28.585L71.6708 30.9571L63.9893 32.9968L63.3263 30.6348L71.0044 28.585ZM72.376 33.5147L72.1381 40.9111L70.1524 40.8689L70.2519 38.3517L64.2778 38.1628L64.3706 35.6996L70.3464 35.9341L70.4409 33.4236L72.376 33.5147Z" fill="#E97628"/>
<path d="M27.7127 25.2715H20.5087V48.4965H27.7127V25.2715Z" fill="white"/>
<path d="M29.1873 25.2715H50.9934V31.0027H43.6949V48.4965H36.4874V31.0027H29.1873V25.2715Z" fill="white"/>
<path fill-rule="evenodd" clip-rule="evenodd" d="M34.4444 9.71946C49.3822 9.71946 61.4704 21.8583 61.4704 36.7894C61.4762 40.342 60.7814 43.861 59.4257 47.1448C58.0701 50.4286 56.0802 53.4129 53.57 55.9269C51.0598 58.4409 48.0785 60.4352 44.7967 61.7958C41.5149 63.1563 37.997 63.8564 34.4444 63.856C19.5589 63.856 7.46722 51.7643 7.46722 36.7877C7.46722 21.8566 19.5589 9.71777 34.4444 9.71777V9.71946Z" fill="#1C4367"/>
<path fill-rule="evenodd" clip-rule="evenodd" d="M34.4444 14.0859C46.9646 14.0859 57.1092 24.2779 57.1092 36.7947C57.1092 49.3114 46.9646 59.4949 34.4444 59.4949C21.9782 59.4949 11.8369 49.303 11.8369 36.7896C11.8369 24.2762 21.9782 14.0859 34.4444 14.0859Z" fill="white"/>
<path fill-rule="evenodd" clip-rule="evenodd" d="M34.4444 14.7451C46.5917 14.7451 56.4462 24.6064 56.4462 36.7891C56.4462 48.9718 46.5866 58.828 34.4444 58.828C22.3021 58.828 12.4932 48.9735 12.4932 36.7891C12.4932 24.6047 22.3072 14.7451 34.4444 14.7451Z" fill="#F16923"/>
<path d="M34.4444 59.8556C21.774 59.8556 11.4657 49.5085 11.4657 36.7892C11.4657 24.07 21.774 13.7178 34.4444 13.7178C47.1434 13.7178 57.4736 24.0666 57.4736 36.7892C57.4736 49.5118 47.1434 59.8556 34.4444 59.8556ZM34.4444 15.7727C22.9078 15.7727 13.524 25.2004 13.524 36.7892C13.524 48.3781 22.9112 57.8007 34.4444 57.8007C46.0096 57.8007 55.4187 48.3747 55.4187 36.7892C55.4187 25.2037 46.0096 15.7727 34.4444 15.7727Z" fill="white"/>
<path fill-rule="evenodd" clip-rule="evenodd" d="M5.19299 13.5139L12.5421 21.0014L14.295 18.7744L6.9476 11.7627L5.19299 13.5139Z" fill="#1C4367"/>
<path fill-rule="evenodd" clip-rule="evenodd" d="M12.8728 7.44546L18.9431 14.6984L21.2663 13.1817L14.6763 5.83594L12.8728 7.44546Z" fill="#1C4367"/>
<path fill-rule="evenodd" clip-rule="evenodd" d="M3.24772 7.06445C3.66823 7.06554 4.08435 7.14992 4.47207 7.31273C4.85978 7.47553 5.2114 7.71353 5.50662 8.01299C5.80184 8.31244 6.03481 8.66742 6.19208 9.05741C6.34935 9.44741 6.42779 9.8647 6.42289 10.2852C6.42289 12.141 5.00233 13.5599 3.24772 13.5599C2.38637 13.5599 1.5603 13.2177 0.951234 12.6087C0.342169 11.9996 0 11.1735 0 10.3122C0 9.45082 0.342169 8.62475 0.951234 8.01569C1.5603 7.40662 2.38637 7.06445 3.24772 7.06445Z" fill="#F16923"/>
<path fill-rule="evenodd" clip-rule="evenodd" d="M12.6348 67.7461C13.5016 67.7461 14.3328 68.0904 14.9456 68.7033C15.5585 69.3161 15.9028 70.1473 15.9028 71.0141C15.9028 71.8808 15.5585 72.712 14.9456 73.3249C14.3328 73.9377 13.5016 74.282 12.6348 74.282C10.8819 74.282 9.46136 72.8142 9.46136 71.0157C9.46136 69.2173 10.8819 67.7461 12.6348 67.7461Z" fill="#F16923"/>
<path fill-rule="evenodd" clip-rule="evenodd" d="M25.7709 74.1473C26.415 74.1332 27.0488 74.3111 27.5916 74.6583C28.1344 75.0054 28.5616 75.5062 28.819 76.0969C29.0763 76.6876 29.1522 77.3414 29.0369 77.9754C28.9216 78.6093 28.6204 79.1946 28.1715 79.6568C27.7226 80.119 27.1464 80.4373 26.5161 80.5711C25.8859 80.7049 25.2301 80.6482 24.6321 80.4083C24.0341 80.1683 23.5211 79.7559 23.1581 79.2236C22.7952 78.6912 22.5988 78.0629 22.594 77.4186C22.594 75.5628 24.0162 74.1473 25.7709 74.1473Z" fill="#F16923"/>
<path fill-rule="evenodd" clip-rule="evenodd" d="M39.8533 73.1035C41.6062 73.1035 43.0302 74.5679 43.0302 76.3698C43.0302 78.1716 41.6062 79.6445 39.8533 79.6445C38.9988 79.6251 38.1858 79.272 37.5883 78.6608C36.9908 78.0496 36.6563 77.2288 36.6562 76.374C36.6563 75.5193 36.9908 74.6985 37.5883 74.0872C38.1858 73.476 38.9988 73.1229 39.8533 73.1035Z" fill="#F16923"/>
<path fill-rule="evenodd" clip-rule="evenodd" d="M11.3543 0.573242C13.1106 0.573242 14.5329 2.04104 14.5329 3.8412C14.5329 5.64137 13.1106 7.11423 11.3543 7.11423C10.4998 7.09482 9.68682 6.74173 9.08932 6.1305C8.49183 5.51928 8.15729 4.69848 8.15729 3.84373C8.15729 2.98899 8.49183 2.16819 9.08932 1.55697C9.68682 0.945744 10.4998 0.592652 11.3543 0.573242Z" fill="#F16923"/>
<path fill-rule="evenodd" clip-rule="evenodd" d="M14.2022 67.2206L20.5542 60.0166L22.9719 61.2971L15.8607 69.0714L14.2022 67.2206Z" fill="#1C4367"/>
<path fill-rule="evenodd" clip-rule="evenodd" d="M29.5146 63.4277L26.0999 73.4324L28.8026 74.2827L32.2191 63.7618L29.5146 63.4277Z" fill="#1C4367"/>
<path fill-rule="evenodd" clip-rule="evenodd" d="M40.1823 63.2874L39.0924 72.7708L41.5101 73.1031L42.7923 62.5771L40.1823 63.2874Z" fill="#1C4367"/>
<path d="M25.8164 6.07365L28.094 5.65018C28.1569 5.96461 28.3038 6.25613 28.5191 6.49375C28.6595 6.63659 28.8307 6.74538 29.0196 6.81176C29.2086 6.87815 29.4102 6.90037 29.609 6.87672C29.9041 6.84202 30.1836 6.72511 30.4155 6.5393C30.4917 6.45778 30.5484 6.35995 30.5811 6.25324C30.6139 6.14653 30.6218 6.03375 30.6044 5.9235C30.6016 5.82065 30.5744 5.71994 30.5252 5.62962C30.4759 5.5393 30.4059 5.46193 30.321 5.40386C30.0831 5.26046 29.6546 5.16598 28.9932 5.07656C27.9017 4.92978 27.0969 4.68852 26.6312 4.36291C26.1082 4.02548 25.872 3.50585 25.7793 2.89173C25.7419 2.48331 25.8246 2.07287 26.0171 1.71075C26.2044 1.33283 26.5351 1.04771 26.9636 0.764268C27.5758 0.475679 28.2345 0.29857 28.9089 0.241259C29.9043 0.150154 30.6618 0.241259 31.2304 0.578684C31.7989 0.916109 32.1684 1.47286 32.3607 2.27593L30.0831 2.65722C29.9903 2.27931 29.8452 2.04142 29.609 1.90139C29.4906 1.82505 29.3582 1.7728 29.2196 1.74762C29.0809 1.72243 28.9386 1.72481 28.8009 1.75461C28.6869 1.74527 28.5723 1.76216 28.4658 1.80398C28.3594 1.8458 28.2639 1.91144 28.1868 1.99587C28.1229 2.05652 28.0729 2.13032 28.0403 2.21216C28.0076 2.29401 27.9932 2.38197 27.9978 2.46995C28.0105 2.54013 28.0383 2.6067 28.0794 2.66498C28.1205 2.72327 28.1739 2.77187 28.2357 2.80738C28.4924 2.91082 28.7631 2.97563 29.0388 2.99971C29.8417 3.06149 30.6364 3.20392 31.4109 3.42487C31.8441 3.58507 32.2232 3.86467 32.5041 4.23131C32.7596 4.55619 32.9082 4.95228 32.9293 5.36506C33.0153 5.85 32.9338 6.34978 32.6982 6.78224C32.4503 7.24468 32.0711 7.62334 31.6083 7.87044C31.0414 8.19324 30.4044 8.37277 29.7524 8.39345C28.4264 8.53517 27.4765 8.39345 26.9096 7.91937C26.3375 7.45381 25.9504 6.79928 25.8181 6.07365H25.8164ZM33.8775 0L36.3407 0.0489266L36.1989 7.96155L33.7341 7.91431L33.8775 0ZM38.1914 0.0489266L40.6108 0.425156L39.8026 6.35034L43.5481 6.87504L43.3136 8.81523L37.1016 7.91937L38.1914 0.0489266ZM46.0146 1.56734L48.3395 2.32486L45.8729 9.868L43.5481 9.10542L46.0146 1.56734ZM53.0331 9.81738L54.597 11.4235C54.2121 11.8269 53.7636 12.1643 53.2693 12.4223C52.8212 12.6147 52.3332 12.6957 51.847 12.6585C51.2448 12.5865 50.6638 12.3918 50.1397 12.0866C49.502 11.7408 48.938 11.2737 48.4795 10.7116C48.1017 10.1672 47.9035 9.5183 47.9127 8.85572C47.8654 8.09989 48.0527 7.33731 48.5285 6.43807C49.1921 5.3032 49.9979 4.59348 50.9461 4.30892C51.8943 4.02042 52.8897 4.21275 54.0302 4.82855C54.8839 5.30264 55.498 5.86782 55.7831 6.487C56.0933 7.19067 56.1627 7.97701 55.9805 8.72413L53.8918 8.11001C53.9288 7.9217 53.9452 7.72993 53.9408 7.53808C53.9109 7.31779 53.83 7.10751 53.7046 6.92396C53.5642 6.73097 53.3856 6.569 53.1799 6.44819C52.7058 6.21368 52.23 6.16476 51.7593 6.44819C51.3814 6.63715 51.049 7.01844 50.7167 7.62918C50.2881 8.3867 50.0992 9.0025 50.1953 9.43103C50.2409 9.81232 50.4771 10.1413 50.9073 10.3792C51.0741 10.4856 51.2605 10.5573 51.4556 10.5901C51.6507 10.6228 51.8504 10.6159 52.0427 10.5698C52.4278 10.3954 52.7686 10.1365 53.0398 9.81232L53.0331 9.81738ZM56.161 11.1418C57.1092 10.2409 58.1046 9.81738 59.1017 9.86462C60.0988 9.91186 61.0452 10.3843 61.9479 11.3324C62.8505 12.2806 63.2722 13.2743 63.225 14.268C63.225 15.2668 62.7037 16.215 61.8028 17.0636C61.2459 17.6261 60.5653 18.0507 59.8153 18.3036C59.1752 18.4785 58.498 18.4626 57.8667 18.2581C57.2031 18.0691 56.5873 17.6423 56.0193 16.9775C55.4035 16.3128 54.9767 15.697 54.786 15.0829C54.5954 14.4688 54.6443 13.8007 54.8332 13.0938C55.0239 12.4291 55.4507 11.7694 56.161 11.1485V11.1418ZM57.8195 12.9436C57.2037 13.465 56.9185 13.9846 56.8747 14.4131C56.7768 14.8855 56.9675 15.314 57.2998 15.6903C57.446 15.8592 57.6276 15.9938 57.8317 16.0845C58.0358 16.1752 58.2575 16.2198 58.4808 16.215C58.9515 16.1677 59.4762 15.8775 60.1393 15.2668C60.7078 14.7438 60.9929 14.268 61.0402 13.8446C61.0675 13.6097 61.039 13.3717 60.9573 13.1498C60.8755 12.9279 60.7427 12.7284 60.5695 12.5674C60.4227 12.4023 60.2397 12.2734 60.0348 12.1909C59.8299 12.1084 59.6087 12.0744 59.3885 12.0916C58.9161 12.0916 58.3931 12.3801 57.8211 12.9487L57.8195 12.9436ZM66.2146 16.9286L67.21 19.0122L64.6 23.6113L68.5395 21.6644L69.5332 23.753L62.4203 27.2117L61.3793 25.1297L64.0348 20.5745L60.0971 22.4742L59.1017 20.4345L66.2146 16.9286ZM70.7209 46.6929L69.7694 48.9233L67.21 47.8283L66.1657 50.2882L68.7284 51.3882L67.7786 53.659L60.475 50.5767L61.4232 48.3024L64.3638 49.534L65.4115 47.0742L62.4675 45.8392L63.414 43.5633L70.7209 46.6929ZM63.1811 60.1562L61.7167 62.0997L57.9747 59.1624C57.6269 58.8946 57.3225 58.5748 57.0721 58.2143C56.8411 57.84 56.6954 57.4196 56.6452 56.9827C56.5885 56.5894 56.6051 56.1889 56.6941 55.8017C56.9144 55.2623 57.2005 54.7523 57.5461 54.2833C57.784 54.0015 58.0658 53.6692 58.3998 53.3368C58.6671 53.0538 58.9891 52.8283 59.3463 52.6738C59.6739 52.5224 60.0298 52.4419 60.3906 52.4376C60.7438 52.3787 61.1065 52.4275 61.4316 52.5776C61.87 52.725 62.2856 52.9328 62.6666 53.1951L66.3631 56.134L64.8953 58.0321L61.0419 55.0357C60.7044 54.7995 60.3788 54.6595 60.0448 54.6983C59.862 54.7221 59.6867 54.7859 59.5313 54.885C59.3759 54.9841 59.2442 55.1162 59.1455 55.2719C59.0192 55.4019 58.9234 55.5583 58.8651 55.7299C58.8067 55.9015 58.7872 56.0839 58.8081 56.264C58.8368 56.4453 58.9021 56.6188 59.0002 56.774C59.0982 56.9292 59.2269 57.0628 59.3784 57.1666L63.1811 60.1562ZM59.8609 64.0467L56.3044 66.8928C55.6869 67.4142 55.1234 67.6065 54.5498 67.5576C54.2921 67.5576 54.0379 67.4975 53.8074 67.3821C53.5769 67.2667 53.3765 67.0992 53.222 66.8928C52.9481 66.5398 52.7981 66.1064 52.7952 65.6596C52.8047 65.3163 52.9229 64.9849 53.1326 64.7131C52.6079 64.9493 52.1338 65.0505 51.7053 64.9493C51.2674 64.8537 50.8797 64.601 50.6154 64.239C50.354 63.9484 50.1885 63.5844 50.1414 63.1964C50.0518 62.832 50.085 62.4483 50.2358 62.1048C50.3722 61.8027 50.5659 61.53 50.8061 61.3017C51.1857 60.9255 51.4219 60.6353 51.5653 60.5442L54.8855 57.887L59.8609 64.0467ZM55.9805 63.1424L55.1707 63.8577C54.8332 64.0939 54.6966 64.2829 54.651 64.4718C54.6404 64.6933 54.7072 64.9117 54.84 65.0893C54.9859 65.2284 55.1666 65.3257 55.363 65.3711C55.5553 65.3711 55.7898 65.2293 56.0716 64.9965L56.9253 64.3318L55.9805 63.1424ZM54.0369 60.7264L53.0398 61.5295C52.7024 61.818 52.5168 62.0559 52.5168 62.2448C52.4927 62.3595 52.4929 62.4779 52.5176 62.5925C52.5424 62.707 52.5909 62.8151 52.6602 62.9095C52.7283 62.9956 52.8146 63.0655 52.9129 63.1142C53.0112 63.1629 53.1191 63.1893 53.2288 63.1913C53.4667 63.1913 53.7501 63.0513 54.0808 62.7661L55.0306 62.0069L54.0369 60.7264Z" fill="#1C4367"/>
<path d="M71.0044 28.585L71.6708 30.9571L63.9893 32.9968L63.3263 30.6348L71.0044 28.585ZM72.376 33.5147L72.1381 40.9111L70.1524 40.8689L70.2519 38.3517L64.2778 38.1628L64.3706 35.6996L70.3464 35.9341L70.4409 33.4236L72.376 33.5147Z" fill="#E97628"/>
<path d="M27.7127 25.2715H20.5087V48.4965H27.7127V25.2715Z" fill="white"/>
<path d="M29.1873 25.2715H50.9934V31.0027H43.6949V48.4965H36.4874V31.0027H29.1873V25.2715Z" fill="white"/>
</svg>
