<svg width="250" height="81" viewBox="0 0 250 81" fill="none" xmlns="http://www.w3.org/2000/svg">
<path d="M102.883 25.7067H97.3607V24.0196C97.3607 23.23 97.2898 22.7256 97.1498 22.5012C97.0705 22.3902 96.9635 22.3018 96.8395 22.245C96.7155 22.1882 96.5787 22.1648 96.4429 22.1773C96.2807 22.1699 96.1196 22.2067 95.9767 22.2836C95.8338 22.3606 95.7145 22.4748 95.6314 22.6142C95.4475 22.9078 95.3563 23.3498 95.3563 23.9437C95.3563 24.7063 95.4593 25.2804 95.6651 25.6662C95.8709 26.052 96.4305 26.5177 97.3438 27.0632C99.9914 28.6322 101.658 29.9206 102.344 30.9284C103.031 31.9362 103.374 33.5592 103.374 35.7974C103.374 37.4272 103.183 38.6273 102.802 39.3977C102.42 40.1682 101.684 40.8155 100.593 41.3396C99.5022 41.8604 98.2318 42.1213 96.782 42.1225C95.1905 42.1225 93.8329 41.8216 92.7092 41.2198C91.5856 40.6181 90.8495 39.8516 90.5008 38.9203C90.151 37.989 89.9767 36.6663 89.9778 34.9522V33.4574H95.4981V36.2394C95.4981 37.0931 95.5757 37.6448 95.7309 37.8895C95.8861 38.1341 96.1611 38.2573 96.5559 38.2573C96.7315 38.2668 96.9065 38.2284 97.0619 38.1461C97.2174 38.0637 97.3475 37.9406 97.4383 37.7899C97.6323 37.4812 97.7284 37.0189 97.7284 36.4082C97.7284 35.0585 97.5445 34.1778 97.1768 33.7661C96.809 33.3545 95.8822 32.6633 94.3964 31.6926C92.9185 30.7141 91.9399 30.0038 91.4608 29.5618C90.931 29.0461 90.5234 28.4183 90.268 27.7245C89.9508 26.9451 89.7928 25.948 89.7939 24.7333C89.7939 22.9831 90.0188 21.7037 90.4687 20.895C90.9186 20.0863 91.6407 19.4531 92.635 18.9953C93.6327 18.5454 94.8373 18.3171 96.2488 18.3104C97.7931 18.3104 99.1085 18.5601 100.195 19.0594C101.282 19.5588 102.001 20.1864 102.355 20.9423C102.708 21.7015 102.884 22.9888 102.883 24.8041V25.7067Z" fill="#1C4367"/>
<path d="M110.94 18.7895V21.769H105.076V18.7895H110.94ZM110.94 22.9129V41.64H105.076V22.9129H110.94Z" fill="#1C4367"/>
<path d="M118.858 18.7895V41.645H112.987V18.7895H118.858Z" fill="#1C4367"/>
<path d="M126.779 18.7895V21.769H120.906V18.7895H126.779ZM126.779 22.9129V41.64H120.906V22.9129H126.779Z" fill="#1C4367"/>
<path d="M141.432 29.9853H136.053V27.8258C136.053 27.0733 135.991 26.5621 135.869 26.2922C135.813 26.1632 135.717 26.0552 135.596 25.9832C135.475 25.9111 135.335 25.8788 135.194 25.8906C134.865 25.8906 134.644 26.0087 134.531 26.2449C134.418 26.4795 134.363 27.0075 134.363 27.8258V36.6629C134.363 37.3378 134.447 37.8304 134.616 38.1645C134.676 38.3138 134.779 38.4417 134.912 38.5319C135.045 38.6221 135.202 38.6704 135.363 38.6706C135.534 38.6821 135.703 38.6369 135.845 38.542C135.987 38.447 136.093 38.3078 136.148 38.1459C136.285 37.7995 136.353 37.141 136.352 36.1703V33.9382H141.435C141.444 35.0653 141.387 36.1919 141.266 37.3125C141.135 38.1421 140.811 38.9295 140.322 39.612C139.804 40.3854 139.084 41.0013 138.24 41.392C137.383 41.7924 136.324 41.9926 135.063 41.9926C133.453 41.9926 132.178 41.717 131.238 41.1659C130.325 40.6482 129.619 39.8303 129.241 38.8511C128.849 37.8591 128.653 36.4498 128.653 34.6232V29.2919C128.653 27.7026 128.814 26.5031 129.134 25.6933C129.455 24.8834 130.138 24.1636 131.182 23.5337C132.226 22.8971 133.497 22.5794 134.994 22.5805C136.491 22.5816 137.761 22.8971 138.805 23.527C139.86 24.1568 140.561 24.952 140.909 25.9126C141.256 26.8731 141.431 28.2307 141.432 29.9853Z" fill="#1C4367"/>
<path d="M156.027 29.491V34.0783C156.027 35.7654 155.942 37.0026 155.772 37.79C155.591 38.5974 155.218 39.3495 154.686 39.9832C154.123 40.673 153.385 41.1977 152.548 41.5016C151.585 41.8414 150.569 42.0065 149.548 41.9892C148.465 42.014 147.384 41.8729 146.343 41.5708C145.559 41.351 144.853 40.9162 144.303 40.3156C143.804 39.7276 143.449 39.0316 143.266 38.2826C143.058 37.4885 142.954 36.2957 142.955 34.7042V29.901C142.955 28.1576 143.144 26.7978 143.52 25.8215C143.906 24.8262 144.62 23.9928 145.545 23.4595C146.523 22.8657 147.775 22.5693 149.299 22.5704C150.58 22.5704 151.679 22.7611 152.595 23.1423C153.345 23.4229 154.02 23.8737 154.566 24.4592C155.113 25.0447 155.516 25.749 155.744 26.5166C155.933 27.1723 156.027 28.1638 156.027 29.491ZM150.325 28.0789C150.325 27.1195 150.273 26.5149 150.169 26.2652C150.066 26.0155 149.845 25.8924 149.506 25.8957C149.169 25.8957 148.944 26.0206 148.831 26.2703C148.719 26.52 148.663 27.1245 148.663 28.0839V36.5381C148.663 37.4239 148.718 37.9992 148.831 38.2691C148.884 38.3986 148.977 38.5077 149.096 38.5803C149.216 38.6529 149.355 38.6852 149.495 38.6723C149.832 38.6723 150.057 38.5497 150.169 38.3045C150.279 38.0599 150.338 37.5318 150.338 36.7237L150.325 28.0789Z" fill="#1C4367"/>
<path d="M163.705 22.9129L163.607 24.6388C163.971 24.0001 164.494 23.4666 165.126 23.09C165.757 22.7362 166.471 22.558 167.194 22.5737C168.173 22.5737 168.972 22.8038 169.593 23.2638C170.187 23.6852 170.612 24.3033 170.793 25.0083C170.972 25.7101 171.061 26.8793 171.061 28.5158V41.645H165.357V28.6727C165.357 27.3821 165.315 26.5975 165.23 26.3107C165.146 26.0239 164.91 25.8873 164.525 25.8873C164.141 25.8873 163.865 26.056 163.763 26.3748C163.66 26.6937 163.607 27.5676 163.607 28.9798V41.6416H157.903V22.9145L163.705 22.9129Z" fill="#1C4367"/>
<path d="M184.231 18.7895V41.645H178.297V18.7895H184.231Z" fill="#F16923"/>
<path d="M198.587 18.7895V23.365H195.059V41.645H189.115V23.365H185.601V18.7895H198.587Z" fill="#F16923"/>
<path d="M218.702 18.7895V41.645H212.758V32.0453H210.98V41.645H205.038V18.7895H210.98V26.9653H212.758V18.7895H218.702Z" fill="#1C4367"/>
<path d="M233.972 22.9129V41.64H228.17L228.27 40.0828C227.914 40.6755 227.411 41.1656 226.809 41.505C226.194 41.8293 225.506 41.9924 224.811 41.9791C224.075 42.0052 223.343 41.8499 222.68 41.5269C222.152 41.2619 221.717 40.8438 221.43 40.3274C221.165 39.8436 220.993 39.3142 220.924 38.7668C220.858 38.2269 220.825 37.1517 220.826 35.541V22.9129H226.529V35.6591C226.529 37.1213 226.573 37.9873 226.662 38.2573C226.751 38.5272 226.993 38.6639 227.389 38.6673C227.813 38.6673 228.064 38.5238 228.145 38.2438C228.226 37.9637 228.265 37.051 228.265 35.5191V22.9129H233.972Z" fill="#1C4367"/>
<path d="M241.733 18.7895V24.2086C242.164 23.693 242.701 23.2759 243.307 22.9854C243.899 22.7142 244.543 22.5765 245.193 22.5822C245.886 22.5675 246.575 22.6926 247.218 22.95C247.747 23.1575 248.203 23.5153 248.531 23.9791C248.809 24.3646 248.994 24.8092 249.072 25.2782C249.136 25.7017 249.165 26.606 249.165 27.9877V36.4234C249.165 37.7989 249.074 38.8225 248.892 39.4939C248.709 40.1654 248.278 40.7503 247.598 41.2485C246.894 41.7495 246.048 42.0093 245.185 41.9892C244.535 41.9937 243.894 41.8427 243.314 41.5488C242.701 41.2269 242.162 40.7797 241.733 40.2363L241.367 41.6518H236.031V18.7895H241.733ZM243.471 28.2374C243.471 27.269 243.408 26.6347 243.287 26.3394C243.231 26.1972 243.131 26.0768 243.001 25.9965C242.871 25.9162 242.719 25.8802 242.567 25.894C242.217 25.894 241.993 26.0222 241.892 26.282C241.79 26.5419 241.737 27.1931 241.737 28.2374V36.312C241.737 37.3243 241.793 37.9693 241.905 38.2471C241.961 38.3834 242.059 38.4981 242.184 38.5744C242.31 38.6506 242.457 38.6844 242.604 38.6706C242.961 38.6706 243.194 38.5244 243.302 38.232C243.41 37.9395 243.466 37.2382 243.471 36.1281V28.2374Z" fill="#1C4367"/>
<path d="M94.0741 60.6201V56.3298L90.1718 50.4906H91.8016L93.7975 53.546C94.1669 54.1146 94.5111 54.6882 94.8266 55.2585C95.1314 54.7287 95.5003 54.132 95.9334 53.4684L97.8955 50.4906H99.4561L95.407 56.3298V60.6201H94.0741Z" fill="black"/>
<path d="M98.7374 56.9523C98.7374 55.5925 99.1148 54.5859 99.8695 53.9324C100.512 53.3844 101.334 53.0935 102.177 53.1158C102.636 53.1 103.093 53.1801 103.519 53.3509C103.945 53.5217 104.33 53.7795 104.651 54.1078C105.29 54.7692 105.61 55.6825 105.611 56.8477C105.611 57.7914 105.469 58.5337 105.186 59.0747C104.91 59.6098 104.479 60.049 103.949 60.335C103.408 60.6364 102.797 60.7916 102.177 60.7855C101.152 60.7855 100.322 60.4565 99.6873 59.7985C99.0529 59.1405 98.7363 58.1918 98.7374 56.9523ZM100.015 56.9523C100.015 57.8915 100.22 58.5945 100.63 59.0612C100.823 59.2815 101.06 59.458 101.326 59.5789C101.593 59.6999 101.882 59.7625 102.174 59.7625C102.467 59.7625 102.756 59.6999 103.022 59.5789C103.288 59.458 103.525 59.2815 103.718 59.0612C104.128 58.5922 104.334 57.8803 104.334 56.9102C104.334 56.0025 104.126 55.3175 103.714 54.8485C103.522 54.6288 103.285 54.4528 103.019 54.3322C102.753 54.2116 102.464 54.1492 102.172 54.1492C101.88 54.1492 101.592 54.2116 101.326 54.3322C101.06 54.4528 100.823 54.6288 100.63 54.8485C100.22 55.3108 100.015 56.012 100.015 56.9523Z" fill="black"/>
<path d="M111.877 60.6201V59.5404C111.629 59.9311 111.285 60.2512 110.877 60.4694C110.47 60.6876 110.012 60.7965 109.55 60.7855C109.133 60.7891 108.719 60.704 108.337 60.5358C108.004 60.4076 107.713 60.1912 107.494 59.9098C107.301 59.634 107.17 59.3198 107.111 58.9887C107.05 58.6049 107.024 58.2164 107.035 57.8279V53.2828H108.281V57.3522C108.267 57.7911 108.293 58.2304 108.357 58.6647C108.423 58.9735 108.6 59.2473 108.855 59.4341C109.129 59.6273 109.458 59.7256 109.793 59.7141C110.163 59.7156 110.526 59.6171 110.844 59.429C111.156 59.2524 111.401 58.977 111.539 58.6462C111.695 58.1853 111.763 57.6997 111.742 57.2138V53.2828H112.987V60.6201H111.877Z" fill="black"/>
<path d="M119.013 60.6201V50.4974H120.388L125.708 58.4505V50.4906H126.992V60.6134H125.618L120.299 52.6552V60.6134L119.013 60.6201Z" fill="black"/>
<path d="M133.873 59.7141C133.481 60.065 133.031 60.3458 132.544 60.5442C132.105 60.7069 131.64 60.7886 131.172 60.7854C130.366 60.7854 129.747 60.5886 129.317 60.195C129.105 60.006 128.938 59.773 128.826 59.5125C128.714 59.252 128.66 58.9701 128.669 58.6867C128.664 58.3427 128.748 58.0033 128.913 57.7014C129.067 57.4148 129.287 57.1689 129.554 56.9844C129.829 56.8022 130.132 56.6655 130.45 56.5794C130.814 56.4935 131.183 56.4304 131.555 56.3905C132.307 56.3227 133.049 56.1797 133.772 55.9636C133.772 55.7949 133.772 55.6836 133.772 55.638C133.772 55.1319 133.656 54.7759 133.421 54.5684C133.102 54.2883 132.63 54.1466 132.004 54.1466C131.419 54.1466 130.992 54.2478 130.708 54.4537C130.425 54.6595 130.224 55.0222 130.091 55.5419L128.874 55.3732C128.957 54.9166 129.144 54.4854 129.421 54.1129C129.71 53.7682 130.091 53.5126 130.519 53.3756C131.055 53.1924 131.617 53.1039 132.183 53.1141C132.701 53.0985 133.219 53.1733 133.711 53.3351C134.043 53.4438 134.34 53.6361 134.575 53.8935C134.769 54.1401 134.902 54.4293 134.962 54.7371C135.013 55.1173 135.033 55.5009 135.022 55.8844V57.5428C135.003 58.2748 135.03 59.0073 135.102 59.7361C135.156 60.0459 135.263 60.3443 135.417 60.6184H134.118C133.984 60.3337 133.901 60.0276 133.873 59.7141ZM133.769 56.9388C133.114 57.1719 132.435 57.3292 131.744 57.4078C131.374 57.4486 131.01 57.5318 130.659 57.6558C130.459 57.7392 130.288 57.8809 130.169 58.0624C130.027 58.2845 129.97 58.5499 130.008 58.8105C130.045 59.0711 130.175 59.3097 130.373 59.483C130.622 59.7023 130.99 59.812 131.474 59.812C131.92 59.8203 132.36 59.7121 132.751 59.4982C133.109 59.3055 133.396 59.005 133.573 58.6394C133.727 58.2438 133.795 57.82 133.774 57.396L133.769 56.9388Z" fill="black"/>
<path d="M136.963 60.6201V53.2828H138.074V54.312C138.306 53.9523 138.621 53.6546 138.994 53.4448C139.391 53.2183 139.842 53.1019 140.3 53.1074C140.768 53.0872 141.233 53.2045 141.636 53.4448C141.981 53.6729 142.237 54.0131 142.361 54.4081C142.942 53.5533 143.697 53.1248 144.627 53.1225C145.356 53.1225 145.916 53.3244 146.306 53.7282C146.697 54.1297 146.893 54.7523 146.893 55.5841V60.6201H145.658V55.9974C145.675 55.6356 145.634 55.2734 145.536 54.9244C145.455 54.7036 145.3 54.5174 145.098 54.3963C144.873 54.2585 144.614 54.1888 144.35 54.1955C144.113 54.1877 143.877 54.2285 143.656 54.3156C143.435 54.4026 143.235 54.534 143.067 54.7017C142.729 55.0459 142.56 55.5959 142.56 56.3517V60.6134H141.317V55.8523C141.317 55.2989 141.214 54.8856 141.012 54.6089C140.809 54.3322 140.478 54.1955 140.018 54.1955C139.674 54.194 139.337 54.2899 139.046 54.4722C138.746 54.6602 138.519 54.9445 138.402 55.2787C138.247 55.7746 138.179 56.2933 138.201 56.8123V60.6201H136.963Z" fill="black"/>
<path d="M153.761 58.2564L155.047 58.415C154.882 59.1088 154.485 59.7254 153.922 60.1629C153.374 60.5779 152.674 60.7854 151.821 60.7854C150.748 60.7854 149.897 60.4548 149.268 59.7934C148.64 59.1321 148.325 58.2053 148.325 57.013C148.325 55.7758 148.643 54.8198 149.279 54.1449C149.593 53.8069 149.977 53.5406 150.404 53.3639C150.831 53.1872 151.29 53.1043 151.752 53.1208C152.202 53.1072 152.649 53.1905 153.064 53.3652C153.479 53.5398 153.851 53.8018 154.156 54.1331C154.777 54.8001 155.088 55.7393 155.089 56.9506C155.089 57.0248 155.089 57.1345 155.089 57.288H149.616C149.663 58.0945 149.892 58.7131 150.301 59.1439C150.497 59.3528 150.735 59.5178 150.999 59.6283C151.264 59.7388 151.548 59.7922 151.835 59.785C152.252 59.7974 152.663 59.6717 153.002 59.4273C153.366 59.1216 153.631 58.7138 153.761 58.2564ZM149.678 56.2454H153.775C153.721 55.6279 153.564 55.1673 153.306 54.8569C153.122 54.6266 152.887 54.442 152.62 54.3177C152.352 54.1933 152.06 54.1324 151.765 54.1399C151.499 54.1336 151.234 54.1812 150.986 54.2798C150.739 54.3784 150.514 54.5259 150.325 54.7135C149.923 55.1242 149.693 55.6715 149.678 56.2454Z" fill="black"/>
<path d="M160.92 60.6201V50.4974H162.269V60.6201H160.92Z" fill="black"/>
<path d="M167.204 60.6201V51.6868H163.869V50.4906H171.896V51.6868H168.544V60.6201H167.204Z" fill="black"/>
<path d="M178.714 60.6201L176.026 50.4974H177.401L178.942 57.1379C179.107 57.8341 179.25 58.5247 179.37 59.2097C179.628 58.1266 179.778 57.5057 179.826 57.337L181.752 50.4974H183.37L184.821 55.6245C185.164 56.8005 185.426 57.9983 185.607 59.2097C185.737 58.5686 185.905 57.8347 186.114 57.008L187.703 50.4974H189.053L186.276 60.6201H184.983L182.852 52.9032C182.674 52.257 182.567 51.8623 182.535 51.7222C182.429 52.1879 182.329 52.5827 182.238 52.9032L180.089 60.6201H178.714Z" fill="black"/>
<path d="M194.907 58.2564L196.193 58.415C196.027 59.109 195.629 59.7256 195.066 60.1629C194.519 60.5779 193.819 60.7854 192.967 60.7854C191.892 60.7854 191.04 60.4548 190.412 59.7934C189.785 59.1321 189.47 58.2053 189.469 57.013C189.469 55.7758 189.788 54.8198 190.424 54.1449C191.061 53.4701 191.885 53.1287 192.898 53.1208C193.347 53.1072 193.795 53.1905 194.209 53.3652C194.624 53.5399 194.996 53.8018 195.3 54.1331C195.923 54.8001 196.234 55.7392 196.233 56.9506C196.233 57.0248 196.233 57.1345 196.233 57.288H190.762C190.807 58.0945 191.035 58.7131 191.447 59.1439C191.642 59.353 191.88 59.5182 192.144 59.6287C192.408 59.7392 192.692 59.7925 192.979 59.785C193.397 59.7979 193.807 59.6721 194.146 59.4273C194.511 59.1218 194.776 58.714 194.907 58.2564ZM190.824 56.2454H194.92C194.865 55.6279 194.71 55.1673 194.451 54.8569C194.267 54.6267 194.033 54.4422 193.765 54.3178C193.498 54.1934 193.206 54.1325 192.911 54.1399C192.645 54.1336 192.38 54.1812 192.132 54.2798C191.885 54.3784 191.66 54.5259 191.47 54.7135C191.068 55.1233 190.837 55.6711 190.824 56.2454Z" fill="black"/>
<path d="M201.883 60.6201V50.4974H203.223V54.6578H208.497V50.4906H209.836V60.6134H208.497V55.8388H203.231V60.6134L201.883 60.6201Z" fill="black"/>
<path d="M216.688 59.7141C216.295 60.065 215.846 60.3458 215.358 60.5442C214.919 60.7071 214.455 60.7888 213.987 60.7855C213.182 60.7855 212.561 60.5881 212.131 60.195C211.919 60.0061 211.751 59.7732 211.639 59.5127C211.527 59.2521 211.473 58.9702 211.481 58.6867C211.477 58.3427 211.561 58.0034 211.726 57.7014C211.88 57.4147 212.1 57.1689 212.369 56.9844C212.643 56.8022 212.945 56.6655 213.263 56.5795C213.627 56.4937 213.996 56.4306 214.368 56.3905C215.12 56.3224 215.863 56.1795 216.586 55.9637C216.586 55.795 216.586 55.6836 216.586 55.6381C216.586 55.1319 216.468 54.7759 216.234 54.5684C215.917 54.2884 215.443 54.1466 214.817 54.1466C214.233 54.1466 213.804 54.2479 213.523 54.4537C213.241 54.6595 213.037 55.0222 212.903 55.5419L211.689 55.3732C211.771 54.9168 211.958 54.4855 212.234 54.1129C212.523 53.7682 212.904 53.5126 213.332 53.3756C213.868 53.1924 214.431 53.1039 214.997 53.1141C215.512 53.0996 216.026 53.1744 216.516 53.3351C216.847 53.4432 217.145 53.6356 217.379 53.8936C217.574 54.1397 217.706 54.429 217.766 54.7371C217.818 55.1171 217.839 55.5009 217.828 55.8844V57.5428C217.809 58.2748 217.836 59.0073 217.907 59.7361C217.961 60.0458 218.067 60.3442 218.221 60.6184H216.932C216.798 60.3338 216.715 60.0276 216.688 59.7141ZM216.585 56.9371C215.93 57.1701 215.251 57.3274 214.56 57.4062C214.19 57.4473 213.826 57.5305 213.475 57.6542C213.275 57.7376 213.104 57.8792 212.984 58.0608C212.843 58.2829 212.786 58.5483 212.823 58.8088C212.861 59.0694 212.99 59.308 213.189 59.4813C213.44 59.7006 213.806 59.8103 214.29 59.8103C214.737 59.8183 215.177 59.7102 215.569 59.4965C215.926 59.3029 216.213 59.0026 216.391 58.6378C216.545 58.2421 216.613 57.8183 216.592 57.3944L216.585 56.9371Z" fill="black"/>
<path d="M221.806 60.6201L219.016 53.2828H220.329L221.904 57.6693C222.073 58.1451 222.23 58.6377 222.373 59.1489C222.485 58.7609 222.638 58.2953 222.837 57.752L224.467 53.2761H225.744L222.967 60.6134L221.806 60.6201Z" fill="black"/>
<path d="M231.865 58.2565L233.151 58.415C232.986 59.1093 232.588 59.7261 232.024 60.1629C231.477 60.5779 230.777 60.7855 229.925 60.7855C228.852 60.7855 228 60.4548 227.371 59.7934C226.741 59.1321 226.426 58.2053 226.427 57.013C226.427 55.7758 226.746 54.8198 227.382 54.1449C228.019 53.4701 228.843 53.1287 229.856 53.1208C230.306 53.1074 230.753 53.1908 231.168 53.3655C231.583 53.5401 231.955 53.8019 232.26 54.1331C232.881 54.8001 233.192 55.7393 233.193 56.9506C233.193 57.0249 233.193 57.1345 233.184 57.288H227.713C227.76 58.0945 227.989 58.7131 228.398 59.1439C228.594 59.353 228.831 59.5182 229.095 59.6287C229.359 59.7392 229.644 59.7925 229.93 59.785C230.348 59.7976 230.759 59.6719 231.099 59.4273C231.465 59.1221 231.732 58.7144 231.865 58.2565ZM227.782 56.2454H231.879C231.825 55.6279 231.668 55.1673 231.41 54.8569C231.226 54.6266 230.991 54.4421 230.724 54.3177C230.456 54.1933 230.164 54.1324 229.869 54.1399C229.603 54.1337 229.338 54.1812 229.09 54.2798C228.843 54.3784 228.618 54.5259 228.428 54.7135C228.027 55.1238 227.796 55.6713 227.782 56.2454Z" fill="black"/>
<path d="M239.034 60.6201V50.4974H240.383V60.6201H239.034Z" fill="black"/>
<path d="M245.308 60.6201V51.6868H241.973V50.4906H250V51.6868H246.649V60.6201H245.308Z" fill="black"/>
<path fill-rule="evenodd" clip-rule="evenodd" d="M34.4444 9.71955C49.3822 9.71955 61.4704 21.8584 61.4704 36.7895C61.4762 40.3421 60.7814 43.861 59.4257 47.1449C58.0701 50.4287 56.0802 53.413 53.57 55.927C51.0598 58.441 48.0785 60.4353 44.7967 61.7958C41.5149 63.1564 37.997 63.8565 34.4444 63.856C19.5589 63.856 7.46722 51.7644 7.46722 36.7878C7.46722 21.8567 19.5589 9.71786 34.4444 9.71786V9.71955Z" fill="#1C4367"/>
<path fill-rule="evenodd" clip-rule="evenodd" d="M34.4444 14.0858C46.9646 14.0858 57.1092 24.2777 57.1092 36.7945C57.1092 49.3113 46.9646 59.4948 34.4444 59.4948C21.9782 59.4948 11.8369 49.3028 11.8369 36.7894C11.8369 24.276 21.9782 14.0858 34.4444 14.0858Z" fill="white"/>
<path fill-rule="evenodd" clip-rule="evenodd" d="M34.4444 14.7455C46.5917 14.7455 56.4462 24.6067 56.4462 36.7895C56.4462 48.9722 46.5866 58.8284 34.4444 58.8284C22.3021 58.8284 12.4932 48.9739 12.4932 36.7895C12.4932 24.605 22.3072 14.7455 34.4444 14.7455Z" fill="#F16923"/>
<path fill-rule="evenodd" clip-rule="evenodd" d="M5.19299 13.5139L12.5421 21.0013L14.295 18.7743L6.9476 11.7626L5.19299 13.5139Z" fill="#1C4367"/>
<path fill-rule="evenodd" clip-rule="evenodd" d="M12.8728 7.4453L18.9431 14.6983L21.2663 13.1815L14.6763 5.83578L12.8728 7.4453Z" fill="#1C4367"/>
<path fill-rule="evenodd" clip-rule="evenodd" d="M3.24772 7.064C3.66823 7.06508 4.08435 7.14946 4.47207 7.31227C4.85978 7.47507 5.2114 7.71308 5.50662 8.01253C5.80184 8.31199 6.03481 8.66696 6.19208 9.05696C6.34935 9.44695 6.42779 9.86424 6.42289 10.2847C6.42289 12.1406 5.00233 13.5594 3.24772 13.5594C2.38637 13.5594 1.5603 13.2173 0.951234 12.6082C0.342169 11.9991 0 11.1731 0 10.3117C0 9.45036 0.342169 8.62429 0.951234 8.01523C1.5603 7.40616 2.38637 7.064 3.24772 7.064Z" fill="#F16923"/>
<path fill-rule="evenodd" clip-rule="evenodd" d="M12.6348 67.7466C13.5016 67.7466 14.3328 68.0909 14.9456 68.7037C15.5585 69.3166 15.9028 70.1478 15.9028 71.0145C15.9028 71.8812 15.5585 72.7124 14.9456 73.3253C14.3328 73.9382 13.5016 74.2825 12.6348 74.2825C10.8819 74.2825 9.46136 72.8147 9.46136 71.0162C9.46136 69.2177 10.8819 67.7466 12.6348 67.7466Z" fill="#F16923"/>
<path fill-rule="evenodd" clip-rule="evenodd" d="M25.7709 74.1475C26.415 74.1335 27.0488 74.3113 27.5916 74.6585C28.1344 75.0057 28.5616 75.5065 28.819 76.0971C29.0763 76.6878 29.1522 77.3417 29.0369 77.9756C28.9216 78.6095 28.6204 79.1948 28.1715 79.657C27.7226 80.1193 27.1464 80.4375 26.5161 80.5713C25.8859 80.7052 25.2301 80.6485 24.6321 80.4085C24.0341 80.1686 23.5211 79.7562 23.1581 79.2238C22.7952 78.6914 22.5988 78.0631 22.594 77.4188C22.594 75.563 24.0162 74.1475 25.7709 74.1475Z" fill="#F16923"/>
<path fill-rule="evenodd" clip-rule="evenodd" d="M39.8533 73.1031C41.6062 73.1031 43.0302 74.5676 43.0302 76.3694C43.0302 78.1713 41.6062 79.6441 39.8533 79.6441C38.9988 79.6247 38.1858 79.2716 37.5883 78.6604C36.9908 78.0492 36.6563 77.2284 36.6562 76.3736C36.6563 75.5189 36.9908 74.6981 37.5883 74.0869C38.1858 73.4757 38.9988 73.1226 39.8533 73.1031Z" fill="#F16923"/>
<path fill-rule="evenodd" clip-rule="evenodd" d="M11.3543 0.573608C13.1106 0.573608 14.5329 2.04141 14.5329 3.84157C14.5329 5.64173 13.1106 7.11459 11.3543 7.11459C10.4998 7.09519 9.68682 6.74209 9.08932 6.13087C8.49183 5.51965 8.15729 4.69885 8.15729 3.8441C8.15729 2.98935 8.49183 2.16855 9.08932 1.55733C9.68682 0.94611 10.4998 0.593018 11.3543 0.573608Z" fill="#F16923"/>
<path fill-rule="evenodd" clip-rule="evenodd" d="M14.2022 67.2202L20.5542 60.0161L22.9719 61.2967L15.8607 69.0709L14.2022 67.2202Z" fill="#1C4367"/>
<path fill-rule="evenodd" clip-rule="evenodd" d="M29.5146 63.4275L26.0999 73.4321L28.8026 74.2825L32.2191 63.7615L29.5146 63.4275Z" fill="#1C4367"/>
<path fill-rule="evenodd" clip-rule="evenodd" d="M40.1823 63.2875L39.0924 72.7708L41.5101 73.1032L42.7923 62.5772L40.1823 63.2875Z" fill="#1C4367"/>
<path d="M25.8164 6.07365L28.094 5.65018C28.1569 5.96461 28.3038 6.25613 28.5191 6.49375C28.6595 6.63659 28.8307 6.74538 29.0196 6.81176C29.2086 6.87815 29.4102 6.90037 29.609 6.87672C29.9041 6.84202 30.1836 6.72511 30.4155 6.5393C30.4917 6.45778 30.5484 6.35995 30.5811 6.25324C30.6139 6.14653 30.6218 6.03375 30.6044 5.9235C30.6016 5.82065 30.5744 5.71994 30.5252 5.62962C30.4759 5.5393 30.4059 5.46193 30.321 5.40386C30.0831 5.26046 29.6546 5.16598 28.9932 5.07656C27.9017 4.92978 27.0969 4.68852 26.6312 4.36291C26.1082 4.02548 25.872 3.50585 25.7793 2.89173C25.7419 2.48331 25.8246 2.07287 26.0171 1.71075C26.2044 1.33283 26.5351 1.04771 26.9636 0.764268C27.5758 0.475679 28.2345 0.29857 28.9089 0.241259C29.9043 0.150154 30.6618 0.241259 31.2304 0.578684C31.7989 0.916109 32.1684 1.47286 32.3607 2.27593L30.0831 2.65722C29.9903 2.27931 29.8452 2.04142 29.609 1.90139C29.4906 1.82505 29.3582 1.7728 29.2196 1.74762C29.0809 1.72243 28.9386 1.72481 28.8009 1.75461C28.6869 1.74527 28.5723 1.76216 28.4658 1.80398C28.3594 1.8458 28.2639 1.91144 28.1868 1.99587C28.1229 2.05652 28.0729 2.13032 28.0402 2.21216C28.0076 2.29401 27.9932 2.38197 27.9978 2.46995C28.0105 2.54013 28.0383 2.6067 28.0794 2.66498C28.1205 2.72327 28.1739 2.77187 28.2357 2.80738C28.4924 2.91082 28.7631 2.97563 29.0388 2.99971C29.8417 3.06149 30.6364 3.20392 31.4109 3.42487C31.8441 3.58507 32.2232 3.86467 32.5041 4.23131C32.7596 4.55619 32.9082 4.95228 32.9293 5.36506C33.0153 5.85 32.9338 6.34978 32.6982 6.78224C32.4503 7.24468 32.0711 7.62334 31.6083 7.87044C31.0414 8.19324 30.4044 8.37277 29.7524 8.39345C28.4264 8.53517 27.4765 8.39345 26.9096 7.91937C26.3375 7.45381 25.9504 6.79928 25.8181 6.07365H25.8164ZM33.8775 0L36.3407 0.0489266L36.1989 7.96155L33.734 7.91431L33.8775 0ZM38.1914 0.0489266L40.6108 0.425156L39.8026 6.35034L43.5481 6.87504L43.3136 8.81523L37.1016 7.91937L38.1914 0.0489266ZM46.0146 1.56734L48.3395 2.32486L45.8729 9.868L43.5481 9.10542L46.0146 1.56734ZM53.0331 9.81738L54.597 11.4235C54.2121 11.8269 53.7636 12.1643 53.2693 12.4223C52.8212 12.6147 52.3332 12.6957 51.847 12.6585C51.2448 12.5865 50.6638 12.3918 50.1397 12.0866C49.502 11.7408 48.938 11.2737 48.4795 10.7116C48.1017 10.1672 47.9035 9.5183 47.9127 8.85572C47.8654 8.09989 48.0527 7.33731 48.5285 6.43807C49.1921 5.3032 49.9979 4.59348 50.9461 4.30892C51.8943 4.02042 52.8897 4.21275 54.0302 4.82855C54.8839 5.30264 55.498 5.86782 55.7831 6.487C56.0933 7.19067 56.1627 7.97701 55.9805 8.72413L53.8918 8.11001C53.9288 7.9217 53.9452 7.72993 53.9408 7.53808C53.9109 7.31779 53.83 7.10751 53.7046 6.92396C53.5643 6.73097 53.3856 6.569 53.1799 6.44819C52.7058 6.21368 52.23 6.16476 51.7593 6.44819C51.3814 6.63715 51.049 7.01844 50.7167 7.62918C50.2881 8.3867 50.0992 9.0025 50.1953 9.43103C50.2409 9.81232 50.4771 10.1413 50.9073 10.3792C51.0741 10.4856 51.2605 10.5573 51.4556 10.5901C51.6507 10.6228 51.8504 10.6159 52.0427 10.5698C52.4278 10.3954 52.7686 10.1365 53.0398 9.81232L53.0331 9.81738ZM56.161 11.1418C57.1092 10.2409 58.1046 9.81738 59.1017 9.86462C60.0988 9.91186 61.0452 10.3843 61.9479 11.3324C62.8505 12.2806 63.2723 13.2743 63.225 14.268C63.225 15.2668 62.7037 16.215 61.8028 17.0636C61.2459 17.6261 60.5653 18.0507 59.8153 18.3036C59.1752 18.4785 58.498 18.4626 57.8667 18.2581C57.2031 18.0691 56.5873 17.6423 56.0193 16.9775C55.4035 16.3128 54.9767 15.697 54.786 15.0829C54.5954 14.4688 54.6443 13.8007 54.8332 13.0938C55.0239 12.4291 55.4507 11.7694 56.161 11.1485V11.1418ZM57.8195 12.9436C57.2037 13.465 56.9185 13.9846 56.8747 14.4131C56.7768 14.8855 56.9675 15.314 57.2998 15.6903C57.446 15.8592 57.6276 15.9938 57.8317 16.0845C58.0359 16.1752 58.2575 16.2198 58.4808 16.215C58.9515 16.1677 59.4762 15.8775 60.1393 15.2668C60.7078 14.7438 60.9929 14.268 61.0402 13.8446C61.0675 13.6097 61.0391 13.3717 60.9573 13.1498C60.8755 12.9279 60.7427 12.7284 60.5695 12.5674C60.4227 12.4023 60.2397 12.2734 60.0348 12.1909C59.8299 12.1084 59.6087 12.0744 59.3885 12.0916C58.9161 12.0916 58.3931 12.3801 57.8211 12.9487L57.8195 12.9436ZM66.2146 16.9286L67.21 19.0122L64.6 23.6113L68.5395 21.6644L69.5332 23.753L62.4203 27.2117L61.3793 25.1297L64.0348 20.5745L60.0971 22.4742L59.1017 20.4345L66.2146 16.9286ZM70.7209 46.6929L69.7694 48.9233L67.21 47.8283L66.1657 50.2882L68.7284 51.3882L67.7786 53.659L60.475 50.5767L61.4232 48.3024L64.3638 49.534L65.4115 47.0742L62.4675 45.8392L63.414 43.5633L70.7209 46.6929ZM63.1811 60.1562L61.7167 62.0997L57.9747 59.1624C57.6269 58.8946 57.3225 58.5748 57.0721 58.2143C56.8411 57.84 56.6954 57.4196 56.6452 56.9827C56.5885 56.5894 56.6051 56.1889 56.6941 55.8017C56.9144 55.2623 57.2005 54.7523 57.5461 54.2833C57.784 54.0015 58.0658 53.6692 58.3998 53.3368C58.6671 53.0538 58.9891 52.8283 59.3463 52.6738C59.6739 52.5224 60.0298 52.4419 60.3906 52.4376C60.7438 52.3787 61.1065 52.4275 61.4316 52.5776C61.87 52.725 62.2856 52.9328 62.6666 53.1951L66.3631 56.134L64.8953 58.0321L61.0419 55.0357C60.7044 54.7995 60.3788 54.6595 60.0448 54.6983C59.862 54.7221 59.6867 54.7859 59.5313 54.885C59.3759 54.9841 59.2442 55.1162 59.1455 55.2719C59.0192 55.4019 58.9234 55.5583 58.8651 55.7299C58.8067 55.9015 58.7872 56.0839 58.8081 56.264C58.8368 56.4453 58.9021 56.6188 59.0002 56.774C59.0982 56.9292 59.2269 57.0628 59.3784 57.1666L63.1811 60.1562ZM59.8609 64.0467L56.3044 66.8928C55.6869 67.4142 55.1234 67.6065 54.5498 67.5576C54.2921 67.5576 54.0379 67.4975 53.8074 67.3821C53.5769 67.2667 53.3765 67.0992 53.222 66.8928C52.9481 66.5398 52.7981 66.1064 52.7952 65.6596C52.8047 65.3163 52.9229 64.9849 53.1326 64.7131C52.6079 64.9493 52.1338 65.0505 51.7053 64.9493C51.2674 64.8537 50.8797 64.601 50.6154 64.239C50.354 63.9484 50.1885 63.5844 50.1414 63.1964C50.0518 62.832 50.085 62.4483 50.2358 62.1048C50.3722 61.8027 50.5659 61.53 50.8061 61.3017C51.1857 60.9255 51.4219 60.6353 51.5653 60.5442L54.8855 57.887L59.8609 64.0467ZM55.9805 63.1424L55.1707 63.8577C54.8332 64.0939 54.6966 64.2829 54.651 64.4718C54.6404 64.6933 54.7072 64.9117 54.84 65.0893C54.9859 65.2284 55.1666 65.3257 55.363 65.3711C55.5553 65.3711 55.7898 65.2293 56.0716 64.9965L56.9253 64.3318L55.9805 63.1424ZM54.0369 60.7264L53.0398 61.5295C52.7024 61.818 52.5168 62.0559 52.5168 62.2448C52.4927 62.3595 52.4929 62.4779 52.5176 62.5925C52.5424 62.707 52.5909 62.8151 52.6602 62.9095C52.7283 62.9956 52.8146 63.0655 52.9129 63.1142C53.0112 63.1629 53.1191 63.1893 53.2288 63.1913C53.4667 63.1913 53.7501 63.0513 54.0808 62.7661L55.0306 62.0069L54.0369 60.7264Z" fill="#1C4367"/>
<path d="M71.0044 28.585L71.6708 30.9571L63.9893 32.9968L63.3263 30.6348L71.0044 28.585ZM72.376 33.5148L72.1381 40.9111L70.1524 40.869L70.2519 38.3518L64.2778 38.1628L64.3706 35.6996L70.3464 35.9341L70.4409 33.4237L72.376 33.5148Z" fill="#E97628"/>
<path d="M27.7127 25.2715H20.5087V48.4964H27.7127V25.2715Z" fill="white"/>
<path d="M29.1873 25.2715H50.9934V31.0026H43.6949V48.4964H36.4875V31.0026H29.1873V25.2715Z" fill="white"/>
<path fill-rule="evenodd" clip-rule="evenodd" d="M34.4444 9.71955C49.3822 9.71955 61.4704 21.8584 61.4704 36.7895C61.4762 40.3421 60.7814 43.861 59.4257 47.1449C58.0701 50.4287 56.0802 53.413 53.57 55.927C51.0598 58.441 48.0785 60.4353 44.7967 61.7958C41.5149 63.1564 37.997 63.8565 34.4444 63.856C19.5589 63.856 7.46722 51.7644 7.46722 36.7878C7.46722 21.8567 19.5589 9.71786 34.4444 9.71786V9.71955Z" fill="#1C4367"/>
<path fill-rule="evenodd" clip-rule="evenodd" d="M34.4444 14.0858C46.9646 14.0858 57.1092 24.2777 57.1092 36.7945C57.1092 49.3113 46.9646 59.4948 34.4444 59.4948C21.9782 59.4948 11.8369 49.3028 11.8369 36.7894C11.8369 24.276 21.9782 14.0858 34.4444 14.0858Z" fill="white"/>
<path fill-rule="evenodd" clip-rule="evenodd" d="M34.4444 14.7455C46.5917 14.7455 56.4462 24.6067 56.4462 36.7895C56.4462 48.9722 46.5866 58.8284 34.4444 58.8284C22.3021 58.8284 12.4932 48.9739 12.4932 36.7895C12.4932 24.605 22.3072 14.7455 34.4444 14.7455Z" fill="#F16923"/>
<path d="M34.4444 59.8558C21.774 59.8558 11.4657 49.5087 11.4657 36.7895C11.4657 24.0702 21.774 13.718 34.4444 13.718C47.1433 13.718 57.4736 24.0668 57.4736 36.7895C57.4736 49.5121 47.1433 59.8558 34.4444 59.8558ZM34.4444 15.7729C22.9078 15.7729 13.524 25.2006 13.524 36.7895C13.524 48.3783 22.9112 57.8009 34.4444 57.8009C46.0096 57.8009 55.4187 48.375 55.4187 36.7895C55.4187 25.204 46.0096 15.7729 34.4444 15.7729Z" fill="white"/>
<path fill-rule="evenodd" clip-rule="evenodd" d="M5.19299 13.5139L12.5421 21.0013L14.295 18.7743L6.9476 11.7626L5.19299 13.5139Z" fill="#1C4367"/>
<path fill-rule="evenodd" clip-rule="evenodd" d="M12.8728 7.4453L18.9431 14.6983L21.2663 13.1815L14.6763 5.83578L12.8728 7.4453Z" fill="#1C4367"/>
<path fill-rule="evenodd" clip-rule="evenodd" d="M3.24772 7.064C3.66823 7.06508 4.08435 7.14946 4.47207 7.31227C4.85978 7.47507 5.2114 7.71308 5.50662 8.01253C5.80184 8.31199 6.03481 8.66696 6.19208 9.05696C6.34935 9.44695 6.42779 9.86424 6.42289 10.2847C6.42289 12.1406 5.00233 13.5594 3.24772 13.5594C2.38637 13.5594 1.5603 13.2173 0.951234 12.6082C0.342169 11.9991 0 11.1731 0 10.3117C0 9.45036 0.342169 8.62429 0.951234 8.01523C1.5603 7.40616 2.38637 7.064 3.24772 7.064Z" fill="#F16923"/>
<path fill-rule="evenodd" clip-rule="evenodd" d="M12.6348 67.7466C13.5016 67.7466 14.3328 68.0909 14.9456 68.7037C15.5585 69.3166 15.9028 70.1478 15.9028 71.0145C15.9028 71.8812 15.5585 72.7124 14.9456 73.3253C14.3328 73.9382 13.5016 74.2825 12.6348 74.2825C10.8819 74.2825 9.46136 72.8147 9.46136 71.0162C9.46136 69.2177 10.8819 67.7466 12.6348 67.7466Z" fill="#F16923"/>
<path fill-rule="evenodd" clip-rule="evenodd" d="M25.7709 74.1475C26.415 74.1335 27.0488 74.3113 27.5916 74.6585C28.1344 75.0057 28.5616 75.5065 28.819 76.0971C29.0763 76.6878 29.1522 77.3417 29.0369 77.9756C28.9216 78.6095 28.6204 79.1948 28.1715 79.657C27.7226 80.1193 27.1464 80.4375 26.5161 80.5713C25.8859 80.7052 25.2301 80.6485 24.6321 80.4085C24.0341 80.1686 23.5211 79.7562 23.1581 79.2238C22.7952 78.6914 22.5988 78.0631 22.594 77.4188C22.594 75.563 24.0162 74.1475 25.7709 74.1475Z" fill="#F16923"/>
<path fill-rule="evenodd" clip-rule="evenodd" d="M39.8533 73.1031C41.6062 73.1031 43.0302 74.5676 43.0302 76.3694C43.0302 78.1713 41.6062 79.6441 39.8533 79.6441C38.9988 79.6247 38.1858 79.2716 37.5883 78.6604C36.9908 78.0492 36.6563 77.2284 36.6562 76.3736C36.6563 75.5189 36.9908 74.6981 37.5883 74.0869C38.1858 73.4757 38.9988 73.1226 39.8533 73.1031Z" fill="#F16923"/>
<path fill-rule="evenodd" clip-rule="evenodd" d="M11.3543 0.573608C13.1106 0.573608 14.5329 2.04141 14.5329 3.84157C14.5329 5.64173 13.1106 7.11459 11.3543 7.11459C10.4998 7.09519 9.68682 6.74209 9.08932 6.13087C8.49183 5.51965 8.15729 4.69885 8.15729 3.8441C8.15729 2.98935 8.49183 2.16855 9.08932 1.55733C9.68682 0.94611 10.4998 0.593018 11.3543 0.573608Z" fill="#F16923"/>
<path fill-rule="evenodd" clip-rule="evenodd" d="M14.2022 67.2202L20.5542 60.0161L22.9719 61.2967L15.8607 69.0709L14.2022 67.2202Z" fill="#1C4367"/>
<path fill-rule="evenodd" clip-rule="evenodd" d="M29.5146 63.4275L26.0999 73.4321L28.8026 74.2825L32.2191 63.7615L29.5146 63.4275Z" fill="#1C4367"/>
<path fill-rule="evenodd" clip-rule="evenodd" d="M40.1823 63.2875L39.0924 72.7708L41.5101 73.1032L42.7923 62.5772L40.1823 63.2875Z" fill="#1C4367"/>
<path d="M25.8164 6.07365L28.094 5.65018C28.1569 5.96461 28.3038 6.25613 28.5191 6.49375C28.6595 6.63659 28.8307 6.74538 29.0196 6.81176C29.2086 6.87815 29.4102 6.90037 29.609 6.87672C29.9041 6.84202 30.1836 6.72511 30.4155 6.5393C30.4917 6.45778 30.5484 6.35995 30.5811 6.25324C30.6139 6.14653 30.6218 6.03375 30.6044 5.9235C30.6016 5.82065 30.5744 5.71994 30.5252 5.62962C30.4759 5.5393 30.4059 5.46193 30.321 5.40386C30.0831 5.26046 29.6546 5.16598 28.9932 5.07656C27.9017 4.92978 27.0969 4.68852 26.6312 4.36291C26.1082 4.02548 25.872 3.50585 25.7793 2.89173C25.7419 2.48331 25.8246 2.07287 26.0171 1.71075C26.2044 1.33283 26.5351 1.04771 26.9636 0.764268C27.5758 0.475679 28.2345 0.29857 28.9089 0.241259C29.9043 0.150154 30.6618 0.241259 31.2304 0.578684C31.7989 0.916109 32.1684 1.47286 32.3607 2.27593L30.0831 2.65722C29.9903 2.27931 29.8452 2.04142 29.609 1.90139C29.4906 1.82505 29.3582 1.7728 29.2196 1.74762C29.0809 1.72243 28.9386 1.72481 28.8009 1.75461C28.6869 1.74527 28.5723 1.76216 28.4658 1.80398C28.3594 1.8458 28.2639 1.91144 28.1868 1.99587C28.1229 2.05652 28.0729 2.13032 28.0402 2.21216C28.0076 2.29401 27.9932 2.38197 27.9978 2.46995C28.0105 2.54013 28.0383 2.6067 28.0794 2.66498C28.1205 2.72327 28.1739 2.77187 28.2357 2.80738C28.4924 2.91082 28.7631 2.97563 29.0388 2.99971C29.8417 3.06149 30.6364 3.20392 31.4109 3.42487C31.8441 3.58507 32.2232 3.86467 32.5041 4.23131C32.7596 4.55619 32.9082 4.95228 32.9293 5.36506C33.0153 5.85 32.9338 6.34978 32.6982 6.78224C32.4503 7.24468 32.0711 7.62334 31.6083 7.87044C31.0414 8.19324 30.4044 8.37277 29.7524 8.39345C28.4264 8.53517 27.4765 8.39345 26.9096 7.91937C26.3375 7.45381 25.9504 6.79928 25.8181 6.07365H25.8164ZM33.8775 0L36.3407 0.0489266L36.1989 7.96155L33.734 7.91431L33.8775 0ZM38.1914 0.0489266L40.6108 0.425156L39.8026 6.35034L43.5481 6.87504L43.3136 8.81523L37.1016 7.91937L38.1914 0.0489266ZM46.0146 1.56734L48.3395 2.32486L45.8729 9.868L43.5481 9.10542L46.0146 1.56734ZM53.0331 9.81738L54.597 11.4235C54.2121 11.8269 53.7636 12.1643 53.2693 12.4223C52.8212 12.6147 52.3332 12.6957 51.847 12.6585C51.2448 12.5865 50.6638 12.3918 50.1397 12.0866C49.502 11.7408 48.938 11.2737 48.4795 10.7116C48.1017 10.1672 47.9035 9.5183 47.9127 8.85572C47.8654 8.09989 48.0527 7.33731 48.5285 6.43807C49.1921 5.3032 49.9979 4.59348 50.9461 4.30892C51.8943 4.02042 52.8897 4.21275 54.0302 4.82855C54.8839 5.30264 55.498 5.86782 55.7831 6.487C56.0933 7.19067 56.1627 7.97701 55.9805 8.72413L53.8918 8.11001C53.9288 7.9217 53.9452 7.72993 53.9408 7.53808C53.9109 7.31779 53.83 7.10751 53.7046 6.92396C53.5643 6.73097 53.3856 6.569 53.1799 6.44819C52.7058 6.21368 52.23 6.16476 51.7593 6.44819C51.3814 6.63715 51.049 7.01844 50.7167 7.62918C50.2881 8.3867 50.0992 9.0025 50.1953 9.43103C50.2409 9.81232 50.4771 10.1413 50.9073 10.3792C51.0741 10.4856 51.2605 10.5573 51.4556 10.5901C51.6507 10.6228 51.8504 10.6159 52.0427 10.5698C52.4278 10.3954 52.7686 10.1365 53.0398 9.81232L53.0331 9.81738ZM56.161 11.1418C57.1092 10.2409 58.1046 9.81738 59.1017 9.86462C60.0988 9.91186 61.0452 10.3843 61.9479 11.3324C62.8505 12.2806 63.2723 13.2743 63.225 14.268C63.225 15.2668 62.7037 16.215 61.8028 17.0636C61.2459 17.6261 60.5653 18.0507 59.8153 18.3036C59.1752 18.4785 58.498 18.4626 57.8667 18.2581C57.2031 18.0691 56.5873 17.6423 56.0193 16.9775C55.4035 16.3128 54.9767 15.697 54.786 15.0829C54.5954 14.4688 54.6443 13.8007 54.8332 13.0938C55.0239 12.4291 55.4507 11.7694 56.161 11.1485V11.1418ZM57.8195 12.9436C57.2037 13.465 56.9185 13.9846 56.8747 14.4131C56.7768 14.8855 56.9675 15.314 57.2998 15.6903C57.446 15.8592 57.6276 15.9938 57.8317 16.0845C58.0359 16.1752 58.2575 16.2198 58.4808 16.215C58.9515 16.1677 59.4762 15.8775 60.1393 15.2668C60.7078 14.7438 60.9929 14.268 61.0402 13.8446C61.0675 13.6097 61.0391 13.3717 60.9573 13.1498C60.8755 12.9279 60.7427 12.7284 60.5695 12.5674C60.4227 12.4023 60.2397 12.2734 60.0348 12.1909C59.8299 12.1084 59.6087 12.0744 59.3885 12.0916C58.9161 12.0916 58.3931 12.3801 57.8211 12.9487L57.8195 12.9436ZM66.2146 16.9286L67.21 19.0122L64.6 23.6113L68.5395 21.6644L69.5332 23.753L62.4203 27.2117L61.3793 25.1297L64.0348 20.5745L60.0971 22.4742L59.1017 20.4345L66.2146 16.9286ZM70.7209 46.6929L69.7694 48.9233L67.21 47.8283L66.1657 50.2882L68.7284 51.3882L67.7786 53.659L60.475 50.5767L61.4232 48.3024L64.3638 49.534L65.4115 47.0742L62.4675 45.8392L63.414 43.5633L70.7209 46.6929ZM63.1811 60.1562L61.7167 62.0997L57.9747 59.1624C57.6269 58.8946 57.3225 58.5748 57.0721 58.2143C56.8411 57.84 56.6954 57.4196 56.6452 56.9827C56.5885 56.5894 56.6051 56.1889 56.6941 55.8017C56.9144 55.2623 57.2005 54.7523 57.5461 54.2833C57.784 54.0015 58.0658 53.6692 58.3998 53.3368C58.6671 53.0538 58.9891 52.8283 59.3463 52.6738C59.6739 52.5224 60.0298 52.4419 60.3906 52.4376C60.7438 52.3787 61.1065 52.4275 61.4316 52.5776C61.87 52.725 62.2856 52.9328 62.6666 53.1951L66.3631 56.134L64.8953 58.0321L61.0419 55.0357C60.7044 54.7995 60.3788 54.6595 60.0448 54.6983C59.862 54.7221 59.6867 54.7859 59.5313 54.885C59.3759 54.9841 59.2442 55.1162 59.1455 55.2719C59.0192 55.4019 58.9234 55.5583 58.8651 55.7299C58.8067 55.9015 58.7872 56.0839 58.8081 56.264C58.8368 56.4453 58.9021 56.6188 59.0002 56.774C59.0982 56.9292 59.2269 57.0628 59.3784 57.1666L63.1811 60.1562ZM59.8609 64.0467L56.3044 66.8928C55.6869 67.4142 55.1234 67.6065 54.5498 67.5576C54.2921 67.5576 54.0379 67.4975 53.8074 67.3821C53.5769 67.2667 53.3765 67.0992 53.222 66.8928C52.9481 66.5398 52.7981 66.1064 52.7952 65.6596C52.8047 65.3163 52.9229 64.9849 53.1326 64.7131C52.6079 64.9493 52.1338 65.0505 51.7053 64.9493C51.2674 64.8537 50.8797 64.601 50.6154 64.239C50.354 63.9484 50.1885 63.5844 50.1414 63.1964C50.0518 62.832 50.085 62.4483 50.2358 62.1048C50.3722 61.8027 50.5659 61.53 50.8061 61.3017C51.1857 60.9255 51.4219 60.6353 51.5653 60.5442L54.8855 57.887L59.8609 64.0467ZM55.9805 63.1424L55.1707 63.8577C54.8332 64.0939 54.6966 64.2829 54.651 64.4718C54.6404 64.6933 54.7072 64.9117 54.84 65.0893C54.9859 65.2284 55.1666 65.3257 55.363 65.3711C55.5553 65.3711 55.7898 65.2293 56.0716 64.9965L56.9253 64.3318L55.9805 63.1424ZM54.0369 60.7264L53.0398 61.5295C52.7024 61.818 52.5168 62.0559 52.5168 62.2448C52.4927 62.3595 52.4929 62.4779 52.5176 62.5925C52.5424 62.707 52.5909 62.8151 52.6602 62.9095C52.7283 62.9956 52.8146 63.0655 52.9129 63.1142C53.0112 63.1629 53.1191 63.1893 53.2288 63.1913C53.4667 63.1913 53.7501 63.0513 54.0808 62.7661L55.0306 62.0069L54.0369 60.7264Z" fill="#1C4367"/>
<path d="M71.0044 28.585L71.6708 30.9571L63.9893 32.9968L63.3263 30.6348L71.0044 28.585ZM72.376 33.5148L72.1381 40.9111L70.1524 40.869L70.2519 38.3518L64.2778 38.1628L64.3706 35.6996L70.3464 35.9341L70.4409 33.4237L72.376 33.5148Z" fill="#E97628"/>
<path d="M27.7127 25.2715H20.5087V48.4964H27.7127V25.2715Z" fill="white"/>
<path d="M29.1873 25.2715H50.9934V31.0026H43.6949V48.4964H36.4875V31.0026H29.1873V25.2715Z" fill="white"/>
</svg>
