<svg width="222" height="73" viewBox="0 0 222 73" fill="none" xmlns="http://www.w3.org/2000/svg">
<path d="M91.6393 23.7231H86.7508V22.2488C86.7508 21.5504 86.6732 21.0848 86.5956 20.9296C86.4404 20.7745 86.2852 20.6193 85.9748 20.6193C85.6645 20.6193 85.4317 20.7745 85.2765 21.0072C85.1213 21.24 85.0437 21.628 85.0437 22.1712C85.0437 22.8695 85.1213 23.3351 85.3541 23.7231C85.5093 24.0335 86.0524 24.499 86.8284 24.9646C89.1562 26.3613 90.7081 27.5252 91.2513 28.3788C91.8721 29.3099 92.1825 30.7067 92.1825 32.7241C92.1825 34.1984 92.0273 35.2072 91.6393 35.9055C91.3289 36.6039 90.6305 37.1471 89.6994 37.6126C88.6907 38.0782 87.6043 38.311 86.2852 38.311C84.8885 38.311 83.647 38.0782 82.6382 37.535C81.6295 36.9919 81.0087 36.2935 80.6984 35.5176C80.388 34.664 80.2328 33.5001 80.2328 31.9482V30.6291H85.1213V33.1121C85.1213 33.8881 85.1989 34.3536 85.3541 34.5864C85.5093 34.8192 85.742 34.8968 86.0524 34.8968C86.4404 34.8968 86.6732 34.7416 86.8284 34.5088C86.9836 34.1984 87.0612 33.8105 87.0612 33.2673C87.0612 32.1034 86.906 31.2498 86.5956 30.9394C86.2852 30.5515 85.4317 29.9307 84.1125 29.0772C82.7934 28.2236 81.9399 27.6028 81.4743 27.2149C81.0087 26.8269 80.6984 26.2837 80.388 25.5854C80.0776 24.887 80 24.0335 80 22.9471C80 21.3952 80.2328 20.2313 80.6208 19.5329C81.0087 18.8346 81.6295 18.2138 82.5606 17.8258C83.4142 17.4379 84.5005 17.2051 85.742 17.2051C87.1388 17.2051 88.3027 17.4379 89.2338 17.9034C90.165 18.369 90.8633 18.9122 91.1737 19.6105C91.4841 20.3089 91.6393 21.3952 91.6393 23.0247V23.7231Z" fill="white"/>
<path d="M98.8551 17.5166V20.1548H93.6562V17.5166H98.8551ZM98.8551 21.1636V37.8466H93.6562V21.1636H98.8551Z" fill="white"/>
<path d="M105.918 17.5166V37.8466H100.719V17.5166H105.918Z" fill="white"/>
<path d="M112.978 17.5166V20.1548H107.701V17.5166H112.978ZM112.978 21.1636V37.8466H107.701V21.1636H112.978Z" fill="white"/>
<path d="M126.013 27.5247H121.202V25.5848C121.202 24.8864 121.125 24.4209 121.047 24.1881C120.97 23.9553 120.737 23.8001 120.427 23.8001C120.116 23.8001 119.961 23.8777 119.806 24.1105C119.728 24.3433 119.651 24.8088 119.651 25.5072V33.3443C119.651 33.9651 119.728 34.3531 119.883 34.6634C120.039 34.9738 120.271 35.129 120.582 35.129C120.892 35.129 121.125 34.9738 121.28 34.6634C121.435 34.3531 121.435 33.7323 121.435 32.8787V30.8613H125.936C125.936 32.1804 125.858 33.1891 125.781 33.8875C125.703 34.5858 125.393 35.2066 124.927 35.905C124.461 36.6033 123.841 37.1465 123.065 37.4569C122.289 37.8448 121.358 38 120.271 38C118.875 38 117.711 37.7672 116.857 37.3017C116.004 36.8361 115.46 36.1377 115.072 35.2066C114.762 34.3531 114.529 33.0339 114.529 31.4044V26.6711C114.529 25.2744 114.684 24.1881 114.995 23.4897C115.305 22.7914 115.926 22.093 116.857 21.5498C117.788 21.0067 118.952 20.6963 120.271 20.6963C121.59 20.6963 122.754 21.0067 123.686 21.5498C124.617 22.093 125.237 22.7914 125.548 23.6449C125.858 24.4985 126.013 25.8952 126.013 27.5247Z" fill="white"/>
<path d="M139.049 27.0602V31.1728C139.049 32.6471 138.972 33.811 138.817 34.5094C138.661 35.2077 138.351 35.8285 137.886 36.4493C137.42 37.07 136.722 37.5356 135.946 37.7684C135.17 38.0788 134.316 38.234 133.307 38.234C132.221 38.234 131.212 38.0788 130.436 37.846C129.66 37.6132 129.04 37.2252 128.652 36.7597C128.186 36.2941 127.876 35.6733 127.721 34.975C127.565 34.2766 127.41 33.1903 127.41 31.7936V27.5258C127.41 25.9739 127.565 24.7324 127.876 23.8788C128.186 23.0253 128.807 22.3269 129.66 21.7838C130.514 21.2406 131.678 21.0078 132.997 21.0078C134.161 21.0078 135.092 21.163 135.946 21.551C136.799 21.8614 137.42 22.3269 137.808 22.8701C138.273 23.4133 138.584 23.9564 138.739 24.5772C138.972 24.9652 139.049 25.8963 139.049 27.0602ZM133.928 25.8187C133.928 24.9652 133.851 24.422 133.773 24.1892C133.695 23.9564 133.463 23.8788 133.152 23.8788C132.842 23.8788 132.687 23.9564 132.531 24.1892C132.454 24.422 132.376 24.9652 132.376 25.8187V33.3455C132.376 34.1214 132.454 34.6646 132.531 34.8974C132.609 35.1301 132.842 35.2853 133.152 35.2853C133.463 35.2853 133.618 35.2077 133.773 34.975C133.851 34.7422 133.928 34.2766 133.928 33.5782V25.8187Z" fill="white"/>
<path d="M145.878 21.1629L145.8 22.7148C146.188 22.0941 146.654 21.6285 147.119 21.3181C147.662 21.0077 148.283 20.8525 148.981 20.8525C149.835 20.8525 150.533 21.0853 151.154 21.4733C151.697 21.8613 152.085 22.4044 152.24 23.0252C152.396 23.646 152.473 24.6547 152.473 26.129V37.8459H147.43V26.3618C147.43 25.1979 147.43 24.4995 147.352 24.2667C147.274 24.0339 147.042 23.8788 146.731 23.8788C146.343 23.8788 146.11 24.0339 146.033 24.3443C145.955 24.6547 145.878 25.4307 145.878 26.6722V37.9235H140.834V21.1629H145.878Z" fill="white"/>
<path d="M164.191 17.5166V37.8466H158.914V17.5166H164.191Z" fill="white"/>
<path d="M176.917 17.5166V21.6291H173.736V37.9242H168.459V21.6291H165.355V17.5166H176.917Z" fill="white"/>
<path d="M194.841 17.5166V37.8466H189.565V29.3111H188.013V37.8466H182.736V17.5166H188.013V24.8106H189.565V17.5166H194.841Z" fill="white"/>
<path d="M208.498 21.1621V37.8451H203.299L203.377 36.4484C202.989 36.9915 202.601 37.4571 202.058 37.6899C201.515 38.0003 200.971 38.0779 200.273 38.0779C199.497 38.0779 198.876 37.9227 198.411 37.6899C197.945 37.4571 197.557 37.0691 197.324 36.6036C197.092 36.138 196.936 35.6724 196.859 35.2069C196.781 34.7413 196.781 33.7325 196.781 32.3358V21.1621H201.825V32.491C201.825 33.8101 201.903 34.5861 201.98 34.8189C202.058 35.0517 202.291 35.2069 202.601 35.2069C202.989 35.2069 203.222 35.0517 203.299 34.8189C203.377 34.5861 203.377 33.7325 203.377 32.4134V21.1621H208.498Z" fill="white"/>
<path d="M215.403 17.5166V22.3275C215.791 21.8619 216.257 21.474 216.8 21.2412C217.343 21.0084 217.886 20.8532 218.507 20.8532C219.205 20.8532 219.826 20.9308 220.292 21.1636C220.835 21.3964 221.223 21.7067 221.456 22.0947C221.688 22.4827 221.921 22.8707 221.921 23.2586C221.999 23.6466 221.999 24.4226 221.999 25.6641V33.1908C221.999 34.4324 221.921 35.3635 221.766 35.9067C221.611 36.5274 221.223 36.993 220.602 37.4586C219.981 37.9242 219.283 38.1569 218.429 38.1569C217.809 38.1569 217.265 38.0017 216.8 37.769C216.257 37.5362 215.791 37.1482 215.403 36.605L215.093 37.8466H210.359V17.5166H215.403ZM216.955 25.9745C216.955 25.1209 216.877 24.5778 216.8 24.2674C216.722 24.0346 216.489 23.8794 216.179 23.8794C215.869 23.8794 215.636 23.957 215.558 24.1898C215.481 24.4226 215.403 24.9657 215.403 25.8969V33.1132C215.403 34.0444 215.481 34.5876 215.558 34.8203C215.636 35.0531 215.869 35.2083 216.179 35.2083C216.489 35.2083 216.722 35.0531 216.8 34.8203C216.877 34.5876 216.955 33.9668 216.955 32.9581V25.9745Z" fill="white"/>
<path d="M83.8023 54.7618V50.9596L80.3105 45.7607H81.7849L83.5696 48.4766C83.8799 49.0197 84.1903 49.4853 84.5007 50.0285C84.7335 49.5629 85.1215 49.0197 85.5094 48.4766L87.2165 45.8383H88.6132L85.0439 51.0372V54.8394H83.8023V54.7618Z" fill="white"/>
<path d="M87.9141 51.5026C87.9141 50.2611 88.2244 49.4075 88.9228 48.8644C89.466 48.3988 90.1643 48.166 90.9403 48.166C91.8714 48.166 92.5698 48.4764 93.1129 49.0196C93.6561 49.6403 93.9665 50.4163 93.9665 51.425C93.9665 52.2786 93.8113 52.8993 93.5785 53.3649C93.3457 53.8305 92.9578 54.2184 92.4922 54.4512C92.0266 54.684 91.4834 54.8392 90.9403 54.8392C90.0091 54.8392 89.3108 54.5288 88.7676 53.9857C88.2244 53.4425 87.9141 52.6665 87.9141 51.5026ZM89.078 51.5026C89.078 52.3562 89.2332 52.9769 89.6212 53.3649C90.0091 53.7529 90.4747 53.9857 91.0179 53.9857C91.561 53.9857 92.0266 53.7529 92.4146 53.3649C92.8026 52.9769 92.9578 52.2786 92.9578 51.425C92.9578 50.6491 92.8026 50.0283 92.4146 49.5627C92.0266 49.1748 91.561 48.942 91.0179 48.942C90.4747 48.942 90.0091 49.1748 89.6212 49.5627C89.2332 50.1059 89.078 50.7267 89.078 51.5026Z" fill="white"/>
<path d="M99.5543 54.7621V53.831C99.0112 54.5294 98.3904 54.9173 97.4592 54.9173C97.0713 54.9173 96.6833 54.8397 96.3729 54.6845C96.0625 54.5294 95.8297 54.3742 95.597 54.1414C95.4418 53.9086 95.2866 53.6758 95.2866 53.2878C95.209 53.055 95.209 52.7447 95.209 52.2791V48.2441H96.2953V51.8135C96.2953 52.3567 96.2953 52.7447 96.3729 52.9775C96.4505 53.2878 96.6057 53.5206 96.8385 53.6758C97.0713 53.831 97.3041 53.9086 97.692 53.9086C98.0024 53.9086 98.3128 53.831 98.6232 53.6758C98.9336 53.5206 99.0888 53.2878 99.2439 52.9775C99.3991 52.6671 99.3991 52.2791 99.3991 51.7359V48.2441H100.485V54.7621H99.5543Z" fill="white"/>
<path d="M105.916 54.7613V45.8379H107.158L111.891 52.8991V45.8379H113.055V54.8389H111.813L107.08 47.7778V54.8389H105.916V54.7613Z" fill="white"/>
<path d="M119.107 53.9857C118.719 54.296 118.331 54.6064 117.943 54.684C117.556 54.8392 117.168 54.9168 116.702 54.9168C116.004 54.9168 115.46 54.7616 115.072 54.3736C114.684 53.9857 114.529 53.5977 114.529 53.0545C114.529 52.7441 114.607 52.4338 114.762 52.201C114.917 51.9682 115.072 51.7354 115.305 51.5802C115.538 51.425 115.771 51.2698 116.081 51.1922C116.314 51.1146 116.624 51.1146 117.09 51.037C117.943 50.9594 118.642 50.8043 119.03 50.6491C119.03 50.4939 119.03 50.4163 119.03 50.3387C119.03 49.8731 118.952 49.5627 118.719 49.4075C118.409 49.1748 118.021 49.0196 117.478 49.0196C116.935 49.0196 116.547 49.0972 116.314 49.3299C116.081 49.4851 115.848 49.7955 115.771 50.2611L114.684 50.1059C114.762 49.6403 114.917 49.2523 115.15 49.0196C115.383 48.7092 115.693 48.554 116.159 48.3988C116.547 48.2436 117.09 48.166 117.633 48.166C118.176 48.166 118.642 48.2436 118.952 48.3988C119.263 48.554 119.573 48.7092 119.728 48.8644C119.883 49.0972 120.039 49.3299 120.039 49.6403C120.039 49.7955 120.116 50.1835 120.116 50.6491V52.1234C120.116 53.1321 120.116 53.8305 120.194 54.0633C120.271 54.296 120.349 54.6064 120.504 54.8392H119.34C119.185 54.5288 119.107 54.296 119.107 53.9857ZM118.952 51.5026C118.564 51.6578 117.943 51.813 117.168 51.8906C116.702 51.9682 116.392 52.0458 116.236 52.1234C116.081 52.201 115.926 52.3562 115.771 52.5113C115.693 52.6665 115.616 52.8217 115.616 53.0545C115.616 53.3649 115.693 53.5977 115.926 53.7529C116.159 53.9081 116.469 54.0633 116.935 54.0633C117.323 54.0633 117.711 53.9857 118.099 53.7529C118.409 53.5977 118.642 53.2873 118.797 52.9769C118.952 52.7441 118.952 52.3562 118.952 51.8906V51.5026Z" fill="white"/>
<path d="M121.824 54.7621V48.2441H122.833V49.1752C123.066 48.8648 123.299 48.632 123.609 48.3992C123.919 48.2441 124.307 48.0889 124.773 48.0889C125.238 48.0889 125.626 48.1665 125.937 48.3992C126.247 48.632 126.48 48.8648 126.558 49.2528C127.101 48.4768 127.721 48.0889 128.575 48.0889C129.196 48.0889 129.739 48.2441 130.049 48.632C130.36 49.02 130.592 49.5632 130.592 50.2615V54.7621H129.506V50.6495C129.506 50.1839 129.506 49.8736 129.429 49.7184C129.351 49.5632 129.196 49.3304 129.041 49.2528C128.885 49.0976 128.653 49.0976 128.342 49.0976C127.877 49.0976 127.489 49.2528 127.178 49.5632C126.868 49.8736 126.713 50.3391 126.713 51.0375V54.8397H125.626V50.6495C125.626 50.1839 125.549 49.796 125.394 49.5632C125.238 49.3304 124.928 49.1752 124.54 49.1752C124.23 49.1752 123.919 49.2528 123.687 49.408C123.454 49.5632 123.221 49.796 123.143 50.1063C122.988 50.4167 122.988 50.8823 122.988 51.5031V54.8397H121.824V54.7621Z" fill="white"/>
<path d="M136.723 52.667L137.887 52.8222C137.732 53.5205 137.344 53.9861 136.878 54.3741C136.413 54.7621 135.792 54.9173 135.016 54.9173C134.085 54.9173 133.309 54.6069 132.766 54.0637C132.222 53.4429 131.912 52.667 131.912 51.5807C131.912 50.4943 132.222 49.6408 132.766 49.02C133.309 48.3992 134.085 48.0889 134.938 48.0889C135.792 48.0889 136.49 48.3992 137.033 48.9424C137.577 49.5632 137.887 50.3391 137.887 51.4255C137.887 51.5031 137.887 51.5807 137.887 51.7358H133.076C133.154 52.4342 133.309 52.9774 133.697 53.3653C134.085 53.7533 134.55 53.9085 135.094 53.9085C135.481 53.9085 135.869 53.8309 136.102 53.5981C136.335 53.5205 136.568 53.1326 136.723 52.667ZM133.076 50.8823H136.723C136.645 50.3391 136.568 49.9512 136.335 49.6408C135.947 49.2528 135.559 49.02 134.938 49.02C134.395 49.02 134.007 49.1752 133.697 49.5632C133.309 49.8736 133.154 50.3391 133.076 50.8823Z" fill="white"/>
<path d="M143.086 54.7613V45.8379H144.25V54.8389H143.086V54.7613Z" fill="white"/>
<path d="M148.595 54.7618V46.8471H145.646V45.7607H152.785V46.8471H149.837V54.7618H148.595Z" fill="white"/>
<path d="M158.837 54.7618L156.432 45.7607H157.673L159.07 51.658C159.225 52.2787 159.38 52.8995 159.458 53.5203C159.691 52.5891 159.846 52.046 159.846 51.8908L161.553 45.8383H162.95L164.269 50.4165C164.579 51.5804 164.812 52.5891 164.967 53.5979C165.045 53.0547 165.2 52.3563 165.433 51.658L166.829 45.9159H167.993L165.51 54.917H164.346L162.484 48.0886C162.329 47.5454 162.251 47.1575 162.174 47.0023C162.096 47.3902 162.018 47.7782 161.941 48.0886L160.001 54.917H158.837V54.7618Z" fill="white"/>
<path d="M173.192 52.667L174.356 52.8222C174.201 53.5205 173.813 53.9861 173.347 54.3741C172.881 54.7621 172.261 54.9173 171.485 54.9173C170.554 54.9173 169.778 54.6069 169.234 54.0637C168.691 53.4429 168.381 52.667 168.381 51.5807C168.381 50.4943 168.691 49.6408 169.234 49.02C169.778 48.3992 170.554 48.0889 171.407 48.0889C172.261 48.0889 172.959 48.3992 173.502 48.9424C174.045 49.4856 174.356 50.3391 174.356 51.4255C174.356 51.5031 174.356 51.5807 174.356 51.7358H169.545C169.622 52.4342 169.778 52.9774 170.166 53.3653C170.554 53.7533 171.019 53.9085 171.562 53.9085C171.95 53.9085 172.338 53.8309 172.571 53.5981C172.804 53.5205 173.037 53.1326 173.192 52.667ZM169.545 50.8823H173.192C173.114 50.3391 173.037 49.9512 172.804 49.6408C172.416 49.2528 172.028 49.02 171.407 49.02C170.864 49.02 170.476 49.1752 170.166 49.5632C169.778 49.8736 169.622 50.3391 169.545 50.8823Z" fill="white"/>
<path d="M179.322 54.7613V45.8379H180.486V49.4849H185.142V45.8379H186.306V54.8389H185.142V50.5712H180.486V54.8389H179.322V54.7613Z" fill="white"/>
<path d="M192.514 53.9857C192.126 54.296 191.738 54.6064 191.35 54.684C190.962 54.8392 190.574 54.9168 190.108 54.9168C189.41 54.9168 188.867 54.7616 188.479 54.3736C188.091 53.9857 187.936 53.5977 187.936 53.0545C187.936 52.7441 188.013 52.4338 188.168 52.201C188.324 51.9682 188.479 51.7354 188.711 51.5802C188.944 51.425 189.177 51.2698 189.487 51.1922C189.72 51.1146 190.031 51.1146 190.496 51.037C191.35 50.9594 192.048 50.8043 192.436 50.6491C192.436 50.4939 192.436 50.4163 192.436 50.3387C192.436 49.8731 192.358 49.5627 192.126 49.4075C191.815 49.1748 191.427 49.0196 190.884 49.0196C190.341 49.0196 189.953 49.0972 189.72 49.3299C189.487 49.4851 189.255 49.7955 189.177 50.2611L188.091 50.1059C188.168 49.6403 188.324 49.2523 188.556 49.0196C188.789 48.7092 189.099 48.554 189.565 48.3988C189.953 48.2436 190.496 48.166 191.039 48.166C191.583 48.166 192.048 48.2436 192.358 48.3988C192.669 48.554 192.979 48.7092 193.134 48.8644C193.29 49.0972 193.445 49.3299 193.445 49.6403C193.445 49.7955 193.522 50.1835 193.522 50.6491V52.1234C193.522 53.1321 193.522 53.8305 193.6 54.0633C193.678 54.296 193.755 54.6064 193.91 54.8392H192.746C192.591 54.5288 192.514 54.296 192.514 53.9857ZM192.358 51.5026C191.971 51.6578 191.35 51.813 190.574 51.8906C190.108 51.9682 189.798 52.0458 189.643 52.1234C189.487 52.201 189.332 52.3562 189.177 52.5113C189.099 52.6665 189.022 52.8217 189.022 53.0545C189.022 53.3649 189.099 53.5977 189.332 53.7529C189.565 53.9857 189.875 54.0633 190.341 54.0633C190.729 54.0633 191.117 53.9857 191.505 53.7529C191.815 53.5977 192.048 53.2873 192.203 52.9769C192.358 52.7441 192.358 52.3562 192.358 51.8906V51.5026Z" fill="white"/>
<path d="M197.014 54.7621L194.531 48.2441H195.695L197.092 52.1239C197.247 52.5119 197.402 52.9775 197.48 53.443C197.557 53.1326 197.713 52.6671 197.868 52.2015L199.342 48.2441H200.506L198.023 54.7621H197.014Z" fill="white"/>
<path d="M205.938 52.667L207.102 52.8222C206.947 53.5205 206.559 53.9861 206.093 54.3741C205.627 54.7621 205.007 54.9173 204.231 54.9173C203.3 54.9173 202.524 54.6069 201.981 54.0637C201.437 53.4429 201.127 52.667 201.127 51.5807C201.127 50.4943 201.437 49.6408 201.981 49.02C202.524 48.3992 203.3 48.0889 204.153 48.0889C205.007 48.0889 205.705 48.3992 206.248 48.9424C206.791 49.5632 207.102 50.3391 207.102 51.4255C207.102 51.5031 207.102 51.5807 207.102 51.7358H202.291C202.368 52.4342 202.524 52.9774 202.912 53.3653C203.3 53.7533 203.765 53.9085 204.308 53.9085C204.696 53.9085 205.084 53.8309 205.317 53.5981C205.55 53.5205 205.783 53.1326 205.938 52.667ZM202.291 50.8823H205.938C205.86 50.3391 205.783 49.9512 205.55 49.6408C205.162 49.2528 204.774 49.02 204.153 49.02C203.61 49.02 203.222 49.1752 202.912 49.5632C202.524 49.8736 202.368 50.3391 202.291 50.8823Z" fill="white"/>
<path d="M212.301 54.7613V45.8379H213.465V54.8389H212.301V54.7613Z" fill="white"/>
<path d="M217.81 54.7618V46.8471H214.861V45.7607H222V46.8471H219.051V54.7618H217.81Z" fill="white"/>
<path fill-rule="evenodd" clip-rule="evenodd" d="M30.7284 9.44434C44.0747 9.44434 54.7829 20.2301 54.7829 33.5765C54.7829 46.9228 43.9971 57.7086 30.7284 57.7086C17.4596 57.7086 6.67383 46.9228 6.67383 33.5765C6.67383 20.2301 17.4596 9.44434 30.7284 9.44434Z" fill="#1D4367"/>
<path fill-rule="evenodd" clip-rule="evenodd" d="M30.7275 13.3242C41.9012 13.3242 50.9023 22.4029 50.9023 33.5766C50.9023 44.7503 41.9012 53.8289 30.7275 53.8289C19.6314 53.8289 10.5527 44.7503 10.5527 33.5766C10.5527 22.4029 19.5538 13.3242 30.7275 13.3242Z" fill="white"/>
<path fill-rule="evenodd" clip-rule="evenodd" d="M30.7273 13.9463C41.513 13.9463 50.2813 22.7146 50.2813 33.5779C50.2813 44.4412 41.513 53.2095 30.6497 53.2095C19.864 53.2095 11.0957 44.4412 11.0957 33.5779C11.1733 22.7146 19.864 13.9463 30.7273 13.9463Z" fill="#F26924"/>
<path fill-rule="evenodd" clip-rule="evenodd" d="M4.65625 12.86L11.1743 19.5332L12.7262 17.5157L6.20816 11.2305L4.65625 12.86Z" fill="#1D4367"/>
<path fill-rule="evenodd" clip-rule="evenodd" d="M11.4844 7.42744L16.916 13.8678L18.9335 12.5487L13.1139 5.95312L11.4844 7.42744Z" fill="#1D4367"/>
<path fill-rule="evenodd" clip-rule="evenodd" d="M2.87102 7.11816C4.42293 7.11816 5.66445 8.35969 5.66445 9.98919C5.66445 11.6187 4.42293 12.9378 2.87102 12.9378C1.24152 12.9378 0 11.6963 0 9.98919C0 8.35969 1.31912 7.11816 2.87102 7.11816Z" fill="#F26924"/>
<path fill-rule="evenodd" clip-rule="evenodd" d="M11.2505 61.124C12.88 61.124 14.1215 62.4431 14.1215 64.0726C14.1215 65.7021 12.88 67.0213 11.2505 67.0213C9.69856 67.0213 8.45703 65.7021 8.45703 64.0726C8.45703 62.4431 9.69856 61.124 11.2505 61.124Z" fill="#F26924"/>
<path fill-rule="evenodd" clip-rule="evenodd" d="M22.9692 66.8652C24.5987 66.8652 25.8402 68.1068 25.8402 69.8139C25.8402 71.4434 24.5987 72.6849 22.9692 72.6849C21.4173 72.6849 20.1758 71.4434 20.1758 69.8139C20.1758 68.1068 21.4173 66.8652 22.9692 66.8652Z" fill="#F26924"/>
<path fill-rule="evenodd" clip-rule="evenodd" d="M35.539 65.9346C37.0909 65.9346 38.3324 67.2537 38.3324 68.8832C38.3324 70.5127 37.0909 71.8318 35.539 71.8318C33.9095 71.8318 32.668 70.5127 32.668 68.8832C32.668 67.2537 33.9095 65.9346 35.539 65.9346Z" fill="#F26924"/>
<path fill-rule="evenodd" clip-rule="evenodd" d="M10.0878 1.29688C11.6397 1.29688 12.8812 2.61599 12.8812 4.24549C12.8812 5.87499 11.6397 7.19411 10.0878 7.19411C8.53592 7.19411 7.2168 5.87499 7.2168 4.24549C7.2168 2.61599 8.53592 1.29688 10.0878 1.29688Z" fill="#F26924"/>
<path fill-rule="evenodd" clip-rule="evenodd" d="M12.6484 60.6577L18.3129 54.2949L20.4856 55.3813L14.1227 62.3648L12.6484 60.6577Z" fill="#1D4367"/>
<path fill-rule="evenodd" clip-rule="evenodd" d="M26.3055 57.3213L23.2793 66.2447L25.6847 66.9431L28.711 57.6317L26.3055 57.3213Z" fill="#1D4367"/>
<path fill-rule="evenodd" clip-rule="evenodd" d="M35.771 57.1667L34.8398 65.6245L37.0125 65.9349L38.0988 56.5459L35.771 57.1667Z" fill="#1D4367"/>
<path d="M23.046 6.18557L25.0635 5.7976C25.1411 6.10798 25.2963 6.41836 25.4515 6.57355C25.6843 6.80634 26.0722 6.96153 26.4602 6.88393C26.7706 6.80634 27.0034 6.72874 27.1586 6.57355C27.3138 6.41836 27.3914 6.26317 27.3138 6.03038C27.3138 5.87519 27.2362 5.72 27.081 5.56481C26.8482 5.40962 26.4602 5.33203 25.9171 5.25443C24.9083 5.09924 24.21 4.94405 23.822 4.63367C23.3564 4.32329 23.1236 3.85772 23.046 3.31455C22.9684 3.00417 23.1236 2.61619 23.2788 2.22822C23.434 1.91784 23.7444 1.60745 24.1324 1.37467C24.5203 1.14188 25.1411 0.986692 25.8395 0.909097C26.693 0.831502 27.3914 0.909097 27.9345 1.21948C28.4777 1.52986 28.7881 1.99543 28.9433 2.77138L26.9258 3.08176C26.8482 2.77138 26.693 2.5386 26.5378 2.38341C26.3826 2.22822 26.1498 2.22822 25.8395 2.22822C25.6067 2.22822 25.3739 2.30581 25.2963 2.461C25.1411 2.61619 25.1411 2.69379 25.1411 2.84898C25.1411 2.92657 25.2187 3.08176 25.3739 3.15936C25.4515 3.23695 25.6843 3.31455 26.0722 3.31455C27.081 3.39214 27.7793 3.54734 28.1673 3.70253C28.5553 3.85772 28.9433 4.0905 29.1761 4.40088C29.1761 4.86645 29.3312 5.17684 29.3312 5.56481C29.4088 6.03038 29.3312 6.41836 29.0985 6.80634C28.8657 7.19431 28.5553 7.50469 28.0897 7.81507C27.7017 8.04786 27.081 8.20305 26.4602 8.28065C25.2963 8.43584 24.4427 8.28065 23.8996 7.89267C23.5116 7.4271 23.1236 6.88393 23.046 6.18557ZM30.1848 0.753906L32.3575 0.831501L32.2023 7.89267L30.0296 7.81507L30.1848 0.753906ZM34.0646 0.831501L36.1596 1.14188L35.4613 6.41836L38.7979 6.88393L38.5651 8.59103L33.0558 7.81507L34.0646 0.831501ZM40.9705 2.15062L43.0656 2.84898L40.8929 9.59976L38.7979 8.90141L40.9705 2.15062ZM47.2557 9.52217L48.6525 10.9189C48.2645 11.3069 47.8765 11.6172 47.4885 11.7724C47.1006 11.9276 46.635 12.0052 46.247 12.0052C45.7814 11.9276 45.2383 11.7724 44.6951 11.4621C43.9967 11.0741 43.5312 10.6861 43.2208 10.2205C42.9104 9.83255 42.6776 9.21179 42.6776 8.59103C42.6 7.89267 42.8328 7.27191 43.2208 6.41836C43.8416 5.40962 44.5399 4.78886 45.3935 4.55607C46.247 4.32329 47.1006 4.47848 48.1093 5.02165C48.8852 5.40962 49.4284 5.95279 49.6612 6.49595C49.894 7.03912 49.9716 7.73748 49.8164 8.51343L47.9541 7.97026C48.0317 7.73748 48.0317 7.58229 48.0317 7.4271C47.9541 7.19431 47.9541 7.03912 47.7989 6.88393C47.6437 6.72874 47.5661 6.57355 47.3333 6.49595C46.9454 6.26317 46.4798 6.26317 46.0918 6.49595C45.7814 6.65114 45.4711 7.03912 45.1607 7.58229C44.7727 8.28065 44.6175 8.82381 44.6951 9.21179C44.7727 9.52217 44.9279 9.83255 45.3159 10.0653C45.7038 10.2981 46.0142 10.2981 46.3246 10.2205C46.635 10.0653 46.9454 9.83255 47.2557 9.52217ZM50.0492 10.6861C50.9027 9.91015 51.7563 9.52217 52.6874 9.52217C53.541 9.59976 54.3945 9.98774 55.2481 10.8413C56.024 11.6948 56.412 12.5484 56.412 13.4795C56.412 14.3331 55.9464 15.1866 55.1705 15.9626C54.5497 16.5833 53.9289 16.8937 53.3858 17.0489C52.765 17.2041 52.2218 17.2041 51.6787 16.9713C51.0579 16.8161 50.5147 16.4281 50.0492 15.8074C49.506 15.1866 49.118 14.6435 48.9628 14.1003C48.8077 13.5571 48.8077 12.9364 49.0404 12.3156C49.0404 11.85 49.4284 11.2293 50.0492 10.6861ZM51.5235 12.3156C50.9803 12.7812 50.7475 13.2467 50.6699 13.6347C50.5923 14.0227 50.7475 14.4107 51.0579 14.7986C51.3683 15.109 51.7563 15.2642 52.1443 15.2642C52.5322 15.1866 52.9978 14.9538 53.6186 14.4107C54.1617 13.9451 54.3945 13.5571 54.3945 13.1691C54.4721 12.7036 54.3169 12.3932 54.0065 12.0052C53.6962 11.6948 53.3858 11.5396 52.9202 11.6172C52.5322 11.5396 52.0667 11.85 51.5235 12.3156ZM58.9726 15.885L59.8262 17.7473L57.4983 21.8598L60.9901 20.1527L61.8437 22.015L55.4808 25.1188L54.5497 23.2565L56.8776 19.2216L53.3858 20.9287L52.6874 18.9888L58.9726 15.885ZM63.0076 42.4226L62.154 44.44L59.9038 43.4313L58.9726 45.604L61.2229 46.6127L60.3694 48.6302L53.8513 45.9143L54.7049 43.8969L57.3431 44.9832L58.2743 42.8105L55.636 41.7242L56.4896 39.7067L63.0076 42.4226ZM56.3344 54.3722L55.0153 56.0793L51.6787 53.4411C51.3683 53.2083 51.0579 52.8979 50.9027 52.5875C50.6699 52.2772 50.5923 51.8892 50.5148 51.5012C50.4372 51.1132 50.4372 50.7253 50.5923 50.4149C50.7475 50.0269 50.9803 49.5613 51.3683 49.0957C51.6011 48.863 51.8339 48.5526 52.1443 48.2422C52.4546 47.9318 52.6874 47.7766 52.9978 47.6214C53.3082 47.4662 53.6186 47.3887 53.9289 47.3887C54.3169 47.3111 54.6273 47.3887 54.8601 47.5438C55.3257 47.699 55.636 47.8542 55.9464 48.087L59.2054 50.7253L57.8863 52.4323L54.4721 49.7941C54.1617 49.5613 53.8513 49.4837 53.6186 49.4837C53.3082 49.5613 52.9978 49.7165 52.8426 50.0269C52.6098 50.3373 52.5322 50.6477 52.5322 50.8804C52.6098 51.1908 52.765 51.5012 53.0754 51.6564L56.3344 54.3722ZM53.3082 57.864L50.1268 60.4247C49.5836 60.8902 49.0404 61.0454 48.5749 61.0454C48.1093 61.0454 47.7213 60.8126 47.4109 60.4247C47.1782 60.1143 47.023 59.7263 47.023 59.3383C47.023 59.1055 47.1006 58.7952 47.3333 58.4848C46.8678 58.7176 46.4798 58.7952 46.0918 58.7176C45.7038 58.64 45.3935 58.4072 45.0831 58.0968C44.8503 57.7864 44.6951 57.476 44.6951 57.1657C44.6175 56.8553 44.6175 56.4673 44.7727 56.1569C44.8503 55.9241 45.0055 55.6913 45.3159 55.4586C45.6262 55.1482 45.859 54.8378 46.0142 54.7602L48.9628 52.3547L53.3082 57.864ZM49.894 57.0105L49.1956 57.6312C48.8853 57.864 48.8077 58.0192 48.7301 58.1744C48.7301 58.4072 48.8077 58.5624 48.8852 58.7176C49.0404 58.8727 49.1956 58.9503 49.3508 58.9503C49.506 58.9503 49.7388 58.7952 49.9716 58.64L50.7475 58.0192L49.894 57.0105ZM48.1869 54.9154L47.3333 55.6137C47.023 55.8465 46.8678 56.0793 46.8678 56.2345C46.7902 56.4673 46.8678 56.6225 47.023 56.8553C47.1782 57.0105 47.3333 57.0881 47.5661 57.0881C47.7989 57.0881 48.0317 56.9329 48.3421 56.7001L49.1956 56.0017L48.1869 54.9154Z" fill="white"/>
<path d="M63.2405 26.2842L63.8613 28.3792L57.0329 30.1639L56.4121 28.0689L63.2405 26.2842ZM64.482 30.6295L64.2492 37.2251L62.4645 37.1475L62.5421 34.8973L57.2657 34.8197L57.3433 32.647L62.6973 32.8798L62.7749 30.6295H64.482Z" fill="white"/>
<path d="M24.7529 23.334H18.3125V44.0519H24.7529V23.334Z" fill="white"/>
<path d="M25.9941 23.334H45.4705V28.3777H38.9525V43.9743H32.5121V28.3777H25.9941V23.334Z" fill="white"/>
<path fill-rule="evenodd" clip-rule="evenodd" d="M30.7284 9.44434C44.0747 9.44434 54.7829 20.2301 54.7829 33.5765C54.7829 46.9228 43.9971 57.7086 30.7284 57.7086C17.4596 57.7086 6.67383 46.9228 6.67383 33.5765C6.67383 20.2301 17.4596 9.44434 30.7284 9.44434Z" fill="#1D4367"/>
<path fill-rule="evenodd" clip-rule="evenodd" d="M30.7275 13.3242C41.9012 13.3242 50.9023 22.4029 50.9023 33.5766C50.9023 44.7503 41.9012 53.8289 30.7275 53.8289C19.6314 53.8289 10.5527 44.7503 10.5527 33.5766C10.5527 22.4029 19.5538 13.3242 30.7275 13.3242Z" fill="white"/>
<path fill-rule="evenodd" clip-rule="evenodd" d="M30.7273 13.9463C41.513 13.9463 50.2813 22.7146 50.2813 33.5779C50.2813 44.4412 41.513 53.2095 30.6497 53.2095C19.864 53.2095 11.0957 44.4412 11.0957 33.5779C11.1733 22.7146 19.864 13.9463 30.7273 13.9463Z" fill="#F26924"/>
<path d="M30.7273 54.1401C19.476 54.1401 10.2422 44.9063 10.2422 33.5774C10.2422 22.2485 19.3984 13.0146 30.7273 13.0146C42.0562 13.0146 51.2125 22.2485 51.2125 33.5774C51.2125 44.9063 41.9786 54.1401 30.7273 54.1401ZM30.7273 14.7993C20.4848 14.7993 12.1045 23.1796 12.1045 33.4998C12.1045 43.82 20.4848 52.2002 30.7273 52.2002C41.0475 52.2002 49.4278 43.82 49.4278 33.4998C49.3502 23.2572 40.9699 14.7993 30.7273 14.7993Z" fill="white"/>
<path fill-rule="evenodd" clip-rule="evenodd" d="M4.65625 12.86L11.1743 19.5332L12.7262 17.5157L6.20816 11.2305L4.65625 12.86Z" fill="#1D4367"/>
<path fill-rule="evenodd" clip-rule="evenodd" d="M11.4844 7.42744L16.916 13.8678L18.9335 12.5487L13.1139 5.95312L11.4844 7.42744Z" fill="#1D4367"/>
<path fill-rule="evenodd" clip-rule="evenodd" d="M2.87102 7.11816C4.42293 7.11816 5.66445 8.35969 5.66445 9.98919C5.66445 11.6187 4.42293 12.9378 2.87102 12.9378C1.24152 12.9378 0 11.6963 0 9.98919C0 8.35969 1.31912 7.11816 2.87102 7.11816Z" fill="#F26924"/>
<path fill-rule="evenodd" clip-rule="evenodd" d="M11.2505 61.124C12.88 61.124 14.1215 62.4431 14.1215 64.0726C14.1215 65.7021 12.88 67.0213 11.2505 67.0213C9.69856 67.0213 8.45703 65.7021 8.45703 64.0726C8.45703 62.4431 9.69856 61.124 11.2505 61.124Z" fill="#F26924"/>
<path fill-rule="evenodd" clip-rule="evenodd" d="M22.9692 66.8652C24.5987 66.8652 25.8402 68.1068 25.8402 69.8139C25.8402 71.4434 24.5987 72.6849 22.9692 72.6849C21.4173 72.6849 20.1758 71.4434 20.1758 69.8139C20.1758 68.1068 21.4173 66.8652 22.9692 66.8652Z" fill="#F26924"/>
<path fill-rule="evenodd" clip-rule="evenodd" d="M35.539 65.9346C37.0909 65.9346 38.3324 67.2537 38.3324 68.8832C38.3324 70.5127 37.0909 71.8318 35.539 71.8318C33.9095 71.8318 32.668 70.5127 32.668 68.8832C32.668 67.2537 33.9095 65.9346 35.539 65.9346Z" fill="#F26924"/>
<path fill-rule="evenodd" clip-rule="evenodd" d="M10.0878 1.29688C11.6397 1.29688 12.8812 2.61599 12.8812 4.24549C12.8812 5.87499 11.6397 7.19411 10.0878 7.19411C8.53592 7.19411 7.2168 5.87499 7.2168 4.24549C7.2168 2.61599 8.53592 1.29688 10.0878 1.29688Z" fill="#F26924"/>
<path fill-rule="evenodd" clip-rule="evenodd" d="M12.6484 60.6587L18.3129 54.2959L20.4856 55.3822L14.1227 62.3658L12.6484 60.6587Z" fill="#1D4367"/>
<path fill-rule="evenodd" clip-rule="evenodd" d="M26.3055 57.3213L23.2793 66.2447L25.6847 66.9431L28.711 57.6317L26.3055 57.3213Z" fill="#1D4367"/>
<path fill-rule="evenodd" clip-rule="evenodd" d="M35.771 57.1676L34.8398 65.6255L37.0125 65.9359L38.0988 56.5469L35.771 57.1676Z" fill="#1D4367"/>
<path d="M24.7529 23.334H18.3125V44.0519H24.7529V23.334Z" fill="white"/>
<path d="M25.9941 23.334H45.4705V28.3777H38.9525V43.9743H32.5121V28.3777H25.9941V23.334Z" fill="white"/>
</svg>
