<?xml version="1.0" encoding="utf-8"?>
<!-- Generator: Adobe Illustrator 23.0.0, SVG Export Plug-In . SVG Version: 6.00 Build 0)  -->
<svg version="1.1" id="Layer_1" xmlns="http://www.w3.org/2000/svg" xmlns:xlink="http://www.w3.org/1999/xlink" x="0px" y="0px"
	 viewBox="0 0 763.65 763.66" style="enable-background:new 0 0 763.65 763.66;" xml:space="preserve">
<style type="text/css">
	.st0{fill:#000;}
</style>
<path class="st0" d="M763.65,381.8c0,211.07-170.96,381.94-382.04,381.86C170.61,763.57-0.09,592.57,0,381.36
	C0.09,170.53,171.31-0.15,382.55,0C592.89,0.15,763.66,171.23,763.65,381.8z M381.61,717.53C566.45,717.76,716.76,568,717.2,383.17
	c0.44-186.22-149.12-336.73-334.9-337.03C196.97,45.84,46.8,195.68,46.45,381.24C46.09,566.97,195.92,717.3,381.61,717.53z"/>
<path class="st0" d="M349.09,381.71c-32.1-32.09-63.81-63.77-95.51-95.47c-12.61-12.61-24.83-25.64-37.93-37.71
	c-12.72-11.72-10.55-27.35-2.41-35.42c7.85-7.78,22.94-10.09,35.45,2.63c42.89,43.6,86.36,86.63,129.61,129.88
	c1.05,1.05,2.14,2.05,4.61,4.41c1.35-2.02,2.37-4.22,3.98-5.83c43.08-43.18,86.25-86.26,129.31-129.46
	c7.11-7.14,15.23-10.19,24.93-7.15c16.83,5.27,21.53,25.92,8.81,38.74c-21,21.19-42.16,42.21-63.25,63.31
	c-23.1,23.1-46.19,46.19-69.29,69.29c-0.82,0.82-1.6,1.67-2.65,2.77c1.02,1.14,1.93,2.27,2.94,3.29
	c43.66,43.78,87.29,87.58,131.02,131.29c7.28,7.28,10.2,15.6,6.9,25.44c-5.49,16.35-25.63,20.81-38.21,8.4
	c-19.1-18.84-37.99-37.9-56.96-56.88c-24.98-24.98-49.96-49.97-74.95-74.95c-1.16-1.16-2.39-2.26-3.8-3.6
	c-1.44,1.36-2.77,2.56-4.03,3.82c-43.61,43.6-87.19,87.22-130.82,130.8c-12.61,12.6-31.73,9.56-38.52-6.03
	c-3.96-9.09-1.87-18.74,5.88-26.5c29.21-29.24,58.45-58.44,87.67-87.67c14.73-14.73,29.46-29.46,44.18-44.2
	C346.97,384,347.84,383.03,349.09,381.71z"/>
</svg>
