<svg width="17" height="19" viewBox="0 0 17 19" fill="none" xmlns="http://www.w3.org/2000/svg">
<path d="M10 7H9V6C9 5.4 8.6 5 8 5C7.4 5 7 5.4 7 6V7H6C5.4 7 5 7.4 5 8C5 8.6 5.4 9 6 9H7V10C7 10.6 7.4 11 8 11C8.6 11 9 10.6 9 10V9H10C10.6 9 11 8.6 11 8C11 7.4 10.6 7 10 7Z" fill="#E92026"/>
<path d="M15 0H14H2H1C0.4 0 0 0.4 0 1C0 1.6 0.4 2 1 2V16.1C1 16.8 1.4 17.5 2.1 17.9C2.4 18.1 2.7 18.1 3 18.1C3.4 18.1 3.8 18 4.1 17.8L8 15.2L11.9 17.8C12.5 18.2 13.3 18.3 14 17.9C14.7 17.6 15.1 16.9 15.1 16.1V2C15.7 2 16.1 1.6 16.1 1C16.1 0.4 15.6 0 15 0ZM13 16.1L9.1 13.5C8.8 13.3 8.4 13.2 8 13.2C7.6 13.2 7.2 13.3 6.9 13.5L3 16.1V2H13V16.1Z" fill="#E92026"/>
</svg>
