<svg width="18" height="18" viewBox="0 0 18 18" fill="none" xmlns="http://www.w3.org/2000/svg">
<path d="M16.5749 4.81676C15.8665 4.03343 14.6915 3.64176 12.9665 3.64176H12.7665V3.60843C12.7665 2.20843 12.7665 0.475098 9.6332 0.475098H8.36653C5.2332 0.475098 5.2332 2.20843 5.2332 3.60843V3.64176H5.0332C3.3082 3.64176 2.12487 4.03343 1.42487 4.81676C0.59987 5.74176 0.62487 6.96676 0.7082 7.80843L0.71654 7.86677L0.77062 8.49774C0.78381 8.65168 0.86731 8.79105 0.9971 8.8749C1.22344 9.0211 1.46235 9.1728 1.69154 9.3001C1.8082 9.3751 1.9332 9.4418 2.0582 9.5084C2.99987 10.0251 4.0082 10.4334 5.04153 10.7168C5.06653 12.8751 6.8332 14.6251 8.99987 14.6251C11.1832 14.6251 12.9582 12.8501 12.9582 10.6668V10.6334C14.0082 10.3168 15.0165 9.8751 15.9582 9.3251C16.0082 9.3001 16.0415 9.2751 16.0832 9.2501C16.4014 9.0772 16.731 8.85261 17.034 8.6383C17.1504 8.556 17.2253 8.4274 17.2407 8.28569L17.2915 7.81676C17.2999 7.76676 17.2999 7.7251 17.3082 7.66676C17.3749 6.83343 17.3582 5.68343 16.5749 4.81676ZM6.42487 3.60843C6.42487 2.19176 6.42487 1.65843 8.36653 1.65843H9.6332C11.5749 1.65843 11.5749 2.19176 11.5749 3.60843V3.64176H6.42487V3.60843ZM8.99987 13.3751C7.62487 13.3751 6.4832 12.3418 6.31653 11.0084C6.29987 10.9001 6.29153 10.7834 6.29153 10.6668C6.29153 9.1751 7.5082 7.95843 8.99987 7.95843C10.4915 7.95843 11.7082 9.1751 11.7082 10.6668C11.7082 10.7668 11.6999 10.8584 11.6915 10.9501V10.9584C11.5415 12.3168 10.3915 13.3751 8.99987 13.3751Z" fill="#FD6065"/>
<path d="M8.52507 12.3583C8.36673 12.3583 8.2084 12.3 8.0834 12.175L7.2584 11.3583C7.01673 11.1166 7.01673 10.7166 7.2584 10.475C7.50007 10.2333 7.90007 10.2333 8.14173 10.475L8.54173 10.875L9.8834 9.64159C10.1334 9.40829 10.5334 9.42499 10.7667 9.67499C11.0001 9.92499 10.9834 10.325 10.7334 10.5583L8.9584 12.2C8.82507 12.3 8.67507 12.3583 8.52507 12.3583Z" fill="#FD6065"/>
<path d="M16.5347 10.4426C16.7419 10.3274 17.0108 10.4943 16.9892 10.7304L16.693 13.9676C16.518 15.6342 15.8347 17.3342 12.168 17.3342H5.81798C2.15131 17.3342 1.46798 15.6342 1.30131 13.9759L1.01309 10.8898C0.990709 10.6502 1.24696 10.4883 1.45964 10.6009C2.10964 10.9592 2.78464 11.2759 3.47631 11.5259C3.73464 11.6176 3.91798 11.8342 3.99298 12.1009C4.61798 14.2676 6.63464 15.8759 9.00127 15.8759C11.4097 15.8759 13.443 14.2342 14.0347 11.9842C14.1013 11.7176 14.2847 11.5009 14.543 11.4009C15.243 11.1259 15.9097 10.8009 16.5347 10.4426Z" fill="#FD6065"/>
</svg>
