<svg width="21" height="22" viewBox="0 0 21 22" fill="none" xmlns="http://www.w3.org/2000/svg">
<path d="M15.25 21.5002C16.2165 21.5002 17 20.7167 17 19.7502C17 18.7837 16.2165 18.0002 15.25 18.0002C14.2835 18.0002 13.5 18.7837 13.5 19.7502C13.5 20.7167 14.2835 21.5002 15.25 21.5002Z" fill="#D3D5DA"/>
<path d="M7.25 21.5002C8.2165 21.5002 9 20.7167 9 19.7502C9 18.7837 8.2165 18.0002 7.25 18.0002C6.2835 18.0002 5.5 18.7837 5.5 19.7502C5.5 20.7167 6.2835 21.5002 7.25 21.5002Z" fill="#D3D5DA"/>
<path d="M3.84 2.94024L3.64 5.39024C3.6 5.86024 3.97 6.25024 4.44 6.25024H19.75C20.17 6.25024 20.52 5.93024 20.55 5.51024C20.68 3.74024 19.33 2.30024 17.56 2.30024H5.27C5.17 1.86024 4.97 1.44024 4.66 1.09024C4.16 0.560244 3.46 0.250244 2.74 0.250244H1C0.59 0.250244 0.25 0.590244 0.25 1.00024C0.25 1.41024 0.59 1.75024 1 1.75024H2.74C3.05 1.75024 3.34 1.88024 3.55 2.10024C3.76 2.33024 3.86 2.63024 3.84 2.94024Z" fill="#D3D5DA"/>
<path d="M19.5101 7.75024H4.17005C3.75005 7.75024 3.41005 8.07024 3.37005 8.48024L3.01005 12.8302C2.87005 14.5402 4.21005 16.0002 5.92005 16.0002H17.0401C18.5401 16.0002 19.8601 14.7702 19.9701 13.2702L20.3001 8.60024C20.3401 8.14024 19.9801 7.75024 19.5101 7.75024Z" fill="#D3D5DA"/>
</svg>
