<svg width="20" height="20" viewBox="0 0 20 20" fill="none" xmlns="http://www.w3.org/2000/svg">
<path d="M19.9989 10.8595C19.9989 13.1495 18.8189 15.1795 16.9989 16.4595L15.6589 19.4095C15.3489 20.0795 14.4489 20.2095 13.9789 19.6395L12.4989 17.8595C10.6389 17.8595 8.92891 17.2295 7.62891 16.1795L8.22891 15.4695C12.8489 15.1195 16.4989 11.4595 16.4989 6.99953C16.4989 6.23953 16.3889 5.48953 16.1889 4.76953C18.4589 5.96953 19.9989 8.24953 19.9989 10.8595Z" fill="#D3D5DA"/>
<path d="M14.3 4.07C13.13 1.67 10.52 0 7.5 0C3.36 0 0 3.13 0 7C0 9.29 1.18 11.32 3 12.6L4.34 15.55C4.65 16.22 5.55 16.34 6.02 15.78L6.57 15.12L7.5 14C11.64 14 15 10.87 15 7C15 5.95 14.75 4.96 14.3 4.07ZM10 7.75H5C4.59 7.75 4.25 7.41 4.25 7C4.25 6.59 4.59 6.25 5 6.25H10C10.41 6.25 10.75 6.59 10.75 7C10.75 7.41 10.41 7.75 10 7.75Z" fill="#D3D5DA"/>
</svg>
