<svg width="17" height="18" viewBox="0 0 17 18" fill="none" xmlns="http://www.w3.org/2000/svg">
<path d="M16.1053 7.371H13.5195C11.3989 7.371 9.67211 5.634 9.67211 3.501V0.9C9.67211 0.405 9.26947 0 8.77737 0H4.98368C2.22789 0 0 1.8 0 5.013V12.987C0 16.2 2.22789 18 4.98368 18H12.0163C14.7721 18 17 16.2 17 12.987V8.271C17 7.776 16.5974 7.371 16.1053 7.371ZM8.05263 14.175H4.47368C4.10684 14.175 3.80263 13.869 3.80263 13.5C3.80263 13.131 4.10684 12.825 4.47368 12.825H8.05263C8.41947 12.825 8.72368 13.131 8.72368 13.5C8.72368 13.869 8.41947 14.175 8.05263 14.175ZM9.8421 10.575H4.47368C4.10684 10.575 3.80263 10.269 3.80263 9.9C3.80263 9.531 4.10684 9.225 4.47368 9.225H9.8421C10.2089 9.225 10.5132 9.531 10.5132 9.9C10.5132 10.269 10.2089 10.575 9.8421 10.575Z" fill="white"/>
<path d="M16.3077 2.30769H14.6923V0.692308C14.6923 0.313846 14.3785 0 14 0C13.6215 0 13.3077 0.313846 13.3077 0.692308V2.30769H11.6923C11.3138 2.30769 11 2.62154 11 3C11 3.37846 11.3138 3.69231 11.6923 3.69231H13.3077V5.30769C13.3077 5.68615 13.6215 6 14 6C14.3785 6 14.6923 5.68615 14.6923 5.30769V3.69231H16.3077C16.6862 3.69231 17 3.37846 17 3C17 2.62154 16.6862 2.30769 16.3077 2.30769Z" fill="white"/>
</svg>
