<svg width="20" height="20" viewBox="0 0 20 20" fill="none" xmlns="http://www.w3.org/2000/svg">
<path fill-rule="evenodd" clip-rule="evenodd" d="M7.76668 0.760018C9.01527 -0.259981 10.9815 -0.249981 12.24 0.770018L18.6795 6.01001C19.584 6.76001 20.1444 8.26001 19.9674 9.43001L18.7287 16.97C18.4436 18.64 16.8705 20 15.209 20H4.78777C3.1066 20 1.56308 18.67 1.27797 16.98L0.0392123 9.44001C-0.157415 8.26001 0.402974 6.76001 1.32712 6.01001L7.76668 0.760018ZM10 16C11.1046 16 12 15.1046 12 14C12 12.8954 11.1046 12 10 12C8.89543 12 8 12.8954 8 14C8 15.1046 8.89543 16 10 16Z" fill="#E92026"/>
</svg>
