<svg width="16" height="18" viewBox="0 0 16 18" fill="none" xmlns="http://www.w3.org/2000/svg">
<path d="M15.1834 6.04183C14.3084 2.19183 10.9501 0.458496 8.00008 0.458496C8.00008 0.458496 8.00008 0.458496 7.99175 0.458496C5.05008 0.458496 1.68341 2.1835 0.808413 6.0335C-0.166587 10.3335 2.46675 13.9752 4.85008 16.2668C5.73341 17.1168 6.86675 17.5418 8.00008 17.5418C9.13341 17.5418 10.2667 17.1168 11.1417 16.2668C13.5251 13.9752 16.1584 10.3418 15.1834 6.04183ZM8.00008 10.2168C6.55008 10.2168 5.37508 9.04183 5.37508 7.59183C5.37508 6.14183 6.55008 4.96683 8.00008 4.96683C9.45008 4.96683 10.6251 6.14183 10.6251 7.59183C10.6251 9.04183 9.45008 10.2168 8.00008 10.2168Z" fill="#FD6065"/>
</svg>
