<svg width="18" height="20" viewBox="0 0 18 20" fill="none" xmlns="http://www.w3.org/2000/svg">
<path fill-rule="evenodd" clip-rule="evenodd" d="M3.0001 9.20066V6.80066C3.0001 3.48695 5.68639 0.800659 9.0001 0.800659C12.3138 0.800659 15.0001 3.48695 15.0001 6.80066V9.20066C16.3256 9.20066 17.4001 10.2752 17.4001 11.6007V17.6007C17.4001 18.9261 16.3256 20.0007 15.0001 20.0007H3.0001C1.67461 20.0007 0.600098 18.9261 0.600098 17.6007V11.6007C0.600098 10.2752 1.67461 9.20066 3.0001 9.20066ZM12.6001 6.80066V9.20066H5.4001V6.80066C5.4001 4.81243 7.01187 3.20066 9.0001 3.20066C10.9883 3.20066 12.6001 4.81243 12.6001 6.80066Z" fill="black"/>
</svg>
