<svg width="19" height="19" viewBox="0 0 19 19" fill="none" xmlns="http://www.w3.org/2000/svg">
<path d="M15.281 0H13.5393C11.541 0 10.4868 1.05417 10.4868 3.0525V4.79417C10.4868 6.7925 11.541 7.84667 13.5393 7.84667H15.281C17.2793 7.84667 18.3335 6.7925 18.3335 4.79417V3.0525C18.3335 1.05417 17.2793 0 15.281 0Z" fill="black"/>
<path d="M4.80333 10.4775H3.06167C1.05417 10.4775 0 11.5317 0 13.53V15.2717C0 17.2792 1.05417 18.3334 3.0525 18.3334H4.79417C6.7925 18.3334 7.84667 17.2792 7.84667 15.2809V13.5392C7.85583 11.5317 6.80167 10.4775 4.80333 10.4775Z" fill="black"/>
<path d="M3.9325 7.865C6.10436 7.865 7.865 6.10436 7.865 3.9325C7.865 1.76064 6.10436 0 3.9325 0C1.76064 0 0 1.76064 0 3.9325C0 6.10436 1.76064 7.865 3.9325 7.865Z" fill="black"/>
<path d="M14.4008 18.3334C16.5726 18.3334 18.3333 16.5727 18.3333 14.4009C18.3333 12.229 16.5726 10.4684 14.4008 10.4684C12.2289 10.4684 10.4683 12.229 10.4683 14.4009C10.4683 16.5727 12.2289 18.3334 14.4008 18.3334Z" fill="black"/>
</svg>
