<svg width="14" height="18" viewBox="0 0 14 18" fill="none" xmlns="http://www.w3.org/2000/svg">
<path d="M12.9334 6.60001C12.6084 6.60001 12.3501 6.85834 12.3501 7.18334V8.50001C12.3501 11.45 9.95006 13.85 7.00007 13.85C4.05007 13.85 1.65007 11.45 1.65007 8.50001V7.17501C1.65007 6.85001 1.39173 6.59167 1.06673 6.59167C0.741732 6.59167 0.483398 6.85001 0.483398 7.17501V8.49168C0.483398 11.8833 3.09173 14.675 6.41673 14.975V16.75C6.41673 17.075 6.67507 17.3333 7.00007 17.3333C7.32507 17.3333 7.5834 17.075 7.5834 16.75V14.975C10.9001 14.6833 13.5167 11.8833 13.5167 8.49168V7.17501C13.5084 6.85834 13.2501 6.60001 12.9334 6.60001Z" fill="black"/>
<path d="M7.00023 0.666626C4.96689 0.666626 3.31689 2.31663 3.31689 4.34996V8.61663C3.31689 10.65 4.96689 12.3 7.00023 12.3C9.03356 12.3 10.6836 10.65 10.6836 8.61663V4.34996C10.6836 2.31663 9.03356 0.666626 7.00023 0.666626ZM8.09189 6.45829C8.03356 6.67496 7.84189 6.81663 7.62523 6.81663C7.58356 6.81663 7.54189 6.80829 7.50023 6.79996C7.17523 6.70829 6.83356 6.70829 6.50856 6.79996C6.24189 6.87496 5.98356 6.71663 5.91689 6.45829C5.84189 6.19996 6.00023 5.93329 6.25856 5.86663C6.75023 5.73329 7.26689 5.73329 7.75856 5.86663C8.00856 5.93329 8.15856 6.19996 8.09189 6.45829ZM8.53356 4.84163C8.45856 5.04163 8.27523 5.15829 8.07523 5.15829C8.01689 5.15829 7.96689 5.14996 7.90856 5.13329C7.32523 4.91663 6.67523 4.91663 6.09189 5.13329C5.84189 5.22496 5.55856 5.09163 5.46689 4.84163C5.37523 4.59163 5.50856 4.30829 5.75856 4.22496C6.55856 3.93329 7.44189 3.93329 8.24189 4.22496C8.49189 4.31663 8.62523 4.59163 8.53356 4.84163Z" fill="black"/>
</svg>
