<svg width="18" height="20" viewBox="0 0 18 20" fill="none" xmlns="http://www.w3.org/2000/svg">
<circle cx="9" cy="10" r="6" fill="#D3D5DA"/>
<path d="M17.9098 9.1125V4.7225C17.9098 3.9025 17.2898 2.9725 16.5198 2.6625L10.9498 0.3825C9.69984 -0.1275 8.28984 -0.1275 7.03984 0.3825L1.46984 2.6625C0.709844 2.9725 0.0898438 3.9025 0.0898438 4.7225V9.1125C0.0898438 14.0025 3.63984 18.5825 8.48984 19.9225C8.81984 20.0125 9.17984 20.0125 9.50984 19.9225C14.3598 18.5825 17.9098 14.0025 17.9098 9.1125ZM9.74984 10.8625V13.4925C9.74984 13.9025 9.40984 14.2425 8.99984 14.2425C8.58984 14.2425 8.24984 13.9025 8.24984 13.4925V10.8625C7.23984 10.5425 6.49984 9.6025 6.49984 8.4925C6.49984 7.1125 7.61984 5.9925 8.99984 5.9925C10.3798 5.9925 11.4998 7.1125 11.4998 8.4925C11.4998 9.6125 10.7598 10.5425 9.74984 10.8625Z" fill="#D3D5DA"/>
<path d="M4.98 4.92H7.388C7.486 4.92 7.612 4.92467 7.766 4.934C7.92467 4.93867 8.06933 4.95267 8.2 4.976C8.77867 5.06467 9.257 5.26067 9.635 5.564C10.0177 5.86267 10.3 6.23833 10.482 6.691C10.6687 7.14367 10.762 7.64767 10.762 8.203C10.762 9.015 10.5683 9.70333 10.181 10.268C9.79833 10.828 9.21267 11.199 8.424 11.381C8.23267 11.423 8.06467 11.451 7.92 11.465C7.77533 11.4743 7.59567 11.479 7.381 11.479H4.98V9.904H7.318C7.416 9.904 7.521 9.89933 7.633 9.89C7.74967 9.88067 7.85933 9.862 7.962 9.834C8.23733 9.75933 8.45433 9.63567 8.613 9.463C8.77633 9.28567 8.89067 9.085 8.956 8.861C9.026 8.637 9.061 8.41767 9.061 8.203C9.061 7.98833 9.026 7.769 8.956 7.545C8.89067 7.31633 8.77633 7.11333 8.613 6.936C8.45433 6.75867 8.23733 6.635 7.962 6.565C7.85933 6.537 7.74967 6.52067 7.633 6.516C7.521 6.50667 7.416 6.502 7.318 6.502H4.98V4.92ZM4.98 11.479L6.814 11.059L11.252 15H8.9L4.98 11.479ZM5.029 8.84V7.566H11.952V8.84H5.029ZM7.178 6.194V4.92H11.91V6.194H7.178Z" fill="white"/>
</svg>
