<svg width="18" height="18" viewBox="0 0 18 18" fill="none" xmlns="http://www.w3.org/2000/svg">
<path d="M13.6832 7.95817C13.3248 7.95817 13.0415 7.6665 13.0415 7.3165C13.0415 7.00817 12.7332 6.3665 12.2165 5.80817C11.7082 5.2665 11.1498 4.94984 10.6832 4.94984C10.3248 4.94984 10.0415 4.65817 10.0415 4.30817C10.0415 3.95817 10.3332 3.6665 10.6832 3.6665C11.5165 3.6665 12.3915 4.1165 13.1582 4.92484C13.8748 5.68317 14.3332 6.62484 14.3332 7.30817C14.3332 7.6665 14.0415 7.95817 13.6832 7.95817Z" fill="#FD6065"/>
<path d="M16.6915 7.95817C16.3331 7.95817 16.0498 7.6665 16.0498 7.3165C16.0498 4.35817 13.6415 1.95817 10.6915 1.95817C10.3331 1.95817 10.0498 1.6665 10.0498 1.3165C10.0498 0.966504 10.3331 0.666504 10.6831 0.666504C14.3498 0.666504 17.3331 3.64984 17.3331 7.3165C17.3331 7.6665 17.0415 7.95817 16.6915 7.95817Z" fill="#FD6065"/>
<path d="M8.20817 11.4582L6.6665 12.9998C6.3415 13.3248 5.82484 13.3248 5.4915 13.0082C5.39984 12.9165 5.30817 12.8332 5.2165 12.7415C4.35817 11.8748 3.58317 10.9665 2.8915 10.0165C2.20817 9.0665 1.65817 8.1165 1.25817 7.17484C0.866504 6.22484 0.666504 5.3165 0.666504 4.44984C0.666504 3.88317 0.766504 3.3415 0.966504 2.8415C1.1665 2.33317 1.48317 1.8665 1.92484 1.44984C2.45817 0.924844 3.0415 0.666504 3.65817 0.666504C3.8915 0.666504 4.12484 0.716504 4.33317 0.816504C4.54984 0.916504 4.7415 1.0665 4.8915 1.28317L6.82484 4.00817C6.97484 4.2165 7.08317 4.40817 7.15817 4.5915C7.23317 4.7665 7.27484 4.9415 7.27484 5.09984C7.27484 5.29984 7.2165 5.49984 7.09984 5.6915C6.9915 5.88317 6.83317 6.08317 6.63317 6.28317L5.99984 6.9415C5.90817 7.03317 5.8665 7.1415 5.8665 7.27484C5.8665 7.3415 5.87484 7.39984 5.8915 7.4665C5.9165 7.53317 5.9415 7.58317 5.95817 7.63317C6.10817 7.90817 6.3665 8.2665 6.73317 8.69984C7.10817 9.1332 7.50817 9.5748 7.9415 10.0165C8.02484 10.0998 8.1165 10.1832 8.19984 10.2665C8.53317 10.5915 8.5415 11.1248 8.20817 11.4582Z" fill="#FD6065"/>
<path d="M17.3083 14.2752C17.3083 14.5085 17.2667 14.7502 17.1833 14.9835C17.1583 15.0502 17.1333 15.1169 17.1 15.1835C16.9583 15.4835 16.775 15.7669 16.5333 16.0335C16.125 16.4835 15.675 16.8085 15.1667 17.0169C15.1583 17.0169 15.15 17.0252 15.1417 17.0252C14.65 17.2252 14.1167 17.3335 13.5417 17.3335C12.6917 17.3335 11.7833 17.1335 10.825 16.7252C9.8667 16.3169 8.90833 15.7669 7.95833 15.0752C7.63333 14.8335 7.30833 14.5919 7 14.3335L9.725 11.6085C9.9583 11.7835 10.1667 11.9169 10.3417 12.0085C10.3833 12.0252 10.4333 12.0502 10.4917 12.0752C10.5583 12.1002 10.625 12.1085 10.7 12.1085C10.8417 12.1085 10.95 12.0585 11.0417 11.9669L11.675 11.3419C11.8833 11.1335 12.0833 10.9752 12.275 10.8752C12.4667 10.7585 12.6583 10.7002 12.8667 10.7002C13.025 10.7002 13.1917 10.7335 13.375 10.8085C13.5583 10.8835 13.75 10.9919 13.9583 11.1335L16.7167 13.0919C16.9333 13.2419 17.0833 13.4169 17.175 13.6252C17.2583 13.8335 17.3083 14.0419 17.3083 14.2752Z" fill="#FD6065"/>
</svg>
