<svg width="17" height="17" viewBox="0 0 17 17" fill="none" xmlns="http://www.w3.org/2000/svg">
<path d="M14.1668 11.7666C13.7852 11.7665 13.4076 11.8378 13.0567 11.9762C12.7058 12.1147 12.3889 12.3174 12.1252 12.5721L5.57393 9.1675C5.70083 8.72733 5.70083 8.26416 5.57393 7.82399L12.1252 4.41942C12.6023 4.87626 13.2433 5.15676 13.9282 5.20839C14.6131 5.26002 15.2949 5.07922 15.8458 4.69987C16.3968 4.32053 16.7791 3.76866 16.9211 3.14765C17.0631 2.52665 16.9551 1.87912 16.6174 1.32637C16.2796 0.773628 15.7353 0.353592 15.0863 0.144955C14.4373 -0.0636815 13.7282 -0.0466029 13.0919 0.192991C12.4555 0.432586 11.9356 0.878256 11.6295 1.44651C11.3234 2.01476 11.2521 2.66661 11.4289 3.27994L4.87763 6.6845C4.4863 6.30763 3.98184 6.04752 3.42914 5.93764C2.87644 5.82776 2.30079 5.87313 1.77625 6.06791C1.2517 6.26269 0.802239 6.59798 0.485696 7.03065C0.169152 7.46331 0 7.97356 0 8.49574C0 9.01793 0.169152 9.52818 0.485696 9.96084C0.802239 10.3935 1.2517 10.7288 1.77625 10.9236C2.30079 11.1184 2.87644 11.1637 3.42914 11.0538C3.98184 10.944 4.4863 10.6839 4.87763 10.307L11.4289 13.7116C11.277 14.2397 11.308 14.7986 11.5175 15.3097C11.727 15.8208 12.1044 16.2585 12.597 16.5614C13.0895 16.8643 13.6723 17.0171 14.2636 16.9985C14.855 16.9798 15.4251 16.7907 15.8942 16.4575C16.3632 16.1243 16.7075 15.6638 16.8787 15.1407C17.05 14.6176 17.0396 14.0581 16.8491 13.5407C16.6586 13.0233 16.2974 12.574 15.8164 12.2558C15.3353 11.9376 14.7585 11.7666 14.1668 11.7666Z" fill="#E92026"/>
</svg>
