<svg width="21" height="21" viewBox="0 0 21 21" fill="none" xmlns="http://www.w3.org/2000/svg">
<path d="M16.53 5.77024C16.46 5.76024 16.39 5.76024 16.32 5.77024C14.77 5.72024 13.54 4.45024 13.54 2.89024C13.54 1.30024 14.83 0.000244141 16.43 0.000244141C18.02 0.000244141 19.32 1.29024 19.32 2.89024C19.31 4.45024 18.08 5.72024 16.53 5.77024Z" fill="#D3D5DA"/>
<path d="M19.7901 12.7002C18.6701 13.4502 17.1001 13.7302 15.6501 13.5402C16.0301 12.7202 16.2301 11.8102 16.2401 10.8502C16.2401 9.85017 16.0201 8.90017 15.6001 8.07017C17.0801 7.87013 18.6501 8.15017 19.7801 8.90017C21.3601 9.94017 21.3601 11.6502 19.7901 12.7002Z" fill="#D3D5DA"/>
<path d="M5.43991 5.77024C5.50991 5.76024 5.57991 5.76024 5.64991 5.77024C7.19991 5.72024 8.42991 4.45024 8.42991 2.89024C8.42991 1.29024 7.13991 0.000244141 5.53991 0.000244141C3.94991 0.000244141 2.65991 1.29024 2.65991 2.89024C2.65991 4.45024 3.88991 5.72024 5.43991 5.77024Z" fill="#D3D5DA"/>
<path d="M5.55012 10.8503C5.55012 11.8203 5.76012 12.7403 6.14012 13.5703C4.73012 13.7203 3.26012 13.4203 2.18012 12.7103C0.600117 11.6603 0.600117 9.95033 2.18012 8.90033C3.25012 8.18033 4.76012 7.89038 6.18012 8.05033C5.77012 8.89033 5.55012 9.84033 5.55012 10.8503Z" fill="#D3D5DA"/>
<path d="M11.12 13.8702C11.04 13.8602 10.95 13.8602 10.86 13.8702C9.02 13.8102 7.55005 12.3002 7.55005 10.4402C7.56005 8.5402 9.09 7.00024 11 7.00024C12.9 7.00024 14.44 8.5402 14.44 10.4402C14.43 12.3002 12.97 13.8102 11.12 13.8702Z" fill="#D3D5DA"/>
<path d="M7.87005 15.9401C6.36005 16.9501 6.36005 18.6101 7.87005 19.6101C9.59 20.7601 12.41 20.7601 14.13 19.6101C15.64 18.6001 15.64 16.9401 14.13 15.9401C12.42 14.7901 9.6 14.7901 7.87005 15.9401Z" fill="#D3D5DA"/>
</svg>
