<svg width="87" height="86" viewBox="0 0 87 86" fill="none" xmlns="http://www.w3.org/2000/svg">
<g clip-path="url(#clip0_6005_15378)">
<rect width="87" height="86" rx="15" fill="#2E3192"/>
<path d="M76.3041 0.0186768H10.249C4.75397 0.0186768 0.295166 4.47748 0.295166 9.97248V76.0276C0.295166 81.5226 4.75397 85.9814 10.249 85.9814H76.3041C81.7991 85.9814 86.2579 81.5226 86.2579 76.0276V9.97248C86.2579 4.47748 81.7991 0.0186768 76.3041 0.0186768ZM59.5574 71.4118C55.0672 73.8296 49.635 75.2845 43.2504 75.2845C21.0924 75.2845 10.4478 57.847 10.4478 42.9215V42.8169C10.4478 28.0065 21.0924 10.5691 43.2504 10.5691C45.239 10.5691 47.1335 10.7156 48.9442 10.9773C57.1396 12.1914 63.4406 16.0117 67.8889 21.0776C73.363 27.3157 76.0529 35.4379 76.0529 42.932C76.0529 48.6154 74.5038 54.6651 71.3638 59.9822L76.8588 78.6129L59.5574 71.4118Z" fill="white"/>
<path d="M40.0475 35.5949L30.0309 53.158C29.0889 54.8536 27.2991 56.4968 25.3627 57.1144C29.1307 62.0232 35.1491 65.5714 43.5119 65.5714C49.1744 65.5714 53.7588 63.9386 57.307 61.3743C57.307 61.3743 57.464 61.2592 57.6943 61.0812C63.5975 56.5806 66.4758 49.4109 66.4758 42.9216C66.4758 39.5094 65.6803 35.8984 64.058 32.6014L52.4923 53.0114C49.1011 58.9984 40.4975 59.0926 36.9807 53.1684L35.0444 49.9028L39.7335 41.7179L44.7365 50.3529L54.7531 32.7794C56.1766 30.2778 58.6991 28.7078 61.4309 28.4252C61.2111 28.1531 60.9808 27.881 60.7505 27.6088C57.6315 24.0606 53.225 21.3916 47.4893 20.5438C46.2228 20.3554 44.8935 20.2612 43.5015 20.2612C27.9899 20.2612 20.5376 32.4654 20.5376 42.8378V42.9111C20.5376 45.5278 21.0086 48.27 21.9506 50.8867C22.453 50.1959 22.9659 49.3795 23.4892 48.4375L32.2707 32.9259C35.6619 26.939 44.2655 26.8448 47.7823 32.7689L49.7187 36.0345L45.0296 44.2194L40.0475 35.5949Z" fill="white"/>
</g>
<rect x="0.5" y="0.5" width="86" height="85" rx="14.5" stroke="white"/>
<defs>
<clipPath id="clip0_6005_15378">
<rect width="87" height="86" rx="15" fill="white"/>
</clipPath>
</defs>
</svg>
