<svg width="184" height="60" viewBox="0 0 184 60" fill="none" xmlns="http://www.w3.org/2000/svg">
<path d="M98.6911 21.5838C98.5562 21.5778 98.4151 21.5778 98.2802 21.5778C95.2012 21.5778 92.5026 22.7011 90.2578 24.9237C87.9271 27.2308 86.7495 30.0332 86.7495 33.2583C86.7495 36.3566 87.8474 39.0684 90.0124 41.3152C92.1836 43.574 94.8762 44.7577 98.0164 44.8362C98.1514 44.8423 98.2863 44.8423 98.4212 44.8423C101.5 44.8423 104.199 43.7189 106.456 41.4963C108.799 39.1892 109.989 36.405 109.989 33.2281C109.989 30.1298 108.885 27.418 106.714 25.1592C104.518 22.8884 101.825 21.6865 98.6911 21.5838ZM102.61 37.6733C101.445 38.8872 100.102 39.4731 98.501 39.4731C98.3844 39.4731 98.2679 39.467 98.1452 39.461H98.1146C96.4647 39.4066 95.1031 38.7664 93.95 37.5042C92.7786 36.2238 92.2266 34.7743 92.2695 33.0771V33.059C92.2879 31.3438 92.889 29.9184 94.1156 28.6984C95.3055 27.5147 96.71 26.9349 98.3906 26.9349C98.4151 26.9349 98.4826 26.9349 98.4826 26.9349C100.108 26.9349 101.457 27.5086 102.61 28.6984C103.794 29.9124 104.395 31.3317 104.456 33.0469C104.499 34.8347 103.892 36.3446 102.61 37.6733Z" fill="white"/>
<path d="M117.373 15.2181H111.853V37.323C111.853 39.763 112.632 41.6595 114.166 42.9398C115.631 44.1659 117.766 44.794 120.514 44.794H121.955V39.8053H120.52C118.256 39.8053 117.373 38.9839 117.373 36.8821V27.2913H121.955V22.0247H117.373V15.2181Z" fill="white"/>
<path d="M148.85 36.4654C147.586 38.4464 145.71 39.4248 143.127 39.461C143.103 39.461 143.072 39.461 143.048 39.461C141.306 39.461 139.834 38.8571 138.546 37.6189C137.246 36.3687 136.614 34.9072 136.614 33.1678C136.614 31.4404 137.295 29.9728 138.693 28.6864L138.699 28.6803C140.012 27.4603 141.428 26.8685 143.029 26.8685C143.078 26.8685 143.127 26.8685 143.176 26.8685C145.722 26.9289 147.556 27.9677 148.782 30.0574L149.199 30.764H155.228L153.947 27.9012C153.088 26.0531 151.665 24.513 149.708 23.3172C147.715 22.1093 145.544 21.4993 143.244 21.4993C143.195 21.4993 143.152 21.4993 143.103 21.4993H143.097C139.809 21.5536 136.951 22.7253 134.596 24.9962C132.216 27.2852 131.039 30.0755 131.088 33.2946C131.112 36.4835 132.327 39.2255 134.694 41.448C137.043 43.6585 139.871 44.7879 143.103 44.8181C143.158 44.8181 143.219 44.8181 143.275 44.8181C145.667 44.8181 147.795 44.2806 149.592 43.2116C151.389 42.1486 152.886 40.5542 154.039 38.4645L154.057 38.4282L155.32 35.7889H149.267L148.85 36.4654Z" fill="white"/>
<path d="M129.009 15.1879H123.489V20.6779H129.009V15.1879Z" fill="white"/>
<path d="M129.009 22.0247H123.489V44.3833H129.009V22.0247Z" fill="white"/>
<path d="M179.725 32.7088C179.725 29.9305 178.646 27.3939 176.523 25.1713L176.511 25.1593C174.315 22.9246 171.684 21.6986 168.685 21.5174H168.673C168.44 21.5053 168.207 21.4993 167.98 21.4993C164.919 21.4993 162.208 22.6287 159.927 24.8512C157.479 27.2369 156.277 30.1178 156.357 33.4275C156.412 36.562 157.633 39.2919 159.988 41.5447C162.294 43.7552 164.987 44.8725 167.998 44.8725C168.066 44.8725 168.133 44.8725 168.2 44.8725C170.642 44.8483 172.886 44.1236 174.886 42.7284C176.75 41.4239 178.124 39.6784 178.977 37.5283H172.696C171.623 38.7906 170.182 39.4067 168.268 39.4369C168.237 39.4369 168.207 39.4369 168.176 39.4369C166.551 39.4369 165.183 38.9356 163.987 37.9088C163.196 37.2324 162.638 36.4473 162.3 35.5413H173.892H179.688H179.719V35.4507V35.1669V32.7088H179.725ZM162.496 30.299C162.883 29.544 163.416 28.8917 164.11 28.3361C165.25 27.4241 166.551 26.9772 168.072 26.9772C168.102 26.9772 168.133 26.9772 168.164 26.9772C169.734 26.9953 171.04 27.4543 172.15 28.3723C172.813 28.9159 173.322 29.5561 173.696 30.299H162.496Z" fill="white"/>
<path d="M60.6033 19.3854V44.3893H66.2582V27.9133L60.6033 19.3854Z" fill="white"/>
<path d="M78.9726 15.2181V33.9952L66.4299 15.2181H60.6033V16.3536L66.2582 24.7788L79.3958 44.3893H84.5969V15.2181H78.9726Z" fill="white"/>
<path d="M48.8149 5.19839H10.1075C6.88746 5.19839 4.27466 7.77126 4.27466 10.942V49.0579C4.27466 52.2287 6.88746 54.8016 10.1075 54.8016H48.8149C52.0349 54.8016 54.6477 52.2287 54.6477 49.0579V10.942C54.6477 7.77126 52.0349 5.19839 48.8149 5.19839ZM39.0016 46.3945C36.3704 47.7896 33.1872 48.6291 29.4459 48.6291C16.4616 48.6291 10.224 38.5672 10.224 29.9547V29.8943C10.224 21.3483 16.4616 11.2863 29.4459 11.2863C30.6112 11.2863 31.7213 11.3709 32.7824 11.5218C37.5848 12.2224 41.2771 14.4269 43.8837 17.3501C47.0915 20.9497 48.6677 25.6364 48.6677 29.9607C48.6677 33.2402 47.76 36.7311 45.92 39.7992L49.14 50.5497L39.0016 46.3945Z" fill="white"/>
<path d="M27.5693 25.727L21.6997 35.8614C21.1477 36.8399 20.0989 37.7881 18.9642 38.1444C21.1722 40.977 24.6989 43.0244 29.5994 43.0244C32.9175 43.0244 35.6039 42.0822 37.6831 40.6025C37.6831 40.6025 37.7751 40.5361 37.91 40.4334C41.3692 37.8364 43.0559 33.6993 43.0559 29.9547C43.0559 27.9858 42.5898 25.9022 41.6391 23.9997L34.8618 35.7769C32.8746 39.2315 27.833 39.2859 25.7722 35.8675L24.6375 33.9831L27.3853 29.2602L30.317 34.2428L36.1866 24.1024C37.0207 22.6589 38.4989 21.7529 40.0997 21.5899C39.9709 21.4329 39.8359 21.2758 39.701 21.1188C37.8733 19.0714 35.2911 17.5313 31.93 17.0421C31.1879 16.9334 30.409 16.879 29.5933 16.879C20.5037 16.879 16.1367 23.9212 16.1367 29.9064V29.9487C16.1367 31.4586 16.4127 33.0409 16.9647 34.5508C17.2591 34.1522 17.5597 33.6811 17.8663 33.1376L23.0122 24.1869C24.9994 20.7323 30.041 20.6779 32.1018 24.0963L33.2365 25.9807L30.4887 30.7036L27.5693 25.727Z" fill="white"/>
</svg>
