<svg width="314" height="104" viewBox="0 0 314 104" fill="none" xmlns="http://www.w3.org/2000/svg">
<path d="M168.419 37.4148C168.189 37.4043 167.948 37.4043 167.718 37.4043C162.463 37.4043 157.858 39.3511 154.027 43.2028C150.05 47.2011 148.04 52.0576 148.04 57.6468C148.04 63.0162 149.914 67.7158 153.609 71.6094C157.314 75.5239 161.909 77.5754 167.268 77.7114C167.498 77.7219 167.728 77.7219 167.958 77.7219C173.213 77.7219 177.818 75.7751 181.67 71.9234C185.668 67.9251 187.698 63.1 187.698 57.5945C187.698 52.2251 185.814 47.5256 182.109 43.611C178.362 39.6756 173.767 37.5927 168.419 37.4148ZM175.107 65.298C173.118 67.4018 170.826 68.417 168.094 68.417C167.896 68.417 167.697 68.4066 167.487 68.3961H167.435C164.619 68.3019 162.296 67.1924 160.328 65.0049C158.329 62.786 157.387 60.274 157.46 57.3328V57.3014C157.492 54.3289 158.517 51.8588 160.611 49.7445C162.641 47.693 165.038 46.6882 167.906 46.6882C167.948 46.6882 168.063 46.6882 168.063 46.6882C170.837 46.6882 173.139 47.6826 175.107 49.7445C177.127 51.8483 178.153 54.308 178.258 57.2805C178.331 60.3786 177.295 62.9953 175.107 65.298Z" fill="white"/>
<path d="M200.301 26.3828H190.881V64.6908C190.881 68.9193 192.21 72.2059 194.827 74.4248C197.328 76.5495 200.97 77.6381 205.66 77.6381H208.119V68.9926H205.67C201.808 68.9926 200.301 67.5691 200.301 63.9267V47.3057H208.119V38.1787H200.301V26.3828Z" fill="white"/>
<path d="M254.015 63.2047C251.859 66.6378 248.656 68.3334 244.25 68.3962C244.208 68.3962 244.156 68.3962 244.114 68.3962C241.141 68.3962 238.629 67.3495 236.431 65.2038C234.212 63.0372 233.134 60.5043 233.134 57.4899C233.134 54.4964 234.296 51.953 236.683 49.7236L236.693 49.7132C238.933 47.5989 241.351 46.5732 244.083 46.5732C244.166 46.5732 244.25 46.5732 244.334 46.5732C248.677 46.6778 251.807 48.4781 253.9 52.0996L254.612 53.3242H264.901L262.713 48.363C261.248 45.1602 258.82 42.4912 255.481 40.4188C252.079 38.3254 248.374 37.2683 244.449 37.2683C244.365 37.2683 244.292 37.2683 244.208 37.2683H244.198C238.588 37.3625 233.71 39.393 229.691 43.3285C225.63 47.2954 223.62 52.131 223.704 57.7097C223.746 63.2361 225.818 67.988 229.858 71.8397C233.867 75.6705 238.692 77.6278 244.208 77.6801C244.302 77.6801 244.407 77.6801 244.501 77.6801C248.583 77.6801 252.215 76.7486 255.282 74.896C258.349 73.0538 260.902 70.2906 262.87 66.6692L262.902 66.6064L265.058 62.0324H254.727L254.015 63.2047Z" fill="white"/>
<path d="M233.427 88.3352C233.459 89.2144 233.124 89.9575 232.433 90.5646C231.742 91.1716 230.926 91.4752 230.005 91.4752H226.488V80.4224H229.618C230.497 80.4224 231.261 80.684 231.899 81.1969C232.58 81.7412 232.915 82.432 232.915 83.2588C232.915 84.2427 232.496 85.0068 231.648 85.551C232.789 86.0953 233.375 87.0268 233.427 88.3352ZM229.586 81.4586H227.629V85.1428H229.649C230.225 85.1428 230.727 84.9754 231.167 84.63C231.606 84.295 231.826 83.8554 231.826 83.3216C231.826 82.725 231.596 82.2645 231.135 81.9296C230.717 81.6156 230.204 81.4586 229.586 81.4586ZM232.297 88.2305C232.255 87.5397 231.983 87.0059 231.46 86.6396C230.989 86.3151 230.361 86.1581 229.576 86.1581H227.629V90.418H229.639C230.486 90.418 231.156 90.2192 231.638 89.8214C232.109 89.4132 232.328 88.8794 232.297 88.2305Z" fill="white"/>
<path d="M242.942 87.7594H235.594C235.678 88.5863 236.034 89.2666 236.641 89.8004C237.248 90.3342 237.98 90.5959 238.807 90.5854C240.095 90.5645 241.026 89.9679 241.581 88.7956H242.743C242.439 89.6748 241.916 90.3761 241.194 90.889C240.471 91.4018 239.655 91.674 238.765 91.674C237.645 91.6949 236.651 91.2867 235.793 90.4494C234.935 89.612 234.495 88.6177 234.474 87.4559C234.443 86.2313 234.882 85.1742 235.772 84.295C236.662 83.4053 237.719 82.9971 238.933 83.0704C240.021 83.1332 240.974 83.5832 241.769 84.4206C242.544 85.2474 242.931 86.158 242.931 87.1733V87.7594H242.942ZM241.863 86.7546C241.706 85.9906 241.351 85.373 240.785 84.8916C240.22 84.4206 239.55 84.1798 238.765 84.1694C237.98 84.1589 237.29 84.3892 236.703 84.8706C236.117 85.3521 235.74 85.9801 235.594 86.7546H241.863Z" fill="white"/>
<path d="M259.814 91.4752H258.579L252.236 81.8563V91.4752H251.085V80.4224H252.581L258.684 89.6958V80.4224H259.814V91.4752Z" fill="white"/>
<path d="M269.443 87.3826C269.443 88.5549 269.014 89.5806 268.156 90.4284C267.297 91.2867 266.282 91.6949 265.11 91.653C263.969 91.6216 263.006 91.1925 262.221 90.3656C261.436 89.5283 261.038 88.5444 261.038 87.3931C261.038 86.1999 261.467 85.1742 262.315 84.3159C263.163 83.4576 264.178 83.0494 265.361 83.0913C266.502 83.1332 267.465 83.5623 268.26 84.3996C269.045 85.2474 269.443 86.2418 269.443 87.3826ZM268.355 87.2989C268.323 86.4302 268.02 85.6975 267.423 85.08C266.837 84.4624 266.125 84.1589 265.288 84.1589C264.419 84.1484 263.676 84.452 263.058 85.0695C262.441 85.687 262.137 86.4406 262.127 87.3094C262.106 88.1781 262.389 88.9317 262.975 89.5806C263.561 90.2296 264.273 90.5645 265.12 90.5959C266.02 90.6482 266.795 90.3342 267.433 89.6539C268.061 88.9945 268.375 88.199 268.355 87.2989Z" fill="white"/>
<path d="M273.535 91.6531C271.547 91.6531 270.552 90.8053 270.552 89.1097V80.4224H271.641V83.2798H273.535V84.295H271.641V88.9213C271.641 90.1354 272.269 90.7425 273.535 90.7425V91.6531Z" fill="white"/>
<path d="M275.587 82.3167H274.499V80.4117H275.587V82.3167ZM275.587 91.475H274.499V83.2901H275.587V91.475Z" fill="white"/>
<path d="M285.258 89.0677L285.143 89.3084C284.285 90.8994 282.956 91.6844 281.155 91.6634C279.973 91.653 278.947 91.2343 278.089 90.4179C277.23 89.591 276.791 88.5967 276.78 87.414C276.759 86.2312 277.188 85.216 278.047 84.3682C278.915 83.5204 279.952 83.0912 281.155 83.0703C282.014 83.0598 282.82 83.2901 283.563 83.7402C284.274 84.1798 284.777 84.7345 285.08 85.4044L285.237 85.7602H284.002C283.385 84.7031 282.453 84.1484 281.187 84.1274C280.339 84.1065 279.585 84.41 278.915 85.0485C278.214 85.6974 277.869 86.472 277.869 87.3616C277.869 88.2513 278.193 89.0154 278.842 89.6538C279.491 90.2923 280.266 90.6063 281.155 90.5958C282.432 90.5749 283.385 90.062 284.013 89.0572H285.258V89.0677Z" fill="white"/>
<path d="M293.883 87.7594H286.535C286.619 88.5863 286.975 89.2666 287.582 89.8004C288.189 90.3342 288.922 90.5959 289.749 90.5854C291.036 90.5645 291.968 89.9679 292.522 88.7956H293.684C293.381 89.6748 292.857 90.3761 292.135 90.889C291.413 91.4018 290.596 91.674 289.707 91.674C288.587 91.6949 287.592 91.2867 286.734 90.4494C285.876 89.612 285.436 88.6177 285.415 87.4559C285.384 86.2313 285.824 85.1742 286.713 84.295C287.603 83.4053 288.66 82.9971 289.874 83.0704C290.963 83.1332 291.915 83.5832 292.711 84.4206C293.485 85.2474 293.872 86.158 293.872 87.1733V87.7594H293.883ZM292.815 86.7546C292.658 85.9906 292.302 85.373 291.737 84.8916C291.172 84.4206 290.502 84.1798 289.717 84.1694C288.932 84.1589 288.241 84.3892 287.655 84.8706C287.069 85.3521 286.692 85.9801 286.546 86.7546H292.815Z" fill="white"/>
<path d="M303.051 87.4244C303.083 88.5967 302.664 89.6224 301.785 90.4702C300.916 91.3285 299.891 91.7367 298.718 91.6948C297.577 91.6634 296.614 91.2343 295.829 90.4074C295.044 89.5701 294.647 88.5862 294.647 87.4349C294.647 86.2417 295.076 85.2159 295.924 84.3577C296.771 83.4994 297.787 83.0912 298.959 83.1331C300.163 83.1854 301.167 83.6669 301.963 84.5775V80.4536H303.051V87.4244ZM301.963 87.3407C301.942 86.4719 301.638 85.7393 301.052 85.1218C300.466 84.5042 299.744 84.2007 298.907 84.2007C298.048 84.1902 297.305 84.4937 296.688 85.1113C296.07 85.7288 295.756 86.4824 295.746 87.3511C295.735 88.2199 296.028 88.9735 296.604 89.6224C297.19 90.2713 297.902 90.6063 298.75 90.6377C299.65 90.69 300.424 90.376 301.063 89.6957C301.701 89.0153 301.994 88.2408 301.963 87.3407Z" fill="white"/>
<path d="M220.156 26.3306H210.736V35.8448H220.156V26.3306Z" fill="white"/>
<path d="M220.156 38.1787H210.736V76.9263H220.156V38.1787Z" fill="white"/>
<path d="M306.704 56.6944C306.704 51.8798 304.862 47.4838 301.241 43.632L301.22 43.6111C297.473 39.7384 292.983 37.6137 287.864 37.2997H287.843C287.446 37.2788 287.048 37.2683 286.661 37.2683C281.438 37.2683 276.812 39.2256 272.918 43.0773C268.742 47.2116 266.69 52.2042 266.826 57.94C266.921 63.3722 269.003 68.1031 273.023 72.0072C276.958 75.838 281.553 77.7743 286.692 77.7743C286.807 77.7743 286.922 77.7743 287.038 77.7743C291.203 77.7324 295.034 76.4764 298.446 74.0586C301.628 71.7978 303.973 68.773 305.427 65.0468H294.71C292.878 67.2344 290.418 68.302 287.153 68.3543C287.1 68.3543 287.048 68.3543 286.996 68.3543C284.222 68.3543 281.888 67.4856 279.847 65.7062C278.497 64.534 277.544 63.1733 276.969 61.6033H296.751H306.642H306.694V61.4463V60.9544V56.6944H306.704ZM277.304 52.5182C277.963 51.2099 278.874 50.0795 280.056 49.1166C282.003 47.5361 284.222 46.7616 286.818 46.7616C286.87 46.7616 286.922 46.7616 286.975 46.7616C289.654 46.793 291.884 47.5884 293.778 49.1794C294.908 50.1214 295.777 51.2308 296.416 52.5182H277.304Z" fill="white"/>
<path d="M103.421 33.6049V76.9369H113.071V48.3838L103.421 33.6049Z" fill="white"/>
<path d="M134.769 26.3828V58.9237L113.364 26.3828H103.421V28.3505L113.071 42.9515L135.491 76.9368H144.367V26.3828H134.769Z" fill="white"/>
<path d="M83.3041 9.01868H17.249C11.754 9.01868 7.29517 13.4775 7.29517 18.9725V85.0276C7.29517 90.5226 11.754 94.9814 17.249 94.9814H83.3041C88.7991 94.9814 93.2579 90.5226 93.2579 85.0276V18.9725C93.2579 13.4775 88.7991 9.01868 83.3041 9.01868ZM66.5574 80.4118C62.0672 82.8296 56.635 84.2845 50.2504 84.2845C28.0924 84.2845 17.4478 66.847 17.4478 51.9215V51.8169C17.4478 37.0065 28.0924 19.5691 50.2504 19.5691C52.239 19.5691 54.1335 19.7156 55.9442 19.9773C64.1396 21.1914 70.4406 25.0117 74.8889 30.0776C80.363 36.3157 83.0529 44.4379 83.0529 51.932C83.0529 57.6154 81.5038 63.6651 78.3638 68.9822L83.8588 87.6129L66.5574 80.4118Z" fill="white"/>
<path d="M47.0475 44.5949L37.0309 62.158C36.0889 63.8536 34.2991 65.4968 32.3627 66.1144C36.1307 71.0232 42.1491 74.5714 50.5119 74.5714C56.1744 74.5714 60.7588 72.9386 64.307 70.3743C64.307 70.3743 64.464 70.2592 64.6943 70.0812C70.5975 65.5806 73.4758 58.4109 73.4758 51.9216C73.4758 48.5094 72.6803 44.8984 71.058 41.6014L59.4923 62.0114C56.1011 67.9984 47.4975 68.0926 43.9807 62.1684L42.0444 58.9028L46.7335 50.7179L51.7365 59.3529L61.7531 41.7794C63.1766 39.2778 65.6991 37.7078 68.4309 37.4252C68.2111 37.1531 67.9808 36.881 67.7505 36.6088C64.6315 33.0606 60.225 30.3916 54.4893 29.5438C53.2228 29.3554 51.8935 29.2612 50.5015 29.2612C34.9899 29.2612 27.5376 41.4654 27.5376 51.8378V51.9111C27.5376 54.5278 28.0086 57.27 28.9506 59.8867C29.453 59.1959 29.9659 58.3795 30.4892 57.4375L39.2707 41.9259C42.6619 35.939 51.2655 35.8448 54.7823 41.7689L56.7187 45.0345L52.0296 53.2194L47.0475 44.5949Z" fill="white"/>
</svg>
