<svg width="240" height="234" viewBox="0 0 240 234" fill="none" xmlns="http://www.w3.org/2000/svg">
<g clip-path="url(#clip0_37_168)">
<path d="M42.5 0H197.5C221 0 240 19 240 42.5V191.5C240 215 221 234 197.5 234H42.5C19 234 0 215 0 191.5V42.5C0 19 19 0 42.5 0Z" fill="#330000"/>
<path d="M116.001 140H78.8006L71.2006 163.5C71.0006 164.4 70.2006 165 69.3006 164.9H50.5006C49.4006 164.9 49.1006 164.3 49.4006 163.1L81.6006 70.4004C81.9006 69.4004 82.2006 68.3004 82.6006 67.1004C83.0006 65.0004 83.2006 62.8004 83.2006 60.6004C83.1006 60.1004 83.5006 59.6004 84.0006 59.5004H109.901C110.701 59.5004 111.101 59.8004 111.201 60.3004L147.701 163.3C148.001 164.4 147.701 164.9 146.701 164.9H125.801C125.101 165 124.401 164.5 124.201 163.8L116.001 140ZM84.6006 119.7H110.001C109.401 117.6 108.601 115.1 107.701 112.5C106.801 109.8 105.901 106.9 105.001 103.9C104.001 100.8 103.101 97.8004 102.101 94.7004C101.101 91.6004 100.201 88.7004 99.4006 85.8004C98.6006 83.0004 97.9006 80.4004 97.2006 78.0004H97.0006C96.1006 82.3004 95.0006 86.6004 93.6006 90.9004C92.1006 95.7004 90.6006 100.7 89.0006 105.7C87.6006 110.8 86.1006 115.5 84.6006 119.7ZM170.001 77.0004C166.701 77.1004 163.501 75.8004 161.101 73.5004C158.801 71.0004 157.601 67.7004 157.701 64.3004C157.601 60.9004 158.901 57.7004 161.301 55.4004C163.701 53.1004 166.901 51.9004 170.201 51.9004C174.101 51.9004 177.101 53.1004 179.301 55.4004C181.501 57.8004 182.701 61.0004 182.601 64.3004C182.701 67.7004 181.501 71.0004 179.101 73.5004C176.801 75.9004 173.401 77.2004 170.001 77.0004ZM158.801 163.8V86.8004C158.801 85.8004 159.201 85.4004 160.101 85.4004H179.901C180.801 85.4004 181.201 85.9004 181.201 86.8004V163.8C181.201 164.9 180.801 165.4 179.901 165.4H160.301C159.301 165.4 158.801 164.8 158.801 163.8V163.8Z" fill="#FF9A00"/>
</g>
<defs>
<clipPath id="clip0_37_168">
<rect width="240" height="234" fill="white"/>
</clipPath>
</defs>
</svg>
