<svg width="64" height="64" viewBox="0 0 64 64" fill="none" xmlns="http://www.w3.org/2000/svg">
<path d="M44.0004 7.81006H17.6104C15.9535 7.81006 14.6104 9.1532 14.6104 10.8101V53.0001C14.6104 54.6569 15.9535 56.0001 17.6104 56.0001H44.0004C45.6572 56.0001 47.0004 54.6569 47.0004 53.0001V10.8101C47.0004 9.1532 45.6572 7.81006 44.0004 7.81006Z" stroke="#12182F" stroke-width="1.5" stroke-miterlimit="10"/>
<path d="M20 16.42H36.43" stroke="#12182F" stroke-width="1.5" stroke-linecap="round" stroke-linejoin="round"/>
<path d="M20 23.29H33.27" stroke="#12182F" stroke-width="1.5" stroke-linecap="round" stroke-linejoin="round"/>
<path d="M20 30.05H28.8" stroke="#12182F" stroke-width="1.5" stroke-linecap="round" stroke-linejoin="round"/>
<path d="M37.0302 45.1L32.9102 46.91C31.9202 47.34 31.0002 46.53 31.3102 45.49L32.6202 41.19C32.7902 40.62 33.1002 40.08 33.5102 39.62L52.5402 18.18C53.9302 16.61 56.1802 16.33 57.5502 17.55C58.9202 18.77 58.9102 21.03 57.5202 22.6L38.4902 44.04C38.0802 44.5 37.5802 44.87 37.0302 45.11V45.1Z" fill="#F4B8BF"/>
</svg>
