<svg width="64" height="64" viewBox="0 0 64 64" fill="none" xmlns="http://www.w3.org/2000/svg">
<path d="M28.5102 46.31H16.4102C14.7502 46.31 13.4102 44.97 13.4102 43.31V19.14C13.4102 17.48 14.7502 16.14 16.4102 16.14H47.5902C49.2502 16.14 50.5902 17.48 50.5902 19.14V43.31C50.5902 44.97 49.2502 46.31 47.5902 46.31H35.4902" stroke="#12182F" stroke-width="1.5" stroke-linecap="round" stroke-linejoin="round"/>
<path d="M32 52.8V37.97" stroke="#12182F" stroke-width="1.5" stroke-linecap="round" stroke-linejoin="round"/>
<path d="M35.4898 51.51L31.9998 54.08L28.5098 51.51" stroke="#12182F" stroke-width="1.5" stroke-linecap="round" stroke-linejoin="round"/>
<path d="M42.8099 11.51H37.3799C35.723 11.51 34.3799 12.8532 34.3799 14.51V19.94C34.3799 21.5969 35.723 22.94 37.3799 22.94H42.8099C44.4667 22.94 45.8099 21.5969 45.8099 19.94V14.51C45.8099 12.8532 44.4667 11.51 42.8099 11.51Z" fill="#F4B8BF"/>
<path d="M38.0801 17.2361C38.2688 17.755 38.4693 18.2739 38.8113 18.7102C39.1533 19.1466 39.684 19.465 40.2265 19.4297C40.8633 19.3825 41.3705 18.8872 41.795 18.4154C44.1065 15.8916 46.135 13.1084 47.8569 10.1482" stroke="#12182F" stroke-width="1.5" stroke-linecap="round" stroke-linejoin="round"/>
</svg>
