<svg width="64" height="64" viewBox="0 0 64 64" fill="none" xmlns="http://www.w3.org/2000/svg">
<path d="M47.5902 16.92H16.4102C14.7533 16.92 13.4102 18.2631 13.4102 19.92V44.09C13.4102 45.7469 14.7533 47.09 16.4102 47.09H47.5902C49.247 47.09 50.5902 45.7469 50.5902 44.09V19.92C50.5902 18.2631 49.247 16.92 47.5902 16.92Z" stroke="#12182F" stroke-width="1.5" stroke-miterlimit="10"/>
<path d="M15.6302 29.3101H10.2002C8.54334 29.3101 7.2002 30.6532 7.2002 32.3101V37.7401C7.2002 39.3969 8.54334 40.7401 10.2002 40.7401H15.6302C17.2871 40.7401 18.6302 39.3969 18.6302 37.7401V32.3101C18.6302 30.6532 17.2871 29.3101 15.6302 29.3101Z" fill="#F4B8BF"/>
<path d="M10.9004 35.0341C11.0892 35.5535 11.2899 36.0728 11.6322 36.5095C11.9745 36.9463 12.5057 37.265 13.0487 37.2296C13.6861 37.1824 14.1936 36.6866 14.6186 36.2145C16.9321 33.6885 18.9623 30.9028 20.6857 27.9401" stroke="#12182F" stroke-width="1.5" stroke-linecap="round" stroke-linejoin="round"/>
<path d="M51.6702 39.6H46.2402C44.5834 39.6 43.2402 40.9431 43.2402 42.6V48.03C43.2402 49.6868 44.5834 51.03 46.2402 51.03H51.6702C53.3271 51.03 54.6702 49.6868 54.6702 48.03V42.6C54.6702 40.9431 53.3271 39.6 51.6702 39.6Z" fill="#F4B8BF"/>
<path d="M46.9404 45.3006C47.1313 45.8255 47.3341 46.3505 47.6801 46.7919C48.0261 47.2333 48.5629 47.5554 49.1117 47.5196C49.7559 47.4719 50.2689 46.9708 50.6984 46.4936C53.0366 43.9406 55.0886 41.1251 56.8303 38.1307" stroke="#12182F" stroke-width="1.5" stroke-linecap="round" stroke-linejoin="round"/>
<path d="M38.8099 11.51H33.3799C31.723 11.51 30.3799 12.8532 30.3799 14.51V19.94C30.3799 21.5969 31.723 22.94 33.3799 22.94H38.8099C40.4667 22.94 41.8099 21.5969 41.8099 19.94V14.51C41.8099 12.8532 40.4667 11.51 38.8099 11.51Z" fill="#F4B8BF"/>
<path d="M34.0801 17.2423C34.2682 17.7597 34.4682 18.2772 34.8092 18.7123C35.1502 19.1474 35.6794 19.4649 36.2204 19.4297C36.8554 19.3826 37.3611 18.8887 37.7845 18.4183C40.0894 15.9017 42.1121 13.1263 43.8291 10.1746" stroke="#12182F" stroke-width="1.5" stroke-linecap="round" stroke-linejoin="round"/>
</svg>
