<svg width="64" height="64" viewBox="0 0 64 64" fill="none" xmlns="http://www.w3.org/2000/svg">
<path d="M31.5202 28.84C37.634 28.84 42.5902 23.8838 42.5902 17.77C42.5902 11.6562 37.634 6.70001 31.5202 6.70001C25.4064 6.70001 20.4502 11.6562 20.4502 17.77C20.4502 23.8838 25.4064 28.84 31.5202 28.84Z" fill="#F4B8BF"/>
<path d="M35.03 14.22C33.56 13.43 31.79 13.23 30.18 13.67C29.13 13.96 28 14.81 28.2 15.87C28.33 16.53 28.94 17 29.59 17.18C30.24 17.36 30.92 17.32 31.59 17.35C33.17 17.4 35.01 18.06 35.36 19.6C35.71 21.13 34.25 22.6 32.7 22.83C31.15 23.06 29.61 22.42 28.2 21.74" stroke="#12182F" stroke-width="1.5" stroke-linecap="round" stroke-linejoin="round"/>
<path d="M31.3496 11.11V25.02" stroke="#12182F" stroke-width="1.5" stroke-linecap="round" stroke-linejoin="round"/>
<path d="M10.7896 42.27C12.3913 42.27 13.6896 40.9716 13.6896 39.37C13.6896 37.7683 12.3913 36.47 10.7896 36.47C9.18802 36.47 7.88965 37.7683 7.88965 39.37C7.88965 40.9716 9.18802 42.27 10.7896 42.27Z" stroke="#12182F" stroke-width="1.5" stroke-linecap="round" stroke-linejoin="round"/>
<path d="M10.7901 35.52C10.6801 30.8 15.0101 28.69 18.9101 29.56C21.5601 30.15 23.4701 32.45 24.2501 34.91C26.1601 40.94 22.0001 50.25 30.9501 52.53C33.8601 53.27 37.1001 52.64 39.3201 50.66C42.0001 48.26 42.3301 44.81 42.5901 41.54C42.7401 39.69 43.0901 37.74 44.3401 36.31C45.6501 34.8 49.9401 34.61 51.9501 35.07" stroke="#12182F" stroke-width="1.5" stroke-linecap="round" stroke-linejoin="round"/>
<path d="M14.7197 51.41L19.6397 46.49" stroke="#F4B8BF" stroke-width="2" stroke-linecap="round" stroke-linejoin="round"/>
<path d="M14.7197 46.49L19.6397 51.41" stroke="#F4B8BF" stroke-width="2" stroke-linecap="round" stroke-linejoin="round"/>
<path d="M31.1602 44.29L36.0802 39.37" stroke="#F4B8BF" stroke-width="2" stroke-linecap="round" stroke-linejoin="round"/>
<path d="M31.1602 39.37L36.0802 44.29" stroke="#F4B8BF" stroke-width="2" stroke-linecap="round" stroke-linejoin="round"/>
<path d="M47.0303 48.95L51.9503 44.03" stroke="#F4B8BF" stroke-width="2" stroke-linecap="round" stroke-linejoin="round"/>
<path d="M47.0303 44.03L51.9503 48.95" stroke="#F4B8BF" stroke-width="2" stroke-linecap="round" stroke-linejoin="round"/>
<path d="M50.1104 32.14L53.0404 35.07L50.1104 38" stroke="#12182F" stroke-width="1.5" stroke-linecap="round" stroke-linejoin="round"/>
</svg>
