<svg width="64" height="64" viewBox="0 0 64 64" fill="none" xmlns="http://www.w3.org/2000/svg">
<path d="M46.6597 26.27C47.5197 26.39 48.3397 26.8 48.9697 27.49L50.0197 28.64L44.3197 33.83L43.2697 32.68C41.8397 31.11 41.9497 28.67 43.5197 27.23" stroke="#12182F" stroke-width="1.5" stroke-linecap="round" stroke-linejoin="round"/>
<path d="M43.3398 10.94H18.5898C16.933 10.94 15.5898 12.2831 15.5898 13.94V50.05C15.5898 51.7069 16.933 53.05 18.5898 53.05H43.3398C44.9967 53.05 46.3398 51.7069 46.3398 50.05V13.94C46.3398 12.2831 44.9967 10.94 43.3398 10.94Z" stroke="#12182F" stroke-width="1.5" stroke-miterlimit="10"/>
<path d="M20.4404 18.98H35.2004" stroke="#12182F" stroke-width="1.5" stroke-linecap="round" stroke-linejoin="round"/>
<path d="M20.4404 24.98H32.3604" stroke="#12182F" stroke-width="1.5" stroke-linecap="round" stroke-linejoin="round"/>
<path d="M20.4404 30.89H28.3504" stroke="#12182F" stroke-width="1.5" stroke-linecap="round" stroke-linejoin="round"/>
<path d="M56.4426 32.6002L52.036 27.7676C51.2918 26.9514 50.0268 26.8931 49.2106 27.6373L43.2253 33.095C42.4091 33.8392 42.3508 35.1042 43.095 35.9204L47.5016 40.753C48.2459 41.5692 49.5108 41.6275 50.327 40.8833L56.3123 35.4256C57.1285 34.6813 57.1869 33.4164 56.4426 32.6002Z" fill="#F4B8BF"/>
<path d="M49.5996 34.62C49.8978 34.62 50.1396 34.3782 50.1396 34.08C50.1396 33.7817 49.8978 33.54 49.5996 33.54C49.3013 33.54 49.0596 33.7817 49.0596 34.08C49.0596 34.3782 49.3013 34.62 49.5996 34.62Z" stroke="#12182F" stroke-width="1.5" stroke-linecap="round" stroke-linejoin="round"/>
<path d="M49.96 34.47L51.04 35.66" stroke="#12182F" stroke-width="1.5" stroke-linecap="round" stroke-linejoin="round"/>
<path d="M19.4805 46.54C23.0205 45.92 26.2805 43.83 28.3105 40.86C29.0305 39.81 29.4905 38.15 28.4405 37.43C27.4005 36.72 26.0305 37.73 25.3305 38.78C24.5605 39.94 23.9905 41.28 23.9505 42.68C23.9105 44.08 24.4605 45.53 25.5605 46.38C26.8005 47.34 28.5605 47.41 30.0505 46.92C31.5405 46.43 32.8205 45.45 34.0105 44.44C34.5105 44.02 35.0105 43.57 35.2805 42.98C35.5505 42.39 35.5405 41.62 35.0705 41.16C34.2405 40.35 32.7405 41.19 32.4305 42.3C32.0205 43.72 32.8505 45.3 34.1205 46.05C35.3905 46.8 36.9805 46.84 38.4105 46.47C39.8405 46.1 41.1405 45.37 42.4305 44.64" stroke="#F4B8BF" stroke-width="2" stroke-linecap="round" stroke-linejoin="round"/>
</svg>
