<svg width="64" height="64" viewBox="0 0 64 64" fill="none" xmlns="http://www.w3.org/2000/svg">
<path d="M55.2197 44.3V15C55.2197 13.3431 53.8766 12 52.2197 12L11.6797 12C10.0229 12 8.67973 13.3431 8.67973 15V44.3C8.67973 45.9569 10.0229 47.3 11.6797 47.3H52.2197C53.8766 47.3 55.2197 45.9569 55.2197 44.3Z" stroke="#12182F" stroke-width="1.5" stroke-miterlimit="10"/>
<path d="M49.5604 39.63L50.9104 36.55C51.2304 35.81 50.6204 35.12 49.8504 35.36L46.6304 36.34C46.2004 36.47 45.8004 36.7 45.4504 37L29.4004 51.25C28.2304 52.29 28.0104 53.97 28.9304 55C29.8404 56.03 31.5404 56.02 32.7104 54.98L48.7604 40.73C49.1004 40.42 49.3804 40.05 49.5604 39.64V39.63Z" fill="#F4B8BF"/>
<path d="M23.5801 24.46V21.28C23.5801 19.6231 22.2369 18.28 20.5801 18.28H17.4001C15.7432 18.28 14.4001 19.6231 14.4001 21.28V24.46C14.4001 26.1169 15.7432 27.46 17.4001 27.46H20.5801C22.2369 27.46 23.5801 26.1169 23.5801 24.46Z" fill="white" stroke="#12182F" stroke-width="1.5" stroke-miterlimit="10"/>
<path d="M23.5801 37.58V34.4C23.5801 32.7432 22.2369 31.4 20.5801 31.4H17.4001C15.7432 31.4 14.4001 32.7432 14.4001 34.4V37.58C14.4001 39.2369 15.7432 40.58 17.4001 40.58H20.5801C22.2369 40.58 23.5801 39.2369 23.5801 37.58Z" fill="white" stroke="#12182F" stroke-width="1.5" stroke-miterlimit="10"/>
<path d="M36.54 24.51V21.33C36.54 19.6731 35.1969 18.33 33.54 18.33H30.36C28.7032 18.33 27.36 19.6731 27.36 21.33V24.51C27.36 26.1668 28.7032 27.51 30.36 27.51H33.54C35.1969 27.51 36.54 26.1668 36.54 24.51Z" fill="#F4B8BF"/>
<path d="M49.5 24.51V21.33C49.5 19.6731 48.1569 18.33 46.5 18.33H43.32C41.6631 18.33 40.32 19.6731 40.32 21.33V24.51C40.32 26.1668 41.6631 27.51 43.32 27.51H46.5C48.1569 27.51 49.5 26.1668 49.5 24.51Z" fill="white" stroke="#12182F" stroke-width="1.5" stroke-miterlimit="10"/>
<path d="M36.5195 37.64V34.46C36.5195 32.8032 35.1764 31.46 33.5195 31.46H30.3395C28.6827 31.46 27.3395 32.8032 27.3395 34.46V37.64C27.3395 39.2969 28.6827 40.64 30.3395 40.64H33.5195C35.1764 40.64 36.5195 39.2969 36.5195 37.64Z" fill="white" stroke="#12182F" stroke-width="1.5" stroke-miterlimit="10"/>
<path d="M13.0898 41.48C16.4898 37.41 20.2298 33.62 24.2498 30.16" stroke="#F4B8BF" stroke-width="2" stroke-linecap="round" stroke-linejoin="round"/>
<path d="M12.5098 28.71C16.1298 24.2 20.2898 20.12 24.8698 16.58" stroke="#F4B8BF" stroke-width="2" stroke-linecap="round" stroke-linejoin="round"/>
<path d="M38.9805 28.44L50.5305 17.2" stroke="#F4B8BF" stroke-width="2" stroke-linecap="round" stroke-linejoin="round"/>
<path d="M26.5 42.36C30.07 38.67 33.74 35.08 37.51 31.6" stroke="#F4B8BF" stroke-width="2" stroke-linecap="round" stroke-linejoin="round"/>
</svg>
