<svg width="56" height="56" viewBox="0 0 56 56" fill="none" xmlns="http://www.w3.org/2000/svg">
<g clip-path="url(#clip0_36_1584)">
<path d="M28 56C43.464 56 56 43.464 56 28C56 12.536 43.464 0 28 0C12.536 0 0 12.536 0 28C0 43.464 12.536 56 28 56Z" fill="url(#paint0_linear_36_1584)"/>
<path d="M39.8975 25.8863C39.8907 25.8795 39.9043 25.8727 39.8743 25.792C39.7417 25.4762 39.4246 25.278 39.0801 25.278H34.0189C33.5897 25.278 33.3793 24.7641 33.6772 24.4633L37.343 20.7972C37.589 20.5512 37.6204 20.1602 37.4072 19.8827C37.4072 19.88 37.4045 19.8786 37.4031 19.8759C37.0778 19.4535 36.7211 19.0489 36.337 18.6648C35.9488 18.2766 35.5429 17.9184 35.1219 17.5931L35.1151 17.5863C34.88 17.3539 34.5041 17.3539 34.2718 17.5863L30.5377 21.3207C30.2397 21.6215 29.7231 21.411 29.7231 20.9817V15.7942C29.7231 15.4484 29.4675 15.149 29.1231 15.1053C29.1203 15.1053 29.119 15.1053 29.1162 15.1025C28.5886 15.0328 28.0474 15 27.5007 15C26.9553 15 26.4154 15.0328 25.8865 15.1025C25.8797 15.1094 25.8728 15.0957 25.7922 15.1258C25.4765 15.2584 25.2783 15.5755 25.2783 15.92V20.9817C25.2783 21.411 24.7616 21.6215 24.4609 21.3207L20.731 17.5904C20.4945 17.3539 20.1104 17.3552 19.8753 17.5931C19.453 17.9184 19.0484 18.2752 18.6616 18.662C18.2748 19.0489 17.9181 19.4535 17.5928 19.8759C17.5901 19.8786 17.5887 19.88 17.5887 19.8827C17.3755 20.1602 17.4069 20.5512 17.6529 20.7972L21.3187 24.4633C21.6194 24.7641 21.4089 25.278 20.9797 25.278H15.7927C15.4469 25.278 15.149 25.5337 15.1039 25.8781C15.1039 25.8809 15.1039 25.8822 15.1011 25.885C15.0328 26.4099 15 26.9498 15 27.498C15 28.0434 15.0328 28.5833 15.1025 29.1123C15.1093 29.1191 15.0929 29.126 15.1285 29.2053C15.2611 29.5224 15.5809 29.722 15.924 29.722H20.9797V29.7247C21.4089 29.7247 21.6194 30.2387 21.3187 30.5394L15.2064 36.6141C14.9604 36.8601 14.9289 37.2511 15.1421 37.5286C15.1421 37.5313 15.1449 37.5327 15.1462 37.5354C15.4715 37.9578 15.8283 38.3624 16.2123 38.7465C16.6005 39.1347 17.0065 39.4929 17.4274 39.8182L17.4343 39.825C17.6693 40.0574 18.0452 40.0574 18.2776 39.825L24.4596 33.6793C24.7603 33.3785 25.2769 33.589 25.2769 34.0183V39.2058C25.2769 39.5516 25.5325 39.851 25.8769 39.8947C25.8797 39.8947 25.881 39.8947 25.8838 39.8975C26.41 39.9658 26.9499 40 27.4979 40C28.0433 40 28.5832 39.9672 29.1121 39.8975C29.119 39.8906 29.1258 39.907 29.2051 39.8715C29.5222 39.7362 29.7217 39.4136 29.7217 39.0677V34.0183C29.7217 33.589 30.2384 33.3785 30.5363 33.6793L34.2034 37.3468C34.4495 37.5928 34.8404 37.6243 35.1178 37.411C35.1206 37.411 35.1219 37.4083 35.1247 37.4069C35.547 37.0816 35.9516 36.7248 36.3384 36.338C36.7252 35.9511 37.0819 35.5465 37.4072 35.1241C37.4099 35.1214 37.4099 35.1214 37.4113 35.12C37.6218 34.8425 37.5917 34.4516 37.3471 34.2083L33.6772 30.538C33.3793 30.2373 33.5897 29.7233 34.0189 29.7233V29.7206H39.2059C39.5517 29.7206 39.851 29.465 39.8948 29.1205C39.8948 29.1178 39.8948 29.1164 39.8975 29.1137C39.9658 28.5874 40 28.0475 40 27.4993C39.9986 26.9553 39.9658 26.4153 39.8975 25.8863ZM32.5879 29.4472C32.5551 29.5402 32.5168 29.629 32.4772 29.722C32.2147 30.3125 31.8402 30.8661 31.3537 31.3527C30.8685 31.838 30.3135 32.2125 29.7217 32.4736C29.6315 32.516 29.5413 32.5543 29.447 32.5871C28.1964 33.0682 26.805 33.0682 25.5544 32.5871L28.5039 29.6399C28.8196 29.3242 28.8196 28.817 28.5039 28.5027L26.4988 26.4973C26.1831 26.1816 25.676 26.1816 25.3617 26.4973L22.4121 29.4472C21.931 28.1937 21.9337 26.8022 22.4121 25.5514C22.4449 25.4585 22.4832 25.3669 22.5256 25.2767C22.788 24.6862 23.1625 24.1325 23.6491 23.6459C24.1329 23.1606 24.6865 22.7875 25.2796 22.525C25.3671 22.4826 25.4601 22.4444 25.5544 22.4116C26.8036 21.9304 28.1964 21.9304 29.447 22.4116C29.5413 22.4444 29.6315 22.4799 29.7217 22.5209C30.3122 22.7861 30.8685 23.1606 31.3537 23.6459C31.8389 24.1312 32.2134 24.6862 32.4772 25.2767C32.5168 25.3696 32.5551 25.4585 32.5879 25.5514C33.069 26.8063 33.069 28.1937 32.5879 29.4472Z" fill="url(#paint1_linear_36_1584)"/>
</g>
<defs>
<linearGradient id="paint0_linear_36_1584" x1="14.9078" y1="10.7809" x2="45.7614" y2="56" gradientUnits="userSpaceOnUse">
<stop stop-color="#3FEFD9"/>
<stop offset="1" stop-color="#EFC4F6"/>
</linearGradient>
<linearGradient id="paint1_linear_36_1584" x1="16.7692" y1="38.2327" x2="36.5535" y2="18.4505" gradientUnits="userSpaceOnUse">
<stop stop-color="white"/>
</linearGradient>
<clipPath id="clip0_36_1584">
<rect width="56" height="56" fill="white"/>
</clipPath>
</defs>
</svg>
