<svg width="64" height="64" viewBox="0 0 64 64" fill="none" xmlns="http://www.w3.org/2000/svg">
<path d="M51.9593 31.8162V45.2583C51.9593 46.0967 51.4377 46.8512 50.6552 47.1493L34.1017 53.4558C33.636 53.6328 33.1236 53.6328 32.6672 53.4558L16.1137 47.1493C15.3312 46.8512 14.8096 46.0967 14.8096 45.2583V32.8316" stroke="#12182F" stroke-width="1.5" stroke-linecap="round" stroke-linejoin="round"/>
<path d="M33.0309 17.7501L14.8193 22.7152L33.0309 27.8573L51.9598 22.7152L33.0309 17.7501Z" stroke="#12182F" stroke-width="1.5" stroke-linecap="round" stroke-linejoin="round"/>
<path d="M14.8188 22.715L7.18945 29.8599L24.9446 35.2722L33.0303 27.8571V49.1148" stroke="#12182F" stroke-width="1.5" stroke-linecap="round" stroke-linejoin="round"/>
<path d="M51.9591 22.715L58.6103 29.8599L40.3429 35.2722L33.0303 27.8571" stroke="#12182F" stroke-width="1.5" stroke-linecap="round" stroke-linejoin="round"/>
<path d="M33.0303 17.7501L40.7434 14.0239L57.6508 18.3276L50.832 22.4264" stroke="#12182F" stroke-width="1.5" stroke-linecap="round" stroke-linejoin="round"/>
<path d="M32.9004 17.7501L25.5599 14.0239L9.3418 18.7655L15.0987 22.4264" stroke="#12182F" stroke-width="1.5" stroke-linecap="round" stroke-linejoin="round"/>
<path d="M41.8338 45.9385C42.9796 45.8826 44.0602 45.4168 45.057 44.8579C45.9233 44.3642 46.7617 43.7773 47.3486 42.9762C50.3854 38.8029 43.7249 36.6696 40.688 38.1415C37.2507 39.7996 37.2041 46.1713 41.8338 45.9385Z" fill="#F4B8BF"/>
</svg>
