<svg width="86" height="86" viewBox="0 0 86 86" fill="none" xmlns="http://www.w3.org/2000/svg">
<path d="M86 43C86 66.7482 66.7482 86 43 86C19.2518 86 0 66.7482 0 43C0 19.2518 19.2518 0 43 0C66.7482 0 86 19.2518 86 43Z" fill="#001E36"/>
<path d="M16 61.9239V20.6814C16 20.4008 16.1205 20.2405 16.4016 20.2405C17.0844 20.2405 17.727 20.2405 18.6508 20.2004C19.6147 20.1603 20.6188 20.1603 21.7032 20.1202C22.7877 20.0802 23.9524 20.0802 25.1975 20.0401C26.4426 20 27.6475 20 28.8524 20C32.1458 20 34.8769 20.4008 37.1261 21.2425C39.1343 21.9238 40.9818 23.0461 42.508 24.5291C43.7933 25.8116 44.7974 27.3748 45.44 29.0982C46.0424 30.7816 46.3637 32.505 46.3637 34.3086C46.3637 37.7555 45.5605 40.6012 43.9539 42.8457C42.3474 45.0902 40.0982 46.7736 37.4876 47.7355C34.7564 48.7375 31.7442 49.0982 28.4507 49.0982C27.4868 49.0982 26.8442 49.0982 26.4426 49.0581C25.4929 48.9634 24.7155 49.7917 24.7155 50.7461V61.4853C24.7155 61.7506 24.7804 62.0512 24.613 62.2571C24.5642 62.3172 24.5009 62.3663 24.4274 62.4C24.3302 62.4446 24.22 62.4449 24.1131 62.4449H16.482C16.1607 62.4449 16 62.2846 16 61.9239ZM26.4024 27.9359C25.4573 27.8887 24.7557 28.679 24.7557 29.6253V39.8741C24.7557 40.758 25.4382 41.5231 26.3221 41.5231H28.4507C30.0171 41.5231 31.5835 41.2826 33.0696 40.8016C34.3548 40.4409 35.4794 39.6794 36.363 38.6774C37.2064 37.6754 37.6081 36.3126 37.6081 34.5491C37.6482 33.3066 37.3269 32.0641 36.6843 30.982C36.0015 29.9399 35.0376 29.1383 33.8728 28.6974C32.3868 28.0962 30.7802 27.8557 29.1335 27.8958C28.0893 27.8958 27.1655 27.8958 26.4024 27.9359Z" fill="#31A8FF"/>
<path d="M71.426 38.9976C70.2211 38.3563 68.9358 37.9154 67.5703 37.6348C66.0842 37.3142 64.5982 37.1138 63.0719 37.1138C62.2687 37.0737 61.4252 37.194 60.6621 37.3944C60.14 37.5146 59.6982 37.7952 59.417 38.196C59.2162 38.5166 59.0957 38.9174 59.0957 39.2781C59.0957 39.6389 59.2564 39.9996 59.4974 40.3202C59.8588 40.7611 60.3408 41.1218 60.8629 41.4024C61.7867 41.8833 62.7506 42.3242 63.7146 42.725C65.8834 43.4465 67.9719 44.4485 69.8998 45.6509C71.2252 46.4926 72.3096 47.6148 73.0727 48.9775C73.7153 50.2601 74.0366 51.6629 73.9965 53.1058C74.0366 54.9896 73.4743 56.8733 72.4301 58.4365C71.3055 60.0397 69.7391 61.2822 67.9317 62.0036C65.9637 62.8453 63.5539 63.2862 60.6621 63.2862C58.8146 63.2862 57.0072 63.1258 55.1999 62.7651C53.7941 62.5246 52.3884 62.0838 51.1032 61.4826C50.822 61.3222 50.6212 61.0417 50.6614 60.721V53.7471C50.6614 53.6268 50.7015 53.4665 50.822 53.3864C50.9425 53.3062 51.063 53.3463 51.1835 53.4264C52.7499 54.3483 54.3966 54.9896 56.1638 55.3904C57.69 55.7912 59.2966 55.9916 60.9031 55.9916C62.4293 55.9916 63.5137 55.7912 64.2367 55.4304C64.8793 55.1499 65.3211 54.4685 65.3211 53.7471C65.3211 53.186 64.9998 52.6649 64.3572 52.1439C63.7146 51.6228 62.3892 51.0216 60.4211 50.2601C58.3728 49.5387 56.4851 48.5767 54.7179 47.3743C53.4728 46.4926 52.4286 45.3302 51.6655 43.9675C51.0228 42.6849 50.7015 41.2821 50.7417 39.8793C50.7417 38.1559 51.2237 36.5126 52.1073 35.0296C53.1113 33.4264 54.5974 32.1439 56.3244 31.3423C58.2121 30.3803 60.5818 29.9395 63.4334 29.9395C65.0801 29.9395 66.767 30.0597 68.4137 30.3002C69.5441 30.4506 70.6391 30.7421 71.6657 31.1416C71.8006 31.1941 71.9379 31.2282 72.052 31.3174C72.2285 31.4554 72.3096 31.6903 72.3391 31.9124C72.3458 31.9628 72.3498 32.0133 72.3498 32.0637V38.5968C72.3498 38.9046 71.9959 39.0651 71.6882 39.0574C71.584 39.0548 71.5007 39.0348 71.426 38.9976Z" fill="#31A8FF"/>
</svg>
