<svg width="64" height="64" viewBox="0 0 64 64" fill="none" xmlns="http://www.w3.org/2000/svg">
<path d="M38.6597 17.14C38.2897 14.72 36.5197 12.77 34.2097 12.12C35.1897 11.54 35.8597 10.48 35.8597 9.25999C35.8597 7.41999 34.3697 5.92999 32.5297 5.92999C30.6897 5.92999 29.1997 7.41999 29.1997 9.25999C29.1997 10.48 29.8697 11.54 30.8497 12.12C28.5397 12.77 26.7697 14.73 26.3997 17.14C26.3197 17.64 26.7297 18.09 27.2397 18.09H37.8297C38.3397 18.09 38.7497 17.64 38.6697 17.14H38.6597Z" fill="#F4B8BF"/>
<path d="M55.6899 27.37C55.3199 24.95 53.5499 23 51.2399 22.35C52.2199 21.77 52.8899 20.71 52.8899 19.49C52.8899 17.65 51.3999 16.16 49.5599 16.16C47.7199 16.16 46.2299 17.65 46.2299 19.49C46.2299 20.71 46.8999 21.77 47.8799 22.35C45.5699 23 43.7999 24.96 43.4299 27.37C43.3499 27.87 43.7599 28.32 44.2699 28.32H54.8599C55.3699 28.32 55.7799 27.87 55.6999 27.37H55.6899Z" stroke="#12182F" stroke-width="1.5" stroke-linecap="round" stroke-linejoin="round"/>
<path d="M20.6304 27.37C20.2604 24.95 18.4904 23 16.1804 22.35C17.1604 21.77 17.8304 20.71 17.8304 19.49C17.8304 17.65 16.3404 16.16 14.5004 16.16C12.6604 16.16 11.1704 17.65 11.1704 19.49C11.1704 20.71 11.8404 21.77 12.8204 22.35C10.5104 23 8.74037 24.96 8.37037 27.37C8.29037 27.87 8.70037 28.32 9.21037 28.32H19.8004C20.3104 28.32 20.7204 27.87 20.6404 27.37H20.6304Z" stroke="#12182F" stroke-width="1.5" stroke-linecap="round" stroke-linejoin="round"/>
<path d="M55.6899 44.43C55.3199 42.01 53.5499 40.06 51.2399 39.41C52.2199 38.83 52.8899 37.77 52.8899 36.55C52.8899 34.71 51.3999 33.22 49.5599 33.22C47.7199 33.22 46.2299 34.71 46.2299 36.55C46.2299 37.77 46.8999 38.83 47.8799 39.41C45.5699 40.06 43.7999 42.02 43.4299 44.43C43.3499 44.93 43.7599 45.38 44.2699 45.38H54.8599C55.3699 45.38 55.7799 44.93 55.6999 44.43H55.6899Z" stroke="#12182F" stroke-width="1.5" stroke-linecap="round" stroke-linejoin="round"/>
<path d="M20.6304 44.43C20.2604 42.01 18.4904 40.06 16.1804 39.41C17.1604 38.83 17.8304 37.77 17.8304 36.55C17.8304 34.71 16.3404 33.22 14.5004 33.22C12.6604 33.22 11.1704 34.71 11.1704 36.55C11.1704 37.77 11.8404 38.83 12.8204 39.41C10.5104 40.06 8.74037 42.02 8.37037 44.43C8.29037 44.93 8.70037 45.38 9.21037 45.38H19.8004C20.3104 45.38 20.7204 44.93 20.6404 44.43H20.6304Z" fill="#F4B8BF"/>
<path d="M38.6597 55.72C38.2897 53.3 36.5197 51.35 34.2097 50.7C35.1897 50.12 35.8597 49.06 35.8597 47.84C35.8597 46 34.3697 44.51 32.5297 44.51C30.6897 44.51 29.1997 46 29.1997 47.84C29.1997 49.06 29.8697 50.12 30.8497 50.7C28.5397 51.35 26.7697 53.31 26.3997 55.72C26.3197 56.22 26.7297 56.67 27.2397 56.67H37.8297C38.3397 56.67 38.7497 56.22 38.6697 55.72H38.6597Z" stroke="#12182F" stroke-width="1.5" stroke-linecap="round" stroke-linejoin="round"/>
<path d="M32.0005 37.77C35.1872 37.77 37.7705 35.1867 37.7705 32C37.7705 28.8133 35.1872 26.23 32.0005 26.23C28.8138 26.23 26.2305 28.8133 26.2305 32C26.2305 35.1867 28.8138 37.77 32.0005 37.77Z" stroke="#12182F" stroke-width="1.5" stroke-linecap="round" stroke-linejoin="round"/>
<path d="M30.5498 31L31.6998 32.66C32.6398 31.96 33.5798 31.35 34.5198 30.65" stroke="#12182F" stroke-width="1.5" stroke-linecap="round" stroke-linejoin="round"/>
</svg>
