<svg width="64" height="64" viewBox="0 0 64 64" fill="none" xmlns="http://www.w3.org/2000/svg">
<path d="M38.7103 6.76C39.5603 6.52 40.4303 6.99 40.6503 7.8L45.3103 24.64C45.6603 25.9 45.0103 27.19 43.8603 27.5L14.6603 35.58C13.5103 35.9 12.2903 35.13 11.9403 33.87L7.28034 17.03C7.06034 16.22 7.56034 15.38 8.41034 15.14L38.7003 6.76H38.7103Z" stroke="#12182F" stroke-width="1.5" stroke-linecap="round" stroke-linejoin="round"/>
<path d="M30.5996 21.44C34.0496 22.23 37.4896 23.03 40.9396 23.82" stroke="#12182F" stroke-width="1.5" stroke-linecap="round" stroke-linejoin="round"/>
<path d="M15.2695 30.92C17.8095 28.47 20.3595 26.02 22.8995 23.57" stroke="#12182F" stroke-width="1.5" stroke-linecap="round" stroke-linejoin="round"/>
<path d="M40.2201 7.22L26.5501 20.39C26.3801 20.56 26.1301 20.62 25.9001 20.57L7.37012 16.31" stroke="#12182F" stroke-width="1.5" stroke-linecap="round" stroke-linejoin="round"/>
<path d="M43.3704 50.17C44.9304 50.22 46.2804 48.93 46.8404 47.47C47.4004 46.01 47.3504 44.4 47.3404 42.84C47.3304 41.28 47.3804 39.65 48.0904 38.26C48.8004 36.87 50.4004 35.81 51.9104 36.19C53.6904 36.64 54.4804 38.72 54.7104 40.54C55.1804 44.25 54.4104 48.2 52.1904 51.21C49.9704 54.22 46.2104 56.16 42.4804 55.81L18.4404 56C20.4904 53.45 26.7904 50.79 30.0504 51.06" stroke="#12182F" stroke-width="1.5" stroke-linecap="round" stroke-linejoin="round"/>
<path d="M49.3398 28.69C50.5398 30.93 50.8498 33.62 50.1998 36.07" stroke="#12182F" stroke-width="1.5" stroke-linecap="round" stroke-linejoin="round"/>
<path d="M53.28 28.96C54.18 31.18 53.86 33.86 52.46 35.8" stroke="#12182F" stroke-width="1.5" stroke-linecap="round" stroke-linejoin="round"/>
<path d="M22.4202 42.83C22.2002 44.13 22.2402 45.46 22.5902 46.73C24.6002 54 36.7102 56.25 42.2702 52.02C47.7002 47.89 45.8402 39.99 40.9402 36.2C38.9402 34.65 36.3702 33.92 33.8502 33.93C30.5602 33.93 27.2402 35.21 25.0002 37.61C23.6602 39.05 22.7502 40.9 22.4202 42.83Z" fill="#F4B8BF"/>
<path d="M30.0197 44.85C31.0197 43.9 32.5497 43.43 33.8497 43.89C35.1497 44.35 36.0797 45.85 35.6997 47.18C35.4297 48.12 34.5797 48.83 33.6297 49.1C32.6797 49.37 31.6597 49.24 30.7297 48.92C29.0297 48.34 27.4897 46.98 27.1897 45.21C26.9697 43.89 27.4697 42.52 28.2697 41.45C30.4997 38.51 35.2297 37.89 38.1397 40.17C41.0497 42.45 41.5897 47.19 39.2597 50.06" stroke="#12182F" stroke-width="1.5" stroke-linecap="round" stroke-linejoin="round"/>
</svg>
