<svg width="64" height="64" viewBox="0 0 64 64" fill="none" xmlns="http://www.w3.org/2000/svg">
<path d="M29.9004 51.13C41.5204 51.13 50.9403 41.7101 50.9403 30.09C50.9403 18.4699 41.5204 9.04999 29.9004 9.04999C18.2803 9.04999 8.86035 18.4699 8.86035 30.09C8.86035 41.7101 18.2803 51.13 29.9004 51.13Z" stroke="#12182F" stroke-width="1.5" stroke-miterlimit="10"/>
<path d="M37.8198 38.55C37.3298 35.4 35.0298 32.84 32.0098 32C33.2898 31.24 34.1698 29.86 34.1698 28.26C34.1698 25.86 32.2198 23.91 29.8198 23.91C27.4198 23.91 25.4698 25.86 25.4698 28.26C25.4698 29.86 26.3398 31.24 27.6298 32C24.6098 32.85 22.3098 35.4 21.8198 38.55C21.7198 39.21 22.2498 39.8 22.9098 39.8H36.7398C37.3998 39.8 37.9298 39.21 37.8298 38.55H37.8198Z" stroke="#12182F" stroke-width="1.5" stroke-linecap="round" stroke-linejoin="round"/>
<path d="M40.0301 16.31L40.9901 18.26C41.0601 18.4 41.1901 18.49 41.3401 18.51L43.4901 18.82C43.8701 18.88 44.0201 19.34 43.7501 19.61L42.2001 21.13C42.0901 21.24 42.0401 21.39 42.0701 21.54L42.4401 23.68C42.5001 24.06 42.1101 24.35 41.7701 24.17L39.8501 23.16C39.7201 23.09 39.5501 23.09 39.4201 23.16L37.5001 24.17C37.1601 24.35 36.7601 24.06 36.8301 23.68L37.2001 21.54C37.2301 21.39 37.1801 21.24 37.0701 21.13L35.5201 19.61C35.2501 19.34 35.4001 18.88 35.7801 18.82L37.9301 18.51C38.0801 18.49 38.2101 18.39 38.2801 18.26L39.2401 16.31C39.4101 15.97 39.9001 15.97 40.0701 16.31H40.0301Z" fill="#F4B8BF"/>
<path d="M20.5897 15.48L21.5497 17.43C21.6197 17.57 21.7497 17.66 21.8997 17.68L24.0497 17.99C24.4297 18.05 24.5797 18.51 24.3097 18.78L22.7597 20.3C22.6497 20.41 22.5997 20.56 22.6297 20.71L22.9997 22.85C23.0597 23.23 22.6697 23.52 22.3297 23.34L20.4097 22.33C20.2797 22.26 20.1097 22.26 19.9797 22.33L18.0597 23.34C17.7197 23.52 17.3197 23.23 17.3897 22.85L17.7597 20.71C17.7897 20.56 17.7397 20.41 17.6297 20.3L16.0797 18.78C15.8097 18.51 15.9597 18.05 16.3397 17.99L18.4897 17.68C18.6397 17.66 18.7697 17.56 18.8397 17.43L19.7997 15.48C19.9697 15.14 20.4597 15.14 20.6297 15.48H20.5897Z" fill="#F4B8BF"/>
<path d="M30.0799 11.4L31.0399 13.35C31.1099 13.49 31.2399 13.58 31.3899 13.6L33.5399 13.91C33.9199 13.97 34.0699 14.43 33.7999 14.7L32.2499 16.22C32.1399 16.33 32.0899 16.48 32.1199 16.63L32.4899 18.77C32.5499 19.15 32.1599 19.44 31.8199 19.26L29.8999 18.25C29.7699 18.18 29.5999 18.18 29.4699 18.25L27.5499 19.26C27.2099 19.44 26.8099 19.15 26.8799 18.77L27.2499 16.63C27.2799 16.48 27.2299 16.33 27.1199 16.22L25.5699 14.7C25.2999 14.43 25.4499 13.97 25.8299 13.91L27.9799 13.6C28.1299 13.58 28.2599 13.48 28.3299 13.35L29.2899 11.4C29.4599 11.06 29.9499 11.06 30.1199 11.4H30.0799Z" fill="#F4B8BF"/>
<path d="M47.51 43.18L53.31 48.98C54.71 50.38 54.71 52.64 53.31 54.03C51.91 55.43 49.65 55.43 48.26 54.03L42.46 48.23" stroke="#12182F" stroke-width="1.5" stroke-linecap="round" stroke-linejoin="round"/>
<path d="M14.6501 24.06C12.3601 29.37 13.4301 35.96 17.2701 40.27" stroke="#12182F" stroke-width="1.5" stroke-linecap="round" stroke-linejoin="round"/>
<path d="M45.9203 31.85C46.0403 34.37 45.0904 36.93 43.3604 38.76" stroke="#12182F" stroke-width="1.5" stroke-linecap="round" stroke-linejoin="round"/>
</svg>
