<svg width="64" height="64" viewBox="0 0 64 64" fill="none" xmlns="http://www.w3.org/2000/svg">
<path d="M50.0399 13.28H12.3799C10.723 13.28 9.37988 14.6231 9.37988 16.28V26.95C9.37988 28.6069 10.723 29.95 12.3799 29.95H50.0399C51.6967 29.95 53.0399 28.6069 53.0399 26.95V16.28C53.0399 14.6231 51.6967 13.28 50.0399 13.28Z" stroke="#12182F" stroke-width="1.5" stroke-miterlimit="10"/>
<path d="M27.6199 35.48H12.3799C10.723 35.48 9.37988 36.8231 9.37988 38.48V49.15C9.37988 50.8069 10.723 52.15 12.3799 52.15H27.6199C29.2767 52.15 30.6199 50.8069 30.6199 49.15V38.48C30.6199 36.8231 29.2767 35.48 27.6199 35.48Z" fill="#F4B8BF"/>
<path d="M36.8896 39.6599H49.7896" stroke="#12182F" stroke-width="1.5" stroke-linecap="round" stroke-linejoin="round"/>
<path d="M36.8896 47.97H49.7896" stroke="#12182F" stroke-width="1.5" stroke-linecap="round" stroke-linejoin="round"/>
<path d="M36.8896 43.8101H48.5196" stroke="#12182F" stroke-width="1.5" stroke-linecap="round" stroke-linejoin="round"/>
<path d="M17.5596 26.44L45.1596 17.5" stroke="#12182F" stroke-width="1.5" stroke-linecap="round" stroke-linejoin="round"/>
<path d="M45.1596 26.44L17.5596 17.5" stroke="#12182F" stroke-width="1.5" stroke-linecap="round" stroke-linejoin="round"/>
</svg>
