<svg width="25" height="25" viewBox="0 0 25 25" fill="none" xmlns="http://www.w3.org/2000/svg">
<path d="M19.05 8C17.73 8 16.4833 8.52045 15.5942 9.42193L9.15 15.2212C8.56333 15.816 7.78417 16.1413 6.95 16.1413C5.23583 16.1413 3.8425 14.7379 3.8425 13C3.8425 11.2621 5.23583 9.85874 6.95 9.85874C7.78417 9.85874 8.56333 10.184 9.18667 10.816L10.2225 11.7454L11.6067 10.5L10.4517 9.4684C9.51667 8.52045 8.27 8 6.95 8C4.21833 8 2 10.2491 2 13C2 15.7509 4.21833 18 6.95 18C8.27 18 9.51667 17.4796 10.4058 16.5781L16.85 10.7788C17.4367 10.184 18.2158 9.85874 19.05 9.85874C20.7642 9.85874 22.1575 11.2621 22.1575 13C22.1575 14.7379 20.7642 16.1413 19.05 16.1413C18.225 16.1413 17.4367 15.816 16.8133 15.184L15.7683 14.2454L14.3842 15.4907L15.5483 16.5316C16.4833 17.4703 17.7208 17.9907 19.05 17.9907C21.7817 17.9907 24 15.7509 24 12.9907C24 10.2305 21.7817 8 19.05 8Z" fill="#121830"/>
</svg>
