<svg width="64" height="64" viewBox="0 0 64 64" fill="none" xmlns="http://www.w3.org/2000/svg">
<path d="M44.8929 6.94995H20.1971C18.6466 6.94995 17.3896 8.20687 17.3896 9.75736V50.9514C17.3896 52.5018 18.6466 53.7588 20.1971 53.7588H44.8929C46.4433 53.7588 47.7003 52.5018 47.7003 50.9514V9.75736C47.7003 8.20687 46.4433 6.94995 44.8929 6.94995Z" stroke="#12182F" stroke-width="1.5" stroke-miterlimit="10"/>
<path d="M21.9757 11.6384C22.2341 11.6384 22.4436 11.429 22.4436 11.1705C22.4436 10.9121 22.2341 10.7026 21.9757 10.7026C21.7173 10.7026 21.5078 10.9121 21.5078 11.1705C21.5078 11.429 21.7173 11.6384 21.9757 11.6384Z" fill="#12182F" stroke="#12182F" stroke-width="0.5" stroke-linecap="round" stroke-linejoin="round"/>
<path d="M24.0812 11.6384C24.3396 11.6384 24.5491 11.429 24.5491 11.1705C24.5491 10.9121 24.3396 10.7026 24.0812 10.7026C23.8228 10.7026 23.6133 10.9121 23.6133 11.1705C23.6133 11.429 23.8228 11.6384 24.0812 11.6384Z" fill="#12182F" stroke="#12182F" stroke-width="0.5" stroke-linecap="round" stroke-linejoin="round"/>
<path d="M26.1867 11.6384C26.4451 11.6384 26.6546 11.429 26.6546 11.1705C26.6546 10.9121 26.4451 10.7026 26.1867 10.7026C25.9282 10.7026 25.7188 10.9121 25.7188 11.1705C25.7188 11.429 25.9282 11.6384 26.1867 11.6384Z" fill="#12182F" stroke="#12182F" stroke-width="0.5" stroke-linecap="round" stroke-linejoin="round"/>
<path d="M56.3947 24.9548H34.7683C33.2179 24.9548 31.9609 26.2118 31.9609 27.7622V36.774C31.9609 38.3245 33.2179 39.5814 34.7683 39.5814H56.3947C57.9452 39.5814 59.2021 38.3245 59.2021 36.774V27.7622C59.2021 26.2118 57.9452 24.9548 56.3947 24.9548Z" fill="#F4B8BF"/>
<path d="M25.4101 14.7454H9.87576C8.32528 14.7454 7.06836 16.0023 7.06836 17.5528V26.5645C7.06836 28.115 8.32528 29.3719 9.87576 29.3719H25.4101C26.9606 29.3719 28.2175 28.115 28.2175 26.5645V17.5528C28.2175 16.0023 26.9606 14.7454 25.4101 14.7454Z" fill="white" stroke="#12182F" stroke-width="1.5" stroke-miterlimit="10"/>
<path d="M37.2576 45.5144H24.2312C22.6807 45.5144 21.4238 46.7713 21.4238 48.3218V55.2467C21.4238 56.7972 22.6807 58.0541 24.2312 58.0541H37.2576C38.8081 58.0541 40.065 56.7972 40.065 55.2467V48.3218C40.065 46.7713 38.8081 45.5144 37.2576 45.5144Z" fill="white" stroke="#12182F" stroke-width="1.5" stroke-miterlimit="10"/>
<path d="M39.4939 35.52C41.2925 35.52 42.7505 34.062 42.7505 32.2634C42.7505 30.4649 41.2925 29.0068 39.4939 29.0068C37.6953 29.0068 36.2373 30.4649 36.2373 32.2634C36.2373 34.062 37.6953 35.52 39.4939 35.52Z" stroke="#12182F" stroke-width="1.5" stroke-miterlimit="10"/>
<path d="M46.5117 30.3169H54.9339" stroke="#12182F" stroke-width="1.5" stroke-linecap="round" stroke-linejoin="round"/>
<path d="M46.5117 34.0601H53.315" stroke="#12182F" stroke-width="1.5" stroke-linecap="round" stroke-linejoin="round"/>
</svg>
