<svg width="102" height="28" viewBox="0 0 102 28" fill="none" xmlns="http://www.w3.org/2000/svg">
<g clip-path="url(#clip0_1571_500)">
<path fill-rule="evenodd" clip-rule="evenodd" d="M14.4167 23.1827C14.7339 23.0194 15.1095 23.2529 15.1095 23.6133V27.5163C15.1095 27.8768 14.7339 28.1103 14.4167 27.947L11.5047 26.448L8.59267 27.947C8.27553 28.1103 7.89986 27.8768 7.89986 27.5163V23.6133C7.89986 23.2529 8.27553 23.0194 8.59267 23.1827L11.5047 24.6816L14.4167 23.1827ZM11.5047 0C12.5213 0 13.3454 0.817976 13.3454 1.82703C13.3454 2.56431 12.9053 3.19913 12.2717 3.4878V6.07761H15.969C19.8511 6.07761 23.0093 9.21241 23.0093 13.0655V14.924C23.0093 18.7771 19.8511 21.9119 15.969 21.9119H7.0404C3.15834 21.9119 0 18.7771 0 14.924V13.0655C0 9.21241 3.15834 6.07761 7.0404 6.07761H10.7377V3.4878C10.1042 3.19913 9.66393 2.56431 9.66393 1.82703C9.66393 0.817976 10.488 0 11.5047 0V0ZM71.0287 7.51447C71.9587 7.4997 72.8403 7.65842 73.6737 7.99072C74.5068 8.32308 75.2211 8.77908 75.8164 9.3587C76.4115 9.93848 76.8783 10.6326 77.2169 11.4412C77.5554 12.2498 77.7173 13.1046 77.7024 14.0055C77.7173 14.9066 77.5554 15.7612 77.2169 16.5698C76.8783 17.3784 76.4115 18.0708 75.8164 18.6468C75.2211 19.2228 74.5068 19.6769 73.6737 20.0092C72.8403 20.3416 71.9587 20.5003 71.0287 20.4855C70.0986 20.5003 69.217 20.3416 68.3837 20.0092C67.5504 19.6769 66.8362 19.2228 66.241 18.6468C65.6457 18.0708 65.1788 17.3784 64.8404 16.5698C64.5017 15.7612 64.34 14.9066 64.3549 14.0055C64.34 13.1046 64.5017 12.2498 64.8404 11.4412C65.1788 10.6326 65.6457 9.93848 66.241 9.3587C66.8362 8.77908 67.5504 8.32308 68.3837 7.99072C69.217 7.65842 70.0986 7.4997 71.0287 7.51447ZM35.1891 7.51441C35.9553 7.51441 36.6566 7.67328 37.2927 7.99073C37.9289 8.30833 38.4552 8.7625 38.8719 9.35324V7.83566H42.711V20.1754H38.8719V18.6468C38.4552 19.2376 37.9289 19.6916 37.2927 20.0092C36.6566 20.3267 35.9553 20.4855 35.1891 20.4855C34.0433 20.4855 33.0091 20.2012 32.0865 19.6326C31.1639 19.064 30.4461 18.285 29.9326 17.2954C29.4193 16.3059 29.1626 15.2092 29.1626 14.0055C29.1626 12.8019 29.4193 11.7053 29.9326 10.7157C30.4461 9.72618 31.1639 8.9452 32.0865 8.37288C33.0091 7.80064 34.0433 7.51441 35.1891 7.51441ZM48.113 7.83567L50.278 15.523L52.4542 7.96859H55.9696L58.1459 15.523L60.311 7.83567H64.3843L60.1771 20.1754H56.3157L54.1617 13.3852L52.019 20.1754H48.1576L43.9503 7.83567H48.113ZM86.2462 7.60306C86.8265 7.60306 87.3213 7.68055 87.7306 7.8357V11.3249C87.2692 11.1847 86.7485 11.1145 86.1682 11.1145C85.2307 11.1145 84.4754 11.3821 83.9026 11.9175C83.3297 12.453 83.0433 13.1711 83.0433 14.072V20.1754H79.2042V7.8357H83.0433V9.64118C83.326 9.0136 83.7556 8.51688 84.3323 8.15132C84.9088 7.78576 85.5468 7.60306 86.2462 7.60306ZM93.2058 3.03932V12.9975L97.3685 7.83565H101.754L96.7213 13.9834L102 20.1754H97.5695L93.2058 14.9582V20.1754H89.3667V3.03932H93.2058ZM15.969 9.88392H7.0404C5.27006 9.88392 3.83489 11.3084 3.83489 13.0655V14.924C3.83489 16.6812 5.27006 18.1055 7.0404 18.1055H15.969C17.7394 18.1055 19.1745 16.6812 19.1745 14.924V13.0655C19.1745 11.3084 17.7394 9.88392 15.969 9.88392ZM35.8364 10.8043C34.9435 10.8043 34.2181 11.1052 33.6602 11.7071C33.1022 12.309 32.8232 13.075 32.8232 14.0055C32.8232 14.936 33.1022 15.7003 33.6602 16.2985C34.2181 16.8966 34.9435 17.1957 35.8364 17.1957C36.7292 17.1957 37.4546 16.8966 38.0126 16.2985C38.5706 15.7003 38.8496 14.936 38.8496 14.0055C38.8496 13.075 38.5706 12.309 38.0126 11.7071C37.4546 11.1052 36.7292 10.8043 35.8364 10.8043ZM71.0287 10.8486C70.1284 10.8486 69.401 11.144 68.8468 11.7348C68.2925 12.3256 68.0155 13.0825 68.0155 14.0055C68.0155 14.9287 68.2925 15.6836 68.8468 16.2707C69.401 16.8578 70.1284 17.1514 71.0287 17.1514C71.9288 17.1514 72.6561 16.8578 73.2105 16.2707C73.7647 15.6836 74.0419 14.9287 74.0419 14.0055C74.0419 13.0825 73.7647 12.3256 73.2105 11.7348C72.6561 11.144 71.9288 10.8486 71.0287 10.8486ZM7.97657 12.164C8.9932 12.164 9.81732 12.982 9.81732 13.9911C9.81732 15.0001 8.9932 15.8181 7.97657 15.8181C6.95994 15.8181 6.13583 15.0001 6.13583 13.9911C6.13583 12.982 6.95994 12.164 7.97657 12.164ZM15.0328 12.164C16.0494 12.164 16.8735 12.982 16.8735 13.9911C16.8735 15.0001 16.0494 15.8181 15.0328 15.8181C14.0161 15.8181 13.192 15.0001 13.192 13.9911C13.192 12.982 14.0161 12.164 15.0328 12.164Z" fill="#091A34"/>
</g>
<defs>
<clipPath id="clip0_1571_500">
<rect width="102" height="28" fill="white"/>
</clipPath>
</defs>
</svg>
