<svg width="666" height="147" viewBox="0 0 666 147" fill="none" xmlns="http://www.w3.org/2000/svg">
<path d="M69.3328 77.8202C67.3248 77.3557 65.3638 77.05 63.3882 77.05H42.6881V93.1139H63.8027C67.3865 93.1139 70.3588 92.4259 72.5931 91.05C74.7364 89.7329 75.7653 87.7249 75.7653 84.9702C75.7653 82.9299 75.1803 81.4011 74.0014 80.3133C72.7931 79.1491 71.2143 78.323 69.3328 77.8202ZM131.745 54.5447C131.271 55.8912 130.78 57.1466 130.275 58.449C129.478 60.454 128.684 62.3503 127.873 64.1437L121.546 78.5847H142.035L135.543 63.8203C134.211 60.8215 132.953 57.7434 131.745 54.5447ZM69.8384 64.2054C71.6759 62.9794 72.5931 61.2655 72.5931 59.0311C72.5931 56.5028 71.6612 54.8035 69.7444 53.748C67.6305 52.6309 65.0111 52.0311 61.9506 52.0311H42.7204V66.181H62.9766C65.5638 66.2134 67.8628 65.5078 69.8384 64.2054ZM291.939 64.711L341.213 0L297.757 17.3809L18.4365 17.2898C8.62 17.2898 0.564575 25.3423 0.564575 35.1587V110.248C0.564575 120.097 8.62 128.12 18.4365 128.12H239.438L283.796 71.9992L258.606 41.315H273.368L291.939 64.711ZM85.0585 94.4015C83.6473 96.8358 81.7658 98.7791 79.4697 100.19C77.2353 101.584 74.6746 102.578 71.9493 103.13C69.2416 103.695 66.528 103.986 63.8027 103.986H31.4957V41.2503H62.1828C69.2681 41.2503 74.6746 42.6292 78.3201 45.3692C82.0568 48.1268 83.9413 52.2457 83.9413 57.4847C83.9413 60.3923 83.1417 63.0265 81.5659 65.3549C80.3546 67.1453 78.7053 68.6477 76.5915 69.7648C78.0291 70.3763 79.405 71.1701 80.7397 72.0932C82.683 73.4368 84.2618 75.2272 85.3789 77.3734C86.5608 79.5636 87.14 82.1655 87.14 85.1966C87.2017 88.8421 86.4667 91.9349 85.0585 94.4015ZM153.35 103.986L146.824 89.3478H116.754L110.233 103.986H98.5146L126.309 41.2503H137.825L138.069 41.7707L165.489 103.986H153.35ZM242.925 103.986H232.499L191.217 58.3255L192.014 66.7014C192.366 70.3587 192.552 74.0807 192.552 77.7556V103.986H181.371V41.2503H191.631L232.82 87.9101C232.62 85.8404 232.408 83.7002 232.267 81.4923C232.023 78.2613 231.888 74.9068 231.823 71.5552C231.762 68.2302 231.703 65.0932 231.703 62.1533V41.2503H242.877V104.018H242.925V103.986Z" fill="#484A4A"/>
<path d="M462.044 54.5447C461.583 55.8912 461.077 57.1466 460.574 58.449C459.775 60.457 458.996 62.3532 458.169 64.1436L451.846 78.5846H472.334L465.84 63.8232C464.537 60.8509 463.253 57.7757 462.044 54.5447ZM551.251 56.5351C550.243 55.1562 548.896 54.039 547.241 53.307C545.603 52.5103 543.716 52.1252 541.714 52.1252H522.848V70.5321H542.863C544.713 70.5321 546.429 70.0882 547.899 69.2121C549.369 68.2948 550.592 67.1482 551.451 65.7077C552.309 64.2965 552.768 62.7384 552.768 61.1302C552.721 59.3809 552.248 57.8845 551.251 56.5351ZM647.584 17.2574H341.718L298.528 72.7959L324.279 103.986H309.517L290.534 80.2398L238.441 147L286.03 127.982L647.552 128.043C657.409 128.043 665.435 119.988 665.435 110.16V35.097C665.465 25.3129 657.409 17.2574 647.584 17.2574ZM400.749 103.986H393.014L377.353 67.3334L361.736 103.986H353.743L331.952 41.2533H344.032L356.683 78.7081C357.215 80.2986 357.706 81.9097 358.153 83.5914C358.347 84.2646 358.532 84.9408 358.699 85.5817C358.949 84.9084 359.176 84.2352 359.47 83.5325C360.096 81.8774 360.737 80.2074 361.442 78.5552L372.726 51.8047H382.695L393.72 78.4641C394.702 80.8513 395.575 83.1798 396.372 85.3524C396.566 84.6821 396.783 83.9912 396.983 83.2856C397.518 81.648 398.036 79.934 398.636 78.2642L411.971 41.2533H424.007L400.749 103.986ZM483.647 103.986L477.126 89.3507H447.024L440.497 103.986H428.799L456.576 41.2533H468.106L468.336 41.7736L495.792 103.986H483.632H483.647ZM554.453 103.986L539.218 81.357H522.816V103.986H511.641V41.2533H543.901C547.455 41.2533 550.807 42.094 553.885 43.8139C556.951 45.5103 559.506 47.8387 561.45 50.8081C563.378 53.7803 564.39 57.3024 564.39 61.236C564.39 65.4196 563.058 69.2915 560.438 72.7047C558.095 75.8299 555.129 78.1113 551.604 79.6136L568.206 104.139L554.453 103.986ZM634.534 52.0957H598.752V66.4103H629.744V77.2675H598.752V93.1491H634.534V103.986H587.556V41.2238H634.534V52.0957Z" fill="#484A4A"/>
</svg>
