<svg width="240" height="77" viewBox="0 0 240 77" fill="none" xmlns="http://www.w3.org/2000/svg">
<path d="M213.774 64.2829C199.899 64.2829 187.856 53.1419 187.856 38.4025C187.856 23.663 199.452 12.4681 213.772 12.4681C220.621 12.4681 227.237 15.1992 232.094 20.0549L233.481 21.4434C234.239 22.2012 234.239 23.4281 233.481 24.1846L230.706 26.9612C229.948 27.7185 228.72 27.7185 227.963 26.9612L226.574 25.5727C223.136 22.1345 218.627 20.27 213.797 20.27C203.762 20.27 195.682 28.3598 195.682 38.4025C195.682 48.4456 204.107 56.4794 213.772 56.4794C222.416 56.4794 229.664 50.391 231.454 42.2769H213.798C212.727 42.2769 211.859 41.4087 211.859 40.3381V36.4121C211.859 35.3415 212.727 34.4733 213.798 34.4733H235.78C237.928 34.4733 239.68 36.2115 239.681 38.3587C239.69 52.6517 228.065 64.2829 213.774 64.2829Z" fill="#3F4141"/>
<path fill-rule="evenodd" clip-rule="evenodd" d="M158.683 44.5115C156.123 51.7083 149.266 56.5434 141.622 56.5434C131.639 56.5434 123.517 48.4218 123.517 38.4391C123.517 28.4569 131.639 20.3349 141.622 20.3349C151.604 20.3349 159.727 28.4569 159.727 38.4391C159.727 40.5249 159.375 42.5675 158.683 44.5115ZM141.622 12.4681C135.785 12.4681 129.617 14.6608 125.269 18.291C118.715 23.7633 117.092 25.8058 109.127 36.5384C105.454 41.4891 102.139 46.2781 96.7726 51.2929C89.321 58.2552 78.467 58.3046 71.3236 51.3926C64.4263 44.7173 64.0014 33.6091 70.3768 26.47C73.742 22.7012 78.3637 20.4829 83.3904 20.3411C88.4249 20.1998 93.1499 22.0154 96.7059 25.5718L98.7136 27.5786C99.1107 27.9755 99.7678 27.9296 100.105 27.4813L103.451 23.0403C103.885 22.4658 103.828 21.6602 103.32 21.1515L102.503 20.3318C97.4766 15.3056 90.6613 12.3687 83.5533 12.4681C78.6897 12.5362 74.2724 13.8725 70.0792 16.4482C61.3539 21.8043 55.9248 32.6202 54.0626 36.3484C47.223 50.0439 39.9383 56.4639 28.1344 56.4639C16.3304 56.4639 10.2942 50.2311 8.24375 42.2663H40.9518C43.3062 42.2663 45.6252 41.4974 47.4115 39.9649C50.5511 37.2719 51.5673 33.0107 50.1894 29.3146C46.4298 19.2313 36.6707 12.4567 25.9064 12.4567C18.8 12.4567 12.1707 15.2764 7.2408 20.3976C2.31529 25.5153 -0.250143 32.2532 0.0192517 39.3688C0.531986 52.8646 11.1687 64.2662 28.1356 64.2662C41.7914 64.2662 50.9345 57.6867 58.6987 44.2316C59.8099 49.079 62.2826 53.4992 65.8991 56.9995C70.8838 61.823 77.3492 64.286 83.8625 64.2852C90.3761 64.2852 96.936 61.8209 102.102 56.9942C108.031 51.4536 111.813 46.2458 115.469 41.1499C115.583 40.9917 115.7 40.831 115.818 40.6703C116.983 53.8851 128.11 64.2843 141.623 64.2843C152.56 64.2843 162.371 57.3644 166.037 47.0651C167.028 44.2789 167.531 41.3557 167.531 38.376C167.531 24.0901 155.909 12.4681 141.623 12.4681H141.622ZM8.25522 34.5254H41.1951C42.0599 34.5254 42.5363 33.9729 42.7015 33.7349C42.9007 33.4483 43.1931 32.8552 42.9123 32.1026C40.2849 25.0564 33.5806 20.3438 25.9416 20.3438C20.9755 20.3438 16.3538 22.2989 12.9092 25.8779C10.5535 28.3244 8.95963 31.2953 8.25522 34.5254Z" fill="#3F4141"/>
<path d="M166.696 76.8045H171.175C172.287 76.8045 173.251 76.037 173.5 74.9545L190.344 1.87653C190.566 0.916447 189.837 0 188.851 0H184.371C183.26 0 182.296 0.7671 182.047 1.84997L165.202 74.9272C164.981 75.8873 165.71 76.8045 166.696 76.8045Z" fill="#3F4141"/>
</svg>
