<svg width="2582" height="437" viewBox="0 0 2582 437" fill="none" xmlns="http://www.w3.org/2000/svg">
<g clip-path="url(#clip0_30_116)">
<path d="M673.4 180.186V343.048H626.255V97.9182H688.438L759.491 279.561L830.902 97.9182H893.085V343.072H845.94V178.824L781.031 343.072H737.639L673.4 180.186Z" fill="#0B0F1E"/>
<path d="M1044.4 320.54C1032.44 337.624 1014.34 346.489 989.385 346.489C951.468 346.489 926.174 324.291 926.174 290.146C926.174 254.64 954.863 235.524 1008.18 235.524C1018.43 235.524 1027.3 236.217 1038.59 237.579V226.66C1038.59 206.182 1026.97 194.211 1007.15 194.211C986.66 194.211 974.347 206.159 972.65 226.66H929.951C932.677 184.654 963.087 157.343 1007.17 157.343C1055.01 157.343 1083.01 183.626 1083.01 228.356V343.096H1044.4V320.54V320.54ZM999.641 313.706C1023.91 313.706 1038.59 300.397 1038.59 279.227V266.252C1027.3 264.532 1019.46 263.863 1011.26 263.863C984.269 263.863 970.952 272.393 970.952 288.784C970.952 304.148 981.878 313.706 999.641 313.706Z" fill="#0B0F1E"/>
<path d="M1114.09 343.741H1159.87C1161.92 364.577 1175.24 375.496 1197.79 375.496C1224.08 375.496 1237.76 361.494 1237.76 335.211V308.569C1227.86 325.988 1209.07 336.238 1186.86 336.238C1142.11 336.238 1108.63 298.342 1108.63 246.779C1108.63 193.853 1140.07 157.319 1185.16 157.319C1209.76 157.319 1228.22 166.877 1241.54 185.657V160.736H1284.93V334.542C1284.93 383.023 1252.13 412.389 1198.14 412.389C1148.92 412.389 1116.12 385.747 1114.09 343.741ZM1196.06 295.26C1221 295.26 1237.4 275.786 1237.4 247.113C1237.4 217.413 1221 198.273 1196.06 198.273C1171.8 198.273 1156.09 217.054 1156.09 246.755C1156.09 276.479 1171.46 295.26 1196.06 295.26Z" fill="#0B0F1E"/>
<path d="M1347.4 146.399C1328.94 146.399 1315.96 134.452 1315.96 118.395C1315.96 101.669 1328.94 89.7224 1347.4 89.7224C1366.19 89.7224 1379.17 101.669 1379.17 118.395C1379.17 134.452 1366.19 146.399 1347.4 146.399ZM1324.16 343.072V160.736H1371.64V343.072H1324.16V343.072Z" fill="#0B0F1E"/>
<path d="M1398.63 251.892C1398.63 197.27 1436.21 157.319 1487.45 157.319C1534.93 157.319 1570.12 189.409 1575.93 238.583H1526.06C1523.67 214.33 1508.96 199.325 1487.45 199.325C1462.85 199.325 1447.14 219.468 1447.14 251.916C1447.14 284.699 1462.51 304.507 1487.45 304.507C1509.32 304.507 1523.33 290.17 1526.06 265.249H1575.93C1570.45 315.45 1536.29 346.513 1487.45 346.513C1434.85 346.489 1398.63 307.565 1398.63 251.892Z" fill="#0B0F1E"/>
<path d="M1610.45 343.072V97.9182H1674C1752.92 97.9182 1794.94 147.761 1794.94 219.826C1794.94 290.17 1751.22 343.096 1674 343.096H1610.45V343.072ZM1627.19 328.736H1674C1740.96 328.736 1778.21 284.006 1778.21 219.802C1778.21 155.264 1741.66 112.231 1674 112.231H1627.19V328.736Z" fill="#0B0F1E"/>
<path d="M1819.86 251.892C1819.86 199.659 1854.02 160.712 1899.8 160.712C1949 160.712 1980.78 199.97 1978.39 257.34H1835.59C1837.64 304.125 1862.58 333.825 1901.52 333.825C1934.66 333.825 1957.54 314.71 1963.71 282.596H1979.08C1971.91 321.854 1942.19 346.799 1901.52 346.799C1852.66 346.823 1819.86 308.927 1819.86 251.892ZM1835.92 245.082H1961.98C1959.59 200.018 1936.36 173.041 1899.8 173.041C1863.92 173.017 1837.95 202.049 1835.92 245.082Z" fill="#0B0F1E"/>
<path d="M2077.43 346.489C2035.41 346.489 2008.41 324.626 2005.35 288.785H2020.39C2022.45 316.788 2044.3 333.849 2077.46 333.849C2110.26 333.849 2129.39 320.874 2129.39 297.984C2129.39 277.841 2118.46 268.618 2087.71 262.477L2063.81 258.033C2029.31 251.199 2011.88 234.808 2011.88 209.552C2011.88 180.879 2037.51 160.736 2074.73 160.736C2114.71 160.736 2140.67 181.906 2143.06 216.744H2128.02C2125.63 189.074 2105.81 173.041 2075.07 173.041C2046.71 173.041 2027.59 187.043 2027.59 208.548C2027.59 228.356 2039.54 238.583 2069.62 244.389L2093.88 249.168C2129.74 256.002 2145.47 270.004 2145.47 295.953C2145.43 327.015 2119.46 346.489 2077.43 346.489Z" fill="#0B0F1E"/>
<path d="M2194.6 137.511C2185.71 137.511 2179.23 131.011 2179.23 122.481C2179.23 114.286 2185.74 108.479 2194.6 108.479C2203.14 108.479 2209.64 114.286 2209.64 122.481C2209.64 131.035 2203.14 137.511 2194.6 137.511ZM2186.74 343.072V164.153H2202.45V343.072H2186.74V343.072Z" fill="#0B0F1E"/>
<path d="M2244.81 350.24H2259.85C2262.24 382.33 2283.09 399.749 2318.61 399.749C2357.22 399.749 2377.38 379.248 2377.38 341.017V299.704C2366.45 327.374 2343.55 343.741 2315.19 343.741C2269.75 343.741 2240.03 307.541 2240.03 251.892C2240.03 196.577 2269.75 160.712 2315.19 160.712C2343.21 160.712 2366.79 178.131 2378.05 206.804V164.153H2393.08V340.683C2393.08 386.44 2366.09 412.723 2318.95 412.723C2274.19 412.723 2246.87 389.498 2244.81 350.24ZM2316.89 330.097C2353.45 330.097 2378.05 300.063 2378.05 253.947C2378.05 205.131 2354.14 174.045 2316.89 174.045C2279.31 174.045 2256.07 203.411 2256.07 251.892C2256.09 300.732 2278.97 330.097 2316.89 330.097Z" fill="#0B0F1E"/>
<path d="M2460.72 343.072H2445.01V164.153H2460.05V200.687C2470.98 177.127 2493.88 160.736 2520.51 160.736C2558.43 160.736 2582 184.63 2582 226.636V343.072H2566.29V232.442C2566.29 195.215 2548.53 174.045 2516.76 174.045C2485.68 174.045 2460.72 201.356 2460.72 236.528V343.072Z" fill="#0B0F1E"/>
<path d="M435.497 190.293C435.378 190.173 435.617 190.054 435.091 188.644C432.772 183.125 427.225 179.66 421.201 179.66H332.672C325.165 179.66 321.483 170.676 326.695 165.419L390.814 101.335C395.118 97.0341 395.668 90.2004 391.938 85.3499C391.938 85.3021 391.89 85.2782 391.866 85.2304C386.176 77.8471 379.937 70.7745 373.219 64.0602C366.429 57.2743 359.328 51.014 351.965 45.3272L351.845 45.2077C347.733 41.1457 341.159 41.1457 337.094 45.2077L271.779 110.487C266.568 115.743 257.531 112.064 257.531 104.561V13.8825C257.531 7.83728 253.06 2.60446 247.035 1.83985C246.987 1.83985 246.964 1.83985 246.916 1.79206C237.687 0.573459 228.22 0 218.657 0C209.118 0 199.675 0.573459 190.423 1.79206C190.303 1.91153 190.183 1.67259 188.773 2.19826C183.25 4.51599 179.784 10.0594 179.784 16.0808V104.561C179.784 112.064 170.747 115.743 165.487 110.487L100.244 45.2794C96.1078 41.1457 89.3898 41.1696 85.2777 45.3272C77.8903 51.014 70.8137 57.2504 64.048 64.0124C57.2822 70.7745 51.0423 77.8471 45.3524 85.2304C45.3045 85.2782 45.2806 85.3021 45.2806 85.3499C41.5511 90.2004 42.1009 97.0341 46.4043 101.335L110.524 165.419C115.784 170.676 112.102 179.66 104.595 179.66H13.8663C7.81772 179.66 2.60591 184.128 1.81696 190.15C1.81696 190.197 1.81696 190.221 1.76915 190.269C0.573778 199.444 0 208.883 0 218.464C0 227.998 0.573778 237.436 1.79306 246.683C1.91259 246.803 1.6257 246.922 2.2473 248.308C4.56632 253.851 10.1606 257.34 16.1614 257.34H104.595V257.388C112.102 257.388 115.784 266.372 110.524 271.629L3.61002 377.814C-0.693315 382.115 -1.24319 388.949 2.48637 393.799C2.48637 393.847 2.53419 393.871 2.55809 393.919C8.24806 401.302 14.4879 408.375 21.2059 415.089C27.9956 421.875 35.0961 428.135 42.4596 433.822L42.5791 433.942C46.6912 438.004 53.2657 438.004 57.33 433.942L165.463 326.513C170.723 321.257 179.76 324.936 179.76 332.439V423.117C179.76 429.163 184.23 434.396 190.255 435.16C190.303 435.16 190.327 435.16 190.375 435.208C199.579 436.403 209.022 437 218.609 437C228.148 437 237.592 436.427 246.844 435.208C246.964 435.088 247.083 435.375 248.47 434.754C254.016 432.388 257.507 426.749 257.507 420.704V332.439C257.507 324.936 266.544 321.257 271.756 326.513L335.899 390.621C340.202 394.922 347.04 395.472 351.893 391.744C351.941 391.744 351.965 391.697 352.013 391.673C359.4 385.986 366.477 379.75 373.242 372.988C380.008 366.226 386.248 359.153 391.938 351.77C391.986 351.722 391.986 351.722 392.01 351.698C395.692 346.847 395.166 340.014 390.886 335.761L326.695 271.605C321.483 266.348 325.165 257.364 332.672 257.364V257.316H423.4C429.449 257.316 434.685 252.848 435.45 246.827C435.45 246.779 435.45 246.755 435.497 246.707C436.693 237.508 437.29 228.07 437.29 218.488C437.267 208.978 436.693 199.54 435.497 190.293ZM307.641 252.537C307.067 254.162 306.397 255.715 305.704 257.34C301.114 267.662 294.563 277.339 286.052 285.846C277.565 294.328 267.859 300.875 257.507 305.439C255.929 306.18 254.351 306.849 252.701 307.422C230.826 315.833 206.488 315.833 184.613 307.422L236.205 255.906C241.728 250.387 241.728 241.522 236.205 236.026L201.133 200.974C195.61 195.454 186.741 195.454 181.242 200.974L129.65 252.537C121.234 230.626 121.282 206.302 129.65 184.439C130.224 182.814 130.893 181.213 131.634 179.636C136.224 169.314 142.775 159.637 151.286 151.13C159.749 142.648 169.432 136.125 179.808 131.537C181.338 130.797 182.963 130.128 184.613 129.554C206.464 121.143 230.826 121.143 252.701 129.554C254.351 130.128 255.929 130.749 257.507 131.466C267.835 136.101 277.565 142.648 286.052 151.13C294.539 159.613 301.09 169.314 305.704 179.636C306.397 181.261 307.067 182.814 307.641 184.439C316.056 206.374 316.056 230.626 307.641 252.537Z" fill="url(#paint0_linear_30_116)"/>
</g>
<defs>
<linearGradient id="paint0_linear_30_116" x1="30.9465" y1="406.107" x2="376.776" y2="60.0849" gradientUnits="userSpaceOnUse">
<stop stop-color="#487CF9"/>
<stop offset="0.0509" stop-color="#5F7EF8" stop-opacity="0.9737"/>
<stop offset="0.2836" stop-color="#C285F4" stop-opacity="0.8538"/>
<stop offset="0.388" stop-color="#E988F3" stop-opacity="0.8"/>
<stop offset="0.4353" stop-color="#EE96DD" stop-opacity="0.8421"/>
<stop offset="0.4969" stop-color="#F4A4C8" stop-opacity="0.8967"/>
<stop offset="0.5569" stop-color="#F7ACBB" stop-opacity="0.95"/>
<stop offset="0.6132" stop-color="#F8AFB7"/>
<stop offset="0.833333" stop-color="#23ECC9"/>
<stop offset="1" stop-color="#00F6CC"/>
</linearGradient>
<clipPath id="clip0_30_116">
<rect width="2582" height="437" fill="white"/>
</clipPath>
</defs>
</svg>
