<svg width="313" height="56" viewBox="0 0 313 56" fill="none" xmlns="http://www.w3.org/2000/svg">
<path d="M59.8015 40.1508V42.3741H41.6695V40.1508L44.6117 37.6881V26.8797C44.6117 22.741 42.4563 21.0308 39.7536 21.0308C38.2825 21.0308 37.0167 21.4412 35.8193 22.1253C36.0588 23.254 36.1614 24.5196 36.1614 25.8193V37.6881L39.0694 40.1508V42.3741H20.9374V40.1508L23.8796 37.6881V26.8797C23.8796 22.741 21.8953 21.0308 19.2952 21.0308C17.7557 21.0308 16.353 21.5096 15.1899 22.2621V37.7223L18.132 40.185V42.4083H0V40.185L2.90797 37.7223V19.1154L0 16.8237V14.6004L12.4872 12.5824C13.103 12.4798 13.7188 12.6166 14.2319 12.9928C14.8477 13.4375 15.1899 14.1558 15.1899 14.8741V17.7814C17.6531 14.3268 21.2795 12.4114 25.1454 12.4114C29.7297 12.4114 33.1508 14.8057 34.8614 18.9101C37.2562 14.8741 41.2931 12.4114 45.6722 12.4114C52.5145 12.4114 56.8593 17.6788 56.8593 25.8193V37.6881L59.8015 40.1508Z" fill="#3F4141"/>
<path d="M96.4761 37.7565C94.4918 40.8691 90.8996 42.9555 86.76 42.9555C83.0652 42.9555 80.4309 41.1427 79.9177 37.9959C78.1045 40.698 74.786 43.3317 69.928 43.3317C65.07 43.3317 61.7173 40.5954 61.7173 36.4225C61.7173 29.9238 68.0464 26.3666 79.7467 25.4089C79.4046 22.0569 77.5914 20.3809 73.9992 20.3809C71.228 20.3809 68.0806 21.2018 65.5832 22.6725L63.8384 20.5177C67.5674 15.4897 73.2465 12.4456 79.2335 12.4456C87.7179 12.4456 92.097 17.3025 92.097 25.6825V32.6601C92.097 34.986 92.4391 35.9437 93.6023 35.9437C94.0813 35.9437 94.526 35.8411 95.005 35.6017L96.4761 37.8249V37.7565ZM79.7809 33.652V30.7105C78.0361 29.958 76.4282 29.5475 74.8545 29.5475C72.9044 29.5475 71.6386 30.4368 71.6386 31.9418C71.6386 33.7546 73.1439 34.6781 75.5729 34.6781C77.1466 34.6781 78.6861 34.2677 79.7809 33.6178" fill="#3F4141"/>
<path d="M157.92 40.1508V42.3741H139.788V40.1508L142.73 37.6881V26.8797C142.73 22.741 140.575 21.0308 137.872 21.0308C136.401 21.0308 135.135 21.4412 133.938 22.1253C134.177 23.254 134.28 24.5196 134.28 25.8193V37.6881L137.188 40.1508V42.3741H119.056V40.1508L121.998 37.6881V26.8797C121.998 22.741 120.014 21.0308 117.448 21.0308C115.942 21.0308 114.54 21.5096 113.342 22.2621V37.7223L116.285 40.185V42.4083H98.1525V40.185L101.06 37.7223V19.1154L98.1525 16.8237V14.6004L110.64 12.5824C111.255 12.4798 111.871 12.6166 112.384 12.9928C112.966 13.4375 113.342 14.1558 113.342 14.8741V17.7814C115.806 14.3268 119.432 12.4114 123.298 12.4114C127.848 12.4114 131.303 14.8057 133.014 18.9101C135.409 14.8741 139.446 12.4114 143.859 12.4114C150.701 12.4114 155.046 17.6788 155.046 25.8193V37.6881L157.988 40.1508H157.92Z" fill="#3F4141"/>
<path d="M220.321 40.1508V42.3741H202.189V40.1508L205.131 37.6881V26.8797C205.131 22.741 202.976 21.0308 200.273 21.0308C198.802 21.0308 197.537 21.4412 196.339 22.1253C196.579 23.254 196.681 24.5196 196.681 25.8193V37.6881L199.589 40.1508V42.3741H181.457V40.1508L184.365 37.6881V26.8797C184.365 22.741 182.381 21.0308 179.815 21.0308C178.31 21.0308 176.907 21.5096 175.71 22.2621V37.7223L178.652 40.185V42.4083H160.52V40.185L163.428 37.7223V19.1154L160.52 16.8237V14.6004L173.007 12.5824C173.623 12.4798 174.239 12.6166 174.752 12.9928C175.333 13.4375 175.71 14.1558 175.71 14.8741V17.7814C178.173 14.3268 181.799 12.4114 185.665 12.4114C190.215 12.4114 193.671 14.8057 195.381 18.9101C197.776 14.8741 201.813 12.4114 206.226 12.4114C213.068 12.4114 217.413 17.6788 217.413 25.8193V37.6881L220.356 40.1508H220.321Z" fill="#3F4141"/>
<path d="M256.996 37.7565C255.012 40.8691 251.42 42.9555 247.28 42.9555C243.585 42.9555 240.951 41.1427 240.438 37.9959C238.624 40.698 235.306 43.3317 230.414 43.3317C225.522 43.3317 222.203 40.5954 222.203 36.4225C222.203 29.9238 228.532 26.3666 240.232 25.4089C239.89 22.0569 238.077 20.3809 234.485 20.3809C231.714 20.3809 228.566 21.2018 226.069 22.6725L224.324 20.5177C228.087 15.4897 233.732 12.4456 239.719 12.4456C248.204 12.4456 252.583 17.3025 252.583 25.6825V32.6601C252.583 34.986 252.925 35.9437 254.088 35.9437C254.567 35.9437 255.012 35.8411 255.491 35.6017L256.962 37.8249L256.996 37.7565ZM240.301 33.652V30.7105C238.556 29.958 236.948 29.5475 235.374 29.5475C233.424 29.5475 232.159 30.4368 232.159 31.9418C232.159 33.7546 233.664 34.6781 236.093 34.6781C237.667 34.6781 239.206 34.2677 240.301 33.6178" fill="#3F4141"/>
<path d="M258.228 40.1508L261.135 37.6882V6.56253L258.228 4.27087V2.04761L270.749 0.0295744C271.365 -0.0730375 271.981 0.0979824 272.494 0.440022C273.075 0.884674 273.452 1.60296 273.452 2.32124V37.654L276.394 40.1166V42.3399H258.262V40.1166L258.228 40.1508Z" fill="#3F4141"/>
<path d="M313 15.5924L310.058 18.0551L302.908 40.6297C299.794 50.4121 295.826 55.0296 286.862 55.0296C283.407 55.0296 280.362 54.4481 278.31 53.4562L281.183 46.034C281.525 45.1447 282.381 44.5632 283.339 44.5632C283.749 44.5632 284.126 44.6658 284.468 44.8368C286.076 45.6919 287.376 46.0682 289.941 46.0682C292.918 46.0682 296.681 44.7684 298.015 40.5613L298.084 40.2535L290.626 41.4164C290.181 41.4848 289.702 41.3822 289.326 41.1086C288.984 40.8692 288.71 40.5271 288.539 40.1167L279.473 18.0209L276.428 15.5582V13.335H294.799V15.5582L291.857 18.0209L299.076 35.636H299.35L303.729 18.0209L300.821 15.5582V13.335H312.932V15.5582L313 15.5924Z" fill="#3F4141"/>
</svg>
