<svg width="72" height="18" viewBox="0 0 72 18" fill="none" xmlns="http://www.w3.org/2000/svg">
<g clip-path="url(#clip0_70_187)">
<path d="M12.99 0H4.1C1.83 0 0 1.83 0 4.1V13C0 15.26 1.83 17.1 4.1 17.1H13C15.26 17.1 17.1 15.27 17.1 13V4.1C17.1 1.84 15.27 0 13 0H12.99ZM11.01 14.74C8.95 14.74 7.28 13.07 7.28 11.01C7.28 8.95 8.95 7.28 11.01 7.28C13.07 7.28 14.74 8.95 14.74 11.01C14.74 13.07 13.07 14.74 11.01 14.74Z" fill="#5D5F5E"/>
<path d="M30.57 16.0698C26.32 16.0698 23.04 13.3398 23.04 8.53977C23.04 3.73977 26.32 1.00977 30.57 1.00977C34.82 1.00977 38.08 3.81977 38.08 8.53977C38.08 13.2598 34.78 16.0698 30.57 16.0698ZM26.32 8.53977C26.32 11.4298 27.9 13.2298 30.57 13.2298C33.24 13.2298 34.8 11.4298 34.8 8.53977C34.8 5.64977 33.18 3.84977 30.57 3.84977C27.96 3.84977 26.32 5.62977 26.32 8.53977Z" fill="#5D5F5E"/>
<path d="M39.4004 15.8298V1.25977H45.0304C49.6204 1.25977 52.4604 4.06977 52.4604 8.54977C52.4604 13.0298 49.6304 15.8398 44.8704 15.8398H39.4104L39.4004 15.8298ZM42.5404 13.0398H44.7904C47.7904 13.0398 49.2004 11.2998 49.2004 8.54977C49.2004 5.79977 47.8004 4.05977 44.9504 4.05977H42.5404V13.0498V13.0398Z" fill="#5D5F5E"/>
<path d="M53.7803 15.8298V1.25977H56.9203V15.8298H53.7803Z" fill="#5D5F5E"/>
<path d="M58.7695 15.8298V1.25977H63.5695L68.7695 12.3698H69.0495V1.25977H71.9995V15.8298H67.1395L61.9595 4.77977H61.7195V15.8298H58.7695Z" fill="#5D5F5E"/>
</g>
<defs>
<clipPath id="clip0_70_187">
<rect width="72" height="17.5" fill="white"/>
</clipPath>
</defs>
</svg>
