<svg width="781" height="198" viewBox="0 0 781 198" fill="none" xmlns="http://www.w3.org/2000/svg">
<g clip-path="url(#clip0_34_26)">
<path d="M229.28 35.42H251.85V153.87H230.85V135.09C224.59 147.39 210.74 156.09 194.65 156.09C170.73 156.09 154.2 142.01 154.2 111.62V35.42H176.77V107.16C176.77 127.72 187.05 136.21 201.77 136.21C216.96 136.21 229.26 123.7 229.26 105.15L229.28 35.42Z" fill="#484A4A"/>
<path d="M324.46 156.11C308.37 156.06 294.76 147.98 286.31 133.65L286.12 196.89L263.55 196.82L264 35.25L285 35.31V57C293.54 41.83 308.1 33.16 324.86 33.21C356.37 33.31 377.07 59.07 376.96 94.83C376.85 130.59 356.19 156.21 324.46 156.11ZM320.08 53.11C301.31 53 286.52 68 286.43 94.54C286.35 120.69 300.83 135.93 319.83 135.99C339.27 136.05 353.4 121.34 353.48 94.75C353.56 68.16 339.53 53.14 320.08 53.08V53.11Z" fill="#484A4A"/>
<path d="M440 153.87H415.43L371 35.42H395.36L428.21 127.94L461.51 35.42H484.51L440 153.87Z" fill="#484A4A"/>
<path d="M477.19 94C477.19 58.92 501.1 33.22 533.73 33.22C569.04 33.22 592.5 61.82 588.48 100.22H500.2C501.99 124.36 514.06 138.44 533.95 138.44C550.71 138.44 562.33 129.27 566.13 113.85H588.48C582.67 140.22 562.33 156.09 534.4 156.09C500.2 156.1 477.19 131.3 477.19 94ZM500.43 85.29H564.57C563.45 63.39 551.57 50.2 533.28 50.2C515.18 50.17 502.89 63.13 500.43 85.26V85.29Z" fill="#484A4A"/>
<path d="M647.54 156.1C616.25 156.1 597.7 140.68 595.47 115.2H617.14C618 130 629.88 139.12 648 139.12C663.86 139.12 674.37 133.53 674.37 122.36C674.37 112.52 668.37 108.28 653.58 105.36L634.36 101.79C612.46 97.54 600.17 86.37 600.17 68.49C600.17 47.7 618.27 33.18 645.76 33.18C674.14 33.18 693.36 48.37 695.37 72.73H673.69C672.35 58.43 661.84 50.16 645.97 50.16C631.67 50.16 622.06 56.16 622.06 66.48C622.06 76.09 628.06 80.56 642.4 83.24L662.51 87.04C685.98 91.28 697.15 101.56 697.15 118.55C697.15 141.8 679.05 156.1 647.54 156.1Z" fill="#484A4A"/>
<path d="M59.2801 94.64H0.0600586V153.86H59.2801V94.64Z" fill="#484A4A"/>
<path d="M26.1201 35.42C19.2085 35.42 12.5801 38.1656 7.69286 43.0528C2.80566 47.94 0.0600586 54.5684 0.0600586 61.48V76.88H77.0601V153.88H92.4601C95.8818 153.88 99.2701 153.206 102.431 151.896C105.592 150.586 108.465 148.667 110.884 146.247C113.303 143.827 115.221 140.954 116.53 137.792C117.839 134.63 118.511 131.242 118.51 127.82V35.42H26.1201Z" fill="#484A4A"/>
<path d="M774.11 133.83C770.921 134.704 767.626 135.128 764.32 135.09C752.25 135.09 744.43 129.28 744.43 112.97V54.64H780.18V35.42H744.43V0.340027H721.85V35.42H695.71V54.64H721.85V118.11C721.85 144.26 737.05 156.11 758.95 156.11C764.096 156.191 769.219 155.413 774.11 153.81V133.83Z" fill="#484A4A"/>
</g>
<defs>
<clipPath id="clip0_34_26">
<rect width="780.28" height="197.02" fill="white"/>
</clipPath>
</defs>
</svg>
