<svg width="1135" height="200" viewBox="0 0 1135 200" fill="none" xmlns="http://www.w3.org/2000/svg">
<g clip-path="url(#clip0_756_2555)">
<path d="M106.771 146.667H91.177C70.239 146.176 53.562 129.152 53.386 108.352V10.667C53.386 4.774 48.608 0 42.709 0H10.677C4.778 0 0 4.773 0 10.667V122.667C0 128.561 4.778 133.334 10.677 133.334H26.271C47.209 133.824 63.881 150.849 64.063 171.648V189.334C64.063 195.227 68.841 200.001 74.74 200.001H106.771C112.67 200.001 117.448 195.227 117.448 189.334V157.334C117.448 151.441 112.67 146.667 106.771 146.667Z" fill="#3F4141"/>
<path d="M160.155 0H128.124C122.224 0 117.447 4.773 117.447 10.667V122.667C117.447 128.561 122.225 133.334 128.124 133.334H160.155C166.053 133.334 170.832 128.561 170.832 122.667V10.667C170.832 4.774 166.053 0 160.155 0Z" fill="#3F4141"/>
<path d="M281.763 121.844L276.607 141.232L271.656 121.844L248.969 60.175H224.219L263.819 160H289.394L329.2 60.175H304.245L281.763 121.844Z" fill="#3F4141"/>
<path d="M381.961 58.112C348.961 58.112 335.142 74.2 335.142 94.412L355.561 98.743C355.561 82.862 363.398 76.674 381.342 76.674C397.636 76.674 405.473 82.862 405.473 95.856V103.899H384.435C348.96 103.899 332.666 114.624 332.666 135.25C332.666 151.543 345.66 162.062 366.697 162.062C384.64 162.062 399.491 154.019 405.472 136.074V159.999H427.541V95.236C427.541 71.311 410.835 58.111 381.96 58.111L381.961 58.112ZM373.917 145.357C362.161 145.357 354.942 140.407 354.942 132.363C354.942 121.843 364.43 119.163 385.88 119.163H405.268C403.825 137.519 389.593 145.357 373.917 145.357Z" fill="#3F4141"/>
<path d="M470.753 15.625H448.271V160H470.753V15.625Z" fill="#3F4141"/>
<path d="M565.082 106.788C565.082 131.331 554.976 141.644 538.064 141.644C523.213 141.644 514.964 133.807 514.964 115.863V60.175H492.482V119.781C492.482 148.038 504.445 162.063 528.576 162.063C546.933 162.063 559.307 153.194 565.082 135.663V160H587.564V60.175H565.082V106.788Z" fill="#3F4141"/>
<path d="M652.399 58.1121C622.081 58.1121 602.693 78.5311 602.693 110.912C602.693 142.057 622.081 161.856 653.431 161.856C677.562 161.856 692.207 152.368 698.394 133.188L679.213 126.588C674.882 138.756 668.694 143.088 654.05 143.088C635.487 143.088 627.237 135.869 625.587 117.719H700.044C701.075 81.6251 686.019 58.1121 652.399 58.1121ZM625.587 102.251C627.03 84.3061 635.281 76.4691 653.224 76.4691C669.93 76.4691 677.561 83.4811 677.974 102.251H625.586H625.587Z" fill="#3F4141"/>
<path d="M764.91 141.851C743.047 141.851 734.385 132.363 734.385 110.088C734.385 87.8131 743.048 78.3251 764.91 78.3251C783.679 78.3251 791.104 85.5441 793.167 101.838L815.03 96.8881C809.461 70.4881 791.724 58.1121 764.911 58.1121C731.705 58.1121 712.111 78.3251 712.111 110.088C712.111 141.644 731.705 162.063 764.911 162.063C790.899 162.063 809.255 150.513 815.236 122.463L793.579 117.513C791.104 134.426 783.679 141.851 764.91 141.851Z" fill="#3F4141"/>
<path d="M875.75 58.112C842.75 58.112 828.931 74.2 828.931 94.412L849.35 98.743C849.35 82.862 857.187 76.674 875.131 76.674C891.425 76.674 899.262 82.862 899.262 95.856V103.899H878.224C842.749 103.899 826.455 114.624 826.455 135.25C826.455 151.543 839.449 162.062 860.486 162.062C878.429 162.062 893.28 154.019 899.261 136.074V159.999H921.33V95.236C921.33 71.311 904.624 58.111 875.749 58.111L875.75 58.112ZM867.706 145.357C855.95 145.357 848.731 140.407 848.731 132.363C848.731 121.843 858.219 119.163 879.669 119.163H899.057C897.614 137.519 883.382 145.357 867.706 145.357Z" fill="#3F4141"/>
<path d="M996.067 101.426L976.061 98.95C964.304 97.301 961.004 94.62 961.004 86.989C961.004 78.532 967.81 74.82 980.598 74.82C994.21 74.82 1000.81 79.358 1002.25 92.557L1023.91 88.638C1022.67 68.22 1006.58 58.113 980.804 58.113C955.229 58.113 939.347 68.838 939.347 88.638C939.347 104.726 947.804 114.007 967.192 116.895L986.579 119.37C999.779 121.226 1003.49 124.113 1003.49 132.158C1003.49 141.027 996.273 144.945 983.073 144.945C967.398 144.945 958.736 139.17 957.291 124.939L935.635 128.652C937.078 149.896 954.816 162.064 982.66 162.064C1009.27 162.064 1025.56 150.102 1025.56 129.27C1025.56 113.182 1016.28 104.313 996.066 101.427L996.067 101.426Z" fill="#3F4141"/>
<path d="M1086.67 58.1121C1056.35 58.1121 1036.97 78.5311 1036.97 110.912C1036.97 142.057 1056.35 161.856 1087.7 161.856C1111.84 161.856 1126.48 152.368 1132.67 133.188L1113.49 126.588C1109.15 138.756 1102.97 143.088 1088.32 143.088C1069.76 143.088 1061.51 135.869 1059.86 117.719H1134.32C1135.35 81.6251 1120.29 58.1121 1086.67 58.1121ZM1059.86 102.251C1061.3 84.3061 1069.55 76.4691 1087.5 76.4691C1104.2 76.4691 1111.83 83.4811 1112.25 102.251H1059.86Z" fill="#3F4141"/>
</g>
<defs>
<clipPath id="clip0_756_2555">
<rect width="1134.37" height="200" fill="white"/>
</clipPath>
</defs>
</svg>
