<svg width="80" height="81" viewBox="0 0 80 81" fill="none" xmlns="http://www.w3.org/2000/svg">
<g clip-path="url(#clip0_423_913)">
<path d="M70.9724 35.6128C69.5393 34.9829 67.9253 34.7767 66.3952 34.3676C66.1917 34.3136 65.8605 34.1729 65.8524 34.0551C65.8527 33.9321 65.8781 33.8104 65.9271 33.6978C65.976 33.5852 66.0474 33.484 66.1367 33.4006C68.7218 31.2882 69.7429 28.5312 69.7155 25.208C69.6945 22.7275 69.4295 20.3713 67.9576 18.3113C66.3936 16.1236 64.3724 14.8114 61.7825 14.4629C59.4753 14.4776 57.7062 14.9079 56.349 15.551C55.748 15.9404 55.1405 16.3282 54.5152 16.7291C53.5607 17.5427 52.8211 18.5841 52.3631 19.7594C52.3474 19.8548 52.3263 19.9493 52.3001 20.0424C52.1547 20.5447 52.0255 21.0471 51.9156 21.5478C51.2095 24.7662 51.3081 27.9291 53.0466 30.9545C53.5555 31.8429 54.4118 32.522 55.0904 33.3139C55.2766 33.5041 55.4025 33.7462 55.4523 34.0093C55.4523 34.1173 55.1001 34.3087 54.8836 34.3676C53.5555 34.7325 52.2258 35.0859 50.8864 35.4034C50.5621 35.4779 50.226 35.484 49.8992 35.4214C51.0302 35.7781 52.5279 36.4031 53.6492 37.4552L53.6298 37.4339C54.9838 37.0936 56.1713 36.7696 57.3701 36.5046C57.9517 36.3769 58.1779 36.12 58.1343 35.495C58.0729 34.5493 58.1472 33.597 58.0988 32.6496C58.0838 32.5062 58.0393 32.3675 57.968 32.2426C57.8968 32.1178 57.8004 32.0095 57.6852 31.9247C55.2616 30.4701 54.1226 28.325 54.2341 25.4878C54.2809 24.2803 54.2082 23.0335 54.4861 21.8783C55.2035 18.8987 57.6609 17.0612 60.7065 17.0236C63.4305 16.9892 66.0188 18.974 66.7507 21.8308C67.3113 24.0217 67.3485 26.2683 66.6441 28.4461C66.1594 29.9547 65.1092 31.0641 63.7439 31.8298C63.3546 32.0491 63.1914 32.3109 63.2108 32.7674C63.2608 33.6093 63.2608 34.4535 63.2108 35.2954C63.151 36.0611 63.3998 36.39 64.1624 36.5536C65.9089 36.93 67.6328 37.4143 69.3665 37.8626L69.4149 38.0377L73.446 35.8615C72.6802 36.0677 71.8837 36.0153 70.9724 35.6128ZM29.1976 35.4197C27.834 35.0925 26.4784 34.7374 25.1261 34.3676C24.9129 34.3087 24.5994 34.1369 24.5784 33.9831C24.5526 33.79 24.74 33.5037 24.9016 33.3597C26.5964 31.964 27.792 30.2263 28.1684 28.0436C28.6031 25.5254 28.6531 23.0089 27.8259 20.5546C27.1797 18.9494 26.3961 17.7452 25.5381 16.8469C24.7109 16.2971 23.8998 15.7637 23.1001 15.2106C23.0182 15.1517 22.9489 15.0766 22.8965 14.9897C21.8477 14.5484 20.7217 14.3258 19.586 14.3353C18.8929 14.4072 18.2708 14.4367 17.6633 14.5545C17.5406 14.5774 17.4178 14.6052 17.2982 14.633H17.2853H17.274C15.2936 15.0924 13.527 16.2219 12.266 17.8351C11.005 19.4484 10.3248 21.4488 10.3379 23.5063C10.3379 25.0035 10.304 26.5252 10.5463 27.9929C10.9034 30.1363 12.0489 31.8904 13.726 33.2763C13.9392 33.453 14.041 33.7671 14.1961 34.0175C13.9728 34.1595 13.7426 34.2901 13.5062 34.4085C12.2137 34.9829 10.9922 35.0859 9.82734 34.6671L16.9993 38.8869L13.9101 37.0576C14.7923 36.822 15.5258 36.5995 16.2593 36.444C16.6746 36.3573 16.8103 36.1659 16.8022 35.7519C16.7812 34.726 16.828 33.6951 16.7731 32.6709C16.7535 32.514 16.702 32.3629 16.622 32.2272C16.5419 32.0915 16.4349 31.974 16.3078 31.8822C13.9796 30.457 12.8454 28.3856 12.9553 25.64C13.0086 24.3065 12.9553 22.9271 13.2784 21.6525C13.9861 18.8349 16.3967 17.1103 19.342 17.035C21.9174 16.9696 24.5122 18.7842 25.32 21.4005C26.0697 23.8548 26.144 26.3779 25.1859 28.8241C24.6721 30.1331 23.7092 31.1148 22.4991 31.8004C22.0612 32.0507 21.8673 32.3207 21.8964 32.8492C21.9449 33.7688 21.94 34.6932 21.8964 35.6144C21.8738 36.1266 22.0273 36.3589 22.5427 36.4735C23.7738 36.7467 24.9904 37.0838 26.2765 37.4127C26.0939 37.6843 25.9194 37.9313 25.7562 38.1735C26.4219 37.3243 27.6886 36.1789 30.0055 35.4508C29.7366 35.4906 29.4628 35.4801 29.1976 35.4197ZM6.94498 32.9654L8.19389 33.7001C7.82552 33.3973 7.36505 33.201 6.94336 32.9637L6.94498 32.9654Z" fill="#F36E21"/>
<path d="M54.5055 16.7323C53.551 17.5459 52.8114 18.5872 52.3534 19.7625C52.4079 19.5229 52.3835 19.2718 52.284 19.0475C49.6553 14.6395 45.8342 12.0837 40.7174 11.8612C34.9866 11.6108 30.6614 14.1519 27.7047 19.0999C27.6339 19.2425 27.5918 19.398 27.581 19.5573C27.5702 19.7166 27.5908 19.8765 27.6417 20.0276C27.7096 20.2027 27.7726 20.3794 27.8308 20.5545C27.1845 18.9493 26.4009 17.7451 25.543 16.8468L25.8241 17.0333C29.217 12.0477 33.8653 9.21049 39.9354 9.1794C46.0329 9.15159 50.72 11.9839 54.1533 16.9499L54.5055 16.7323Z" fill="white"/>
<path d="M58.3558 12.0246C58.3876 11.9212 58.3954 11.8117 58.3786 11.7047C58.3618 11.5977 58.3208 11.4961 58.2588 11.4077C57.0083 10.0988 55.7303 8.83396 54.4152 7.50534C53.3537 8.20401 52.3261 8.9125 51.2597 9.55717C51.1249 9.62908 50.9759 9.66976 50.8237 9.67627C50.6714 9.68278 50.5196 9.65496 50.3792 9.59481C48.4637 8.43062 46.3896 7.55791 44.2235 7.00465C44.0835 6.94653 43.958 6.85767 43.856 6.74449C43.7541 6.63131 43.6782 6.49664 43.6338 6.35016C43.372 5.33406 43.1862 4.29832 42.9778 3.26914C42.9003 2.87644 42.7791 2.62446 42.2815 2.63591C40.7735 2.67409 39.2655 2.67409 37.7576 2.63591C37.2551 2.62282 37.142 2.88299 37.0612 3.27077C36.8544 4.27378 36.5927 5.26861 36.4521 6.2798C36.3778 6.81813 36.1031 6.97848 35.6701 7.07829C33.5892 7.55498 31.604 8.38837 29.8004 9.54245C29.3415 9.83534 29.0362 9.78952 28.6209 9.49827C27.6419 8.81269 26.6288 8.17783 25.5609 7.47753C24.7272 8.34146 23.9274 9.16775 23.1374 9.99896C22.6139 10.5471 21.7786 11.0429 21.6671 11.6679C21.5508 12.3224 22.1211 13.1192 22.4006 13.8506C22.5234 14.1681 22.6559 14.4839 22.8078 14.7882C22.8409 14.8575 22.8781 14.9247 22.9192 14.9895C21.8704 14.5481 20.7445 14.3255 19.6087 14.335L19.7703 14.3186C19.4472 13.5316 19.1773 12.7675 18.8171 12.0508C18.4568 11.3341 18.5133 10.8776 19.1273 10.3C20.6912 8.82742 22.1712 7.26972 23.6705 5.73002C24.194 5.19334 24.6755 4.61248 25.1666 4.0627C26.4818 4.92991 27.6257 5.71039 28.8019 6.43524C28.9354 6.51228 29.0829 6.56152 29.2355 6.58007C29.3881 6.59861 29.5428 6.58609 29.6905 6.54324C31.0235 6.03273 32.337 5.46987 33.6457 4.89883C33.8525 4.8072 34.1159 4.60267 34.1579 4.40796C34.481 2.94844 34.7476 1.47747 35.0319 0.00976562H45.0297C45.3157 1.48237 45.5823 2.95498 45.907 4.40468C45.9539 4.61085 46.2641 4.81046 46.4951 4.91191C47.7295 5.45677 48.9946 5.93619 50.2112 6.51051C50.3852 6.61304 50.5861 6.65921 50.7868 6.64283C50.9875 6.62646 51.1785 6.54831 51.3341 6.41888C52.465 5.6384 53.6283 4.89882 54.8078 4.12816C57.0132 6.36652 59.1879 8.56071 61.3319 10.7843C61.4805 10.9382 61.4934 11.3603 61.3981 11.6025C61.0604 12.522 60.6581 13.417 60.251 14.3841C60.7669 14.3784 61.2825 14.4101 61.7939 14.479C59.4868 14.4937 57.7176 14.924 56.3604 15.5671C56.5398 15.4509 56.7191 15.3347 56.8968 15.2169C57.0251 15.1319 57.1275 15.0123 57.1925 14.8717C57.5819 13.9259 57.989 12.9785 58.3558 12.0246Z" fill="white"/>
<path d="M75.5928 34.6961L75.5427 34.7223C75.3438 34.8341 75.1513 34.957 74.9659 35.0905C74.5043 35.437 73.9857 35.6979 73.4343 35.8611L69.4031 38.0373C69.4024 38.0416 69.4024 38.0461 69.4031 38.0504L67.0734 39.2874L55.4971 45.4609V45.4331L52.7084 46.8959C52.6614 46.9359 52.6062 46.965 52.5468 46.9809C52.4171 47.0125 52.2825 47.0169 52.151 46.994C51.8687 46.9656 51.5885 46.9181 51.3125 46.8517C48.5594 46.0881 45.8079 45.3207 43.058 44.5495C40.5365 43.8448 38.0166 43.1271 35.4983 42.3962C33.9998 41.9635 32.4447 41.7665 30.8871 41.8121C30.375 41.8252 29.8596 41.8628 29.3458 41.9266H29.3022C28.8713 41.979 28.4367 42.0494 27.9983 42.1377H27.9789C27.8885 42.1541 27.798 42.1737 27.7075 42.1933C27.6639 42.2032 27.6196 42.2098 27.575 42.213C26.4586 42.424 25.2872 42.6809 24.3275 42.9035C24.2142 42.9775 24.0863 43.0255 23.9527 43.0442C23.405 43.1456 22.8621 43.2651 22.3112 43.3894L22.2595 43.4009C21.7279 43.5236 21.1899 43.6512 20.6438 43.7756C20.6438 43.0294 20.6115 42.3259 20.6551 41.6272C20.6826 41.1658 20.5161 40.922 20.1316 40.6995C19.3238 40.2299 18.5159 39.757 17.7 39.2759L17.0069 38.8669L9.83493 34.647C9.23718 34.4318 8.68151 34.1117 8.19341 33.7013L6.9445 32.9666L6.90249 32.9421C6.72514 32.8446 6.55742 32.73 6.40163 32.6001C4.51291 30.9802 2.28974 31.3402 0.0568854 31.3615C0.04396 31.6626 0.0213404 31.9178 0.0213404 32.1796C0.0213404 40.6684 0.0294196 49.1571 0.00195312 57.6459C0.00195312 58.3004 0.213606 58.5327 0.796864 58.7242C4.5743 59.9644 8.32428 61.2865 12.1066 62.4875C12.971 62.7608 13.9533 62.728 14.8742 62.6888C15.1214 62.679 15.346 62.1243 15.64 61.7398C16.771 62.4286 17.9908 63.1567 19.1945 63.9176C19.3254 64.001 19.3706 64.2677 19.4046 64.4592C19.5373 65.3097 19.9299 66.0967 20.5272 66.7095C21.1245 67.3224 21.8964 67.7302 22.7345 67.8756C22.938 67.9149 23.2418 68.1096 23.2692 68.2716C23.6344 70.4445 24.9819 71.5441 27.079 71.8909C27.1261 72.1961 27.1887 72.4987 27.2664 72.7974C27.7511 74.3649 28.7916 75.3434 30.3782 75.6788C30.7837 75.7639 30.9825 75.8948 31.0794 76.3333C31.6853 79.1296 34.2542 80.4337 36.815 79.236C37.2513 79.0314 37.4775 79.1607 37.757 79.4356C38.5745 80.2374 39.468 80.9082 40.6652 80.9835C43.1792 81.1471 44.7787 79.7988 45.2214 77.0991C46.3524 76.9943 47.4122 76.6082 48.0973 75.6428C48.4803 75.0555 48.7734 74.4128 48.9665 73.7366C49.0941 73.3357 49.1943 73.1345 49.6516 73.069C50.4432 72.9583 51.1785 72.5921 51.7483 72.0247C52.3182 71.4573 52.6923 70.719 52.815 69.9193C52.8974 69.4153 53.0897 69.2222 53.5825 69.129C55.3775 68.8017 56.5844 67.4011 56.7427 65.5293C56.7799 65.0859 56.8623 64.775 57.3228 64.5475C64.7452 60.8147 72.1611 57.0683 79.5706 53.3083C79.7121 53.2486 79.8572 53.1983 80.0052 53.1577V34.0138C78.4364 33.7929 76.9516 33.9418 75.5928 34.6961ZM3.04911 56.6887C2.52563 56.5251 2.63227 56.1618 2.63065 55.8166C2.63065 51.8373 2.63065 47.8591 2.63065 43.8819V33.9696C3.0475 34.0204 3.4498 33.9598 3.72608 34.1202C6.74577 35.8693 9.74446 37.6512 12.7981 39.4543C11.2276 45.811 9.68144 52.0745 8.12232 58.3937C6.39032 57.8063 4.73103 57.2189 3.05396 56.6887H3.04911ZM15.4639 52.1531C14.724 54.771 13.9759 57.3972 13.2101 60.097L10.5975 59.2363C12.1066 53.125 13.6059 47.0529 15.1392 40.8467C16.0973 41.4112 16.9875 41.8808 17.8018 42.46C17.9795 42.586 17.9844 43.1309 17.902 43.4418C17.1152 46.3477 16.2895 49.2504 15.4639 52.1531ZM24.0512 65.1006C23.9026 65.2478 23.6182 65.2527 23.224 65.3787C22.9186 65.1448 22.3806 64.9304 22.2142 64.5492C22.0333 64.1385 22.0042 63.4038 22.2514 63.1027C23.0523 62.1375 23.9269 61.2375 24.8671 60.4111C25.3955 59.9334 26.0498 60.025 26.5781 60.4929C27.1065 60.9609 27.3197 61.6612 26.8819 62.1897C26.024 63.2304 25.0239 64.1581 24.0561 65.1006H24.0512ZM27.9919 68.9752C27.8303 69.1388 27.5201 69.1552 27.1016 69.3024C26.7785 69.0619 26.2453 68.8508 26.0805 68.4745C25.9012 68.0638 25.8737 67.3291 26.1225 67.0313C26.9363 66.0439 27.8308 65.1276 28.7965 64.2923C29.3216 63.8292 29.9824 63.9814 30.501 64.4559C31.0196 64.9304 31.1473 65.7109 30.6868 66.2427C29.8434 67.2064 28.9193 68.0851 27.9967 68.9752H27.9919ZM32.2669 72.5994C31.5625 73.2719 30.69 73.2899 30.1181 72.6845C29.5461 72.0791 29.572 71.2741 30.2312 70.5689C30.9291 69.8244 31.6497 69.0963 32.3849 68.3927C32.8696 67.9345 33.4884 67.7938 34.0296 68.1554C34.4206 68.4156 34.6581 68.9146 34.9764 69.3237C34.7066 69.8146 34.566 70.2285 34.2994 70.5247C33.6548 71.2463 32.9665 71.9302 32.2669 72.5994ZM38.1674 74.4369C37.5211 75.1585 36.8328 75.8408 36.1365 76.5117C35.4401 77.1825 34.5838 77.2267 33.9925 76.6082C33.4286 76.0175 33.4447 75.1879 34.0975 74.4925C34.8132 73.7301 35.5613 72.9987 36.3174 72.2754C36.7795 71.8337 37.3838 71.729 37.8927 72.0693C38.2821 72.3311 38.5228 72.8203 38.8508 73.2343C38.568 73.735 38.4307 74.1391 38.1674 74.4369ZM42.4844 77.2856C42.4181 77.5021 42.3068 77.7017 42.158 77.871C42.0092 78.0404 41.8263 78.1755 41.6217 78.2673C40.5618 78.6469 39.8977 77.8975 39.2402 77.1989L41.0319 75.0881C41.6669 75.7394 42.7446 76.1026 42.4844 77.2856ZM53.8329 66.1216C53.2884 66.7614 52.3045 66.7761 51.516 66.1216C49.5498 64.4854 47.5964 62.8164 45.6382 61.1638C45.3426 60.9135 45.0437 60.6729 44.6995 60.3817L43.0418 62.4024C44.6801 63.7867 46.2732 65.1333 47.8679 66.4816C48.4673 66.9888 49.0748 67.4846 49.6612 68.0082C50.3673 68.6381 50.4869 69.3171 50.0425 69.9504C49.5982 70.5836 48.6563 70.7521 47.9422 70.2514C47.325 69.8162 46.7611 69.3008 46.1811 68.8132C44.4216 67.3308 42.6654 65.8467 40.8381 64.3037L39.1852 66.3016C39.4098 66.5077 39.6053 66.7024 39.817 66.8808C41.7752 68.5356 43.7339 70.1914 45.6932 71.8484C46.4848 72.5029 46.6464 73.2506 46.1617 73.8986C46.0402 74.0562 45.8882 74.187 45.7151 74.2832C45.5421 74.3794 45.3514 74.4388 45.1549 74.458C44.9584 74.4771 44.7601 74.4555 44.5721 74.3945C44.3841 74.3335 44.2103 74.2344 44.0613 74.1031C42.7958 73.066 41.584 71.9634 40.4309 70.7996C39.7055 70.0714 38.9348 69.5233 37.9347 69.2926C37.7279 69.2452 37.4161 69.0668 37.3902 68.9081C37.0332 66.7286 35.6744 65.6454 33.5853 65.2838C33.2622 63.034 31.9955 61.7054 29.7707 61.3896C29.6091 60.8513 29.5106 60.3277 29.3006 59.8565C28.2326 57.4643 25.1919 56.6854 23.2014 58.3838C22.1367 59.292 21.2626 60.434 20.3093 61.4665C19.97 61.2718 19.7907 61.1753 19.6178 61.0689C18.5062 60.3915 17.3963 59.7125 16.2459 59.0089L18.6533 50.4269C18.9506 49.3649 19.222 48.2998 19.5677 47.2493C19.6253 47.1056 19.7128 46.9762 19.8244 46.87C19.9359 46.7639 20.0689 46.6833 20.214 46.6341C23.4809 45.8978 26.7397 45.096 30.0373 44.5315C32.414 44.1241 34.7227 44.7868 37.0994 45.6769C36.8134 45.8405 36.6147 45.9681 36.3966 46.0777C34.4739 47.0595 32.5287 48.0069 30.6319 49.0393C29.0986 49.8738 28.3861 51.2597 28.4087 53.0137C28.4313 54.8283 29.2068 56.2224 30.8322 57.0274C32.233 57.7228 33.6516 57.6492 35.0055 56.8409C36.4596 55.972 37.904 55.0819 39.3565 54.2082C40.8413 53.3132 41.9093 53.4081 43.1792 54.5649C46.6055 57.6814 50.0285 60.8027 53.4484 63.929C54.2401 64.6572 54.3806 65.4835 53.8329 66.1216ZM76.7528 51.7816C69.9304 55.2123 63.1193 58.6625 56.3194 62.1325C55.8509 62.3713 55.5665 62.3403 55.1691 61.9688C51.7632 58.8273 48.3418 55.7032 44.9047 52.5965C42.6961 50.5987 40.5198 50.4105 37.988 51.942C36.6034 52.7781 35.2268 53.6257 33.8374 54.452C32.7759 55.0836 31.7241 54.8561 31.2167 53.9137C31.0897 53.683 31.0109 53.4284 30.9851 53.1656C30.9593 52.9028 30.9871 52.6374 31.0668 52.3859C31.1465 52.1345 31.2764 51.9023 31.4483 51.7037C31.6203 51.5052 31.8308 51.3446 32.0666 51.2319C34.3996 50.0211 36.7434 48.8304 39.098 47.66C40.5165 46.9531 42.0062 46.9188 43.5072 47.3556C45.7271 48.0003 47.9438 48.6515 50.1653 49.2913C50.6365 49.4366 51.1177 49.546 51.6049 49.6186C52.605 49.7478 53.5098 49.5318 54.4307 49.0361C61.7707 45.0796 69.1333 41.1821 76.4927 37.2552C76.7399 37.1227 76.9936 36.9983 77.383 36.7987V37.6512C77.383 42.0003 77.383 46.3494 77.3926 50.7001C77.3943 51.2319 77.2634 51.5297 76.7528 51.7866V51.7816Z" fill="white"/>
<path d="M52.8926 46.3035C52.8619 44.9078 52.9071 43.5088 52.8748 42.1131C52.828 39.9713 51.7536 38.6378 49.6903 38.1109C47.6013 37.5759 45.5154 37.0277 43.4183 36.5385C42.7413 36.3749 42.4731 36.1 42.5394 35.3751C42.6 34.586 42.6 33.7933 42.5394 33.0042C42.5038 32.4103 42.6799 32.065 43.2147 31.7509C45.0081 30.6988 46.1423 29.0887 46.354 27.0058C46.5103 25.4851 46.474 23.9504 46.2457 22.4391C46.0094 20.9848 45.2893 19.6561 44.205 18.6731C43.1207 17.6902 41.7372 17.112 40.2839 17.0346C37.2787 16.8939 34.6032 18.7968 33.8551 21.8157C33.5562 23.0167 33.6403 24.3207 33.5902 25.579C33.4803 28.3606 34.6145 30.4501 36.9702 31.8932C37.1017 31.9968 37.2109 32.1267 37.2909 32.2747C37.371 32.4227 37.4202 32.5858 37.4355 32.7539C37.4969 33.6473 37.4032 34.5537 37.4742 35.4406C37.5324 36.1523 37.2335 36.3863 36.6082 36.5336C34.4869 37.0343 32.3736 37.5775 30.2603 38.1207C28.2084 38.6476 27.058 40.1824 27.2083 42.2506C27.3504 42.2391 27.47 42.2391 27.5815 42.2277C26.4651 42.4387 25.2937 42.6956 24.334 42.9182C24.4956 42.7987 24.5505 42.6105 24.5376 42.3209C24.478 41.2776 24.6739 40.2355 25.1079 39.2874C25.1887 39.1106 25.2808 38.9372 25.3809 38.7654C25.4989 38.5641 25.6265 38.3711 25.7606 38.1714C26.4214 37.3239 27.6881 36.1785 30.005 35.4504C30.0664 35.4422 30.1278 35.4308 30.1859 35.4177C30.7245 35.29 31.2577 35.1575 31.7855 35.0201H31.8C32.6466 34.8041 33.49 34.5783 34.3334 34.3492C34.5208 34.2968 34.789 34.1283 34.8181 33.9827C34.8439 33.8076 34.6824 33.5605 34.537 33.4084C34.0345 32.8782 33.4496 32.4266 32.9908 31.854C31.3331 29.8136 30.8031 27.4181 30.9001 24.8182C30.9679 23.9019 30.9615 22.9725 31.1133 22.0693C31.7079 18.5154 33.7194 16.066 37.0542 14.8911C40.4374 13.6983 43.4765 14.4805 46.1536 16.9053C49.5465 19.9847 49.6483 26.1173 48.3509 29.596C47.7984 31.0784 46.829 32.2761 45.6285 33.2938C45.4201 33.4706 45.3232 33.7847 45.1762 34.035C45.3961 34.184 45.6319 34.3074 45.879 34.4032C46.648 34.611 47.4171 34.8172 48.1878 35.0135H48.1958C48.7274 35.1493 49.2622 35.2802 49.7954 35.4046C49.823 35.4118 49.8511 35.4172 49.8794 35.4209C51.0103 35.7776 52.5081 36.4027 53.6293 37.4548C53.6425 37.4692 53.6566 37.4829 53.6714 37.4957C54.2919 38.1085 54.7641 38.8583 55.0511 39.6866C55.6796 41.4864 55.4324 43.4647 55.4922 45.433L52.7036 46.8958C52.8377 46.7927 52.8991 46.598 52.8926 46.3035Z" fill="#F36E21"/>
</g>
<defs>
<clipPath id="clip0_423_913">
<rect width="80" height="81" fill="white"/>
</clipPath>
</defs>
</svg>
