<svg width="75" height="71" viewBox="0 0 75 71" fill="none" xmlns="http://www.w3.org/2000/svg">
<g clip-path="url(#clip0_423_906)">
<path d="M74.9993 69.9596C74.5707 70.7643 73.8999 70.997 73.0031 70.997C49.3231 70.9792 25.6431 70.9743 1.96313 70.9822C0.455733 70.9822 -0.0095348 70.5183 -0.00366373 69.0023C-0.00366373 67.0609 -0.0814554 65.1211 0.436667 63.2064C1.76793 58.2686 6.4545 54.0791 11.4684 53.4019C11.7358 53.3719 11.9986 53.3087 12.2507 53.2136C9.80543 52.7024 7.82686 51.4827 6.4046 49.4258C4.96178 47.3422 4.5244 45.0229 5.00289 42.5377C5.83952 38.1971 9.91404 35.165 14.4172 35.5059C18.5489 35.8201 22.1479 39.4805 22.3915 43.6195C22.6733 48.3706 19.6424 52.28 14.9793 53.2077C18.1922 53.7145 21.0749 54.9223 23.4924 57.2831C26.6906 53.2092 30.8312 50.8959 35.9346 50.2631C32.6219 49.657 29.9505 48.0817 27.9881 45.3445C26.0257 42.6074 25.3902 39.5442 25.9714 36.2409C27.0077 30.362 32.3768 26.2556 38.4621 26.6379C43.9721 26.9832 48.7879 31.8366 49.1959 37.4339C49.6538 43.6951 45.3988 49.2213 39.0478 50.2661C44.1306 50.89 48.2947 53.181 51.493 57.2845C53.9016 54.9505 56.7769 53.6997 60.028 53.2314C54.7441 52.1126 52.1461 47.6178 52.632 43.3824C53.1721 38.6684 57.0074 35.4096 61.7673 35.4985C65.9945 35.5785 69.7608 39.1796 70.1439 43.501C70.5593 48.1869 67.5474 52.1155 62.7229 53.2537C63.0927 53.3203 63.4567 53.3856 63.8325 53.4552C69.5333 54.5222 74.1509 59.2348 74.8701 64.8143C74.8986 64.9051 74.9423 64.9903 74.9993 65.0662V69.9596ZM22.8847 67.9886H52.1138C52.2034 59.9861 45.5089 53.2611 37.4993 53.2477C29.5205 53.227 22.7717 60.0113 22.8847 67.9812V67.9886ZM46.2853 38.4387C46.2706 33.6001 42.3106 29.6003 37.5169 29.5825C32.7231 29.5648 28.6941 33.6179 28.7103 38.4742C28.7264 43.3306 32.6864 47.3125 37.4787 47.3288C42.271 47.3451 46.3 43.2846 46.2853 38.4312V38.4387ZM2.97149 67.9916H19.911C19.9461 65.3154 20.5466 62.6775 21.6723 60.2544C21.756 60.0736 21.6474 59.6912 21.4947 59.5282C20.3396 58.2849 18.9188 57.4535 17.3365 56.874C9.91992 54.1621 2.25668 60.0587 2.97149 67.9842V67.9916ZM72.1709 68.0123C72.0461 66.7764 72.0579 65.6012 71.7937 64.4927C70.8249 60.4322 68.2343 57.8017 64.308 56.674C60.2086 55.4884 56.57 56.5762 53.4598 59.5164C53.1325 59.8246 53.222 60.0632 53.3365 60.4144C53.8502 61.9942 54.3815 63.5724 54.791 65.1804C55.0229 66.0918 55.0318 67.0609 55.1418 68.0123H72.1709ZM13.6069 50.2824C16.748 50.2972 19.4707 47.643 19.4516 44.4198C19.431 41.1091 17.0283 38.5646 13.626 38.4772C10.4879 38.3957 7.75494 41.1032 7.78136 44.3249C7.80485 47.6297 10.2105 50.1238 13.6099 50.2749L13.6069 50.2824ZM61.3931 50.2824C64.5605 50.2498 67.2054 47.5734 67.2318 44.3813C67.2583 41.1891 64.5106 38.4253 61.3608 38.4535C58.2109 38.4816 55.5513 41.1565 55.5279 44.3472C55.5044 47.5378 58.2432 50.3061 61.396 50.2749L61.3931 50.2824Z" fill="white"/>
<path d="M43.6493 22.7137C43.352 22.615 43.0608 22.4982 42.7775 22.364C41.1982 21.54 39.6189 20.7131 38.0586 19.855C37.63 19.6179 37.291 19.6001 36.8536 19.8417C35.2743 20.716 33.6671 21.5415 32.0775 22.398C31.4507 22.7359 30.8269 22.8634 30.2281 22.398C29.6703 21.9535 29.5749 21.3755 29.7041 20.6775C30.0417 18.8419 30.3435 16.9993 30.6097 15.1498C30.6208 14.9804 30.5981 14.8105 30.5429 14.6501C30.4876 14.4897 30.4011 14.3422 30.2883 14.2162C29.026 12.9136 27.7299 11.6421 26.4251 10.3839C25.8864 9.86374 25.5664 9.29023 25.8262 8.54481C26.0758 7.82755 26.6731 7.61415 27.3762 7.52227C29.0906 7.29998 30.799 7.02285 32.5134 6.7813C33.055 6.70572 33.4087 6.49528 33.6553 5.94696C34.3775 4.33609 35.1789 2.7593 35.9406 1.16621C36.2547 0.506742 36.6613 -0.0193505 37.4671 -0.00304912C38.2377 0.00584255 38.634 0.508221 38.9349 1.13953C39.7113 2.75337 40.5274 4.35091 41.2569 5.98549C41.4961 6.52196 41.8352 6.70424 42.3474 6.77537C44.1088 7.01989 45.8701 7.29109 47.6314 7.53264C48.3124 7.62601 48.8364 7.89572 49.0816 8.58334C49.3355 9.29468 49.0273 9.82818 48.5488 10.3009C47.241 11.5932 45.9391 12.8928 44.6049 14.154C44.4489 14.2873 44.3332 14.4622 44.2712 14.6588C44.2092 14.8554 44.2032 15.0656 44.2541 15.2654C44.5828 17.103 44.9048 18.9421 45.2199 20.7827C45.396 21.829 44.7531 22.6929 43.6493 22.7137ZM41.8176 18.4901C41.5974 17.2068 41.4418 16.119 41.2158 15.0387C41.0118 14.0636 41.1556 13.2604 41.9585 12.5905C42.6322 12.0259 43.231 11.3679 43.8666 10.7485C44.0603 10.5588 44.2467 10.3602 44.5095 10.089C43.1885 9.90227 42.0392 9.71999 40.8782 9.58217C39.9975 9.47695 39.4192 9.05312 39.0582 8.21286C38.5855 7.11177 38.0205 6.05218 37.4436 4.88292C36.8917 6.01809 36.3369 7.03026 35.901 8.09134C35.4959 9.08276 34.8192 9.51697 33.7903 9.61033C32.6939 9.70962 31.6078 9.92154 30.5613 10.0771C31.4419 11.0152 32.28 11.9355 33.1504 12.8276C33.6494 13.3389 33.8843 13.8739 33.7272 14.6193C33.4748 15.8597 33.306 17.1179 33.0829 18.4827C34.2439 17.8662 35.3124 17.3327 36.3472 16.7385C37.106 16.3043 37.7988 16.3191 38.5489 16.7489C39.5675 17.3283 40.6125 17.8514 41.8176 18.4901Z" fill="#F36E21"/>
<path d="M21.3583 20.2346C21.1205 20.6154 20.9371 21.0467 20.6362 21.3653C19.8113 22.2381 18.9203 23.0458 18.094 23.9187C17.9066 24.1438 17.8153 24.4348 17.8401 24.7278C17.9971 25.8956 18.2231 27.0545 18.414 28.2178C18.527 28.9069 18.4741 29.5515 17.8445 29.9961C17.2456 30.4274 16.6585 30.3103 16.0597 29.9872C15.0322 29.43 14.0048 28.861 12.9495 28.3571C12.6593 28.2371 12.334 28.2371 12.0438 28.3571C10.9665 28.8728 9.91704 29.4493 8.86612 30.0184C8.27901 30.3325 7.70806 30.4288 7.14737 30.0184C6.58668 29.6079 6.43549 29.0151 6.56906 28.3186C6.77602 27.2338 6.9096 26.1327 7.13417 25.0583C7.25159 24.4877 7.14296 24.0935 6.7041 23.6979C5.88509 22.9569 5.12037 22.1626 4.33218 21.3919C3.84195 20.9133 3.57042 20.365 3.81261 19.6684C4.05479 18.9719 4.59346 18.723 5.28037 18.6311C6.41496 18.4829 7.54368 18.2843 8.67826 18.1346C8.86892 18.1234 9.05225 18.0565 9.20597 17.942C9.3597 17.8276 9.4772 17.6706 9.54423 17.49C10.0183 16.4393 10.5467 15.4153 11.0487 14.3779C11.3422 13.7644 11.765 13.3213 12.4974 13.3228C13.2298 13.3242 13.6437 13.7599 13.9402 14.3809C14.4495 15.4434 14.953 16.5089 15.5122 17.5448C15.6754 17.818 15.9394 18.0147 16.2461 18.0917C17.4423 18.3184 18.6517 18.4681 19.8553 18.6533C20.7316 18.7793 21.2482 19.3498 21.3583 20.2346ZM16.569 21.0689C14.3673 21.3001 13.0713 20.3086 12.5561 18.0472C12.1891 18.7882 11.9279 19.255 11.7165 19.7455C11.423 20.4405 10.9283 20.8362 10.1754 20.9222C9.61762 20.9844 9.06281 21.0911 8.50799 21.1771L8.37148 21.3253C10.3119 22.4145 10.6671 24.0298 9.96548 26.0675C11.6622 24.6433 13.2826 24.6715 14.9324 26.1105C14.8576 25.0301 14.5523 24.0772 14.8047 23.314C15.0689 22.5286 15.8718 21.9166 16.569 21.0689Z" fill="#F36E21"/>
<path d="M71.1656 20.1943C70.9366 20.5796 70.7664 21.0198 70.467 21.3369C69.645 22.2127 68.7497 23.0174 67.9277 23.8933C67.727 24.1358 67.6285 24.4481 67.6532 24.7632C67.8 25.9072 68.0217 27.0424 68.2125 28.1805C68.3284 28.8681 68.2976 29.5143 67.6811 29.9826C67.0647 30.4509 66.4555 30.316 65.8347 29.9826C64.8072 29.4239 63.7798 28.8593 62.7245 28.3524C62.5907 28.2963 62.4473 28.2674 62.3025 28.2674C62.1577 28.2674 62.0143 28.2963 61.8805 28.3524C60.8281 28.8637 59.8007 29.4283 58.7718 29.9826C58.1524 30.319 57.5345 30.4775 56.9224 30.0078C56.3558 29.5706 56.2443 28.9837 56.3793 28.2917C56.5936 27.1832 56.7521 26.0688 56.9664 24.9514C57.0545 24.4771 56.9752 24.123 56.5951 23.7791C55.779 23.0382 55.0158 22.2394 54.2232 21.4718C53.7197 20.9842 53.3748 20.4477 53.6155 19.7068C53.8562 18.9658 54.414 18.7213 55.1229 18.6324C56.234 18.493 57.3378 18.293 58.4489 18.1492C58.6519 18.1381 58.8472 18.067 59.0106 17.9448C59.1739 17.8225 59.2981 17.6545 59.3677 17.4616C59.833 16.408 60.3687 15.3869 60.8736 14.3495C61.1672 13.7316 61.6075 13.3122 62.3414 13.3255C63.0371 13.3403 63.4466 13.7568 63.7343 14.3495C64.2466 15.4106 64.7852 16.4583 65.2755 17.5283C65.3364 17.6969 65.4449 17.8439 65.5876 17.9511C65.7302 18.0582 65.9008 18.1209 66.0783 18.1315C67.2628 18.2796 68.44 18.4738 69.6201 18.6531C70.5183 18.7761 71.0379 19.317 71.1656 20.1943ZM64.8102 26.0258C63.9442 23.8977 64.6854 22.3995 66.5025 21.2095C63.7681 20.8019 63.7681 20.8019 62.3253 18.2945C61.857 19.0562 61.5415 20.0269 60.878 20.5174C60.2146 21.0079 59.2106 21.0242 58.3667 21.2435C58.9083 21.8986 59.7229 22.5032 59.971 23.2901C60.219 24.077 59.9122 25.0684 59.8344 26.1443C61.4226 24.698 63.043 24.612 64.8102 26.0258Z" fill="#F36E21"/>
<path d="M48.2047 63.4197C48.2047 64.3088 47.8377 64.786 47.1626 64.998C46.4874 65.2099 45.934 64.9357 45.5201 64.3592C44.867 63.4478 44.2358 62.5172 43.5313 61.6488C43.1981 61.2383 42.7094 60.9596 42.3028 60.6114C41.5689 59.9756 41.4412 59.1472 41.9667 58.4655C42.4642 57.8224 43.3155 57.7172 44.0626 58.2373C45.7397 59.3932 47.0967 60.9622 48.0051 62.7958C48.0922 62.9964 48.1591 63.2055 48.2047 63.4197Z" fill="#F36E21"/>
<path d="M37.5563 56.206C37.9353 56.224 38.2926 56.3894 38.5534 56.6677C38.8142 56.9459 38.9581 57.3152 38.9551 57.6983C38.9501 57.894 38.9069 58.0867 38.8278 58.2654C38.7487 58.4441 38.6353 58.6052 38.4942 58.7394C38.3531 58.8736 38.187 58.9782 38.0057 59.0473C37.8243 59.1163 37.6311 59.1484 37.4374 59.1417C37.2435 59.1324 37.0534 59.0844 36.878 59.0005C36.7026 58.9165 36.5455 58.7983 36.4157 58.6526C36.2859 58.5069 36.186 58.3367 36.1217 58.1518C36.0575 57.9669 36.0303 57.7709 36.0415 57.5753C36.0701 57.1938 36.2437 56.8382 36.5261 56.583C36.8084 56.3277 37.1776 56.1926 37.5563 56.206Z" fill="#F36E21"/>
</g>
<defs>
<clipPath id="clip0_423_906">
<rect width="75" height="71" fill="white"/>
</clipPath>
</defs>
</svg>
