<svg width="33" height="38" viewBox="0 0 33 38" fill="none" xmlns="http://www.w3.org/2000/svg">
<g id="Group 255">
<path id="Vector" d="M16.6433 38H16.2785C15.8982 37.8739 15.523 37.7373 15.1426 37.6269C11.1997 36.492 7.2569 35.3605 3.31406 34.2326C3.09 34.1695 2.98057 34.0802 2.95973 33.8437C2.81383 32.0678 2.66272 30.297 2.50639 28.521C2.37786 27.0182 2.24585 25.5155 2.11037 24.0127L1.62577 18.5481L1.1568 13.1518L0.672198 7.68722C0.505452 5.83766 0.343916 4.00913 0.182381 2.14381C0.119852 1.43446 0.0625296 0.725111 0 0H33C32.8854 1.28733 32.7812 2.55365 32.6665 3.81996C32.5102 5.63274 32.3435 7.44026 32.1819 9.25304C32.0204 11.0658 31.8745 12.8733 31.7181 14.6809C31.5306 16.7826 31.3378 18.8844 31.1554 20.9599C30.973 23.0354 30.7958 25.1634 30.6343 27.2652C30.4728 29.367 30.2487 31.6001 30.0663 33.7702C30.0827 33.8928 30.0501 34.0169 29.9759 34.1154C29.9017 34.2138 29.7918 34.2787 29.6703 34.2956C26.1478 35.2905 22.6288 36.2923 19.1132 37.3012C18.2743 37.4956 17.4614 37.753 16.6433 38ZM7.49314 21.7481C7.49314 21.8374 7.49314 21.8847 7.49314 21.9372C7.64946 23.9794 7.80231 26.0252 7.95169 28.0744C7.95169 28.3319 8.11844 28.3686 8.2956 28.4212C10.5884 29.0359 12.8915 29.6244 15.1739 30.2865C16.033 30.5518 16.9513 30.5518 17.8105 30.2865C20.0772 29.6192 22.37 29.0359 24.6523 28.4159C24.819 28.3739 24.9597 28.3371 24.9754 28.1007C25.0275 27.323 25.1108 26.5243 25.1838 25.773C25.4548 22.7919 25.724 19.8144 25.9915 16.8404C26.0332 16.378 26.0592 15.9156 26.0957 15.4165H11.0417L10.6769 11.1131H26.4813L26.8356 6.97787H6.15396C6.52392 11.1814 6.88347 15.385 7.24823 19.6568H21.5883C21.5571 19.9878 21.531 20.2821 21.4998 20.5763C21.3712 21.9775 21.2427 23.3787 21.1142 24.7799C21.1147 24.8761 21.0799 24.9691 21.0163 25.041C20.9528 25.1128 20.8651 25.1583 20.7702 25.1687C19.4207 25.5312 18.0815 25.9201 16.7319 26.2879C16.5695 26.3297 16.3993 26.3297 16.2369 26.2879C14.9446 25.9411 13.6315 25.5838 12.3704 25.237C11.8233 25.0846 11.8494 25.0846 11.7868 24.4961C11.7191 23.5871 11.6357 22.6781 11.5524 21.7638L7.49314 21.7481Z" fill="white"/>
</g>
</svg>
