<svg width="80" height="78" viewBox="0 0 80 78" fill="none" xmlns="http://www.w3.org/2000/svg">
<g clip-path="url(#clip0_423_157)">
<path d="M80 77.1793C79.5825 77.8093 79.0105 77.9752 78.2737 77.9752C52.7551 77.9584 27.2358 77.9535 1.71589 77.9605C0.361125 77.9605 0 77.6035 0 76.2553C0 73.5842 0 70.9124 0 68.2399C0 67.045 0.398709 66.6545 1.59483 66.6503H3.47354C3.55176 66.6249 3.62674 66.5904 3.6969 66.5474C2.35675 64.8506 2.48825 62.8473 2.49869 60.8607C2.5133 57.2909 2.49869 53.7357 2.49869 50.1721C2.52583 42.6585 8.66089 36.5036 16.1382 36.4784C17.6161 36.4784 19.0961 36.4784 20.549 36.4784C20.7452 35.8253 20.5323 35.4474 20.0647 35.0757C17.7017 33.1857 16.3302 30.6973 15.7583 27.707C13.9839 27.6545 12.4789 27.0035 11.5186 25.4769C11.0886 24.7923 10.6836 23.946 10.6836 23.167C10.6231 20.3698 10.5417 17.5496 10.8152 14.7672C11.4831 7.97184 16.8083 2.05633 23.4255 0.487681C33.1197 -1.80964 42.4486 4.29276 44.1269 14.175C44.5006 16.3695 44.3231 18.6626 44.3711 20.9116C44.3899 21.7999 44.4442 22.7113 44.2856 23.5743C43.8368 26.0124 42.0854 27.4193 39.5241 27.6923C38.7642 29.3513 38.1735 30.9724 37.3072 32.4298C36.7081 33.4377 35.7144 34.2042 34.9295 35.1072C34.6628 35.4625 34.4228 35.8373 34.2115 36.2285L34.4035 36.4742C34.6498 36.4742 34.8961 36.4742 35.1404 36.4742C37.2926 36.5771 39.4447 36.7157 41.5969 36.7703C42.2565 36.7871 42.9204 36.4889 43.5842 36.4868C53.2978 36.4686 63.0108 36.4686 72.7231 36.4868C75.2552 36.4868 77.4825 38.717 77.4909 41.2621C77.5145 48.938 77.5103 56.6133 77.4783 64.2878C77.4783 65.0459 77.1819 65.804 77.0107 66.6188C77.9564 66.856 79.2569 66.1988 80.0042 67.4419L80 77.1793ZM41.2483 66.6503H72.0259C74.0319 66.6503 75.0026 65.6759 75.0026 63.6662V42.0579C75.0026 39.9349 74.0612 38.9794 71.9653 38.9794H44.3148C42.1647 38.9794 41.2483 39.9139 41.2483 42.1041V66.6503ZM23.7136 60.3505H12.8108C11.8004 60.3505 11.264 59.92 11.2535 59.1136C11.2431 58.3072 11.7817 57.8536 12.7732 57.8536C16.9147 57.8536 21.0556 57.8536 25.1957 57.8536C27.0097 57.8536 28.759 58.2736 30.1952 59.3614C31.3266 60.2119 32.4643 60.4471 33.8002 60.3799C35.203 60.3106 36.612 60.3673 38.0169 60.3631C38.2444 60.3631 38.4699 60.3379 38.7517 60.319V59.4286C38.7517 54.2418 38.7413 49.0549 38.7517 43.8681C38.7517 42.2616 38.5096 40.6195 39.3779 39.0382H34.3993C33.4454 42.9 31.1429 45.128 28.0054 45.2729C26.4612 45.3782 24.9261 44.963 23.6426 44.0928C21.8537 42.8769 20.9289 41.1277 20.6033 39.0004C18.9333 39.0004 17.3239 38.9836 15.7124 39.0004C15.1663 39.018 14.6231 39.0883 14.0904 39.2104C8.64628 40.3717 5.00991 44.8803 4.99321 50.4976C4.98277 54.4538 4.99321 58.408 4.99321 62.3643C4.99321 65.1173 6.51081 66.644 9.2433 66.6461H23.7094L23.7136 60.3505ZM2.53001 75.3881H77.4387V69.1933H2.53001V75.3881ZM41.8892 18.0599C41.9977 12.1633 39.7599 7.38596 34.4995 4.42085C29.4332 1.56285 24.271 1.81274 19.4698 5.06553C14.8899 8.15453 12.9736 12.682 13.1427 18.3098C14.3826 17.5391 15.6602 17.5979 16.9335 17.6147C17.5326 17.6147 18.1317 17.6147 18.7287 17.6147C23.9474 17.5559 28.425 15.7479 32.1052 11.9974C33.0738 11.0104 33.7397 11.065 34.5976 12.1822C35.8501 13.8181 37.1026 15.4623 38.3739 17.0855C38.5494 17.3284 38.7984 17.5074 39.0836 17.5958C39.9749 17.7785 40.8893 17.894 41.8892 18.0599ZM18.2507 20.1367C18.2507 22.5265 18.0628 24.8196 18.2904 27.0665C18.7475 31.5646 22.5718 34.9812 27.112 35.2059C31.4644 35.4159 35.6476 32.3668 36.5265 28.0661C36.9126 26.1762 36.6893 24.156 36.9001 22.2136C37.1235 20.1451 36.5536 18.4589 35.1049 16.9847C34.3889 16.2561 33.8295 15.3699 33.1782 14.5299C28.8529 18.3854 23.8889 20.2543 18.2507 20.1283V20.1367ZM31.8192 36.9362C29.0375 38.0147 25.9573 38.0184 23.1729 36.9467C22.6887 41.0899 25.3063 42.7572 27.5003 42.7572C29.6942 42.7572 32.3181 41.0542 31.8213 36.9194L31.8192 36.9362ZM26.2457 60.5605V66.6671H32.3265C31.9048 63.5697 29.2892 60.9489 26.2478 60.5436L26.2457 60.5605ZM38.7225 62.9124H33.8858C34.2219 64.0736 34.5455 65.2223 34.8961 66.35C34.9321 66.4245 34.9854 66.4892 35.0516 66.5385C35.1177 66.5879 35.1947 66.6205 35.2761 66.6335C36.4116 66.6566 37.5493 66.6482 38.7225 66.6482V62.9124ZM15.5934 25.1136V20.1598C14.1196 20.2942 13.1448 21.2854 13.1364 22.621C13.1281 23.9565 14.0904 24.9372 15.585 25.1157L15.5934 25.1136ZM39.4113 25.0884C40.8245 25.0275 41.8537 24.0132 41.8829 22.6756C41.9121 21.3379 40.8663 20.2522 39.4113 20.1682V25.0884Z" fill="white"/>
<path d="M58.1586 59.0986C57.3316 59.1064 56.5113 58.9484 55.7456 58.6339C54.9799 58.3193 54.2842 57.8544 53.6991 57.2664C53.1139 56.6783 52.6511 55.9789 52.3376 55.209C52.0242 54.439 51.8663 53.614 51.8733 52.782C51.8727 51.9568 52.0346 51.1397 52.3497 50.3778C52.6648 49.6159 53.1269 48.9244 53.7091 48.3431C54.2914 47.7618 54.9824 47.3024 55.7421 46.9913C56.5019 46.6802 57.3154 46.5236 58.1357 46.5305C58.9553 46.5269 59.7676 46.6866 60.5256 47.0004C61.2835 47.3142 61.9722 47.7759 62.5519 48.3589C63.1316 48.9418 63.5908 49.6345 63.903 50.3969C64.2152 51.1593 64.3742 51.9763 64.3709 52.8009C64.3775 53.6257 64.2217 54.4437 63.9125 55.2076C63.6032 55.9715 63.1466 56.6663 62.5691 57.2518C61.9915 57.8372 61.3044 58.3019 60.5474 58.6189C59.7905 58.9359 58.9786 59.0989 58.1586 59.0986ZM61.8701 52.7988C61.8507 51.8071 61.4491 50.8619 60.75 50.1625C60.0509 49.4631 59.109 49.0644 58.1231 49.0504C57.1394 49.067 56.2001 49.4657 55.502 50.1633C54.804 50.8608 54.4013 51.803 54.3782 52.7925C54.3903 53.7963 54.794 54.7551 55.5024 55.4622C56.2107 56.1693 57.167 56.568 58.1649 56.5724C59.1493 56.549 60.0861 56.1416 60.7775 55.4363C61.4689 54.731 61.8607 53.783 61.8701 52.7925V52.7988Z" fill="#F36E21"/>
</g>
<defs>
<clipPath id="clip0_423_157">
<rect width="80" height="77.9747" fill="white"/>
</clipPath>
</defs>
</svg>
