<svg width="64" height="59" viewBox="0 0 64 59" fill="none" xmlns="http://www.w3.org/2000/svg">
<path d="M0.000818897 29.1046L0.000821441 0.000283716L27.2164 0.000286095C27.2443 0.559986 27.2889 1.05254 27.2889 1.55627C27.2889 11.7624 27.3112 21.9853 27.2889 32.1802C27.275 36.5794 26.9737 40.9675 24.7785 44.9217C21.3281 51.1456 15.822 54.7501 9.17219 56.695C6.74268 57.4059 4.20158 57.7305 1.41782 58.293L1.41782 56.0877C1.41782 53.4291 1.45964 50.7706 1.39828 48.1176C1.37596 47.1885 1.63261 46.7184 2.53914 46.3741C4.09157 45.7569 5.6102 45.0572 7.08856 44.2781C10.5306 42.5262 12.3157 39.6354 12.6365 35.8238C12.8178 33.6494 12.9015 31.4694 13.041 29.1074L0.000818897 29.1046Z" fill="#FF5E14"/>
<path d="M48.6413 29.104L35.9721 29.104L35.9721 0.047277L63.0426 0.0472793C63.1187 0.286549 63.1692 0.533276 63.1932 0.783283C63.1709 11.7898 63.2853 22.799 63.0621 33.8055C62.9282 40.382 60.8585 46.368 55.8712 50.9883C51.7207 54.8334 46.6079 56.7532 41.2495 58.1328C40.1338 58.4127 39.018 58.6142 37.7349 58.8828C37.7349 55.0153 37.7099 51.3269 37.7768 47.6609C37.7768 47.3279 38.3347 46.9109 38.7168 46.6954C40.4629 45.7327 42.2871 44.9044 43.9942 43.8969C45.1526 43.2322 46.1334 42.2959 46.8527 41.1683C47.5721 40.0406 48.0087 38.7549 48.1252 37.4212C48.4153 34.687 48.4739 31.9529 48.6413 29.104Z" fill="#FF5E14"/>
</svg>
