<svg width="39" height="45" viewBox="0 0 39 45" fill="none" xmlns="http://www.w3.org/2000/svg">
<g id="Group 257">
<path id="Vector" d="M20.2004 0C23.2025 0.666964 24.7911 2.88346 26.1082 5.37599C26.5297 6.17564 26.862 7.02385 27.2621 7.90643C27.8301 7.80455 28.4339 7.68016 29.0484 7.59012C31.2026 7.2679 33.3485 7.1672 35.442 7.94552C37.9595 8.87548 39.2825 11.0979 38.9503 13.7504C38.6502 16.0877 37.5784 18.0957 36.2685 20.003C35.7624 20.7399 35.1967 21.4388 34.637 22.1911C34.8752 22.4872 35.1241 22.7976 35.3682 23.1151C36.7972 24.9798 38.0559 26.9439 38.6835 29.241C39.0408 30.5583 39.1598 31.8852 38.6966 33.1989C37.9821 35.2259 36.4138 36.2518 34.4096 36.715C32.3041 37.2019 30.2023 36.9946 28.1112 36.5965C27.2228 36.4271 27.2371 36.4141 26.9036 37.2351C26.1177 39.1744 25.14 40.9999 23.6229 42.4855C21.0626 44.9934 17.8925 44.9733 15.3501 42.4464C13.7472 40.853 12.7445 38.8924 11.9502 36.8228C11.8109 36.4591 11.6537 36.4331 11.319 36.5041C9.09216 36.978 6.85099 37.2363 4.59791 36.7162C2.46986 36.2246 0.853886 35.1015 0.222738 32.9087C-0.19644 31.4539 0.0464877 30.0229 0.515681 28.619C1.26472 26.3824 2.55917 24.4621 4.02391 22.6401C4.12275 22.5216 4.22517 22.3936 4.32281 22.2693C4.33946 22.2409 4.35265 22.2107 4.36211 22.1792C3.82265 21.4578 3.257 20.747 2.74017 20.003C1.52908 18.2604 0.549019 16.4111 0.136986 14.3024C-0.367933 11.7175 0.600223 9.48795 2.78424 8.30329C3.96675 7.6612 5.25882 7.42664 6.59495 7.37451C8.20492 7.32365 9.81443 7.48942 11.3798 7.86733C11.6953 7.94078 11.8192 7.85667 11.9526 7.55814C12.4289 6.48128 12.8898 5.38428 13.4804 4.36666C14.7022 2.26389 16.2849 0.547313 18.8154 0.00710768L20.2004 0ZM11.8359 22.1697C11.893 23.3745 11.9395 24.6007 12.0216 25.8232C12.0446 26.0404 12.1498 26.2407 12.3158 26.3836C14.4841 28.0528 16.7952 29.5298 19.2227 30.7976C19.3081 30.8371 19.4007 30.8584 19.4949 30.8602C19.589 30.8621 19.6824 30.8444 19.7693 30.8083C22.2216 29.5313 24.5549 28.0398 26.7417 26.3516C26.8704 26.2479 26.9554 26.1 26.9799 25.937C27.1698 23.4326 27.1698 20.9176 26.9799 18.4132C26.9551 18.2503 26.8702 18.1025 26.7417 17.9986C24.5541 16.3091 22.2205 14.8158 19.7681 13.5359C19.6883 13.4998 19.6018 13.4804 19.5141 13.479C19.4264 13.4776 19.3394 13.4941 19.2584 13.5276C16.806 14.8067 14.4719 16.2988 12.2836 17.9867C12.1437 18.0985 12.0518 18.259 12.0264 18.4357C11.9454 19.6737 11.8954 20.9128 11.8359 22.1745V22.1697ZM11.0297 34.1798C10.7784 33.0556 10.5033 31.9823 10.3068 30.8948C10.1103 29.8073 9.99006 28.6712 9.81738 27.5611C9.77141 27.4135 9.68022 27.2839 9.55658 27.1903C8.88732 26.5921 8.2014 26.0152 7.53214 25.4133C7.01055 24.9395 6.51159 24.4419 5.94475 23.9005C5.34932 24.7298 4.7539 25.5105 4.2204 26.3315C3.33084 27.708 2.61277 29.1592 2.37936 30.8118C2.16501 32.3377 2.82474 33.5733 4.23946 34.1585C4.57367 34.2952 4.92017 34.3999 5.2743 34.4713C7.21181 34.8669 9.10884 34.5838 11.0297 34.1846V34.1798ZM10.9499 10.1443C9.09692 9.74858 7.17131 9.47966 5.20999 9.87178C3.09028 10.2959 2.14356 11.5943 2.43056 13.7207C2.64491 15.3129 3.38325 16.7025 4.24185 18.027C4.77177 18.8432 5.36837 19.6168 5.95546 20.439C6.14004 20.2624 6.25199 20.1535 6.36631 20.0468C7.25945 19.2176 8.12638 18.3682 9.05762 17.591C9.54825 17.18 9.82453 16.7724 9.9186 16.109C10.1996 14.1366 10.5914 12.1759 10.9499 10.149V10.1443ZM32.9805 20.5041C33.5129 19.785 33.9844 19.188 34.4096 18.5601C35.3622 17.1728 36.1673 15.7169 36.5257 14.0513C37.002 11.83 36.0208 10.3208 33.7796 9.87178C31.8195 9.47966 29.8939 9.75331 27.9706 10.1644C27.9716 10.216 27.9764 10.2675 27.9849 10.3184C28.5486 12.4187 28.9467 14.5596 29.1758 16.7215C29.2129 16.8855 29.3043 17.0324 29.4354 17.1385C30.2297 17.8564 31.0478 18.5471 31.8326 19.2709C32.2315 19.6381 32.5673 20.0563 32.9841 20.5089L32.9805 20.5041ZM27.9992 34.1739C28.1017 34.1976 28.2255 34.2296 28.3565 34.2545C30.1547 34.6241 31.96 34.8361 33.7867 34.4701C35.9184 34.0412 36.8544 32.7547 36.5817 30.6306C36.4245 29.4104 35.9219 28.311 35.3337 27.2484C34.6787 26.0746 33.9063 24.9697 33.0282 23.9503C32.9555 24.006 32.9091 24.0356 32.8674 24.0688C31.7135 25.1207 30.5548 26.1668 29.4139 27.2318C29.2833 27.3757 29.2002 27.556 29.1758 27.7483C29.0567 28.516 28.9888 29.2884 28.8459 30.056C28.5839 31.4362 28.2898 32.7973 28.0028 34.1787L27.9992 34.1739ZM24.9483 8.52008C24.7577 8.06399 24.5839 7.60671 24.3779 7.16483C23.6991 5.70414 22.9143 4.31217 21.6675 3.24005C20.3147 2.07553 18.875 2.00918 17.4924 3.12158C15.743 4.53251 14.8654 6.50616 14.0508 8.54614C14.2045 8.60301 14.3116 8.64092 14.4176 8.68238C15.5239 9.10649 16.6338 9.51994 17.7341 9.96063C18.3296 10.1976 18.8952 10.6856 19.474 10.6833C20.0527 10.6809 20.6565 10.2094 21.2602 9.963C22.4642 9.48321 23.6764 9.01764 24.9483 8.52008ZM14.0497 35.8052C14.2461 36.2791 14.4188 36.715 14.6153 37.145C15.2858 38.6093 16.0681 40.0024 17.309 41.0793C18.6987 42.2853 20.1599 42.3469 21.5484 41.1978C23.2692 39.7762 24.1504 37.8262 24.9447 35.823C24.8993 35.7879 24.8511 35.7566 24.8006 35.7294C23.1001 35.0423 21.4019 34.3516 19.6955 33.6799C19.537 33.6369 19.3683 33.6507 19.2191 33.719C18.2057 34.1419 17.2066 34.5968 16.1896 35.0127C15.4989 35.3029 14.788 35.5398 14.0497 35.8052ZM13.2851 10.7378C12.9767 12.1736 12.6897 13.5134 12.3801 14.9445C13.9282 13.9612 15.3572 13.0561 16.8779 12.1013L13.2851 10.7378ZM22.1272 12.0966L26.6226 14.9398C26.3082 13.4992 26.0141 12.1511 25.7045 10.7354L22.1272 12.0966ZM12.3717 29.4033C12.6897 30.8521 12.985 32.1979 13.2935 33.6076L16.8755 32.2512L12.3717 29.4033ZM26.6214 29.4033L22.12 32.2465L25.708 33.6005L26.6214 29.4033ZM9.44703 24.0818L9.54229 23.9918V20.2233L7.75602 22.1674L9.44703 24.0818ZM31.2098 22.2266L29.4556 20.189V24.0143L29.5521 24.0865L31.2098 22.2266Z" fill="white"/>
<path id="Vector_2" d="M19.498 26.3273C18.3921 26.3245 17.3323 25.8856 16.551 25.1068C15.7698 24.328 15.3307 23.2729 15.3301 22.1727C15.3332 21.0725 15.7745 20.0185 16.5573 19.2413C17.34 18.4642 18.4005 18.0273 19.5064 18.0264C20.0577 18.0284 20.6031 18.1388 21.1114 18.3512C21.6197 18.5636 22.0807 18.8739 22.468 19.2641C22.8554 19.6544 23.1613 20.117 23.3684 20.6253C23.5754 21.1336 23.6794 21.6776 23.6743 22.226C23.6672 24.4745 21.7773 26.3308 19.498 26.3273ZM21.3331 22.1644C21.3266 21.6843 21.1312 21.2258 20.7888 20.8874C20.4464 20.549 19.9843 20.3576 19.5016 20.3542C19.259 20.3561 19.0192 20.4056 18.7958 20.4998C18.5725 20.5941 18.3701 20.7312 18.2001 20.9035C18.0302 21.0757 17.8961 21.2796 17.8056 21.5035C17.715 21.7274 17.6698 21.9669 17.6725 22.2082C17.6852 22.6881 17.8862 23.1439 18.2325 23.4782C18.5788 23.8126 19.0429 23.9988 19.5254 23.9971C20.0078 23.9875 20.4672 23.7902 20.8051 23.4476C21.1431 23.105 21.3326 22.6444 21.3331 22.1644Z" fill="white"/>
</g>
</svg>
