<svg width="42" height="42" viewBox="0 0 42 42" fill="none" xmlns="http://www.w3.org/2000/svg">
<g id="Group 256">
<path id="Vector" d="M35.2153 5.30867C34.3071 5.39086 33.494 5.64664 32.8269 6.27086C31.6387 7.38357 31.2969 9.06786 31.9954 10.7669C32.3422 11.568 32.7483 12.3421 33.2104 13.0828C34.0493 14.4827 34.8199 15.9048 35.1507 17.5244C35.5544 19.5051 35.2791 21.4369 34.7053 23.3336C33.7601 26.4547 32.778 29.5638 31.8097 32.6766C31.7764 32.7396 31.7371 32.7993 31.6923 32.8548C29.2319 25.522 26.7825 18.2419 24.3128 10.9054C24.9928 10.8454 25.6165 10.7928 26.2392 10.7346C26.4225 10.7232 26.6045 10.6966 26.7834 10.6552C27.2325 10.5361 27.4791 10.1612 27.4126 9.72532C27.3461 9.28948 27.043 9.02169 26.5746 9.03831C25.6691 9.07155 24.7646 9.1759 23.8601 9.17405C21.5123 9.16851 19.1646 9.12326 16.8168 9.0891C16.4177 9.08356 16.0195 9.03831 15.6157 9.03831C15.1426 9.03831 14.8294 9.33103 14.7777 9.78627C14.7605 9.88919 14.7647 9.99454 14.79 10.0958C14.8153 10.197 14.8612 10.2919 14.9248 10.3747C14.9884 10.4574 15.0684 10.5262 15.1598 10.5766C15.2511 10.6271 15.3519 10.6583 15.4559 10.6681C16.062 10.7605 16.6755 10.8057 17.2871 10.8463C17.5874 10.8657 17.7315 10.9839 17.8415 11.2757C18.8061 13.9536 19.7947 16.6315 20.7611 19.3094C20.8331 19.521 20.8379 19.7496 20.775 19.964C19.3638 24.237 17.9437 28.508 16.5147 32.7772C16.4916 32.8483 16.4519 32.9148 16.3817 33.0672C13.887 25.6504 11.4145 18.3056 8.92358 10.9054C9.61931 10.8454 10.2577 10.7937 10.8962 10.7337C11.0797 10.7225 11.2616 10.6934 11.4395 10.6469C11.8654 10.5231 12.0779 10.1723 12.0188 9.72809C11.9597 9.28394 11.6409 9.01707 11.1392 9.04016C10.1727 9.08356 9.20815 9.17775 8.2417 9.19898C6.98329 9.22761 5.72488 9.20637 4.375 9.20637C7.48407 4.68168 11.6307 1.68615 16.9721 0.526355C23.8296 -0.962175 29.9174 0.729506 35.2153 5.30867Z" fill="white"/>
<path id="Vector_2" d="M28.2668 39.8362C24.6246 41.2139 19.7961 41.4411 15.7012 40.1584C17.7394 34.2394 19.7767 28.3213 21.8565 22.2822C24.0167 28.2022 26.1371 34.0067 28.2668 39.8362Z" fill="white"/>
<path id="Vector_3" d="M12.5504 38.9322C2.55055 34.0871 -1.70975 22.1844 2.776 12.1719C6.04121 21.1104 9.27871 29.9751 12.5504 38.9322Z" fill="white"/>
<path id="Vector_4" d="M39.5122 10.8301C44.289 19.0484 42.4116 31.9964 31.8223 38.198C31.886 37.9911 31.9267 37.8406 31.9775 37.6947C34.2208 31.2309 36.4808 24.767 38.7029 18.293C39.5148 15.9655 39.7917 13.4851 39.5132 11.036C39.5067 10.9806 39.5122 10.9243 39.5122 10.8301Z" fill="white"/>
</g>
</svg>
