<svg width="80" height="80" viewBox="0 0 80 80" fill="none" xmlns="http://www.w3.org/2000/svg">
<g clip-path="url(#clip0_423_922)">
<path d="M38.2899 22.3071C38.0887 22.2628 37.8945 22.191 37.7128 22.0938C37.3691 21.9837 37.0555 21.7954 36.7968 21.5435C36.4298 21.538 36.0691 21.4469 35.7434 21.2775C35.3571 21.1521 35.0099 20.9285 34.7358 20.6285C34.4354 20.3538 34.212 20.0052 34.0877 19.6173C33.8915 19.2459 33.7982 18.8286 33.8175 18.4089V17.8104C33.8174 17.5599 33.8482 17.3104 33.9091 17.0674C33.5802 16.9394 33.2591 16.7924 32.9473 16.6272C32.6157 16.5495 32.2954 16.4293 31.9946 16.2694C31.9016 16.2199 31.812 16.164 31.7267 16.1021C31.7938 16.7467 31.9375 17.381 32.1549 17.9915C32.1876 18.1356 32.1855 18.2855 32.1488 18.4286C32.1122 18.5718 32.0421 18.7041 31.9442 18.8147C29.2535 20.9817 26.5329 23.1165 23.7803 25.2903C23.3878 25.0033 22.9727 24.7487 22.5391 24.529C23.0371 25.1192 23.4845 25.7505 23.8764 26.4162C23.9827 26.6061 24.0687 26.8067 24.1329 27.0147C24.2027 27.1253 24.2654 27.2401 24.3207 27.3586C24.5611 27.5834 24.7768 27.8332 24.9642 28.1039L25.2184 28.4662C25.3054 28.5671 25.397 28.6634 25.4909 28.7551C25.555 28.8033 25.6146 28.8537 25.6741 28.9064C25.7337 28.9592 25.7955 28.9707 25.8527 29.0051C25.7588 28.4848 25.6327 27.971 25.4749 27.4664L34.0671 20.6882C35.5006 21.72 36.9022 22.2543 38.2899 22.3071Z" fill="white"/>
<path d="M72.1375 13.6368C70.7635 13.3066 69.3895 12.8732 68.4117 11.8023C67.9482 11.6913 67.5208 11.4632 67.1705 11.1396C67.4108 11.493 67.678 11.8272 67.9697 12.1394L61.1111 22.7379C60.266 24.0426 60.266 24.0404 58.7592 23.7698C58.5316 23.736 58.3022 23.7161 58.0722 23.7102C56.2814 23.6001 54.7195 24.2124 53.302 25.3153L44.9228 18.6815C45.0442 17.535 45.2434 16.5306 45.3075 15.5515C45.0484 15.6442 44.7837 15.7207 44.5152 15.7808C44.226 15.9114 43.9157 15.989 43.5992 16.0101C43.66 16.2388 43.6863 16.4753 43.677 16.7118C43.6753 17.2758 43.5253 17.8294 43.2419 18.3169C43.0258 18.6876 42.7367 19.0106 42.3923 19.2662C42.2553 19.5255 42.1024 19.7759 41.9343 20.016C41.8603 20.2883 41.7509 20.5496 41.6091 20.7934C41.4465 21.0066 41.2839 21.2176 41.1191 21.4286C40.8577 21.6891 40.5522 21.9011 40.2168 22.0546C41.1974 21.7614 42.1178 21.2955 42.9351 20.6787C45.706 22.8686 48.4449 25.0195 51.1563 27.2071C51.2287 27.2954 51.283 27.3972 51.316 27.5066C51.349 27.616 51.3601 27.7308 51.3486 27.8445C51.6346 27.7261 51.9266 27.6227 52.2234 27.535C52.4528 26.7668 52.9609 26.1125 53.6478 25.7005C54.3807 25.285 55.2465 25.1715 56.0615 25.3841C56.438 25.4847 56.8204 25.5613 57.2065 25.6134C57.48 25.6901 57.742 25.8035 57.9852 25.9505C58.0348 25.9623 58.0837 25.9768 58.1317 25.994C59.0297 26.3554 59.8865 26.8121 60.6874 27.3561C60.7194 27.3561 60.7492 27.3561 60.7813 27.3561H61.1637C61.6341 27.3558 62.0984 27.4624 62.5217 27.668C62.7392 27.6519 62.9568 27.6313 63.1766 27.629C63.4532 27.6265 63.7286 27.6643 63.9942 27.7414C63.6439 26.967 63.1706 26.2545 62.5927 25.6318C65.1117 21.7336 67.6079 17.8698 70.1315 14.0289C70.2312 13.9312 70.3531 13.8592 70.4867 13.8193C70.6204 13.7793 70.7618 13.7725 70.8986 13.7996C71.7682 14.0671 72.6839 14.1499 73.5871 14.0427C73.1268 13.9097 72.6459 13.756 72.1375 13.6368Z" fill="white"/>
<path d="M71.3781 63.5291V59.4016H52.0846C51.8276 59.4166 51.5699 59.4166 51.3129 59.4016C50.9829 59.3685 50.6773 59.2129 50.4561 58.9655C50.2349 58.7181 50.1141 58.3968 50.1175 58.0648C50.1 57.7183 50.2203 57.3791 50.4521 57.1212C50.6838 56.8634 51.0082 56.7079 51.3541 56.689C51.9495 56.65 52.5518 56.6752 53.1518 56.6752H76.8467V52.5477H48.7549C48.4701 52.5607 48.1848 52.5554 47.9007 52.5317C47.5706 52.489 47.2683 52.3241 47.0534 52.0695C46.8386 51.8149 46.7266 51.4889 46.7397 51.1558C46.7348 50.8245 46.8534 50.5033 47.0723 50.2549C47.2912 50.0064 47.5947 49.8486 47.9236 49.8121C48.1521 49.7926 48.3816 49.788 48.6106 49.7983H76.549C78.61 49.7983 79.6452 50.8532 79.6474 52.9146C79.6474 54.1712 79.6612 55.437 79.6474 56.689C79.6511 57.0472 79.5832 57.4026 79.4477 57.7341C79.3121 58.0657 79.1117 58.3667 78.8581 58.6195C78.6046 58.8723 78.3032 59.0717 77.9715 59.206C77.6398 59.3404 77.2846 59.4069 76.9269 59.4016C76.0452 59.4154 75.1636 59.4016 74.2247 59.4016V63.5291C75.0834 63.5291 75.9307 63.5291 76.778 63.5291C78.5345 63.5406 79.6864 64.6757 79.6383 66.4367C79.5902 68.1978 79.3589 70.007 79.3589 71.791C79.3589 73.575 79.5879 75.2994 79.6383 77.065C79.6864 78.8995 78.5482 80.007 76.7254 80.007H45.9588C44.887 80.007 44.239 79.5003 44.2229 78.661C44.2069 77.8217 44.871 77.2691 45.9977 77.2691H76.8742V73.1416H51.1182C50.8619 73.1554 50.6051 73.1554 50.3488 73.1416C50.0032 73.1158 49.6818 72.9543 49.4545 72.6923C49.2272 72.4304 49.1123 72.0891 49.135 71.7429C49.1317 71.4109 49.2541 71.0901 49.4776 70.845C49.7011 70.5999 50.0092 70.4487 50.3396 70.4221C50.5959 70.4083 50.8528 70.4083 51.1091 70.4221H76.8536V66.2946H52.9434C52.7419 66.2946 52.5426 66.2946 52.3434 66.2946C51.4045 66.2671 50.8388 65.7374 50.8549 64.8981C50.8549 64.1024 51.4228 63.5773 52.309 63.5589C53.1357 63.5429 53.9647 63.5589 54.7937 63.5589H71.3781V63.5291Z" fill="white"/>
<path d="M15.1974 63.4833C15.186 54.3799 22.5576 47.0536 31.7338 47.0513C40.7084 47.0513 48.0892 54.4143 48.1029 63.3893C48.1167 72.5844 40.816 79.9933 31.7406 79.9979C29.5677 80.0146 27.4131 79.5992 25.4018 78.7758C23.3904 77.9524 21.5623 76.7374 20.0235 75.2012C18.4846 73.665 17.2656 71.8382 16.4372 69.8267C15.6088 67.8152 15.1874 65.6591 15.1974 63.4833ZM31.617 77.2577C39.0344 77.3242 45.2908 71.1467 45.3572 63.6874C45.4304 56.1593 39.3344 49.8901 31.846 49.7938C28.1923 49.7571 24.6736 51.1751 22.0638 53.7358C19.4541 56.2965 17.9669 59.7904 17.9294 63.4489C17.8791 70.977 24.0324 77.1912 31.617 77.2577Z" fill="white"/>
<path d="M16.5248 38.686C20.2704 38.7244 23.8947 40.0213 26.8162 42.3687C27.6315 43.0176 27.817 43.8523 27.304 44.515C26.791 45.1777 25.9551 45.2029 25.1078 44.5608C16.9141 38.4315 5.68607 42.3595 3.27008 52.199C1.65332 58.7892 5.43874 65.8564 11.8279 68.1609C12.0569 68.2481 12.3226 68.2871 12.5676 68.3581C12.9163 68.4494 13.2165 68.6716 13.4058 68.9786C13.5951 69.2856 13.6591 69.6538 13.5844 70.0068C13.547 70.1905 13.4719 70.3643 13.3639 70.5174C13.2558 70.6704 13.1172 70.7993 12.9568 70.8959C12.7964 70.9925 12.6177 71.0547 12.4321 71.0785C12.2464 71.1023 12.0579 71.0872 11.8783 71.0341C11.0043 70.7767 10.1527 70.4485 9.33182 70.0527C2.9495 66.9548 -0.845083 59.9266 0.171691 53.1208C1.26862 45.7051 6.65706 40.1444 13.9119 38.9727C14.7615 38.8305 15.6454 38.7801 16.5248 38.686Z" fill="white"/>
<path d="M5.5 55.2673C5.60992 47.7942 12.9357 42.4927 19.9913 44.8362C20.1265 44.8821 20.2593 44.9348 20.3921 44.9875C21.402 45.3819 21.7982 46.0561 21.5073 46.8816C21.2302 47.6658 20.4608 47.9203 19.4211 47.5695C14.6121 45.9644 9.78696 48.4867 8.60759 53.3411C7.79692 56.6775 8.86407 59.4704 11.4381 61.7016C11.5892 61.8323 11.7632 61.9309 11.9121 62.0685C12.519 62.6096 12.6358 63.3892 12.2052 63.9854C12.0962 64.1368 11.9576 64.2643 11.7978 64.3603C11.638 64.4563 11.4604 64.5187 11.2757 64.5438C11.0911 64.5689 10.9033 64.5561 10.7237 64.5063C10.5441 64.4564 10.3766 64.3705 10.2312 64.2537C8.09798 62.7727 6.57773 60.5631 5.95571 58.0396C5.72671 57.1384 5.65343 56.1937 5.5 55.2673Z" fill="#F36E21"/>
<path d="M42.6161 63.552C42.6173 64.9974 42.3326 66.4287 41.7784 67.7634C41.2242 69.098 40.4115 70.3096 39.3872 71.328C38.3628 72.3464 37.1472 73.1516 35.8104 73.697C34.4736 74.2425 33.0422 74.5174 31.5987 74.5059C30.1556 74.5035 28.7271 74.2151 27.3958 73.6574C26.0645 73.0996 24.8566 72.2834 23.8418 71.256C22.827 70.2285 22.0253 69.0101 21.483 67.6709C20.9407 66.3318 20.6685 64.8984 20.6821 63.4534C20.6959 57.3447 25.6217 52.5224 31.83 52.543C37.7681 52.5637 42.6321 57.5258 42.6161 63.552ZM23.421 63.552C23.421 68.0234 27.1492 71.7634 31.601 71.7749C33.7965 71.77 35.9005 70.8938 37.4518 69.3382C39.0032 67.7827 39.8754 65.6747 39.8772 63.4763C39.8432 61.3079 38.9643 59.2386 37.4279 57.7101C35.8915 56.1816 33.8194 55.3148 31.6537 55.2947C29.4747 55.3103 27.3894 56.1841 25.8487 57.7272C24.3081 59.2703 23.436 61.3586 23.421 63.5405V63.552Z" fill="white"/>
<path d="M30.1924 69.014C29.7344 69.014 29.3336 69.0278 28.9352 69.014C28.0741 68.9796 27.5245 68.4179 27.5405 67.613C27.5394 67.4342 27.5746 67.2571 27.6439 67.0924C27.7132 66.9276 27.8151 66.7787 27.9436 66.6545C28.072 66.5304 28.2244 66.4337 28.3912 66.3702C28.5581 66.3067 28.7362 66.2779 28.9145 66.2853C29.9428 66.2624 30.9756 66.2715 31.9992 66.2853C32.503 66.2853 32.9748 66.1936 32.9816 65.5974C32.9885 65.0012 32.5236 64.8843 32.0152 64.9095C31.5572 64.9095 31.0992 64.9095 30.6412 64.9095C28.9374 64.9095 27.4878 63.7286 27.2062 62.1372C27.0462 61.3162 27.1904 60.465 27.612 59.7429C28.0335 59.0207 28.7033 58.4771 29.4962 58.2138C29.704 58.162 29.8978 58.0648 30.0637 57.9292C30.2296 57.7937 30.3635 57.623 30.4557 57.4295C30.5767 57.2338 30.7411 57.0684 30.936 56.9464C31.131 56.8243 31.3514 56.7488 31.5801 56.7256C32.0038 56.7256 32.4435 57.1223 32.8305 57.4135C32.9816 57.5259 33.0045 57.8079 33.1007 58.0464C33.5335 58.0464 33.9618 58.028 34.3877 58.0464C35.1984 58.0877 35.7343 58.6334 35.7388 59.4016C35.7473 59.581 35.719 59.7603 35.6555 59.9283C35.5921 60.0963 35.4949 60.2495 35.37 60.3785C35.2451 60.5074 35.0951 60.6094 34.9293 60.678C34.7635 60.7466 34.5854 60.7804 34.4061 60.7774C33.3778 60.8072 32.345 60.7934 31.3214 60.7774C30.7924 60.7774 30.2771 60.8462 30.2977 61.502C30.316 62.0959 30.8061 62.1762 31.303 62.1624C31.7611 62.1486 32.2191 62.1486 32.6771 62.1624C33.4824 62.1586 34.2635 62.4383 34.8838 62.9526C35.5042 63.4668 35.9243 64.183 36.0709 64.976C36.2194 65.7853 36.0732 66.621 35.6589 67.3316C35.2447 68.0422 34.5897 68.5805 33.8129 68.849C33.5938 68.9085 33.3893 69.0124 33.212 69.1544C33.0347 69.2965 32.8885 69.4735 32.7824 69.6744C32.5786 70.0436 31.942 70.305 31.4656 70.3624C30.8702 70.4197 30.529 69.9725 30.1924 69.014Z" fill="#F36E21"/>
<path d="M19.3054 37.7895C17.3928 37.7877 15.559 37.0261 14.2066 35.6719C12.8542 34.3177 12.0936 32.4815 12.0918 30.5664C12.0936 28.6512 12.8542 26.8151 14.2066 25.4609C15.559 24.1067 17.3928 23.3451 19.3054 23.3433C21.218 23.3451 23.0518 24.1067 24.4042 25.4609C25.7566 26.8151 26.5172 28.6512 26.519 30.5664C26.5172 32.4815 25.7566 34.3177 24.4042 35.6719C23.0518 37.0261 21.218 37.7877 19.3054 37.7895ZM19.3054 26.0949C18.1216 26.0967 16.9868 26.5684 16.1498 27.4066C15.3127 28.2448 14.8417 29.381 14.8398 30.5664C14.8417 31.7517 15.3127 32.888 16.1498 33.7262C16.9868 34.5643 18.1216 35.036 19.3054 35.0378C20.4892 35.036 21.624 34.5643 22.461 33.7262C23.2981 32.888 23.7691 31.7517 23.771 30.5664C23.7691 29.381 23.2981 28.2448 22.461 27.4066C21.624 26.5684 20.4892 26.0967 19.3054 26.0949Z" fill="#F36E21"/>
<path d="M38.5026 22.6851C36.5939 22.6796 34.7651 21.9177 33.4159 20.5659C32.0667 19.2141 31.307 17.3823 31.3027 15.4712C31.3046 13.5564 32.0648 11.7206 33.4167 10.3665C34.7687 9.01232 36.6018 8.25048 38.514 8.24805C40.4267 8.24987 42.2604 9.01145 43.6128 10.3656C44.9653 11.7199 45.7258 13.556 45.7276 15.4712C45.7234 17.3867 44.9602 19.2222 43.6055 20.5748C42.2509 21.9273 40.4156 22.6863 38.5026 22.6851ZM38.5026 10.9905C37.3194 10.9954 36.1864 11.4697 35.3519 12.3096C34.5175 13.1495 34.0496 14.2864 34.0508 15.4712C34.052 16.6563 34.5225 17.7926 35.3592 18.6308C36.1959 19.469 37.3305 19.9408 38.514 19.9426C39.6978 19.9408 40.8326 19.4691 41.6697 18.6309C42.5067 17.7928 42.9778 16.6565 42.9796 15.4712C42.9799 14.8825 42.8643 14.2995 42.6394 13.7556C42.4145 13.2117 42.0847 12.7175 41.6689 12.3014C41.253 11.8852 40.7594 11.5553 40.2161 11.3303C39.6728 11.1054 39.0905 10.9899 38.5026 10.9905Z" fill="#F36E21"/>
<path d="M57.7019 38.0074C55.7893 38.0056 53.9555 37.244 52.6031 35.8898C51.2507 34.5356 50.4901 32.6994 50.4883 30.7843C50.4907 28.8696 51.2516 27.034 52.6039 25.6803C53.9563 24.3266 55.7897 23.5653 57.7019 23.5635C59.6141 23.5653 61.4475 24.3266 62.7998 25.6803C64.1522 27.034 64.9131 28.8696 64.9155 30.7843C64.9137 32.6994 64.1531 34.5356 62.8006 35.8898C61.4482 37.244 59.6145 38.0056 57.7019 38.0074ZM57.7019 26.3128C56.5183 26.3141 55.3835 26.7852 54.5464 27.623C53.7093 28.4608 53.2381 29.5969 53.2363 30.782C53.2381 31.9673 53.7092 33.1036 54.5462 33.9418C55.3833 34.7799 56.5181 35.2516 57.7019 35.2535C58.8857 35.2516 60.0204 34.7799 60.8575 33.9418C61.6946 33.1036 62.1656 31.9673 62.1675 30.782C62.165 29.5973 61.6936 28.4618 60.8566 27.6245C60.0195 26.7872 58.8851 26.3164 57.7019 26.3151V26.3128Z" fill="#F36E21"/>
<path d="M72.7859 14.4439C70.8737 14.4421 69.0402 13.6808 67.6879 12.3271C66.3355 10.9734 65.5747 9.13785 65.5723 7.22311C65.5741 5.30798 66.3347 3.4718 67.6871 2.1176C69.0395 0.7634 70.8733 0.00182133 72.7859 0C74.6985 0.00182133 76.5322 0.7634 77.8846 2.1176C79.2371 3.4718 79.9977 5.30798 79.9995 7.22311C79.997 9.13785 79.2362 10.9734 77.8838 12.3271C76.5315 13.6808 74.6981 14.4421 72.7859 14.4439ZM72.7859 2.74937C71.6021 2.75119 70.4673 3.22288 69.6303 4.06104C68.7932 4.89921 68.3221 6.03547 68.3203 7.22082C68.3221 8.40595 68.7933 9.54198 69.6304 10.3798C70.4675 11.2176 71.6023 11.6888 72.7859 11.69C73.9694 11.6888 75.1042 11.2176 75.9413 10.3798C76.7785 9.54198 77.2496 8.40595 77.2514 7.22082C77.249 6.03587 76.7777 4.90017 75.9407 4.0625C75.1037 3.22483 73.9693 2.75348 72.7859 2.75166V2.74937Z" fill="#F36E21"/>
</g>
<defs>
<clipPath id="clip0_423_922">
<rect width="80" height="80" fill="white"/>
</clipPath>
</defs>
</svg>
