<svg width="80" height="80" viewBox="0 0 80 80" fill="none" xmlns="http://www.w3.org/2000/svg">
<g clip-path="url(#clip0_423_919)">
<path d="M79.9996 78.7739C79.6364 79.3595 79.1229 79.5567 78.434 79.5567C52.8116 79.5442 27.1882 79.5406 1.56364 79.5458C0.381616 79.5458 -0.00195312 79.1779 -0.00195312 78.0287C-0.00195312 76.5184 -0.00195312 75.0082 -0.00195312 73.4979C-0.00195312 72.4208 0.369089 72.0403 1.43369 72.0106C1.76559 72.0012 2.09907 72.0106 2.55309 72.0106V68.6884C2.55309 67.1228 2.86621 66.8097 4.4318 66.8097C5.34297 66.8097 6.25413 66.7941 7.16531 66.8097C7.60211 66.8207 7.7665 66.6672 7.7571 66.2242C7.73519 65.2347 7.74458 64.2453 7.7571 63.2496C7.7665 61.9971 8.14537 61.6276 9.39315 61.6135C9.67495 61.6135 9.95519 61.6135 10.2808 61.6135V36.0318C9.86439 36.0318 9.47925 36.0521 9.09725 36.0318C8.16885 35.9739 7.78372 35.5887 7.76336 34.6572C7.73988 33.6677 7.76336 32.6783 7.75397 31.6826C7.75397 31.429 7.72736 31.1753 7.707 30.834C6.51246 30.834 5.37428 30.834 4.2361 30.834C2.91631 30.8262 2.56404 30.4786 2.55778 29.1667C2.55778 27.7342 2.54839 26.3032 2.55778 24.8707C2.56717 23.6777 2.96797 23.2315 4.16721 23.3176C5.43064 23.4084 6.43104 23.0139 7.4659 22.2937C17.9032 15.0179 28.3592 7.76873 38.834 0.546139C39.9159 -0.203778 40.0865 -0.205349 41.1918 0.560224C51.7168 7.85483 62.237 15.1489 72.7525 22.4425C73.6496 23.0687 74.5248 23.3818 75.6223 23.327C77.1252 23.2488 77.4383 23.6198 77.4399 25.1431C77.4399 26.524 77.4493 27.9032 77.4399 29.2841C77.4289 30.4458 77.0454 30.8293 75.8884 30.8419C74.7314 30.8544 73.551 30.8419 72.2437 30.8419V33.5159C72.2437 33.9339 72.2578 34.3503 72.2328 34.7684C72.1842 35.5684 71.8241 35.9519 71.0257 36.0208C70.6139 36.0584 70.1959 36.0287 69.7278 36.0287V61.6182C70.0613 61.6182 70.3885 61.6182 70.7157 61.6182C71.8116 61.6433 72.2265 62.0378 72.239 63.1321C72.2531 64.3236 72.239 65.515 72.239 66.8034C73.4445 66.8034 74.5576 66.8034 75.6708 66.8034C77.0798 66.8034 77.4336 67.1604 77.4383 68.56C77.4383 69.6747 77.4383 70.7879 77.4383 71.9558C78.3777 72.0732 79.3703 71.7805 79.9965 72.6728L79.9996 78.7739ZM5.00793 28.4293H74.9678V25.6645H30.8495C30.5362 25.6785 30.2222 25.6696 29.9102 25.6378C29.2839 25.5486 28.9348 25.1682 28.9082 24.5419C28.88 23.8625 29.2558 23.4726 29.8898 23.3349C30.1494 23.3009 30.4118 23.2946 30.6726 23.3161H69.7998C69.4867 23.0687 69.3474 22.956 69.2049 22.8574C59.6444 16.2349 50.0865 9.60725 40.5311 2.97437C40.0474 2.63777 39.7671 2.78806 39.3851 3.05265C30.7483 9.03946 22.1083 15.0231 13.4652 21.0037C12.4319 21.7192 11.4018 22.4409 10.3701 23.1595L10.4202 23.3161H11.2437C15.9039 23.3161 20.5647 23.3161 25.2259 23.3161C26.0557 23.3161 26.5677 23.8014 26.552 24.5169C26.5395 25.1963 26.0479 25.6284 25.2494 25.6613C25.0146 25.6691 24.7797 25.6613 24.5465 25.6613H5.0048L5.00793 28.4293ZM20.5073 61.59C20.7484 61.6041 20.9284 61.6213 21.1069 61.6245C22.829 61.6495 23.0952 61.9251 23.0952 63.6363V66.7674H32.3588C32.3588 65.5009 32.3588 64.2828 32.3588 63.0648C32.3588 62.1255 32.783 61.684 33.7239 61.637C34.1028 61.6166 34.4833 61.637 34.8684 61.637V36.0835C34.6508 36.0694 34.4974 36.0537 34.3455 36.0506C32.5748 36.0083 32.3556 35.7907 32.3556 34.0685V30.9154H23.092C23.092 32.0975 23.092 33.2137 23.092 34.33C23.092 35.6576 22.71 36.0318 21.3605 36.0521C21.085 36.0521 20.8094 36.0521 20.5041 36.0521L20.5073 61.59ZM56.9135 30.9123H47.6499C47.6499 32.1961 47.6499 33.4172 47.6499 34.64C47.6499 35.548 47.2428 35.9754 46.3395 36.0381C45.9403 36.0647 45.5363 36.0381 45.1152 36.0381V61.6198C45.4377 61.6198 45.7179 61.6198 45.9982 61.6198C47.2773 61.6339 47.6514 62.0159 47.653 63.3137V66.758H56.8101C56.854 66.6641 56.8931 66.6187 56.8931 66.5733C56.9036 65.5588 56.9114 64.5438 56.9166 63.5282C56.9166 61.9626 57.2297 61.6386 58.7749 61.6213C59.0019 61.6213 59.2305 61.5979 59.4967 61.5838V36.049C59.1836 36.049 58.9002 36.049 58.6215 36.049C57.2829 36.0318 56.9213 35.6607 56.9166 34.3065C56.9119 33.1887 56.9135 32.0724 56.9135 30.9123ZM77.6137 74.4357H2.40436V77.1582H77.6137V74.4357ZM4.99697 71.9558H74.9788V69.2771H4.99697V71.9558ZM18.0822 61.5916V36.1022H12.7592V61.5916H18.0822ZM61.9187 36.1022V61.5634H67.2417V36.1022H61.9187ZM37.3639 36.085V61.5822H42.6228V36.085H37.3639ZM45.2639 30.9186H34.751V33.5926H45.2639V30.9186ZM10.165 33.5989H20.6278V30.9154H10.165V33.5989ZM59.3574 33.5989H69.817V30.9217H59.3574V33.5989ZM34.7416 66.7674H45.2561V64.1059H34.7416V66.7674ZM10.1838 64.0605V66.7486H20.6075V64.0637L10.1838 64.0605ZM69.8327 64.1075H59.3699V66.7486H69.8296L69.8327 64.1075Z" fill="white"/>
<path d="M40.0077 12.9756C40.502 12.9699 40.9925 13.0632 41.4502 13.2502C41.9079 13.4372 42.3234 13.714 42.6723 14.0642C43.0213 14.4145 43.2965 14.8311 43.4818 15.2894C43.667 15.7478 43.7586 16.2386 43.751 16.733C43.755 17.2275 43.6605 17.7179 43.4731 18.1755C43.2857 18.6332 43.009 19.049 42.6593 19.3987C42.3096 19.7484 41.8938 20.025 41.4362 20.2124C40.9785 20.3998 40.4881 20.4943 39.9936 20.4904C39.4993 20.4923 39.0095 20.3959 38.5527 20.2067C38.0959 20.0176 37.6813 19.7396 37.333 19.3888C36.9847 19.038 36.7096 18.6214 36.5237 18.1633C36.3378 17.7052 36.2449 17.2148 36.2503 16.7204C36.2442 16.2259 36.3373 15.7351 36.5241 15.2772C36.7109 14.8193 36.9876 14.4034 37.3379 14.0543C37.6882 13.7051 38.105 13.4298 38.5636 13.2445C39.0221 13.0592 39.5132 12.9678 40.0077 12.9756ZM40.0077 15.3239C39.6415 15.3259 39.29 15.4679 39.0254 15.721C38.7607 15.974 38.603 16.3187 38.5846 16.6844C38.5874 17.0641 38.7384 17.4277 39.0054 17.6976C39.2724 17.9676 39.6343 18.1225 40.014 18.1295C40.3795 18.1115 40.7249 17.9566 40.9814 17.6955C41.2379 17.4344 41.3866 17.0863 41.3979 16.7204C41.3874 16.3564 41.2386 16.01 40.9818 15.7518C40.725 15.4935 40.3795 15.3428 40.0155 15.3302L40.0077 15.3239Z" fill="#F36E21"/>
</g>
<defs>
<clipPath id="clip0_423_919">
<rect width="80" height="79.5601" fill="white"/>
</clipPath>
</defs>
</svg>
