<svg width="100%" viewBox="0 0 119 139" fill="none" xmlns="http://www.w3.org/2000/svg">
<g filter="url(#filter0_ddd_16_68)">
<path fill-rule="evenodd" clip-rule="evenodd" d="M37.6499 86.7415L31.0001 86.7415L43.3293 108.047L55.6585 86.7415L48.1582 86.7415C48.1777 86.4342 48.2006 86.1274 48.2268 85.8212C50.2319 62.3741 71.6247 42.2251 84.9154 33.0878C86.0168 32.3306 87.0626 31.6489 88.0371 31.0474C86.9465 31.3844 85.7555 31.7902 84.4838 32.2659C68.3407 38.3053 39.2076 55.6176 37.6499 86.7415ZM81.3322 34.5247C74.4627 37.4704 66.037 42.1562 58.4815 48.7276C48.0846 57.7702 39.3976 70.3242 38.5737 86.7873L38.5299 87.6619L32.5999 87.6619L43.3293 106.203L54.0586 87.6619L47.173 87.6619L47.2351 86.6835C48.0712 73.5141 54.9521 61.397 63.1694 51.6165C69.0533 44.6132 75.6611 38.7615 81.3322 34.5247Z" fill="url(#paint0_linear_16_68)"/>
<path fill-rule="evenodd" clip-rule="evenodd" d="M74.2781 32.089C74.3812 32.3215 74.2752 32.5931 74.0415 32.6956C68.9953 34.9089 60.0366 40.0056 52.8169 47.0221C52.3276 47.4976 51.8464 47.9819 51.3751 48.4745C51.199 48.6585 50.9063 48.6657 50.7213 48.4905C50.5363 48.3152 50.5291 48.024 50.7052 47.8399C51.1846 47.3389 51.6737 46.8467 52.1707 46.3637C59.4868 39.2535 68.5455 34.1004 73.6684 31.8535C73.9021 31.751 74.1751 31.8564 74.2781 32.089ZM49.2049 50.175C49.4005 50.3383 49.4261 50.6286 49.2619 50.8233C48.9245 51.2236 48.5946 51.6285 48.273 52.038C46.368 54.4638 44.7575 57.0464 43.6041 59.7568C43.5046 59.9908 43.2332 60.1002 42.998 60.0011C42.7628 59.902 42.6528 59.632 42.7524 59.3979C43.9436 56.5988 45.5999 53.9472 47.5442 51.4713C47.8726 51.0532 48.2092 50.64 48.5533 50.2318C48.7175 50.0371 49.0092 50.0117 49.2049 50.175Z" fill="url(#paint1_linear_16_68)"/>
<path fill-rule="evenodd" clip-rule="evenodd" d="M37.6499 86.7415L31.0001 86.7415L43.3293 108.047L55.6585 86.7415L48.1582 86.7415C48.1777 86.4342 48.2006 86.1274 48.2268 85.8212C50.2319 62.3741 71.6247 42.2251 84.9154 33.0878C86.0168 32.3306 87.0626 31.6489 88.0371 31.0474C86.9465 31.3844 85.7555 31.7902 84.4838 32.2659C68.3407 38.3053 39.2076 55.6176 37.6499 86.7415ZM81.3322 34.5247C74.4627 37.4704 66.037 42.1562 58.4815 48.7276C48.0846 57.7702 39.3976 70.3242 38.5737 86.7873L38.5299 87.6619L32.5999 87.6619L43.3293 106.203L54.0586 87.6619L47.173 87.6619L47.2351 86.6835C48.0712 73.5141 54.9521 61.397 63.1694 51.6165C69.0533 44.6132 75.6611 38.7615 81.3322 34.5247Z" stroke="#29FFA5" stroke-width="0.712963" stroke-linecap="round"/>
<path fill-rule="evenodd" clip-rule="evenodd" d="M74.2781 32.089C74.3812 32.3215 74.2752 32.5931 74.0415 32.6956C68.9953 34.9089 60.0366 40.0056 52.8169 47.0221C52.3276 47.4976 51.8464 47.9819 51.3751 48.4745C51.199 48.6585 50.9063 48.6657 50.7213 48.4905C50.5363 48.3152 50.5291 48.024 50.7052 47.8399C51.1846 47.3389 51.6737 46.8467 52.1707 46.3637C59.4868 39.2535 68.5455 34.1004 73.6684 31.8535C73.9021 31.751 74.1751 31.8564 74.2781 32.089ZM49.2049 50.175C49.4005 50.3383 49.4261 50.6286 49.2619 50.8233C48.9245 51.2236 48.5946 51.6285 48.273 52.038C46.368 54.4638 44.7575 57.0464 43.6041 59.7568C43.5046 59.9908 43.2332 60.1002 42.998 60.0011C42.7628 59.902 42.6528 59.632 42.7524 59.3979C43.9436 56.5988 45.5999 53.9472 47.5442 51.4713C47.8726 51.0532 48.2092 50.64 48.5533 50.2318C48.7175 50.0371 49.0092 50.0117 49.2049 50.175Z" stroke="#29FFA5" stroke-width="0.712963" stroke-linecap="round"/>
</g>
<defs>
<filter id="filter0_ddd_16_68" x="0.437391" y="0.762342" width="117.731" height="137.941" filterUnits="userSpaceOnUse" color-interpolation-filters="sRGB">
<feFlood flood-opacity="0" result="BackgroundImageFix"/>
<feColorMatrix in="SourceAlpha" type="matrix" values="0 0 0 0 0 0 0 0 0 0 0 0 0 0 0 0 0 0 127 0" result="hardAlpha"/>
<feOffset/>
<feGaussianBlur stdDeviation="14.9722"/>
<feComposite in2="hardAlpha" operator="out"/>
<feColorMatrix type="matrix" values="0 0 0 0 0.160784 0 0 0 0 1 0 0 0 0 0.647059 0 0 0 1 0"/>
<feBlend mode="normal" in2="BackgroundImageFix" result="effect1_dropShadow_16_68"/>
<feColorMatrix in="SourceAlpha" type="matrix" values="0 0 0 0 0 0 0 0 0 0 0 0 0 0 0 0 0 0 127 0" result="hardAlpha"/>
<feOffset/>
<feGaussianBlur stdDeviation="14.2593"/>
<feComposite in2="hardAlpha" operator="out"/>
<feColorMatrix type="matrix" values="0 0 0 0 0.160784 0 0 0 0 1 0 0 0 0 0.647059 0 0 0 0.8 0"/>
<feBlend mode="normal" in2="effect1_dropShadow_16_68" result="effect2_dropShadow_16_68"/>
<feColorMatrix in="SourceAlpha" type="matrix" values="0 0 0 0 0 0 0 0 0 0 0 0 0 0 0 0 0 0 127 0" result="hardAlpha"/>
<feOffset/>
<feGaussianBlur stdDeviation="4.99074"/>
<feComposite in2="hardAlpha" operator="out"/>
<feColorMatrix type="matrix" values="0 0 0 0 0.160784 0 0 0 0 1 0 0 0 0 0.647059 0 0 0 1 0"/>
<feBlend mode="normal" in2="effect2_dropShadow_16_68" result="effect3_dropShadow_16_68"/>
<feBlend mode="normal" in="SourceGraphic" in2="effect3_dropShadow_16_68" result="shape"/>
</filter>
<linearGradient id="paint0_linear_16_68" x1="87.5496" y1="69.5474" x2="31.4876" y2="69.5474" gradientUnits="userSpaceOnUse">
<stop stop-color="white"/>
<stop offset="0.375" stop-color="white"/>
<stop offset="0.692708" stop-color="#DAFFE6"/>
<stop offset="1" stop-color="white"/>
</linearGradient>
<linearGradient id="paint1_linear_16_68" x1="87.5496" y1="69.5474" x2="31.4876" y2="69.5474" gradientUnits="userSpaceOnUse">
<stop stop-color="white"/>
<stop offset="0.375" stop-color="white"/>
<stop offset="0.692708" stop-color="#DAFFE6"/>
<stop offset="1" stop-color="white"/>
</linearGradient>
</defs>
</svg>
