<svg width="100%" viewBox="0 0 452 464" fill="none" xmlns="http://www.w3.org/2000/svg">
<g clip-path="url(#clip0_61_12)">
<g filter="url(#filter0_ddd_61_12)">
<path fill-rule="evenodd" clip-rule="evenodd" d="M34.1099 276.564C54.3815 363.571 132.6 428.405 226 428.405C242.251 428.405 258.04 426.442 273.143 422.743C273.948 422.546 274.76 423.038 274.957 423.843C275.154 424.648 274.661 425.46 273.857 425.657C258.522 429.413 242.493 431.405 226 431.405C131.179 431.405 51.7702 365.584 31.1881 277.245C31.0001 276.438 31.5018 275.632 32.3086 275.444C33.1154 275.256 33.9219 275.758 34.1099 276.564ZM309.123 413.411C308.369 413.755 307.479 413.423 307.135 412.669C306.791 411.916 307.124 411.026 307.877 410.682C375.783 379.689 422.962 311.34 423 232C422.962 152.66 375.783 84.311 307.877 53.318C307.124 52.974 306.791 52.0842 307.135 51.3306C307.479 50.5769 308.369 50.2448 309.123 50.5888C378.023 82.0354 425.917 151.375 426 231.887C426 231.893 426 231.899 426 231.905C426 231.937 426 231.968 426 232C426 232.032 426 232.063 426 232.095C426 232.101 426 232.107 426 232.113C425.917 312.625 378.023 381.965 309.123 413.411ZM30.258 254.236C30.3513 255.059 29.7597 255.802 28.9366 255.895C28.1134 255.989 27.3704 255.397 27.2771 254.574C26.441 247.201 26.0079 239.706 26.0001 232.113C26 232.107 26 232.101 26 232.095C26 232.063 26 232.032 26 232C26 231.968 26 231.937 26 231.905C26 231.899 26 231.893 26.0001 231.887C26.0079 224.294 26.441 216.799 27.2771 209.426C27.3704 208.603 28.1134 208.011 28.9366 208.105C29.7597 208.198 30.3513 208.941 30.258 209.764C29.4304 217.062 29.0036 224.481 29 232C29.0036 239.519 29.4304 246.938 30.258 254.236ZM34.1099 187.436C54.3815 100.429 132.6 35.5952 226 35.5952C242.251 35.5952 258.04 37.5576 273.143 41.257C273.948 41.4541 274.76 40.9616 274.957 40.1569C275.154 39.3523 274.661 38.5402 273.857 38.3431C258.522 34.5869 242.493 32.5952 226 32.5952C131.179 32.5952 51.7702 98.4158 31.1881 186.755C31.0001 187.562 31.5018 188.368 32.3086 188.556C33.1154 188.744 33.9219 188.242 34.1099 187.436Z" fill="url(#paint0_linear_61_12)"/>
<path d="M34.1099 276.564L33.6229 276.678L33.6229 276.678L34.1099 276.564ZM273.143 422.743L273.024 422.257L273.143 422.743ZM274.957 423.843L274.471 423.962L274.471 423.962L274.957 423.843ZM273.857 425.657L273.738 425.171L273.738 425.171L273.857 425.657ZM31.1881 277.245L31.6751 277.132L31.6751 277.132L31.1881 277.245ZM32.3086 275.444L32.1952 274.957L32.1952 274.957L32.3086 275.444ZM307.135 412.669L307.59 412.462L307.59 412.462L307.135 412.669ZM309.123 413.411L308.915 412.956L308.915 412.956L309.123 413.411ZM307.877 410.682L308.085 411.137L308.085 411.137L307.877 410.682ZM423 232L423.5 232L423.5 232L423 232ZM307.877 53.318L308.085 52.8631L308.085 52.8631L307.877 53.318ZM309.123 50.5888L309.33 50.1339L309.33 50.1339L309.123 50.5888ZM426 231.887L425.5 231.892L425.5 231.887L426 231.887ZM426 232.113L425.5 232.113L425.5 232.108L426 232.113ZM30.258 254.236L29.7612 254.292L30.258 254.236ZM27.2771 254.574L27.7739 254.517L27.7739 254.517L27.2771 254.574ZM26.0001 232.113L26.5001 232.107L26.5001 232.113L26.0001 232.113ZM26 232L26.5 232L26.5 232L26 232ZM26.0001 231.887L26.5001 231.887L26.5001 231.893L26.0001 231.887ZM27.2771 209.426L27.7739 209.483L27.7739 209.483L27.2771 209.426ZM30.258 209.764L29.7612 209.708L30.258 209.764ZM29 232L28.5 232L28.5 232L29 232ZM34.1099 187.436L33.6229 187.322L33.6229 187.322L34.1099 187.436ZM273.143 41.257L273.262 40.7713L273.262 40.7713L273.143 41.257ZM274.957 40.1569L274.471 40.038L274.471 40.038L274.957 40.1569ZM273.857 38.3431L273.738 38.8288L273.738 38.8288L273.857 38.3431ZM31.1881 186.755L31.6751 186.868L31.6751 186.868L31.1881 186.755ZM32.3086 188.556L32.1952 189.043L32.1952 189.043L32.3086 188.556ZM226 428.905C132.363 428.905 53.9463 363.906 33.6229 276.678L34.5968 276.451C54.8167 363.235 132.837 427.905 226 427.905V428.905ZM273.262 423.229C258.12 426.938 242.291 428.905 226 428.905V427.905C242.21 427.905 257.96 425.947 273.024 422.257L273.262 423.229ZM274.471 423.962C274.34 423.426 273.799 423.097 273.262 423.229L273.024 422.257C274.097 421.995 275.18 422.651 275.443 423.724L274.471 423.962ZM273.738 425.171C274.274 425.04 274.603 424.498 274.471 423.962L275.443 423.724C275.705 424.797 275.049 425.88 273.976 426.143L273.738 425.171ZM226 430.905C242.453 430.905 258.441 428.918 273.738 425.171L273.976 426.143C258.602 429.908 242.533 431.905 226 431.905V430.905ZM31.6751 277.132C52.2054 365.249 131.416 430.905 226 430.905V431.905C130.943 431.905 51.335 365.92 30.7012 277.359L31.6751 277.132ZM32.4221 275.931C31.8842 276.056 31.5498 276.594 31.6751 277.132L30.7012 277.359C30.4505 276.283 31.1194 275.208 32.1952 274.957L32.4221 275.931ZM33.6229 276.678C33.4976 276.14 32.96 275.806 32.4221 275.931L32.1952 274.957C33.2709 274.706 34.3462 275.375 34.5968 276.451L33.6229 276.678ZM307.59 412.462C307.82 412.964 308.413 413.186 308.915 412.956L309.33 413.866C308.326 414.325 307.139 413.882 306.681 412.877L307.59 412.462ZM308.085 411.137C307.582 411.366 307.361 411.959 307.59 412.462L306.681 412.877C306.222 411.872 306.665 410.686 307.67 410.227L308.085 411.137ZM423.5 232C423.462 311.543 376.162 380.066 308.085 411.137L307.67 410.227C375.405 379.312 422.462 311.136 422.5 232L423.5 232ZM422.5 232C422.462 152.864 375.405 84.6878 307.67 53.7728L308.085 52.8631C376.162 83.9341 423.462 152.457 423.5 232L422.5 232ZM307.67 53.7728C306.665 53.3142 306.222 52.1278 306.681 51.123L307.59 51.5382C307.361 52.0406 307.582 52.6338 308.085 52.8631L307.67 53.7728ZM306.681 51.123C307.139 50.1181 308.326 49.6753 309.33 50.1339L308.915 51.0436C308.413 50.8143 307.82 51.0357 307.59 51.5382L306.681 51.123ZM309.33 50.1339C378.401 81.6585 426.417 151.171 426.5 231.886L425.5 231.887C425.418 151.578 377.644 82.4123 308.915 51.0436L309.33 50.1339ZM425.5 231.905C425.5 231.902 425.5 231.898 425.5 231.892L426.5 231.882C426.5 231.887 426.5 231.896 426.5 231.905H425.5ZM425.5 232C425.5 231.984 425.5 231.968 425.5 231.952C425.5 231.936 425.5 231.921 425.5 231.905H426.5C426.5 231.921 426.5 231.937 426.5 231.953C426.5 231.969 426.5 231.984 426.5 232H425.5ZM426.5 232C426.5 232.016 426.5 232.031 426.5 232.047C426.5 232.063 426.5 232.079 426.5 232.095H425.5C425.5 232.079 425.5 232.064 425.5 232.048C425.5 232.032 425.5 232.016 425.5 232H426.5ZM426.5 232.095C426.5 232.104 426.5 232.113 426.5 232.118L425.5 232.108C425.5 232.102 425.5 232.098 425.5 232.095H426.5ZM308.915 412.956C377.644 381.588 425.418 312.422 425.5 232.113L426.5 232.114C426.417 312.829 378.401 382.341 309.33 413.866L308.915 412.956ZM28.8802 255.398C29.429 255.336 29.8234 254.841 29.7612 254.292L30.7548 254.179C30.8793 255.277 30.0904 256.268 28.9929 256.392L28.8802 255.398ZM27.7739 254.517C27.8361 255.066 28.3314 255.461 28.8802 255.398L28.9929 256.392C27.8954 256.516 26.9047 255.728 26.7803 254.63L27.7739 254.517ZM26.5001 232.113C26.5079 239.687 26.9399 247.163 27.7739 254.517L26.7803 254.63C25.9421 247.239 25.5079 239.726 25.5001 232.114L26.5001 232.113ZM25.5001 232.119C25.5 232.111 25.5 232.103 25.5 232.095H26.5C26.5 232.099 26.5 232.103 26.5001 232.107L25.5001 232.119ZM25.5 232.095C25.5 232.063 25.5 232.032 25.5 232L26.5 232C26.5 232.032 26.5 232.064 26.5 232.095H25.5ZM26.5 231.905C26.5 231.936 26.5 231.968 26.5 232L25.5 232C25.5 231.968 25.5 231.937 25.5 231.905H26.5ZM26.5001 231.893C26.5 231.897 26.5 231.901 26.5 231.905H25.5C25.5 231.897 25.5 231.889 25.5001 231.881L26.5001 231.893ZM25.5001 231.886C25.5079 224.274 25.9421 216.761 26.7803 209.37L27.7739 209.483C26.9399 216.837 26.5079 224.313 26.5001 231.887L25.5001 231.886ZM26.7803 209.37C26.9047 208.272 27.8954 207.484 28.9929 207.608L28.8802 208.602C28.3314 208.539 27.8361 208.934 27.7739 209.483L26.7803 209.37ZM28.9929 207.608C30.0904 207.732 30.8793 208.723 30.7548 209.821L29.7612 209.708C29.8234 209.159 29.429 208.664 28.8802 208.602L28.9929 207.608ZM30.7548 209.821C29.9294 217.1 29.5036 224.5 29.5 232L28.5 232C28.5036 224.462 28.9315 217.024 29.7612 209.708L30.7548 209.821ZM29.7612 254.292C28.9315 246.976 28.5036 239.538 28.5 232L29.5 232C29.5036 239.5 29.9294 246.9 30.7548 254.179L29.7612 254.292ZM226 36.0952C132.837 36.0952 54.8167 100.765 34.5968 187.549L33.6229 187.322C53.9463 100.094 132.363 35.0952 226 35.0952V36.0952ZM273.024 41.7426C257.96 38.0527 242.21 36.0952 226 36.0952V35.0952C242.291 35.0952 258.12 37.0625 273.262 40.7713L273.024 41.7426ZM275.443 40.2759C275.18 41.3487 274.097 42.0055 273.024 41.7426L273.262 40.7713C273.799 40.9028 274.34 40.5744 274.471 40.038L275.443 40.2759ZM273.976 37.8575C275.049 38.1203 275.705 39.203 275.443 40.2759L274.471 40.038C274.603 39.5016 274.274 38.9602 273.738 38.8288L273.976 37.8575ZM226 32.0952C242.533 32.0952 258.602 34.0918 273.976 37.8575L273.738 38.8288C258.441 35.0821 242.453 33.0952 226 33.0952V32.0952ZM30.7012 186.641C51.335 98.0803 130.943 32.0952 226 32.0952V33.0952C131.416 33.0952 52.2054 98.7514 31.6751 186.868L30.7012 186.641ZM32.1952 189.043C31.1194 188.792 30.4505 187.717 30.7012 186.641L31.6751 186.868C31.5498 187.406 31.8842 187.944 32.4221 188.069L32.1952 189.043ZM34.5968 187.549C34.3462 188.625 33.2709 189.294 32.1952 189.043L32.4221 188.069C32.96 188.194 33.4976 187.86 33.6229 187.322L34.5968 187.549Z" fill="#29FFA5"/>
</g>
</g>
<defs>
<filter id="filter0_ddd_61_12" x="-16.5" y="-9.90479" width="485" height="483.81" filterUnits="userSpaceOnUse" color-interpolation-filters="sRGB">
<feFlood flood-opacity="0" result="BackgroundImageFix"/>
<feColorMatrix in="SourceAlpha" type="matrix" values="0 0 0 0 0 0 0 0 0 0 0 0 0 0 0 0 0 0 127 0" result="hardAlpha"/>
<feOffset/>
<feGaussianBlur stdDeviation="21"/>
<feComposite in2="hardAlpha" operator="out"/>
<feColorMatrix type="matrix" values="0 0 0 0 0.160784 0 0 0 0 1 0 0 0 0 0.647059 0 0 0 1 0"/>
<feBlend mode="normal" in2="BackgroundImageFix" result="effect1_dropShadow_61_12"/>
<feColorMatrix in="SourceAlpha" type="matrix" values="0 0 0 0 0 0 0 0 0 0 0 0 0 0 0 0 0 0 127 0" result="hardAlpha"/>
<feOffset/>
<feGaussianBlur stdDeviation="20"/>
<feComposite in2="hardAlpha" operator="out"/>
<feColorMatrix type="matrix" values="0 0 0 0 0.160784 0 0 0 0 1 0 0 0 0 0.647059 0 0 0 0.8 0"/>
<feBlend mode="normal" in2="effect1_dropShadow_61_12" result="effect2_dropShadow_61_12"/>
<feColorMatrix in="SourceAlpha" type="matrix" values="0 0 0 0 0 0 0 0 0 0 0 0 0 0 0 0 0 0 127 0" result="hardAlpha"/>
<feOffset/>
<feGaussianBlur stdDeviation="7"/>
<feComposite in2="hardAlpha" operator="out"/>
<feColorMatrix type="matrix" values="0 0 0 0 0.160784 0 0 0 0 1 0 0 0 0 0.647059 0 0 0 1 0"/>
<feBlend mode="normal" in2="effect2_dropShadow_61_12" result="effect3_dropShadow_61_12"/>
<feBlend mode="normal" in="SourceGraphic" in2="effect3_dropShadow_61_12" result="shape"/>
</filter>
<linearGradient id="paint0_linear_61_12" x1="226" y1="34.3132" x2="226" y2="231.877" gradientUnits="userSpaceOnUse">
<stop stop-color="white"/>
<stop offset="0.375" stop-color="white"/>
<stop offset="0.692708" stop-color="#DAFFE6"/>
<stop offset="1" stop-color="white"/>
</linearGradient>
<clipPath id="clip0_61_12">
<rect width="452" height="464" fill="white"/>
</clipPath>
</defs>
</svg>
