<svg width="100%" viewBox="0 0 539 314" fill="none" xmlns="http://www.w3.org/2000/svg">
<g filter="url(#filter0_ddd_16_69)">
<path fill-rule="evenodd" clip-rule="evenodd" d="M269.047 98C209.405 98 156.894 128.533 126.292 174.827C125.836 175.518 124.905 175.708 124.214 175.251C123.523 174.795 123.333 173.864 123.79 173.173C154.923 126.074 208.356 95 269.047 95C365.145 95 443.047 172.902 443.047 269C443.047 269.828 442.376 270.5 441.547 270.5C440.719 270.5 440.047 269.828 440.047 269C440.047 174.559 363.488 98 269.047 98ZM106.683 210.584C107.465 210.858 107.877 211.714 107.603 212.495C101.413 230.182 98.0474 249.196 98.0474 269C98.0474 269.828 97.3758 270.5 96.5474 270.5C95.7189 270.5 95.0474 269.828 95.0474 269C95.0474 248.854 98.4717 229.505 104.771 211.505C105.045 210.723 105.901 210.311 106.683 210.584Z" fill="url(#paint0_linear_16_69)"/>
<path d="M126.709 175.103C157.223 128.943 209.58 98.5 269.047 98.5C363.212 98.5 439.547 174.835 439.547 269C439.547 270.105 440.443 271 441.547 271C442.652 271 443.547 270.105 443.547 269C443.547 172.626 365.421 94.5 269.047 94.5C208.181 94.5 154.595 125.664 123.373 172.897C122.764 173.819 123.017 175.059 123.938 175.668C124.86 176.278 126.1 176.024 126.709 175.103ZM108.075 212.661C108.44 211.618 107.89 210.477 106.848 210.112C105.805 209.747 104.664 210.297 104.299 211.339C97.9814 229.392 94.5474 248.797 94.5474 269C94.5474 270.105 95.4428 271 96.5474 271C97.6519 271 98.5474 270.105 98.5474 269C98.5474 249.253 101.903 230.295 108.075 212.661Z" stroke="#D325FF" stroke-linecap="round"/>
</g>
<g filter="url(#filter1_ddd_16_69)">
<path fill-rule="evenodd" clip-rule="evenodd" d="M269.047 72C175.647 72 97.4289 136.834 77.1572 223.84C76.9692 224.647 76.1628 225.149 75.356 224.961C74.5492 224.773 74.0475 223.966 74.2355 223.16C94.8176 134.821 174.227 69 269.047 69C285.54 69 301.569 70.9917 316.904 74.7479C317.709 74.945 318.201 75.7571 318.004 76.5617C317.807 77.3664 316.995 77.8589 316.191 77.6618C301.087 73.9624 285.298 72 269.047 72ZM350.183 87.7354C350.527 86.9817 351.417 86.6496 352.17 86.9936C421.13 118.467 469.047 187.899 469.047 268.5C469.047 269.328 468.376 270 467.547 270C466.719 270 466.047 269.328 466.047 268.5C466.047 189.12 418.858 120.728 350.925 89.7228C350.171 89.3788 349.839 88.489 350.183 87.7354ZM71.9839 244.51C72.8071 244.603 73.3987 245.346 73.3054 246.169C72.4743 253.498 72.0474 260.949 72.0474 268.5C72.0474 269.328 71.3758 270 70.5474 270C69.7189 270 69.0474 269.328 69.0474 268.5C69.0474 260.836 69.4807 253.272 70.3245 245.831C70.4178 245.008 71.1608 244.416 71.9839 244.51Z" fill="url(#paint1_linear_16_69)"/>
<path fill-rule="evenodd" clip-rule="evenodd" d="M269.047 72C175.647 72 97.4289 136.834 77.1572 223.84C76.9692 224.647 76.1628 225.149 75.356 224.961C74.5492 224.773 74.0475 223.966 74.2355 223.16C94.8176 134.821 174.227 69 269.047 69C285.54 69 301.569 70.9917 316.904 74.7479C317.709 74.945 318.201 75.7571 318.004 76.5617C317.807 77.3664 316.995 77.8589 316.191 77.6618C301.087 73.9624 285.298 72 269.047 72ZM350.183 87.7354C350.527 86.9817 351.417 86.6496 352.17 86.9936C421.13 118.467 469.047 187.899 469.047 268.5C469.047 269.328 468.376 270 467.547 270C466.719 270 466.047 269.328 466.047 268.5C466.047 189.12 418.858 120.728 350.925 89.7228C350.171 89.3788 349.839 88.489 350.183 87.7354ZM71.9839 244.51C72.8071 244.603 73.3987 245.346 73.3054 246.169C72.4743 253.498 72.0474 260.949 72.0474 268.5C72.0474 269.328 71.3758 270 70.5474 270C69.7189 270 69.0474 269.328 69.0474 268.5C69.0474 260.836 69.4807 253.272 70.3245 245.831C70.4178 245.008 71.1608 244.416 71.9839 244.51Z" stroke="#29FFA5" stroke-linecap="round"/>
</g>
<g filter="url(#filter2_ddd_16_69)">
<path fill-rule="evenodd" clip-rule="evenodd" d="M269.047 46C145.885 46 46.0474 145.62 46.0474 268.5C46.0474 269.328 45.3758 270 44.5474 270C43.7189 270 43.0474 269.328 43.0474 268.5C43.0474 143.957 144.234 43 269.047 43C369.013 43 453.819 107.76 483.626 197.527C483.887 198.314 483.461 199.163 482.675 199.424C481.889 199.685 481.04 199.259 480.779 198.473C451.368 109.899 367.686 46 269.047 46ZM489.228 224.527C490.042 224.37 490.828 224.903 490.985 225.716C491.53 228.55 492.023 231.403 492.461 234.274C492.586 235.093 492.023 235.858 491.204 235.983C490.385 236.108 489.62 235.545 489.495 234.726C489.063 231.894 488.577 229.08 488.039 226.284C487.882 225.47 488.415 224.684 489.228 224.527ZM492.579 247.506C493.405 247.434 494.132 248.045 494.203 248.871C494.762 255.34 495.047 261.887 495.047 268.5C495.047 269.328 494.376 270 493.547 270C492.719 270 492.047 269.328 492.047 268.5C492.047 261.973 491.766 255.513 491.214 249.129C491.143 248.304 491.754 247.577 492.579 247.506Z" fill="url(#paint2_linear_16_69)"/>
<path d="M46.5474 268.5C46.5474 145.897 146.16 46.5 269.047 46.5C367.465 46.5 450.959 110.255 480.304 198.63C480.652 199.679 481.784 200.246 482.833 199.898C483.881 199.55 484.449 198.418 484.101 197.37C454.227 107.403 369.234 42.5 269.047 42.5C143.959 42.5 42.5474 143.679 42.5474 268.5C42.5474 269.605 43.4428 270.5 44.5474 270.5C45.6519 270.5 46.5474 269.605 46.5474 268.5ZM491.476 225.622C491.267 224.537 490.218 223.827 489.134 224.036C488.049 224.245 487.339 225.293 487.548 226.378C488.085 229.168 488.569 231.976 489.001 234.802C489.167 235.894 490.188 236.644 491.28 236.477C492.371 236.31 493.122 235.29 492.955 234.198C492.516 231.321 492.023 228.462 491.476 225.622ZM494.701 248.828C494.606 247.727 493.637 246.912 492.536 247.007C491.436 247.103 490.621 248.072 490.716 249.172C491.266 255.541 491.547 261.988 491.547 268.5C491.547 269.605 492.443 270.5 493.547 270.5C494.652 270.5 495.547 269.605 495.547 268.5C495.547 261.873 495.261 255.311 494.701 248.828Z" stroke="#D325FF" stroke-linecap="round"/>
</g>
<defs>
<filter id="filter0_ddd_16_69" x="52.0474" y="52" width="434" height="261.5" filterUnits="userSpaceOnUse" color-interpolation-filters="sRGB">
<feFlood flood-opacity="0" result="BackgroundImageFix"/>
<feColorMatrix in="SourceAlpha" type="matrix" values="0 0 0 0 0 0 0 0 0 0 0 0 0 0 0 0 0 0 127 0" result="hardAlpha"/>
<feOffset/>
<feGaussianBlur stdDeviation="21"/>
<feComposite in2="hardAlpha" operator="out"/>
<feColorMatrix type="matrix" values="0 0 0 0 0.827451 0 0 0 0 0.145098 0 0 0 0 1 0 0 0 1 0"/>
<feBlend mode="normal" in2="BackgroundImageFix" result="effect1_dropShadow_16_69"/>
<feColorMatrix in="SourceAlpha" type="matrix" values="0 0 0 0 0 0 0 0 0 0 0 0 0 0 0 0 0 0 127 0" result="hardAlpha"/>
<feOffset/>
<feGaussianBlur stdDeviation="7.5"/>
<feComposite in2="hardAlpha" operator="out"/>
<feColorMatrix type="matrix" values="0 0 0 0 0.827451 0 0 0 0 0.145098 0 0 0 0 1 0 0 0 0.8 0"/>
<feBlend mode="normal" in2="effect1_dropShadow_16_69" result="effect2_dropShadow_16_69"/>
<feColorMatrix in="SourceAlpha" type="matrix" values="0 0 0 0 0 0 0 0 0 0 0 0 0 0 0 0 0 0 127 0" result="hardAlpha"/>
<feOffset/>
<feGaussianBlur stdDeviation="2"/>
<feComposite in2="hardAlpha" operator="out"/>
<feColorMatrix type="matrix" values="0 0 0 0 0.829167 0 0 0 0 0.145833 0 0 0 0 1 0 0 0 1 0"/>
<feBlend mode="normal" in2="effect2_dropShadow_16_69" result="effect3_dropShadow_16_69"/>
<feBlend mode="normal" in="SourceGraphic" in2="effect3_dropShadow_16_69" result="shape"/>
</filter>
<filter id="filter1_ddd_16_69" x="26.5474" y="26.5" width="485" height="286" filterUnits="userSpaceOnUse" color-interpolation-filters="sRGB">
<feFlood flood-opacity="0" result="BackgroundImageFix"/>
<feColorMatrix in="SourceAlpha" type="matrix" values="0 0 0 0 0 0 0 0 0 0 0 0 0 0 0 0 0 0 127 0" result="hardAlpha"/>
<feOffset/>
<feGaussianBlur stdDeviation="21"/>
<feComposite in2="hardAlpha" operator="out"/>
<feColorMatrix type="matrix" values="0 0 0 0 0.160784 0 0 0 0 1 0 0 0 0 0.647059 0 0 0 1 0"/>
<feBlend mode="normal" in2="BackgroundImageFix" result="effect1_dropShadow_16_69"/>
<feColorMatrix in="SourceAlpha" type="matrix" values="0 0 0 0 0 0 0 0 0 0 0 0 0 0 0 0 0 0 127 0" result="hardAlpha"/>
<feOffset/>
<feGaussianBlur stdDeviation="20"/>
<feComposite in2="hardAlpha" operator="out"/>
<feColorMatrix type="matrix" values="0 0 0 0 0.160784 0 0 0 0 1 0 0 0 0 0.647059 0 0 0 0.8 0"/>
<feBlend mode="normal" in2="effect1_dropShadow_16_69" result="effect2_dropShadow_16_69"/>
<feColorMatrix in="SourceAlpha" type="matrix" values="0 0 0 0 0 0 0 0 0 0 0 0 0 0 0 0 0 0 127 0" result="hardAlpha"/>
<feOffset/>
<feGaussianBlur stdDeviation="7"/>
<feComposite in2="hardAlpha" operator="out"/>
<feColorMatrix type="matrix" values="0 0 0 0 0.160784 0 0 0 0 1 0 0 0 0 0.647059 0 0 0 1 0"/>
<feBlend mode="normal" in2="effect2_dropShadow_16_69" result="effect3_dropShadow_16_69"/>
<feBlend mode="normal" in="SourceGraphic" in2="effect3_dropShadow_16_69" result="shape"/>
</filter>
<filter id="filter2_ddd_16_69" x="0.0473633" y="0" width="538" height="313" filterUnits="userSpaceOnUse" color-interpolation-filters="sRGB">
<feFlood flood-opacity="0" result="BackgroundImageFix"/>
<feColorMatrix in="SourceAlpha" type="matrix" values="0 0 0 0 0 0 0 0 0 0 0 0 0 0 0 0 0 0 127 0" result="hardAlpha"/>
<feOffset/>
<feGaussianBlur stdDeviation="21"/>
<feComposite in2="hardAlpha" operator="out"/>
<feColorMatrix type="matrix" values="0 0 0 0 0.827451 0 0 0 0 0.145098 0 0 0 0 1 0 0 0 1 0"/>
<feBlend mode="normal" in2="BackgroundImageFix" result="effect1_dropShadow_16_69"/>
<feColorMatrix in="SourceAlpha" type="matrix" values="0 0 0 0 0 0 0 0 0 0 0 0 0 0 0 0 0 0 127 0" result="hardAlpha"/>
<feOffset/>
<feGaussianBlur stdDeviation="7.5"/>
<feComposite in2="hardAlpha" operator="out"/>
<feColorMatrix type="matrix" values="0 0 0 0 0.827451 0 0 0 0 0.145098 0 0 0 0 1 0 0 0 0.8 0"/>
<feBlend mode="normal" in2="effect1_dropShadow_16_69" result="effect2_dropShadow_16_69"/>
<feColorMatrix in="SourceAlpha" type="matrix" values="0 0 0 0 0 0 0 0 0 0 0 0 0 0 0 0 0 0 127 0" result="hardAlpha"/>
<feOffset/>
<feGaussianBlur stdDeviation="2"/>
<feComposite in2="hardAlpha" operator="out"/>
<feColorMatrix type="matrix" values="0 0 0 0 0.829167 0 0 0 0 0.145833 0 0 0 0 1 0 0 0 1 0"/>
<feBlend mode="normal" in2="effect2_dropShadow_16_69" result="effect3_dropShadow_16_69"/>
<feBlend mode="normal" in="SourceGraphic" in2="effect3_dropShadow_16_69" result="shape"/>
</filter>
<linearGradient id="paint0_linear_16_69" x1="269.047" y1="96.5" x2="269.047" y2="269" gradientUnits="userSpaceOnUse">
<stop stop-color="white"/>
<stop offset="0.375" stop-color="white"/>
<stop offset="0.692708" stop-color="#E3BFFF"/>
<stop offset="1" stop-color="#E3BFFF"/>
</linearGradient>
<linearGradient id="paint1_linear_16_69" x1="269.047" y1="70.7179" x2="269.047" y2="268.282" gradientUnits="userSpaceOnUse">
<stop stop-color="white"/>
<stop offset="0.375" stop-color="white"/>
<stop offset="0.692708" stop-color="#DAFFE6"/>
<stop offset="1" stop-color="white"/>
</linearGradient>
<linearGradient id="paint2_linear_16_69" x1="269.047" y1="44.5" x2="269.047" y2="268.5" gradientUnits="userSpaceOnUse">
<stop stop-color="white"/>
<stop offset="0.375" stop-color="white"/>
<stop offset="0.692708" stop-color="#E3BFFF"/>
<stop offset="1" stop-color="#E3BFFF"/>
</linearGradient>
</defs>
</svg>
