<svg width="100%" viewBox="0 0 452 464" fill="none" xmlns="http://www.w3.org/2000/svg">
<g clip-path="url(#clip0_61_21)">
<g filter="url(#filter0_ddd_61_21)">
<path fill-rule="evenodd" clip-rule="evenodd" d="M226 74.5952C166.358 74.5952 113.847 105.128 83.245 151.422C82.7882 152.113 81.8576 152.303 81.1665 151.847C80.4755 151.39 80.2855 150.459 80.7424 149.768C111.876 102.669 165.309 71.5952 226 71.5952C322.098 71.5952 400 149.498 400 245.595C400 246.424 399.328 247.095 398.5 247.095C397.672 247.095 397 246.424 397 245.595C397 151.155 320.441 74.5952 226 74.5952ZM63.6352 187.179C64.4171 187.453 64.8292 188.309 64.5555 189.091C58.3659 206.777 55 225.791 55 245.595C55 246.424 54.3284 247.095 53.5 247.095C52.6716 247.095 52 246.424 52 245.595C52 225.449 55.4243 206.1 61.7239 188.1C61.9976 187.318 62.8533 186.906 63.6352 187.179Z" fill="url(#paint0_linear_61_21)"/>
<path d="M83.6621 151.698C114.175 105.538 166.533 75.0952 226 75.0952C320.165 75.0952 396.5 151.431 396.5 245.595C396.5 246.7 397.395 247.595 398.5 247.595C399.605 247.595 400.5 246.7 400.5 245.595C400.5 149.222 322.374 71.0952 226 71.0952C165.134 71.0952 111.547 102.259 80.3253 149.492C79.7162 150.414 79.9694 151.655 80.8908 152.264C81.8123 152.873 83.053 152.62 83.6621 151.698ZM65.0275 189.256C65.3923 188.213 64.8429 187.072 63.8004 186.707C62.7578 186.343 61.6169 186.892 61.252 187.935C54.9341 205.987 51.5 225.392 51.5 245.595C51.5 246.7 52.3954 247.595 53.5 247.595C54.6046 247.595 55.5 246.7 55.5 245.595C55.5 225.848 58.8561 206.89 65.0275 189.256Z" stroke="#D325FF" stroke-linecap="round"/>
</g>
<g filter="url(#filter1_ddd_61_21)">
<path fill-rule="evenodd" clip-rule="evenodd" d="M226 22.5952C102.837 22.5952 3 122.215 3 245.095C3 245.924 2.32843 246.595 1.5 246.595C0.671573 246.595 0 245.924 0 245.095C0 120.552 101.187 19.5952 226 19.5952C325.966 19.5952 410.771 84.3551 440.579 174.123C440.84 174.909 440.414 175.758 439.628 176.019C438.842 176.28 437.993 175.854 437.732 175.068C408.321 86.494 324.639 22.5952 226 22.5952ZM446.181 201.122C446.994 200.966 447.781 201.498 447.937 202.312C448.483 205.146 448.975 207.998 449.413 210.869C449.538 211.688 448.976 212.453 448.157 212.578C447.338 212.703 446.573 212.14 446.448 211.322C446.015 208.489 445.53 205.675 444.992 202.879C444.835 202.065 445.367 201.279 446.181 201.122ZM449.532 224.101C450.357 224.029 451.084 224.641 451.156 225.466C451.715 231.935 452 238.482 452 245.095C452 245.924 451.328 246.595 450.5 246.595C449.672 246.595 449 245.924 449 245.095C449 238.568 448.718 232.108 448.167 225.724C448.095 224.899 448.707 224.172 449.532 224.101Z" fill="url(#paint1_linear_61_21)"/>
<path d="M3.5 245.095C3.5 122.492 103.112 23.0952 226 23.0952C324.417 23.0952 407.912 86.8505 437.257 175.225C437.605 176.274 438.737 176.841 439.785 176.493C440.834 176.145 441.401 175.013 441.053 173.965C411.18 83.9987 326.187 19.0952 226 19.0952C100.912 19.0952 -0.5 120.275 -0.5 245.095C-0.5 246.2 0.395431 247.095 1.5 247.095C2.60457 247.095 3.5 246.2 3.5 245.095ZM448.428 202.217C448.22 201.133 447.171 200.422 446.086 200.631C445.002 200.84 444.292 201.889 444.501 202.973C445.037 205.763 445.522 208.571 445.953 211.397C446.12 212.489 447.14 213.239 448.232 213.072C449.324 212.906 450.074 211.885 449.908 210.793C449.469 207.917 448.975 205.057 448.428 202.217ZM451.654 225.423C451.559 224.323 450.589 223.508 449.489 223.603C448.388 223.698 447.573 224.667 447.669 225.767C448.219 232.136 448.5 238.583 448.5 245.095C448.5 246.2 449.395 247.095 450.5 247.095C451.605 247.095 452.5 246.2 452.5 245.095C452.5 238.468 452.214 231.906 451.654 225.423Z" stroke="#D325FF" stroke-linecap="round"/>
</g>
</g>
<defs>
<filter id="filter0_ddd_61_21" x="9" y="28.5952" width="434" height="261.5" filterUnits="userSpaceOnUse" color-interpolation-filters="sRGB">
<feFlood flood-opacity="0" result="BackgroundImageFix"/>
<feColorMatrix in="SourceAlpha" type="matrix" values="0 0 0 0 0 0 0 0 0 0 0 0 0 0 0 0 0 0 127 0" result="hardAlpha"/>
<feOffset/>
<feGaussianBlur stdDeviation="21"/>
<feComposite in2="hardAlpha" operator="out"/>
<feColorMatrix type="matrix" values="0 0 0 0 0.827451 0 0 0 0 0.145098 0 0 0 0 1 0 0 0 1 0"/>
<feBlend mode="normal" in2="BackgroundImageFix" result="effect1_dropShadow_61_21"/>
<feColorMatrix in="SourceAlpha" type="matrix" values="0 0 0 0 0 0 0 0 0 0 0 0 0 0 0 0 0 0 127 0" result="hardAlpha"/>
<feOffset/>
<feGaussianBlur stdDeviation="7.5"/>
<feComposite in2="hardAlpha" operator="out"/>
<feColorMatrix type="matrix" values="0 0 0 0 0.827451 0 0 0 0 0.145098 0 0 0 0 1 0 0 0 0.8 0"/>
<feBlend mode="normal" in2="effect1_dropShadow_61_21" result="effect2_dropShadow_61_21"/>
<feColorMatrix in="SourceAlpha" type="matrix" values="0 0 0 0 0 0 0 0 0 0 0 0 0 0 0 0 0 0 127 0" result="hardAlpha"/>
<feOffset/>
<feGaussianBlur stdDeviation="2"/>
<feComposite in2="hardAlpha" operator="out"/>
<feColorMatrix type="matrix" values="0 0 0 0 0.829167 0 0 0 0 0.145833 0 0 0 0 1 0 0 0 1 0"/>
<feBlend mode="normal" in2="effect2_dropShadow_61_21" result="effect3_dropShadow_61_21"/>
<feBlend mode="normal" in="SourceGraphic" in2="effect3_dropShadow_61_21" result="shape"/>
</filter>
<filter id="filter1_ddd_61_21" x="-43" y="-23.4048" width="538" height="313" filterUnits="userSpaceOnUse" color-interpolation-filters="sRGB">
<feFlood flood-opacity="0" result="BackgroundImageFix"/>
<feColorMatrix in="SourceAlpha" type="matrix" values="0 0 0 0 0 0 0 0 0 0 0 0 0 0 0 0 0 0 127 0" result="hardAlpha"/>
<feOffset/>
<feGaussianBlur stdDeviation="21"/>
<feComposite in2="hardAlpha" operator="out"/>
<feColorMatrix type="matrix" values="0 0 0 0 0.827451 0 0 0 0 0.145098 0 0 0 0 1 0 0 0 1 0"/>
<feBlend mode="normal" in2="BackgroundImageFix" result="effect1_dropShadow_61_21"/>
<feColorMatrix in="SourceAlpha" type="matrix" values="0 0 0 0 0 0 0 0 0 0 0 0 0 0 0 0 0 0 127 0" result="hardAlpha"/>
<feOffset/>
<feGaussianBlur stdDeviation="7.5"/>
<feComposite in2="hardAlpha" operator="out"/>
<feColorMatrix type="matrix" values="0 0 0 0 0.827451 0 0 0 0 0.145098 0 0 0 0 1 0 0 0 0.8 0"/>
<feBlend mode="normal" in2="effect1_dropShadow_61_21" result="effect2_dropShadow_61_21"/>
<feColorMatrix in="SourceAlpha" type="matrix" values="0 0 0 0 0 0 0 0 0 0 0 0 0 0 0 0 0 0 127 0" result="hardAlpha"/>
<feOffset/>
<feGaussianBlur stdDeviation="2"/>
<feComposite in2="hardAlpha" operator="out"/>
<feColorMatrix type="matrix" values="0 0 0 0 0.829167 0 0 0 0 0.145833 0 0 0 0 1 0 0 0 1 0"/>
<feBlend mode="normal" in2="effect2_dropShadow_61_21" result="effect3_dropShadow_61_21"/>
<feBlend mode="normal" in="SourceGraphic" in2="effect3_dropShadow_61_21" result="shape"/>
</filter>
<linearGradient id="paint0_linear_61_21" x1="226" y1="73.0952" x2="226" y2="245.595" gradientUnits="userSpaceOnUse">
<stop stop-color="white"/>
<stop offset="0.375" stop-color="white"/>
<stop offset="0.692708" stop-color="#E3BFFF"/>
<stop offset="1" stop-color="#E3BFFF"/>
</linearGradient>
<linearGradient id="paint1_linear_61_21" x1="226" y1="21.0952" x2="226" y2="245.095" gradientUnits="userSpaceOnUse">
<stop stop-color="white"/>
<stop offset="0.375" stop-color="white"/>
<stop offset="0.692708" stop-color="#E3BFFF"/>
<stop offset="1" stop-color="#E3BFFF"/>
</linearGradient>
<clipPath id="clip0_61_21">
<rect width="452" height="464" fill="white"/>
</clipPath>
</defs>
</svg>
