<svg width="100%" viewBox="0 0 193 111" fill="none" xmlns="http://www.w3.org/2000/svg">
<g filter="url(#filter0_ddd_16_43)">
<path fill-rule="evenodd" clip-rule="evenodd" d="M55.5933 64.0474C60.204 64.0474 63.9953 60.2715 63.9953 55.5474C63.9953 50.8232 60.204 47.0474 55.5933 47.0474C50.9825 47.0474 47.1912 50.8232 47.1912 55.5474C47.1912 60.2715 50.9825 64.0474 55.5933 64.0474ZM55.5933 68.0474C62.4427 68.0474 67.9953 62.4509 67.9953 55.5474C67.9953 48.6438 62.4427 43.0474 55.5933 43.0474C48.7438 43.0474 43.1912 48.6438 43.1912 55.5474C43.1912 62.4509 48.7438 68.0474 55.5933 68.0474Z" fill="url(#paint0_linear_16_43)"/>
<path fill-rule="evenodd" clip-rule="evenodd" d="M55.5933 64.0474C60.204 64.0474 63.9953 60.2715 63.9953 55.5474C63.9953 50.8232 60.204 47.0474 55.5933 47.0474C50.9825 47.0474 47.1912 50.8232 47.1912 55.5474C47.1912 60.2715 50.9825 64.0474 55.5933 64.0474ZM55.5933 68.0474C62.4427 68.0474 67.9953 62.4509 67.9953 55.5474C67.9953 48.6438 62.4427 43.0474 55.5933 43.0474C48.7438 43.0474 43.1912 48.6438 43.1912 55.5474C43.1912 62.4509 48.7438 68.0474 55.5933 68.0474Z" stroke="#29FFA5" stroke-linecap="round"/>
</g>
<g filter="url(#filter1_ddd_16_43)">
<path fill-rule="evenodd" clip-rule="evenodd" d="M96.3975 64.0474C101.008 64.0474 104.8 60.2715 104.8 55.5474C104.8 50.8232 101.008 47.0474 96.3975 47.0474C91.7867 47.0474 87.9954 50.8232 87.9954 55.5474C87.9954 60.2715 91.7867 64.0474 96.3975 64.0474ZM96.3975 68.0474C103.247 68.0474 108.8 62.4509 108.8 55.5474C108.8 48.6438 103.247 43.0474 96.3975 43.0474C89.548 43.0474 83.9954 48.6438 83.9954 55.5474C83.9954 62.4509 89.548 68.0474 96.3975 68.0474Z" fill="url(#paint1_linear_16_43)"/>
<path fill-rule="evenodd" clip-rule="evenodd" d="M96.3975 64.0474C101.008 64.0474 104.8 60.2715 104.8 55.5474C104.8 50.8232 101.008 47.0474 96.3975 47.0474C91.7867 47.0474 87.9954 50.8232 87.9954 55.5474C87.9954 60.2715 91.7867 64.0474 96.3975 64.0474ZM96.3975 68.0474C103.247 68.0474 108.8 62.4509 108.8 55.5474C108.8 48.6438 103.247 43.0474 96.3975 43.0474C89.548 43.0474 83.9954 48.6438 83.9954 55.5474C83.9954 62.4509 89.548 68.0474 96.3975 68.0474Z" stroke="#29FFA5" stroke-linecap="round"/>
</g>
<g filter="url(#filter2_ddd_16_43)">
<path fill-rule="evenodd" clip-rule="evenodd" d="M137.202 64.0474C141.812 64.0474 145.604 60.2715 145.604 55.5474C145.604 50.8232 141.812 47.0474 137.202 47.0474C132.591 47.0474 128.8 50.8232 128.8 55.5474C128.8 60.2715 132.591 64.0474 137.202 64.0474ZM137.202 68.0474C144.051 68.0474 149.604 62.4509 149.604 55.5474C149.604 48.6438 144.051 43.0474 137.202 43.0474C130.352 43.0474 124.8 48.6438 124.8 55.5474C124.8 62.4509 130.352 68.0474 137.202 68.0474Z" fill="url(#paint2_linear_16_43)"/>
<path fill-rule="evenodd" clip-rule="evenodd" d="M137.202 64.0474C141.812 64.0474 145.604 60.2715 145.604 55.5474C145.604 50.8232 141.812 47.0474 137.202 47.0474C132.591 47.0474 128.8 50.8232 128.8 55.5474C128.8 60.2715 132.591 64.0474 137.202 64.0474ZM137.202 68.0474C144.051 68.0474 149.604 62.4509 149.604 55.5474C149.604 48.6438 144.051 43.0474 137.202 43.0474C130.352 43.0474 124.8 48.6438 124.8 55.5474C124.8 62.4509 130.352 68.0474 137.202 68.0474Z" stroke="#29FFA5" stroke-linecap="round"/>
</g>
<defs>
<filter id="filter0_ddd_16_43" x="0.691162" y="0.547363" width="109.804" height="110" filterUnits="userSpaceOnUse" color-interpolation-filters="sRGB">
<feFlood flood-opacity="0" result="BackgroundImageFix"/>
<feColorMatrix in="SourceAlpha" type="matrix" values="0 0 0 0 0 0 0 0 0 0 0 0 0 0 0 0 0 0 127 0" result="hardAlpha"/>
<feOffset/>
<feGaussianBlur stdDeviation="21"/>
<feComposite in2="hardAlpha" operator="out"/>
<feColorMatrix type="matrix" values="0 0 0 0 0.160784 0 0 0 0 1 0 0 0 0 0.647059 0 0 0 1 0"/>
<feBlend mode="normal" in2="BackgroundImageFix" result="effect1_dropShadow_16_43"/>
<feColorMatrix in="SourceAlpha" type="matrix" values="0 0 0 0 0 0 0 0 0 0 0 0 0 0 0 0 0 0 127 0" result="hardAlpha"/>
<feOffset/>
<feGaussianBlur stdDeviation="20"/>
<feComposite in2="hardAlpha" operator="out"/>
<feColorMatrix type="matrix" values="0 0 0 0 0.160784 0 0 0 0 1 0 0 0 0 0.647059 0 0 0 0.8 0"/>
<feBlend mode="normal" in2="effect1_dropShadow_16_43" result="effect2_dropShadow_16_43"/>
<feColorMatrix in="SourceAlpha" type="matrix" values="0 0 0 0 0 0 0 0 0 0 0 0 0 0 0 0 0 0 127 0" result="hardAlpha"/>
<feOffset/>
<feGaussianBlur stdDeviation="7"/>
<feComposite in2="hardAlpha" operator="out"/>
<feColorMatrix type="matrix" values="0 0 0 0 0.160784 0 0 0 0 1 0 0 0 0 0.647059 0 0 0 1 0"/>
<feBlend mode="normal" in2="effect2_dropShadow_16_43" result="effect3_dropShadow_16_43"/>
<feBlend mode="normal" in="SourceGraphic" in2="effect3_dropShadow_16_43" result="shape"/>
</filter>
<filter id="filter1_ddd_16_43" x="41.4954" y="0.547363" width="109.804" height="110" filterUnits="userSpaceOnUse" color-interpolation-filters="sRGB">
<feFlood flood-opacity="0" result="BackgroundImageFix"/>
<feColorMatrix in="SourceAlpha" type="matrix" values="0 0 0 0 0 0 0 0 0 0 0 0 0 0 0 0 0 0 127 0" result="hardAlpha"/>
<feOffset/>
<feGaussianBlur stdDeviation="21"/>
<feComposite in2="hardAlpha" operator="out"/>
<feColorMatrix type="matrix" values="0 0 0 0 0.160784 0 0 0 0 1 0 0 0 0 0.647059 0 0 0 1 0"/>
<feBlend mode="normal" in2="BackgroundImageFix" result="effect1_dropShadow_16_43"/>
<feColorMatrix in="SourceAlpha" type="matrix" values="0 0 0 0 0 0 0 0 0 0 0 0 0 0 0 0 0 0 127 0" result="hardAlpha"/>
<feOffset/>
<feGaussianBlur stdDeviation="20"/>
<feComposite in2="hardAlpha" operator="out"/>
<feColorMatrix type="matrix" values="0 0 0 0 0.160784 0 0 0 0 1 0 0 0 0 0.647059 0 0 0 0.8 0"/>
<feBlend mode="normal" in2="effect1_dropShadow_16_43" result="effect2_dropShadow_16_43"/>
<feColorMatrix in="SourceAlpha" type="matrix" values="0 0 0 0 0 0 0 0 0 0 0 0 0 0 0 0 0 0 127 0" result="hardAlpha"/>
<feOffset/>
<feGaussianBlur stdDeviation="7"/>
<feComposite in2="hardAlpha" operator="out"/>
<feColorMatrix type="matrix" values="0 0 0 0 0.160784 0 0 0 0 1 0 0 0 0 0.647059 0 0 0 1 0"/>
<feBlend mode="normal" in2="effect2_dropShadow_16_43" result="effect3_dropShadow_16_43"/>
<feBlend mode="normal" in="SourceGraphic" in2="effect3_dropShadow_16_43" result="shape"/>
</filter>
<filter id="filter2_ddd_16_43" x="82.2996" y="0.547363" width="109.804" height="110" filterUnits="userSpaceOnUse" color-interpolation-filters="sRGB">
<feFlood flood-opacity="0" result="BackgroundImageFix"/>
<feColorMatrix in="SourceAlpha" type="matrix" values="0 0 0 0 0 0 0 0 0 0 0 0 0 0 0 0 0 0 127 0" result="hardAlpha"/>
<feOffset/>
<feGaussianBlur stdDeviation="21"/>
<feComposite in2="hardAlpha" operator="out"/>
<feColorMatrix type="matrix" values="0 0 0 0 0.160784 0 0 0 0 1 0 0 0 0 0.647059 0 0 0 1 0"/>
<feBlend mode="normal" in2="BackgroundImageFix" result="effect1_dropShadow_16_43"/>
<feColorMatrix in="SourceAlpha" type="matrix" values="0 0 0 0 0 0 0 0 0 0 0 0 0 0 0 0 0 0 127 0" result="hardAlpha"/>
<feOffset/>
<feGaussianBlur stdDeviation="20"/>
<feComposite in2="hardAlpha" operator="out"/>
<feColorMatrix type="matrix" values="0 0 0 0 0.160784 0 0 0 0 1 0 0 0 0 0.647059 0 0 0 0.8 0"/>
<feBlend mode="normal" in2="effect1_dropShadow_16_43" result="effect2_dropShadow_16_43"/>
<feColorMatrix in="SourceAlpha" type="matrix" values="0 0 0 0 0 0 0 0 0 0 0 0 0 0 0 0 0 0 127 0" result="hardAlpha"/>
<feOffset/>
<feGaussianBlur stdDeviation="7"/>
<feComposite in2="hardAlpha" operator="out"/>
<feColorMatrix type="matrix" values="0 0 0 0 0.160784 0 0 0 0 1 0 0 0 0 0.647059 0 0 0 1 0"/>
<feBlend mode="normal" in2="effect2_dropShadow_16_43" result="effect3_dropShadow_16_43"/>
<feBlend mode="normal" in="SourceGraphic" in2="effect3_dropShadow_16_43" result="shape"/>
</filter>
<linearGradient id="paint0_linear_16_43" x1="55.5933" y1="43.261" x2="55.5933" y2="67.8337" gradientUnits="userSpaceOnUse">
<stop stop-color="white"/>
<stop offset="0.375" stop-color="white"/>
<stop offset="0.692708" stop-color="#DAFFE6"/>
<stop offset="1" stop-color="white"/>
</linearGradient>
<linearGradient id="paint1_linear_16_43" x1="96.3975" y1="43.261" x2="96.3975" y2="67.8337" gradientUnits="userSpaceOnUse">
<stop stop-color="white"/>
<stop offset="0.375" stop-color="white"/>
<stop offset="0.692708" stop-color="#DAFFE6"/>
<stop offset="1" stop-color="white"/>
</linearGradient>
<linearGradient id="paint2_linear_16_43" x1="137.202" y1="43.261" x2="137.202" y2="67.8337" gradientUnits="userSpaceOnUse">
<stop stop-color="white"/>
<stop offset="0.375" stop-color="white"/>
<stop offset="0.692708" stop-color="#DAFFE6"/>
<stop offset="1" stop-color="white"/>
</linearGradient>
</defs>
</svg>
