<svg width="100%" viewBox="0 0 150 124" fill="none" xmlns="http://www.w3.org/2000/svg">
<g filter="url(#filter0_ddd_27_14)">
<path fill-rule="evenodd" clip-rule="evenodd" d="M67.8084 42.6252C68.1879 42.8645 68.3017 43.3662 68.0624 43.7458L44.4999 81.1207C44.2606 81.5003 43.7589 81.614 43.3793 81.3747C42.9997 81.1354 42.886 80.6337 43.1253 80.2541L66.6877 42.8792C66.927 42.4996 67.4288 42.3859 67.8084 42.6252Z" fill="url(#paint0_linear_27_14)"/>
<path fill-rule="evenodd" clip-rule="evenodd" d="M67.8084 42.6252C68.1879 42.8645 68.3017 43.3662 68.0624 43.7458L44.4999 81.1207C44.2606 81.5003 43.7589 81.614 43.3793 81.3747C42.9997 81.1354 42.886 80.6337 43.1253 80.2541L66.6877 42.8792C66.927 42.4996 67.4288 42.3859 67.8084 42.6252Z" stroke="#D325FF" stroke-linecap="round"/>
</g>
<g filter="url(#filter1_ddd_27_14)">
<path fill-rule="evenodd" clip-rule="evenodd" d="M87.3084 42.625C87.6879 42.8644 87.8017 43.3661 87.5624 43.7457L63.9999 81.1206C63.7606 81.5002 63.2589 81.6139 62.8793 81.3746C62.4997 81.1353 62.386 80.6336 62.6253 80.254L86.1877 42.8791C86.427 42.4995 86.9288 42.3857 87.3084 42.625Z" fill="url(#paint1_linear_27_14)"/>
<path fill-rule="evenodd" clip-rule="evenodd" d="M87.3084 42.625C87.6879 42.8644 87.8017 43.3661 87.5624 43.7457L63.9999 81.1206C63.7606 81.5002 63.2589 81.6139 62.8793 81.3746C62.4997 81.1353 62.386 80.6336 62.6253 80.254L86.1877 42.8791C86.427 42.4995 86.9288 42.3857 87.3084 42.625Z" stroke="#29FFA5" stroke-linecap="round"/>
</g>
<g filter="url(#filter2_ddd_27_14)">
<path fill-rule="evenodd" clip-rule="evenodd" d="M106.808 42.625C107.188 42.8644 107.302 43.3661 107.062 43.7457L83.4999 81.1206C83.2606 81.5002 82.7589 81.6139 82.3793 81.3746C81.9997 81.1353 81.886 80.6336 82.1253 80.254L105.688 42.8791C105.927 42.4995 106.429 42.3857 106.808 42.625Z" fill="url(#paint2_linear_27_14)"/>
<path fill-rule="evenodd" clip-rule="evenodd" d="M106.808 42.625C107.188 42.8644 107.302 43.3661 107.062 43.7457L83.4999 81.1206C83.2606 81.5002 82.7589 81.6139 82.3793 81.3746C81.9997 81.1353 81.886 80.6336 82.1253 80.254L105.688 42.8791C105.927 42.4995 106.429 42.3857 106.808 42.625Z" stroke="#D325FF" stroke-linecap="round"/>
</g>
<defs>
<filter id="filter0_ddd_27_14" x="0.5" y="-0.000244141" width="110.188" height="124" filterUnits="userSpaceOnUse" color-interpolation-filters="sRGB">
<feFlood flood-opacity="0" result="BackgroundImageFix"/>
<feColorMatrix in="SourceAlpha" type="matrix" values="0 0 0 0 0 0 0 0 0 0 0 0 0 0 0 0 0 0 127 0" result="hardAlpha"/>
<feOffset/>
<feGaussianBlur stdDeviation="21"/>
<feComposite in2="hardAlpha" operator="out"/>
<feColorMatrix type="matrix" values="0 0 0 0 0.827451 0 0 0 0 0.145098 0 0 0 0 1 0 0 0 1 0"/>
<feBlend mode="normal" in2="BackgroundImageFix" result="effect1_dropShadow_27_14"/>
<feColorMatrix in="SourceAlpha" type="matrix" values="0 0 0 0 0 0 0 0 0 0 0 0 0 0 0 0 0 0 127 0" result="hardAlpha"/>
<feOffset/>
<feGaussianBlur stdDeviation="7.5"/>
<feComposite in2="hardAlpha" operator="out"/>
<feColorMatrix type="matrix" values="0 0 0 0 0.827451 0 0 0 0 0.145098 0 0 0 0 1 0 0 0 0.8 0"/>
<feBlend mode="normal" in2="effect1_dropShadow_27_14" result="effect2_dropShadow_27_14"/>
<feColorMatrix in="SourceAlpha" type="matrix" values="0 0 0 0 0 0 0 0 0 0 0 0 0 0 0 0 0 0 127 0" result="hardAlpha"/>
<feOffset/>
<feGaussianBlur stdDeviation="2"/>
<feComposite in2="hardAlpha" operator="out"/>
<feColorMatrix type="matrix" values="0 0 0 0 0.829167 0 0 0 0 0.145833 0 0 0 0 1 0 0 0 1 0"/>
<feBlend mode="normal" in2="effect2_dropShadow_27_14" result="effect3_dropShadow_27_14"/>
<feBlend mode="normal" in="SourceGraphic" in2="effect3_dropShadow_27_14" result="shape"/>
</filter>
<filter id="filter1_ddd_27_14" x="20" y="-0.000366211" width="110.188" height="124" filterUnits="userSpaceOnUse" color-interpolation-filters="sRGB">
<feFlood flood-opacity="0" result="BackgroundImageFix"/>
<feColorMatrix in="SourceAlpha" type="matrix" values="0 0 0 0 0 0 0 0 0 0 0 0 0 0 0 0 0 0 127 0" result="hardAlpha"/>
<feOffset/>
<feGaussianBlur stdDeviation="21"/>
<feComposite in2="hardAlpha" operator="out"/>
<feColorMatrix type="matrix" values="0 0 0 0 0.160784 0 0 0 0 1 0 0 0 0 0.647059 0 0 0 1 0"/>
<feBlend mode="normal" in2="BackgroundImageFix" result="effect1_dropShadow_27_14"/>
<feColorMatrix in="SourceAlpha" type="matrix" values="0 0 0 0 0 0 0 0 0 0 0 0 0 0 0 0 0 0 127 0" result="hardAlpha"/>
<feOffset/>
<feGaussianBlur stdDeviation="20"/>
<feComposite in2="hardAlpha" operator="out"/>
<feColorMatrix type="matrix" values="0 0 0 0 0.160784 0 0 0 0 1 0 0 0 0 0.647059 0 0 0 0.8 0"/>
<feBlend mode="normal" in2="effect1_dropShadow_27_14" result="effect2_dropShadow_27_14"/>
<feColorMatrix in="SourceAlpha" type="matrix" values="0 0 0 0 0 0 0 0 0 0 0 0 0 0 0 0 0 0 127 0" result="hardAlpha"/>
<feOffset/>
<feGaussianBlur stdDeviation="7"/>
<feComposite in2="hardAlpha" operator="out"/>
<feColorMatrix type="matrix" values="0 0 0 0 0.160784 0 0 0 0 1 0 0 0 0 0.647059 0 0 0 1 0"/>
<feBlend mode="normal" in2="effect2_dropShadow_27_14" result="effect3_dropShadow_27_14"/>
<feBlend mode="normal" in="SourceGraphic" in2="effect3_dropShadow_27_14" result="shape"/>
</filter>
<filter id="filter2_ddd_27_14" x="39.5" y="-0.000366211" width="110.188" height="124" filterUnits="userSpaceOnUse" color-interpolation-filters="sRGB">
<feFlood flood-opacity="0" result="BackgroundImageFix"/>
<feColorMatrix in="SourceAlpha" type="matrix" values="0 0 0 0 0 0 0 0 0 0 0 0 0 0 0 0 0 0 127 0" result="hardAlpha"/>
<feOffset/>
<feGaussianBlur stdDeviation="21"/>
<feComposite in2="hardAlpha" operator="out"/>
<feColorMatrix type="matrix" values="0 0 0 0 0.827451 0 0 0 0 0.145098 0 0 0 0 1 0 0 0 1 0"/>
<feBlend mode="normal" in2="BackgroundImageFix" result="effect1_dropShadow_27_14"/>
<feColorMatrix in="SourceAlpha" type="matrix" values="0 0 0 0 0 0 0 0 0 0 0 0 0 0 0 0 0 0 127 0" result="hardAlpha"/>
<feOffset/>
<feGaussianBlur stdDeviation="7.5"/>
<feComposite in2="hardAlpha" operator="out"/>
<feColorMatrix type="matrix" values="0 0 0 0 0.827451 0 0 0 0 0.145098 0 0 0 0 1 0 0 0 0.8 0"/>
<feBlend mode="normal" in2="effect1_dropShadow_27_14" result="effect2_dropShadow_27_14"/>
<feColorMatrix in="SourceAlpha" type="matrix" values="0 0 0 0 0 0 0 0 0 0 0 0 0 0 0 0 0 0 127 0" result="hardAlpha"/>
<feOffset/>
<feGaussianBlur stdDeviation="2"/>
<feComposite in2="hardAlpha" operator="out"/>
<feColorMatrix type="matrix" values="0 0 0 0 0.829167 0 0 0 0 0.145833 0 0 0 0 1 0 0 0 1 0"/>
<feBlend mode="normal" in2="effect2_dropShadow_27_14" result="effect3_dropShadow_27_14"/>
<feBlend mode="normal" in="SourceGraphic" in2="effect3_dropShadow_27_14" result="shape"/>
</filter>
<linearGradient id="paint0_linear_27_14" x1="55.5938" y1="42.8332" x2="55.5938" y2="81.1667" gradientUnits="userSpaceOnUse">
<stop stop-color="white"/>
<stop offset="0.375" stop-color="white"/>
<stop offset="0.692708" stop-color="#E3BFFF"/>
<stop offset="1" stop-color="#E3BFFF"/>
</linearGradient>
<linearGradient id="paint1_linear_27_14" x1="75.0938" y1="42.8331" x2="75.0938" y2="81.1665" gradientUnits="userSpaceOnUse">
<stop stop-color="white"/>
<stop offset="0.375" stop-color="white"/>
<stop offset="0.692708" stop-color="#DAFFE6"/>
<stop offset="1" stop-color="white"/>
</linearGradient>
<linearGradient id="paint2_linear_27_14" x1="94.5938" y1="42.8331" x2="94.5938" y2="81.1665" gradientUnits="userSpaceOnUse">
<stop stop-color="white"/>
<stop offset="0.375" stop-color="white"/>
<stop offset="0.692708" stop-color="#E3BFFF"/>
<stop offset="1" stop-color="#E3BFFF"/>
</linearGradient>
</defs>
</svg>
