<svg width="100%" viewBox="0 0 224 121" fill="none" xmlns="http://www.w3.org/2000/svg">
<g filter="url(#filter0_ddd_16_39)">
<path fill-rule="evenodd" clip-rule="evenodd" d="M59.8961 42.0474L59.0416 46.986C59.0239 47.0882 59.0053 47.19 58.9856 47.2914C58.8257 48.1152 58.5997 48.9143 58.3135 49.6829C56.8029 53.7401 53.6126 56.9493 49.5831 58.4635C48.8327 58.7455 48.0533 58.9687 47.2501 59.1276C47.1462 59.1482 47.0418 59.1677 46.9371 59.1861L42.0371 60.0474L46.9371 60.9086C47.0418 60.927 47.1462 60.9465 47.2501 60.9671C48.0533 61.126 48.8327 61.3492 49.5831 61.6312C53.6126 63.1454 56.8029 66.3547 58.3135 70.4118C58.5997 71.1805 58.8257 71.9795 58.9856 72.8033C59.0053 72.9047 59.0239 73.0065 59.0416 73.1087L59.8961 78.0474L60.7506 73.1087C60.7683 73.0065 60.787 72.9047 60.8067 72.8033C60.9666 71.9795 61.1925 71.1805 61.4787 70.4118C62.9893 66.3547 66.1797 63.1454 70.2092 61.6312C70.9595 61.3492 71.739 61.126 72.5421 60.9671C72.646 60.9465 72.7504 60.927 72.8551 60.9086L77.7551 60.0474L72.8551 59.1861C72.7504 59.1677 72.646 59.1482 72.5421 59.1276C71.739 58.9687 70.9595 58.7455 70.2092 58.4635C66.1797 56.9493 62.9893 53.7401 61.4787 49.6829C61.1925 48.9143 60.9666 48.1152 60.8067 47.2914C60.787 47.19 60.7683 47.0882 60.7506 46.986L59.8961 42.0474ZM59.8961 53.3598C58.3108 56.1428 56.0099 58.4558 53.2378 60.0474C56.0099 61.6389 58.3108 63.9519 59.8961 66.735C61.4814 63.9519 63.7824 61.6389 66.5545 60.0474C63.7824 58.4558 61.4814 56.1428 59.8961 53.3598Z" fill="url(#paint0_linear_16_39)"/>
<path d="M53.1133 59.8306L52.7357 60.0474L53.1133 60.2642C55.8465 61.8334 58.1155 64.1142 59.6789 66.8587L59.8961 67.2401L60.1133 66.8587C61.6767 64.1142 63.9457 61.8334 66.6789 60.2642L67.0566 60.0474L66.6789 59.8306C63.9457 58.2613 61.6767 55.9805 60.1133 53.236L59.8961 52.8547L59.6789 53.236C58.1155 55.9805 55.8465 58.2613 53.1133 59.8306ZM59.288 47.0287L59.8961 43.5137L60.5043 47.0287C60.5222 47.1325 60.5412 47.236 60.5612 47.3391C60.7238 48.1764 60.9534 48.9887 61.2444 49.7702C62.7801 53.8946 66.0235 57.1577 70.1212 58.6976C70.8843 58.9843 71.6769 59.2113 72.4936 59.3729C72.5993 59.3938 72.7054 59.4136 72.8118 59.4323L76.311 60.0474L72.8118 60.6624C72.7054 60.6811 72.5993 60.7009 72.4936 60.7218C71.6769 60.8835 70.8843 61.1104 70.1212 61.3972C66.0235 62.937 62.7801 66.2001 61.2444 70.3246C60.9534 71.106 60.7238 71.9183 60.5613 72.7556C60.5412 72.8587 60.5222 72.9622 60.5043 73.0661L59.8961 76.581L59.288 73.0661C59.27 72.9622 59.251 72.8587 59.231 72.7556C59.0684 71.9183 58.8388 71.106 58.5478 70.3246C57.0121 66.2001 53.7687 62.937 49.671 61.3972C48.9079 61.1104 48.1153 60.8835 47.2987 60.7218C47.193 60.7009 47.0869 60.6811 46.9804 60.6624L43.4813 60.0474L46.9804 59.4323C47.0869 59.4136 47.193 59.3938 47.2987 59.3729C48.1153 59.2113 48.9079 58.9843 49.671 58.6976C53.7687 57.1577 57.0121 53.8946 58.5478 49.7702C58.8388 48.9887 59.0684 48.1764 59.231 47.3391C59.251 47.236 59.27 47.1325 59.288 47.0287Z" stroke="#D325FF" stroke-width="0.5" stroke-linecap="round"/>
</g>
<g filter="url(#filter1_ddd_16_39)">
<path fill-rule="evenodd" clip-rule="evenodd" d="M111.614 42.0474L110.76 46.986C110.742 47.0882 110.723 47.19 110.704 47.2914C110.544 48.1152 110.318 48.9143 110.032 49.6829C108.521 53.7401 105.331 56.9493 101.301 58.4635C100.551 58.7455 99.7713 58.9687 98.9682 59.1276C98.8642 59.1482 98.7599 59.1677 98.6551 59.1861L93.7551 60.0474L98.6551 60.9086C98.7599 60.927 98.8642 60.9465 98.9682 60.9671C99.7713 61.126 100.551 61.3492 101.301 61.6312C105.331 63.1454 108.521 66.3547 110.032 70.4118C110.318 71.1805 110.544 71.9795 110.704 72.8033C110.723 72.9047 110.742 73.0065 110.76 73.1087L111.614 78.0474L112.469 73.1087C112.486 73.0065 112.505 72.9047 112.525 72.8033C112.685 71.9795 112.911 71.1805 113.197 70.4118C114.707 66.3547 117.898 63.1454 121.927 61.6312C122.678 61.3492 123.457 61.126 124.26 60.9671C124.364 60.9465 124.468 60.927 124.573 60.9086L129.473 60.0474L124.573 59.1861C124.468 59.1677 124.364 59.1482 124.26 59.1276C123.457 58.9687 122.678 58.7455 121.927 58.4635C117.898 56.9493 114.707 53.7401 113.197 49.6829C112.911 48.9143 112.685 48.1152 112.525 47.2914C112.505 47.19 112.486 47.0882 112.469 46.986L111.614 42.0474ZM111.614 53.3598C110.029 56.1428 107.728 58.4558 104.956 60.0474C107.728 61.6389 110.029 63.9519 111.614 66.735C113.199 63.9519 115.5 61.6389 118.272 60.0474C115.5 58.4558 113.199 56.1428 111.614 53.3598Z" fill="url(#paint1_linear_16_39)"/>
<path d="M104.831 59.8306L104.454 60.0474L104.831 60.2642C107.565 61.8334 109.834 64.1142 111.397 66.8587L111.614 67.2401L111.831 66.8587C113.395 64.1142 115.664 61.8334 118.397 60.2642L118.775 60.0474L118.397 59.8306C115.664 58.2613 113.395 55.9805 111.831 53.236L111.614 52.8547L111.397 53.236C109.834 55.9805 107.565 58.2613 104.831 59.8306ZM111.006 47.0287L111.614 43.5137L112.222 47.0287C112.24 47.1325 112.259 47.236 112.279 47.3391C112.442 48.1764 112.671 48.9887 112.962 49.7702C114.498 53.8946 117.742 57.1577 121.839 58.6976C122.602 58.9843 123.395 59.2113 124.212 59.3729C124.317 59.3938 124.423 59.4136 124.53 59.4323L128.029 60.0474L124.53 60.6624C124.423 60.6811 124.317 60.7009 124.212 60.7218C123.395 60.8835 122.602 61.1104 121.839 61.3972C117.742 62.937 114.498 66.2001 112.962 70.3246C112.671 71.106 112.442 71.9183 112.279 72.7556C112.259 72.8587 112.24 72.9622 112.222 73.0661L111.614 76.581L111.006 73.0661C110.988 72.9622 110.969 72.8587 110.949 72.7556C110.786 71.9183 110.557 71.106 110.266 70.3246C108.73 66.2001 105.487 62.937 101.389 61.3972C100.626 61.1104 99.8333 60.8835 99.0167 60.7218C98.911 60.7009 98.8049 60.6811 98.6984 60.6624L95.1993 60.0474L98.6984 59.4323C98.8049 59.4136 98.911 59.3938 99.0167 59.3729C99.8333 59.2113 100.626 58.9843 101.389 58.6976C105.487 57.1577 108.73 53.8946 110.266 49.7702C110.557 48.9887 110.786 48.1764 110.949 47.3391C110.969 47.236 110.988 47.1325 111.006 47.0287Z" stroke="#D325FF" stroke-width="0.5" stroke-linecap="round"/>
</g>
<g filter="url(#filter2_ddd_16_39)">
<path fill-rule="evenodd" clip-rule="evenodd" d="M163.332 42.0474L162.478 46.986C162.46 47.0882 162.441 47.19 162.422 47.2914C162.262 48.1152 162.036 48.9143 161.75 49.6829C160.239 53.7401 157.049 56.9493 153.019 58.4635C152.269 58.7455 151.489 58.9687 150.686 59.1276C150.582 59.1482 150.478 59.1677 150.373 59.1861L145.473 60.0474L150.373 60.9086C150.478 60.927 150.582 60.9465 150.686 60.9671C151.489 61.126 152.269 61.3492 153.019 61.6312C157.049 63.1454 160.239 66.3547 161.75 70.4118C162.036 71.1805 162.262 71.9795 162.422 72.8033C162.441 72.9047 162.46 73.0065 162.478 73.1087L163.332 78.0474L164.187 73.1087C164.204 73.0065 164.223 72.9047 164.243 72.8033C164.403 71.9795 164.629 71.1805 164.915 70.4118C166.425 66.3547 169.616 63.1454 173.645 61.6312C174.396 61.3492 175.175 61.126 175.978 60.9671C176.082 60.9465 176.186 60.927 176.291 60.9086L181.191 60.0474L176.291 59.1861C176.186 59.1677 176.082 59.1482 175.978 59.1276C175.175 58.9687 174.396 58.7455 173.645 58.4635C169.616 56.9493 166.425 53.7401 164.915 49.6829C164.629 48.9143 164.403 48.1152 164.243 47.2914C164.223 47.19 164.204 47.0882 164.187 46.986L163.332 42.0474ZM163.332 53.3598C161.747 56.1428 159.446 58.4558 156.674 60.0474C159.446 61.6389 161.747 63.9519 163.332 66.735C164.917 63.9519 167.218 61.6389 169.99 60.0474C167.218 58.4558 164.917 56.1428 163.332 53.3598Z" fill="url(#paint2_linear_16_39)"/>
<path d="M156.549 59.8306L156.172 60.0474L156.549 60.2642C159.283 61.8334 161.552 64.1142 163.115 66.8587L163.332 67.2401L163.549 66.8587C165.113 64.1142 167.382 61.8334 170.115 60.2642L170.493 60.0474L170.115 59.8306C167.382 58.2613 165.113 55.9805 163.549 53.236L163.332 52.8547L163.115 53.236C161.552 55.9805 159.283 58.2613 156.549 59.8306ZM162.724 47.0287L163.332 43.5137L163.94 47.0287C163.958 47.1325 163.977 47.236 163.997 47.3391C164.16 48.1764 164.389 48.9887 164.68 49.7702C166.216 53.8946 169.46 57.1577 173.557 58.6976C174.32 58.9843 175.113 59.2113 175.93 59.3729C176.035 59.3938 176.141 59.4136 176.248 59.4323L179.747 60.0474L176.248 60.6624C176.141 60.6811 176.035 60.7009 175.93 60.7218C175.113 60.8835 174.32 61.1104 173.557 61.3972C169.46 62.937 166.216 66.2001 164.68 70.3246C164.389 71.106 164.16 71.9183 163.997 72.7556C163.977 72.8587 163.958 72.9622 163.94 73.0661L163.332 76.581L162.724 73.0661C162.706 72.9622 162.687 72.8587 162.667 72.7556C162.504 71.9183 162.275 71.106 161.984 70.3246C160.448 66.2001 157.205 62.937 153.107 61.3972C152.344 61.1104 151.551 60.8835 150.735 60.7218C150.629 60.7009 150.523 60.6811 150.416 60.6624L146.917 60.0474L150.416 59.4323C150.523 59.4136 150.629 59.3938 150.735 59.3729C151.551 59.2113 152.344 58.9843 153.107 58.6976C157.205 57.1577 160.448 53.8946 161.984 49.7702C162.275 48.9887 162.504 48.1764 162.667 47.3391C162.687 47.236 162.706 47.1325 162.724 47.0287Z" stroke="#D325FF" stroke-width="0.5" stroke-linecap="round"/>
</g>
<defs>
<filter id="filter0_ddd_16_39" x="0.0371094" y="0.0473633" width="119.718" height="120" filterUnits="userSpaceOnUse" color-interpolation-filters="sRGB">
<feFlood flood-opacity="0" result="BackgroundImageFix"/>
<feColorMatrix in="SourceAlpha" type="matrix" values="0 0 0 0 0 0 0 0 0 0 0 0 0 0 0 0 0 0 127 0" result="hardAlpha"/>
<feOffset/>
<feGaussianBlur stdDeviation="21"/>
<feComposite in2="hardAlpha" operator="out"/>
<feColorMatrix type="matrix" values="0 0 0 0 0.827451 0 0 0 0 0.145098 0 0 0 0 1 0 0 0 1 0"/>
<feBlend mode="normal" in2="BackgroundImageFix" result="effect1_dropShadow_16_39"/>
<feColorMatrix in="SourceAlpha" type="matrix" values="0 0 0 0 0 0 0 0 0 0 0 0 0 0 0 0 0 0 127 0" result="hardAlpha"/>
<feOffset/>
<feGaussianBlur stdDeviation="7.5"/>
<feComposite in2="hardAlpha" operator="out"/>
<feColorMatrix type="matrix" values="0 0 0 0 0.827451 0 0 0 0 0.145098 0 0 0 0 1 0 0 0 0.8 0"/>
<feBlend mode="normal" in2="effect1_dropShadow_16_39" result="effect2_dropShadow_16_39"/>
<feColorMatrix in="SourceAlpha" type="matrix" values="0 0 0 0 0 0 0 0 0 0 0 0 0 0 0 0 0 0 127 0" result="hardAlpha"/>
<feOffset/>
<feGaussianBlur stdDeviation="2"/>
<feComposite in2="hardAlpha" operator="out"/>
<feColorMatrix type="matrix" values="0 0 0 0 0.829167 0 0 0 0 0.145833 0 0 0 0 1 0 0 0 1 0"/>
<feBlend mode="normal" in2="effect2_dropShadow_16_39" result="effect3_dropShadow_16_39"/>
<feBlend mode="normal" in="SourceGraphic" in2="effect3_dropShadow_16_39" result="shape"/>
</filter>
<filter id="filter1_ddd_16_39" x="51.7551" y="0.0473633" width="119.718" height="120" filterUnits="userSpaceOnUse" color-interpolation-filters="sRGB">
<feFlood flood-opacity="0" result="BackgroundImageFix"/>
<feColorMatrix in="SourceAlpha" type="matrix" values="0 0 0 0 0 0 0 0 0 0 0 0 0 0 0 0 0 0 127 0" result="hardAlpha"/>
<feOffset/>
<feGaussianBlur stdDeviation="21"/>
<feComposite in2="hardAlpha" operator="out"/>
<feColorMatrix type="matrix" values="0 0 0 0 0.827451 0 0 0 0 0.145098 0 0 0 0 1 0 0 0 1 0"/>
<feBlend mode="normal" in2="BackgroundImageFix" result="effect1_dropShadow_16_39"/>
<feColorMatrix in="SourceAlpha" type="matrix" values="0 0 0 0 0 0 0 0 0 0 0 0 0 0 0 0 0 0 127 0" result="hardAlpha"/>
<feOffset/>
<feGaussianBlur stdDeviation="7.5"/>
<feComposite in2="hardAlpha" operator="out"/>
<feColorMatrix type="matrix" values="0 0 0 0 0.827451 0 0 0 0 0.145098 0 0 0 0 1 0 0 0 0.8 0"/>
<feBlend mode="normal" in2="effect1_dropShadow_16_39" result="effect2_dropShadow_16_39"/>
<feColorMatrix in="SourceAlpha" type="matrix" values="0 0 0 0 0 0 0 0 0 0 0 0 0 0 0 0 0 0 127 0" result="hardAlpha"/>
<feOffset/>
<feGaussianBlur stdDeviation="2"/>
<feComposite in2="hardAlpha" operator="out"/>
<feColorMatrix type="matrix" values="0 0 0 0 0.829167 0 0 0 0 0.145833 0 0 0 0 1 0 0 0 1 0"/>
<feBlend mode="normal" in2="effect2_dropShadow_16_39" result="effect3_dropShadow_16_39"/>
<feBlend mode="normal" in="SourceGraphic" in2="effect3_dropShadow_16_39" result="shape"/>
</filter>
<filter id="filter2_ddd_16_39" x="103.473" y="0.0473633" width="119.718" height="120" filterUnits="userSpaceOnUse" color-interpolation-filters="sRGB">
<feFlood flood-opacity="0" result="BackgroundImageFix"/>
<feColorMatrix in="SourceAlpha" type="matrix" values="0 0 0 0 0 0 0 0 0 0 0 0 0 0 0 0 0 0 127 0" result="hardAlpha"/>
<feOffset/>
<feGaussianBlur stdDeviation="21"/>
<feComposite in2="hardAlpha" operator="out"/>
<feColorMatrix type="matrix" values="0 0 0 0 0.827451 0 0 0 0 0.145098 0 0 0 0 1 0 0 0 1 0"/>
<feBlend mode="normal" in2="BackgroundImageFix" result="effect1_dropShadow_16_39"/>
<feColorMatrix in="SourceAlpha" type="matrix" values="0 0 0 0 0 0 0 0 0 0 0 0 0 0 0 0 0 0 127 0" result="hardAlpha"/>
<feOffset/>
<feGaussianBlur stdDeviation="7.5"/>
<feComposite in2="hardAlpha" operator="out"/>
<feColorMatrix type="matrix" values="0 0 0 0 0.827451 0 0 0 0 0.145098 0 0 0 0 1 0 0 0 0.8 0"/>
<feBlend mode="normal" in2="effect1_dropShadow_16_39" result="effect2_dropShadow_16_39"/>
<feColorMatrix in="SourceAlpha" type="matrix" values="0 0 0 0 0 0 0 0 0 0 0 0 0 0 0 0 0 0 127 0" result="hardAlpha"/>
<feOffset/>
<feGaussianBlur stdDeviation="2"/>
<feComposite in2="hardAlpha" operator="out"/>
<feColorMatrix type="matrix" values="0 0 0 0 0.829167 0 0 0 0 0.145833 0 0 0 0 1 0 0 0 1 0"/>
<feBlend mode="normal" in2="effect2_dropShadow_16_39" result="effect3_dropShadow_16_39"/>
<feBlend mode="normal" in="SourceGraphic" in2="effect3_dropShadow_16_39" result="shape"/>
</filter>
<linearGradient id="paint0_linear_16_39" x1="59.8961" y1="42.3551" x2="59.8961" y2="77.7397" gradientUnits="userSpaceOnUse">
<stop stop-color="white"/>
<stop offset="0.375" stop-color="white"/>
<stop offset="0.692708" stop-color="#E3BFFF"/>
<stop offset="1" stop-color="#E3BFFF"/>
</linearGradient>
<linearGradient id="paint1_linear_16_39" x1="111.614" y1="42.3551" x2="111.614" y2="77.7397" gradientUnits="userSpaceOnUse">
<stop stop-color="white"/>
<stop offset="0.375" stop-color="white"/>
<stop offset="0.692708" stop-color="#E3BFFF"/>
<stop offset="1" stop-color="#E3BFFF"/>
</linearGradient>
<linearGradient id="paint2_linear_16_39" x1="163.332" y1="42.3551" x2="163.332" y2="77.7397" gradientUnits="userSpaceOnUse">
<stop stop-color="white"/>
<stop offset="0.375" stop-color="white"/>
<stop offset="0.692708" stop-color="#E3BFFF"/>
<stop offset="1" stop-color="#E3BFFF"/>
</linearGradient>
</defs>
</svg>
