<svg width="25" height="24" viewBox="0 0 25 24" fill="none" xmlns="http://www.w3.org/2000/svg">
<path d="M16.75 2C17.1132 4.17921 14.8379 5.83084 13.5658 6.57142C13.1906 6.78988 12.7672 6.5117 12.8319 6.08234C13.0493 4.63878 13.8441 2.00008 16.75 2Z" fill="#1B1B1B"/>
<path d="M9.75 6.5C10.6468 6.5 11.4405 6.69941 12.0445 6.92013C12.8063 7.19855 13.6937 7.19854 14.4555 6.92012C15.0594 6.6994 15.8532 6.5 16.7499 6.5C17.8352 6.5 19.2149 7.08889 20.2499 8.26666C16.75 11 17.75 15.5 21.019 16.6916C19.9753 19.5592 17.9913 21.5 16.2499 21.5C14.7499 21.5 14.75 20.8 13.25 20.8C11.75 20.8 11.75 21.5 10.25 21.5C7.75 21.5 4.75 17.5 4.75 12.5C4.75 8.5 7.75 6.5 9.75 6.5Z" fill="#1B1B1B"/>
</svg>
