<svg width="25" height="24" viewBox="0 0 25 24" fill="none" xmlns="http://www.w3.org/2000/svg">
<path d="M22.0555 10.0415H21.25V10H12.25V14H17.9015C17.077 16.3285 14.8615 18 12.25 18C8.9365 18 6.25 15.3135 6.25 12C6.25 8.6865 8.9365 6 12.25 6C13.7795 6 15.171 6.577 16.2305 7.5195L19.059 4.691C17.273 3.0265 14.884 2 12.25 2C6.7275 2 2.25 6.4775 2.25 12C2.25 17.5225 6.7275 22 12.25 22C17.7725 22 22.25 17.5225 22.25 12C22.25 11.3295 22.181 10.675 22.0555 10.0415Z" fill="#FFC107"/>
<path d="M3.40332 7.3455L6.68882 9.755C7.57782 7.554 9.73082 6 12.2503 6C13.7798 6 15.1713 6.577 16.2308 7.5195L19.0593 4.691C17.2733 3.0265 14.8843 2 12.2503 2C8.40932 2 5.07832 4.1685 3.40332 7.3455Z" fill="#FF3D00"/>
<path d="M12.2502 22C14.8332 22 17.1802 21.0115 18.9547 19.404L15.8597 16.785C14.8219 17.5742 13.5539 18.001 12.2502 18C9.64916 18 7.44066 16.3415 6.60866 14.027L3.34766 16.5395C5.00266 19.778 8.36366 22 12.2502 22Z" fill="#4CAF50"/>
<path d="M22.0555 10.0415H21.25V10H12.25V14H17.9015C17.5071 15.1082 16.7967 16.0766 15.858 16.7855L15.8595 16.7845L18.9545 19.4035C18.7355 19.6025 22.25 17 22.25 12C22.25 11.3295 22.181 10.675 22.0555 10.0415Z" fill="#1976D2"/>
</svg>
