<svg width="23" height="21" viewBox="0 0 23 21" fill="none" xmlns="http://www.w3.org/2000/svg">
<path fill-rule="evenodd" clip-rule="evenodd" d="M16.5606 13.9109L21.2928 18.9491C21.5052 19.1759 21.6239 19.4823 21.623 19.8012C21.6222 20.1202 21.5018 20.4258 21.2882 20.6513L21.2847 20.655C21.0723 20.8772 20.7851 21.0013 20.4861 21C20.1871 20.9986 19.9009 20.8719 19.6904 20.6476L14.9558 15.6058L16.5606 13.9097V13.9109Z" fill="#D3D5DA"/>
<path d="M16.8148 15.4832C13.9417 18.5177 9.28338 18.5177 6.41023 15.4832C3.53709 12.4487 3.53709 7.52885 6.41023 4.49437C9.28338 1.45989 13.9417 1.45989 16.8148 4.49437C19.688 7.52885 19.688 12.4488 16.8148 15.4832Z" fill="#D3D5DA"/>
<path d="M11.2636 8.06697C12.1511 8.06697 12.8706 7.30707 12.8706 6.36967C12.8706 5.43227 12.1511 4.67236 11.2636 4.67236C10.376 4.67236 9.65649 5.43227 9.65649 6.36967C9.65649 7.30707 10.376 8.06697 11.2636 8.06697Z" fill="white"/>
<path fill-rule="evenodd" clip-rule="evenodd" d="M15.8099 14.0739C15.8099 12.8589 15.3529 11.6936 14.5394 10.8345C13.7259 9.97528 12.6226 9.49268 11.4722 9.49268C10.3218 9.49268 9.21847 9.97528 8.405 10.8345C7.59153 11.6936 7.13452 12.8589 7.13452 14.0739H15.8099Z" fill="white"/>
<path d="M3.67066 3.92357C4.45932 3.92357 5.09865 3.24834 5.09865 2.4154C5.09865 1.58246 4.45932 0.907227 3.67066 0.907227C2.88201 0.907227 2.24268 1.58246 2.24268 2.4154C2.24268 3.24834 2.88201 3.92357 3.67066 3.92357Z" fill="#D3D5DA"/>
<path fill-rule="evenodd" clip-rule="evenodd" d="M5.73044 5.70496C5.14357 5.35995 4.48155 5.18285 3.80994 5.1912C3.13833 5.19955 2.48043 5.39307 1.90142 5.75259C1.32241 6.1121 0.842381 6.62514 0.50887 7.24088C0.175359 7.85663 -5.57626e-05 8.55371 1.3297e-08 9.2631H4.95521" fill="#D3D5DA"/>
<path d="M19.3301 3.92357C18.5414 3.92357 17.9021 3.24834 17.9021 2.4154C17.9021 1.58246 18.5414 0.907227 19.3301 0.907227C20.1187 0.907227 20.7581 1.58246 20.7581 2.4154C20.7581 3.24834 20.1187 3.92357 19.3301 3.92357Z" fill="#D3D5DA"/>
<path fill-rule="evenodd" clip-rule="evenodd" d="M17.2695 5.70496C17.8563 5.35995 18.5184 5.18285 19.19 5.1912C19.8616 5.19955 20.5195 5.39307 21.0985 5.75259C21.6775 6.1121 22.1575 6.62514 22.491 7.24088C22.8245 7.85663 23 8.55371 22.9999 9.2631H18.0447" fill="#D3D5DA"/>
</svg>
